<svg width="160" height="60" fill="none" xmlns="http://www.w3.org/2000/svg"><path stroke="#fff" d="M.5.5h159v59H.5z"/><path d="M25.358 44.774l-.982-.191-.232 1.19h1.214v-1zm5.453-27.98v-1h-.824l-.158.81.982.19zm30.536 0l.982.19.23-1.19h-1.212v1zm-1.278 6.62v1h.825l.157-.81-.982-.19zm-20.684 0v-1h-.827l-.155.812.982.188zm-.602 3.159l-.982-.188-.226 1.188h1.208v-1zm14.968.639l-.253.967.007.002.007.002.239-.971zm3.76 1.805l-.674.738.005.005.006.005.663-.748zm1.88 2.632l-.933.36.004.008.93-.368zM56.76 42.141l.64.769.001-.001-.64-.767zm-20.232-3.986l-.981-.193-.235 1.193h1.216v-1zm12.222-.677l.6.8-.6-.8zm-11.244-4.287v-1h-.822l-.16.807.982.193zM26.339 44.965l5.453-27.979-1.963-.383-5.453 27.98 1.963.382zm4.472-27.17h30.536v-2H30.811v2zm29.554-1.19l-1.278 6.619 1.963.38 1.28-6.62-1.965-.379zm-.296 5.808H39.385v2H60.07v-2zm-21.666.813l-.602 3.16 1.965.374.602-3.16-1.965-.374zm.38 4.347h8.988v-2h-8.988v2zm8.988 0c2.303 0 4.205.208 5.727.606l.506-1.935c-1.738-.454-3.822-.671-6.233-.671v2zm5.74.61c1.53.376 2.612.92 3.326 1.572l1.35-1.476c-1.042-.952-2.468-1.613-4.197-2.038l-.478 1.942zm3.337 1.582c.772.684 1.298 1.432 1.61 2.243l1.867-.718c-.44-1.144-1.168-2.151-2.15-3.022l-1.327 1.497zm1.614 2.252c.32.81.494 1.796.494 2.98h2c0-1.375-.202-2.62-.634-3.715l-1.86.735zm.494 2.98c0 2.712-.953 4.803-2.838 6.377l1.282 1.535c2.377-1.986 3.556-4.658 3.556-7.913h-2zm-2.837 6.376c-1.84 1.534-4.89 2.4-9.363 2.4v2c4.653 0 8.272-.887 10.643-2.863l-1.28-1.537zm-9.363 2.4H25.358v2h21.398v-2zm-10.229-4.618h9.1v-2h-9.1v2zm9.1 0c1.52 0 2.846-.22 3.722-.877l-1.2-1.6c-.327.245-1.082.477-2.521.477v2zm3.722-.877c.898-.673 1.303-1.66 1.303-2.793h-2c0 .622-.197.964-.503 1.193l1.2 1.6zm1.303-2.793c0-1.035-.39-1.94-1.244-2.54-.79-.553-1.851-.754-3.028-.754v2c1.004 0 1.58.182 1.88.392.235.166.392.408.392.902h2zm-4.272-3.294h-8.875v2h8.875v-2zm-9.856.807l-.978 4.964 1.962.386.978-4.964-1.962-.386zm23.2 11.776l-.98-.191-.233 1.19h1.214v-1zm5.454-27.98v-1h-.824l-.158.81.982.19zm9.439 0l.967-.254-.196-.745h-.771v1zm5.04 19.142l-.968.255.57 2.167 1.233-1.872-.836-.55zm12.597-19.141v-1h-.539l-.296.45.835.55zm10.079 0l.982.19.23-1.19h-1.212v1zm-5.415 27.979v1h.825l.156-.81-.981-.19zm-7.334 0l-.981-.191-.232 1.19h1.213v-1zm3.61-18.54l.982.191-1.82-.736.839.545zM81.16 44.774v1h.544l.295-.456-.838-.544zm-5.866 0l-.967.255.196.745h.77v-1zm-4.889-18.54l.967-.255-1.95.068.983.187zm-3.535 18.54v1h.827l.155-.813-.982-.187zm-6.164.191l5.453-27.979-1.963-.383-5.453 27.98 1.963.382zm4.472-27.17h9.439v-2h-9.44v2zm8.472-.746l5.04 19.142 1.933-.51-5.039-19.14-1.934.508zm6.841 19.437L93.09 17.345l-1.671-1.1-12.598 19.142 1.67 1.1zm11.763-18.691h10.079v-2H92.254v2zm9.097-1.19l-5.415 27.979 1.963.38 5.416-27.98-1.964-.38zm-4.433 27.169h-7.334v2h7.334v-2zm-6.352 1.191l3.61-18.54-1.963-.382-3.61 18.54 1.963.382zm1.79-19.276L80.322 44.23l1.677 1.09 12.034-18.54-1.677-1.09zM81.16 43.775h-5.867v2h5.867v-2zm-4.9.745l-4.889-18.54-1.934.51 4.889 18.54 1.934-.51zm-6.838-18.472l-3.535 18.54 1.964.374 3.535-18.54-1.964-.374zM66.87 43.774h-7.145v2h7.145v-2zm45.201-17.427v1h.858l.13-.849-.988-.151zm-10.718 0l-.989-.15-.175 1.15h1.164v-1zm3.121-5.716l.657.754-.657-.754zm6.356-3.235l.245.97.006-.002-.251-.968zm18.54 12.486l-.214-.977.012 1.956.202-.98zm3.948 2.03l.699-.715-.699.716zm-2.444 11.057l-.495-.869-.004.002.499.867zm-19.706 1.918l.138-.99-.014-.002-.124.992zm-5.001-1.166l.339-.94-.339.94zm-3.836-2.068l-.637.771.01.008.627-.78zm-2.257-3.047l-.925.378.002.007.923-.385zm-.526-4.136v-1h-.907l-.088.902.995.098zm10.718 0l.987.156.183-1.156h-1.17v1zm12.56 3.572l.429.904.01-.005-.439-.899zm.452-4.099l-.46.889.012.006.013.006.435-.9zm-10.229-.564l-.983-.188-.227 1.188h1.21v-1zm1.165-6.092v-1h-.826l-.156.812.982.188zm9.928-.526l-.434-.901-.013.006.447.895zm-12.071-1.414h-10.718v2h10.718v-2zm-9.729 1.15c.316-2.076 1.241-3.766 2.789-5.112l-1.313-1.509c-1.912 1.663-3.068 3.784-3.454 6.32l1.978.301zm2.789-5.112c1.625-1.417 3.599-2.427 5.944-3.019l-.49-1.94c-2.619.662-4.883 1.808-6.768 3.45l1.314 1.509zm5.95-3.02c2.409-.627 5.18-.946 8.323-.946v-2c-3.275 0-6.22.332-8.826 1.01l.503 1.935zm8.323-.946h1.203v-2h-1.203v2zm1.203 0c5.057 0 8.707.592 11.059 1.684 1.163.54 1.966 1.183 2.478 1.897.506.704.769 1.533.769 2.526h2c0-1.375-.374-2.62-1.144-3.692-.763-1.063-1.873-1.9-3.261-2.545-2.75-1.278-6.753-1.87-11.901-1.87v2zm14.306 6.107c0 1.396-.452 2.48-1.332 3.335-.908.882-2.345 1.59-4.425 2.044l.427 1.954c2.283-.499 4.118-1.327 5.391-2.563 1.301-1.264 1.939-2.881 1.939-4.77h-2zm-5.745 7.335c1.41.291 2.549.886 3.452 1.767l1.397-1.431c-1.203-1.174-2.697-1.934-4.445-2.295l-.404 1.96zm3.452 1.767c.832.813 1.278 1.894 1.278 3.346h2c0-1.907-.607-3.534-1.881-4.777l-1.397 1.431zm1.278 3.346c0 2.781-1.154 4.778-3.519 6.126l.99 1.738c3.001-1.71 4.529-4.377 4.529-7.864h-2zm-3.523 6.128c-2.42 1.393-6.497 2.16-12.4 2.16v2c5.981 0 10.503-.76 13.398-2.426l-.998-1.734zm-12.4 2.16h-.903v2h.903v-2zm-.903 0c-2.092 0-4.013-.122-5.766-.366l-.275 1.981c1.857.258 3.872.386 6.041.386v-2zm-5.78-.367c-1.74-.218-3.334-.591-4.786-1.115l-.679 1.882c1.607.58 3.347.983 5.217 1.217l.248-1.984zm-4.786-1.115c-1.448-.522-2.624-1.163-3.548-1.906l-1.254 1.558c1.131.91 2.513 1.649 4.123 2.23l.679-1.882zm-3.539-1.899a6.76 6.76 0 01-1.97-2.66l-1.846.77a8.767 8.767 0 002.543 3.433l1.273-1.543zM101 38.23c-.431-1.056-.594-2.268-.457-3.661l-1.99-.196c-.164 1.665.024 3.211.596 4.612L101 38.23zm-1.452-2.76h10.718v-2H99.548v2zm9.73-1.155c-.137.864-.066 1.697.279 2.449.346.754.93 1.343 1.676 1.783 1.448.855 3.6 1.21 6.291 1.21v-2c-2.599 0-4.302-.358-5.274-.932-.463-.274-.73-.578-.876-.896-.146-.32-.21-.738-.121-1.302l-1.975-.312zm8.246 5.443c2.537 0 4.507-.23 5.731-.811l-.858-1.807c-.781.371-2.346.618-4.873.618v2zm5.741-.816c.634-.31 1.171-.73 1.548-1.29.38-.566.555-1.214.555-1.903h-2c0 .34-.082.588-.215.787-.138.205-.372.417-.765.609l.877 1.797zm2.103-3.193c0-.57-.122-1.12-.417-1.607a2.87 2.87 0 00-1.239-1.098l-.869 1.8c.215.105.329.22.397.332.069.115.128.29.128.573h2zm-1.631-2.693c-.957-.495-2.411-.676-4.182-.676v2c1.738 0 2.766.195 3.263.453l.919-1.777zm-4.182-.676h-6.506v2h6.506v-2zm-5.524 1.188l1.166-6.092-1.965-.376-1.166 6.092 1.965.376zm.183-5.28h6.694v-2h-6.694v2zm6.694 0c1.499 0 2.767-.175 3.682-.632l-.895-1.789c-.489.245-1.377.421-2.787.421v2zm3.669-.626a2.833 2.833 0 001.248-1.132c.29-.5.408-1.064.408-1.649h-2c0 .318-.064.518-.138.645a.837.837 0 01-.387.335l.869 1.801zm1.656-2.78c0-.587-.181-1.132-.549-1.595-.356-.447-.846-.764-1.391-.992-1.069-.448-2.555-.633-4.362-.633v2c1.728 0 2.893.186 3.59.478.339.141.513.286.598.393a.513.513 0 01.114.348h2zm-6.302-3.22c-2.492 0-4.534.311-6.038 1.016-1.554.73-2.563 1.902-2.811 3.518l1.977.303c.129-.84.618-1.51 1.683-2.01 1.116-.523 2.816-.827 5.189-.827v-2z" fill="#fff"/></svg>