<?xml version="1.0" standalone="no"?>
<!DOCTYPE svg PUBLIC "-//W3C//DTD SVG 1.1//EN" "http://www.w3.org/Graphics/SVG/1.1/DTD/svg11.dtd" >
<svg xmlns="http://www.w3.org/2000/svg" xmlns:xlink="http://www.w3.org/1999/xlink" version="1.1">
<metadata>
Created by FontForge 20170731 at Sat Aug  4 06:20:10 2018
 By Aleksey,,,
Copyright (c) 2014 by Commercial Type, Inc.. All rights reserved. |DCNT
</metadata>
<defs>
<font id="DrukCyr-BoldItalic" horiz-adv-x="342" >
  <font-face 
    font-family="Druk Cyr"
    font-weight="700"
    font-style="italic"
    font-stretch="normal"
    units-per-em="1000"
    panose-1="0 0 0 0 0 0 0 0 0 0"
    ascent="800"
    descent="-200"
    x-height="538"
    cap-height="744"
    bbox="-124 -216 963 1054"
    underline-thickness="84"
    underline-position="-272"
    unicode-range="U+000D-FB04"
  />
<missing-glyph horiz-adv-x="103" 
 />
    <glyph glyph-name="f_f" unicode="ff" horiz-adv-x="463" 
d="M105 538l21 133q12 73 85 73h116l-18 -113h-45q-9 0 -14.5 -4t-6.5 -7t-3 -13l-11 -69h82l21 133q12 73 85 73h116l-18 -113h-45q-9 0 -14.5 -4t-6.5 -7t-3 -13l-11 -69h65l-19 -119h-64l-67 -419h-124l67 419h-82l-67 -419h-124l67 419h-59l19 119h58z" />
    <glyph glyph-name="f_i" unicode="fi" horiz-adv-x="407" 
d="M322 744l-18 -113h-40q-9 0 -14.5 -4t-6.5 -7t-3 -13l-11 -69h60l-19 -119h-59l-67 -419h-124l67 419h-59l19 119h58l21 133q12 73 85 73h111zM432 538l-85 -538h-124l85 538h124zM456 690l-20 -126h-124l20 126h124z" />
    <glyph glyph-name="f_l" unicode="fl" horiz-adv-x="407" 
d="M322 744l-18 -113h-40q-9 0 -14.5 -4t-6.5 -7t-3 -13l-11 -69h60l-19 -119h-59l-67 -419h-124l67 419h-59l19 119h58l21 133q12 73 85 73h111zM465 744l-118 -744h-124l118 744h124z" />
    <glyph glyph-name="emdash.alt" unicode="&#x2014;&#x2014;" horiz-adv-x="959" 
d="M943 255h-930l14 90h930z" />
    <glyph glyph-name=".notdef" horiz-adv-x="103" 
 />
    <glyph glyph-name=".null" horiz-adv-x="0" 
 />
    <glyph glyph-name="nonmarkingreturn" horiz-adv-x="333" 
 />
    <glyph glyph-name="NULL" horiz-adv-x="0" 
 />
    <glyph glyph-name="NULL" horiz-adv-x="0" 
 />
    <glyph glyph-name="CR" unicode="&#xd;" horiz-adv-x="103" 
 />
    <glyph glyph-name="space" unicode=" " horiz-adv-x="103" 
 />
    <glyph glyph-name="exclam" unicode="!" horiz-adv-x="158" 
d="M117 144l-23 -144h-116l23 144h116zM83 744h142l-136 -577h-51z" />
    <glyph glyph-name="quotedbl" unicode="&#x22;" horiz-adv-x="228" 
d="M180 744l-31 -191h-89l31 191h89zM288 744l-31 -191h-89l31 191h89z" />
    <glyph glyph-name="numbersign" unicode="#" horiz-adv-x="360" 
d="M47 440l24 98h59l50 206h87l-50 -206h36l50 206h87l-50 -206h59l-24 -98h-59l-23 -94h59l-24 -98h-59l-60 -248h-87l60 248h-36l-60 -248h-87l60 248h-59l24 98h59l23 94h-59zM170 346h36l23 94h-36z" />
    <glyph glyph-name="dollar" unicode="$" horiz-adv-x="353" 
d="M102 -72l10 62q-66 5 -98 45t-21 110l21 131h119l-21 -133q-6 -35 17 -44l33 208l-51 74q-33 47 -44.5 93.5t-2.5 104.5l4 27q24 147 155 147h9l10 59h33l-10 -60q132 -8 111 -146l-16 -102h-113l16 102q4 31 -15 38l-30 -190l47 -67q40 -58 54.5 -102.5t6.5 -107.5
l-3 -24q-10 -78 -52.5 -121t-113.5 -43h-12l-9 -61h-34zM199 154l4 25q9 47 -14 86l-27 -169q29 6 37 58zM189 606l-4 -26q-9 -52 7 -84l23 149q-21 -4 -26 -39z" />
    <glyph glyph-name="percent" unicode="%" horiz-adv-x="483" 
d="M157 407h-19q-46 0 -70.5 29t-16.5 81l20 127q16 106 105 106h19q46 0 71 -28.5t17 -78.5l-20 -127q-18 -109 -106 -109zM171 506l23 144q3 20 -15 20q-14 0 -17 -20l-23 -143q-3 -20 14 -20q13 0 18 19zM233 105l20 127q16 106 105 106h19q46 0 71 -28.5t17 -78.5
l-20 -127q-18 -109 -106 -109h-19q-46 0 -70.5 29t-16.5 81zM353 94l23 144q3 20 -15 20q-14 0 -17 -20l-23 -143q-3 -20 14 -20q13 0 18 19zM413 744h77l-388 -744h-78z" />
    <glyph glyph-name="ampersand" unicode="&#x26;" horiz-adv-x="444" 
d="M1 201l5 33q11 69 41.5 113t82.5 76q-32 99 -17 177l5 31q8 52 39 90.5t97 38.5h21q133 0 112 -139l-3 -19q-8 -54 -35.5 -92t-94.5 -88l53 -188q24 81 37 212h110q-27 -208 -95 -331q16 -15 55 -22l-44 -110q-68 11 -98 40q-39 -33 -94 -33h-13q-90 0 -134.5 54.5
t-29.5 156.5zM195 100q22 0 35 6l-73 232q-18 -31 -25 -79l-5 -32q-9 -60 8.5 -93.5t59.5 -33.5zM229 619l-3 -19q-9 -50 5 -104q34 41 46 107l3 19q7 40 -21 40q-24 0 -30 -43z" />
    <glyph glyph-name="quotesingle" unicode="'" horiz-adv-x="121" 
d="M182 744l-31 -191h-91l31 191h91z" />
    <glyph glyph-name="parenleft" unicode="(" horiz-adv-x="209" 
d="M148 -131h-75q-50 160 -50 313q0 343 194 626h76q-65 -129 -113 -312.5t-48 -377.5q0 -123 16 -249z" />
    <glyph glyph-name="parenright" unicode=")" horiz-adv-x="209" 
d="M13 -131h-75q64 129 112 313.5t48 377.5q0 122 -16 248h75q50 -160 50 -313q0 -343 -194 -626z" />
    <glyph glyph-name="asterisk" unicode="*" horiz-adv-x="237" 
d="M206 675l57 42l30 -61l-66 -24l62 -29l-40 -58l-51 44v-68h-71l19 68l-59 -36l-26 61l67 23l-60 28l43 60l44 -46v65h71z" />
    <glyph glyph-name="plus" unicode="+" horiz-adv-x="334" 
d="M98 134l19 121h-104l14 91h104l20 122h96l-20 -122h105l-14 -91h-105l-19 -121h-96z" />
    <glyph glyph-name="comma" unicode="," horiz-adv-x="147" 
d="M49 -95h-63q32 76 35 95h-47l23 144h116l-17 -106q-13 -77 -47 -133z" />
    <glyph glyph-name="hyphen" unicode="-" horiz-adv-x="178" 
d="M29 359h149l-19 -121h-149z" />
    <glyph glyph-name="period" unicode="." horiz-adv-x="147" 
d="M113 144l-23 -144h-116l23 144h116z" />
    <glyph glyph-name="slash" unicode="/" horiz-adv-x="216" 
d="M298 808l-277 -939h-91l277 939h91z" />
    <glyph glyph-name="zero" unicode="0" horiz-adv-x="364" 
d="M393 564l-63 -399q-28 -176 -165 -176h-29q-73 0 -111 46.5t-24 129.5l63 398q15 96 51.5 143t113.5 47h26q84 0 118.5 -51.5t19.5 -137.5zM194 165l65 411q8 47 -25 47q-17 0 -23.5 -11t-10.5 -35l-65 -411q-8 -44 25 -44q28 0 34 43z" />
    <glyph glyph-name="one" unicode="1" horiz-adv-x="239" 
d="M132 547h-75l18 114q52 0 73 20.5t34 62.5h110l-118 -744h-129z" />
    <glyph glyph-name="two" unicode="2" horiz-adv-x="360" 
d="M232 632q-12 0 -18 -7.5t-9 -26.5l-18 -115h-122l21 131q21 139 148 139h26q75 0 107.5 -39.5t20.5 -115.5l-5 -32q-11 -73 -27 -112.5t-66 -92.5q-28 -31 -90 -93q-89 -92 -98 -139h93l20 127h127l-41 -256h-329l12 76q11 69 33.5 118.5t93.5 141.5q25 31 82 105
q30 39 40 61.5t14 50.5l7 44q6 35 -22 35z" />
    <glyph glyph-name="three" unicode="3" horiz-adv-x="343" 
d="M182 515h-119l15 95q5 30 12.5 52.5t22.5 44.5t41 34t62 12h27q76 0 110 -38.5t23 -105.5l-13 -82q-15 -91 -66 -113q51 -21 41 -82l-30 -189q-22 -154 -147 -154h-29q-79 0 -113.5 42.5t-22.5 115.5l20 126h128l-19 -119q-5 -34 23 -34q14 0 20.5 8t9.5 27l23 145
q3 14 0.5 22t-15.5 8h-72l20 133h65q15 0 20.5 7t8.5 26l16 101q6 35 -22 35q-22 0 -27 -34z" />
    <glyph glyph-name="four" unicode="4" horiz-adv-x="362" 
d="M162 293l30 185q-11 -25 -42.5 -91t-44.5 -94h57zM-6 166l18 114q16 33 67.5 137t96.5 194.5t70 137.5h117l-73 -456h68l-20 -127h-67l-27 -166h-128l27 166h-149z" />
    <glyph glyph-name="five" unicode="5" horiz-adv-x="344" 
d="M161 331h-128l65 413h297l-21 -129h-172l-23 -147q42 70 99 70h10q38 0 55.5 -28.5t11.5 -68.5l-49 -309q-24 -143 -142 -143h-38q-78 0 -110.5 44.5t-21.5 106.5l21 133h130l-20 -126q-3 -12 2 -22t19 -10q23 0 28 34l36 227q6 36 -18 36q-11 0 -16 -8.5t-8 -28.5z" />
    <glyph glyph-name="six" unicode="6" horiz-adv-x="361" 
d="M160 114q27 0 33 39l27 173q5 37 -27 37q-15 0 -22.5 -8t-10.5 -28l-27 -174q-6 -39 27 -39zM281 479h7q45 0 63.5 -30t11.5 -70l-38 -242q-11 -63 -50 -106t-108 -43h-32q-76 0 -112 42.5t-26 108.5l72 457q13 76 50 117t112 41h27q70 0 104.5 -37t25.5 -96l-16 -102
h-134l13 82q5 30 -22 30q-13 0 -17.5 -7.5t-7.5 -22.5l-30 -188q52 66 107 66z" />
    <glyph glyph-name="seven" unicode="7" horiz-adv-x="326" 
d="M90 744h300l-19 -113q-18 -53 -85 -259q-54 -168 -70 -283l-14 -89h-155l12 76q9 62 28.5 120.5t75.5 177.5q94 202 101 250h-74l-17 -109h-119z" />
    <glyph glyph-name="eight" unicode="8" horiz-adv-x="354" 
d="M186 149l23 146q6 37 -24 37q-23 0 -29 -37l-23 -146q-5 -33 22 -33q26 0 31 33zM236 485l19 119q5 32 -21 32q-14 0 -19.5 -8t-8.5 -25l-18 -115q-5 -33 21 -33q13 0 19 7t8 23zM385 612l-17 -107q-12 -72 -68 -95q58 -37 44 -113l-24 -151q-23 -157 -160 -157h-28
q-76 0 -111 41.5t-24 114.5l25 157q14 81 74 108q-43 30 -33 102l16 102q22 139 150 139h22q75 0 109.5 -39t24.5 -102z" />
    <glyph glyph-name="nine" unicode="9" horiz-adv-x="361" 
d="M116 263h-5q-41 0 -63.5 32.5t-14.5 80.5l36 227q11 71 44.5 110.5t107.5 39.5h32q82 0 119 -39.5t25 -107.5l-75 -475q-12 -66 -46 -104t-106 -38h-28q-81 0 -114 38.5t-21 107.5l14 88h134l-13 -82q-4 -30 22 -30q19 0 26 29l30 189q-52 -66 -104 -66zM233 627
q-17 0 -23.5 -10t-10.5 -31l-27 -170q-6 -38 27 -38q28 0 33 37l27 169q3 22 -2 32.5t-24 10.5z" />
    <glyph glyph-name="colon" unicode=":" horiz-adv-x="153" 
d="M116 144l-23 -144h-116l23 144h116zM163 438l-23 -144h-116l23 144h116z" />
    <glyph glyph-name="semicolon" unicode=";" horiz-adv-x="153" 
d="M52 -95h-63q32 76 35 95h-47l23 144h116l-17 -106q-13 -77 -47 -133zM163 438l-23 -144h-116l23 144h116z" />
    <glyph glyph-name="less" unicode="&#x3c;" horiz-adv-x="288" 
d="M25 344l274 105l-15 -96l-160 -55l143 -53l-15 -93l-241 105z" />
    <glyph glyph-name="equal" unicode="=" horiz-adv-x="327" 
d="M20 287h294l-14 -83h-294zM37 398h294l-13 -84h-294z" />
    <glyph glyph-name="greater" unicode="&#x3e;" horiz-adv-x="288" 
d="M272 257l-273 -105l15 97l160 55l-143 53l15 92l240 -105z" />
    <glyph glyph-name="question" unicode="?" horiz-adv-x="325" 
d="M181 167h-101l22 134q6 37 15 57t33 50l45 55q26 33 34 84l8 50q6 35 -22 35q-14 0 -19.5 -8t-8.5 -27l-18 -114h-121l19 120q6 36 13 58.5t22 45.5t42.5 34.5t67.5 11.5h25q152 0 132 -145l-8 -52q-9 -54 -22 -83t-47 -63l-60 -65q-16 -17 -22.5 -32t-12.5 -47zM185 144
l-23 -144h-116l23 144h116z" />
    <glyph glyph-name="at" unicode="@" horiz-adv-x="567" 
d="M419 25l48 -56q-30 -40 -85 -74.5t-126 -34.5h-10q-291 0 -233 385l17 108q29 184 101.5 280.5t199.5 96.5h18q131 0 191.5 -78.5t34.5 -234.5l-16 -101q-18 -109 -45 -172.5t-56 -84.5t-70 -21h-8q-41 0 -64.5 19t-29.5 47q-40 -66 -93 -66h-5q-35 0 -53.5 34t-8.5 87
l57 287q19 96 84 96h5q42 0 74 -54l11 50h119l-84 -392q-6 -28 12 -28q42 0 73 198l16 101q20 131 -21.5 183.5t-128.5 52.5h-18q-84 0 -135.5 -74t-74.5 -225l-17 -108q-48 -307 150 -307h10q84 0 161 86zM278 161l54 259q6 28 -14 28q-9 0 -13 -6t-7 -22l-55 -261
q-6 -28 13 -28q17 0 22 30z" />
    <glyph glyph-name="A" unicode="A" horiz-adv-x="338" 
d="M176 0l6 125h-79l-31 -125h-117l209 744h153l-17 -744h-124zM136 253h52l11 251z" />
    <glyph glyph-name="B" unicode="B" horiz-adv-x="367" 
d="M-22 0l118 744h185q68 0 97.5 -31.5t17.5 -101.5l-15 -95q-14 -89 -79 -108q68 -25 55 -117l-19 -124q-15 -89 -44.5 -128t-87.5 -39h-228zM190 333h-30l-35 -215h37q18 0 27 8t14 38l19 120q4 25 -3 37t-29 12zM236 630h-29l-28 -177h32q16 0 24.5 8t13.5 31l16 99
q6 39 -29 39z" />
    <glyph glyph-name="C" unicode="C" horiz-adv-x="363" 
d="M202 165l26 162h129l-26 -164q-11 -80 -48 -127t-116 -47h-26q-87 0 -119 49.5t-21 124.5l67 422q14 80 50 124.5t115 44.5h27q165 0 138 -164l-20 -127h-129l20 122q6 43 -29 43q-18 0 -25.5 -10t-11.5 -33l-67 -422q-3 -19 4.5 -31t25.5 -12q17 0 24.5 11t11.5 34z" />
    <glyph glyph-name="D" unicode="D" horiz-adv-x="365" 
d="M-22 0l118 744h172q155 0 128 -159l-66 -417q-13 -88 -44.5 -128t-107.5 -40h-200zM206 626l-80 -502h27q23 0 31.5 11t13.5 44l63 397q8 50 -26 50h-29z" />
    <glyph glyph-name="E" unicode="E" horiz-adv-x="313" 
d="M96 744h275l-21 -131h-145l-26 -162h116l-22 -134h-116l-29 -183h154l-22 -134h-282z" />
    <glyph glyph-name="F" unicode="F" horiz-adv-x="313" 
d="M96 744h282l-21 -130h-152l-26 -162h114l-22 -134h-114l-50 -318h-129z" />
    <glyph glyph-name="G" unicode="G" horiz-adv-x="368" 
d="M109 -10h-9q-57 0 -85 43.5t-18 101.5l70 444q11 79 48 126.5t115 47.5h26q89 0 120 -48t18 -125l-13 -80h-126l13 81q3 25 -3 36t-25 11q-17 0 -25.5 -11t-12.5 -36l-65 -411q-7 -51 29 -51q37 0 44 46l26 161h-49l21 125h172l-71 -451h-77q0 40 -11 71
q-13 -28 -43.5 -54.5t-68.5 -26.5z" />
    <glyph glyph-name="H" unicode="H" horiz-adv-x="368" 
d="M157 314l-50 -314h-129l118 744h129l-45 -284h69l45 284h129l-118 -744h-129l50 314h-69z" />
    <glyph glyph-name="I" unicode="I" horiz-adv-x="170" 
d="M225 744l-118 -744h-129l118 744h129z" />
    <glyph glyph-name="J" unicode="J" horiz-adv-x="347" 
d="M23 327h126l-27 -170q-5 -35 22 -35h2q14 0 20.5 8t9.5 27l93 587h134l-94 -593q-12 -80 -48 -119.5t-103 -39.5h-44q-66 0 -99.5 37t-21.5 109z" />
    <glyph glyph-name="K" unicode="K" horiz-adv-x="367" 
d="M180 460l126 284h131l-153 -343l46 -401h-136l-36 322l-51 -322h-129l118 744h129z" />
    <glyph glyph-name="L" unicode="L" horiz-adv-x="296" 
d="M96 744h129l-97 -610h138l-22 -134h-266z" />
    <glyph glyph-name="M" unicode="M" horiz-adv-x="450" 
d="M-22 0l118 744h153l-10 -378l108 378h158l-118 -744h-117l71 445l-134 -445h-50l5 445l-71 -445h-113z" />
    <glyph glyph-name="N" unicode="N" horiz-adv-x="366" 
d="M96 744h121l28 -385l61 385h115l-118 -744h-110l-34 414l-66 -414h-115z" />
    <glyph glyph-name="O" unicode="O" horiz-adv-x="376" 
d="M241 623q-19 0 -27.5 -11.5t-12.5 -37.5l-65 -410q-6 -42 31 -42q32 0 39 42l65 410q7 49 -30 49zM230 753h27q87 0 124 -51t24 -138l-62 -392q-31 -183 -164 -183h-27q-84 0 -123.5 50t-25.5 138l61 386q15 95 52.5 142.5t113.5 47.5z" />
    <glyph glyph-name="P" unicode="P" horiz-adv-x="351" 
d="M229 298h-75l-47 -298h-129l118 744h171q79 0 107.5 -37.5t15.5 -109.5l-24 -149q-11 -73 -42 -111.5t-95 -38.5zM207 629l-33 -210h27q19 0 26 9t10 31l20 126q7 44 -27 44h-23z" />
    <glyph glyph-name="Q" unicode="Q" horiz-adv-x="376" 
d="M230 753h27q87 0 125 -51.5t23 -137.5l-62 -392q-27 -165 -141 -181l33 -146h-158l24 150q-58 14 -83.5 61t-14.5 121l61 386q16 94 53 142t113 48zM241 623q-19 0 -27.5 -11.5t-12.5 -37.5l-65 -410q-6 -42 31 -42q32 0 39 42l65 410q7 49 -30 49z" />
    <glyph glyph-name="R" unicode="R" horiz-adv-x="360" 
d="M157 318l-50 -318h-129l118 744h194q61 0 90 -32.5t19 -91.5l-19 -119q-12 -81 -74 -100q52 -26 43 -88l-40 -252q-5 -34 2 -56l-1 -5h-129q-9 18 -3 57l34 214q5 27 -1 37t-27 10h-27zM207 629l-30 -188h28q19 0 28 9.5t13 34.5l16 104q7 40 -27 40h-28z" />
    <glyph glyph-name="S" unicode="S" horiz-adv-x="356" 
d="M158 -9h-29q-73 0 -110.5 42t-25.5 118l21 132h128l-19 -121q-7 -47 26 -47q30 0 40 54l4 24q6 35 -0.5 58.5t-32.5 63.5l-39 62q-38 58 -50.5 104t-3.5 101l5 31q12 73 50 106.5t107 33.5h29q149 0 125 -153l-14 -89h-124l14 89q7 39 -25 39q-16 0 -21.5 -8.5
t-8.5 -27.5l-4 -26q-4 -30 1 -46t29 -55l41 -66q41 -67 56.5 -113t7.5 -98l-6 -38q-27 -170 -171 -170z" />
    <glyph glyph-name="T" unicode="T" horiz-adv-x="331" 
d="M84 744h314l-21 -131h-91l-97 -613h-129l97 613h-94z" />
    <glyph glyph-name="U" unicode="U" horiz-adv-x="368" 
d="M5 177l90 567h133l-91 -576q-7 -46 27 -46q17 0 24.5 10.5t11.5 35.5l91 576h133l-90 -567q-16 -100 -54.5 -144t-110.5 -44h-29q-76 0 -112.5 49.5t-22.5 138.5z" />
    <glyph glyph-name="V" unicode="V" horiz-adv-x="349" 
d="M57 0l14 744h132l-26 -499l124 499h125l-205 -744h-164z" />
    <glyph glyph-name="W" unicode="W" horiz-adv-x="557" 
d="M294 744h123l-24 -476l113 476h128l-203 -744h-151l24 417l-100 -417h-149l18 744h132l-27 -467z" />
    <glyph glyph-name="X" unicode="X" horiz-adv-x="353" 
d="M110 398l-25 346h127l8 -223l74 223h124l-131 -346l27 -398h-128l-9 258l-94 -258h-129z" />
    <glyph glyph-name="Y" unicode="Y" horiz-adv-x="322" 
d="M403 744l-168 -444l-47 -300h-130l47 296l-36 448h126l4 -264l86 264h118z" />
    <glyph glyph-name="Z" unicode="Z" horiz-adv-x="323" 
d="M94 744h286l-19 -119l-236 -494h169l-21 -131h-307l19 122l238 494h-149z" />
    <glyph glyph-name="bracketleft" unicode="[" horiz-adv-x="196" 
d="M274 808l-15 -95h-51l-119 -748h51l-15 -96h-155l149 939h155z" />
    <glyph glyph-name="backslash" unicode="\" horiz-adv-x="216" 
d="M88 -131l-8 939h86l6 -939h-84z" />
    <glyph glyph-name="bracketright" unicode="]" horiz-adv-x="196" 
d="M-57 -131l15 96h52l119 748h-52l15 95h154l-149 -939h-154z" />
    <glyph glyph-name="asciicircum" unicode="^" horiz-adv-x="232" 
d="M237 744l19 -311h-84l-4 163l-50 -163h-89l108 311h100z" />
    <glyph glyph-name="underscore" unicode="_" horiz-adv-x="325" 
d="M-59 -115l15 95h320l-15 -95h-320z" />
    <glyph glyph-name="grave" unicode="`" 
d="M265 700l20 -136h-96l-22 136h98z" />
    <glyph glyph-name="a" unicode="a" horiz-adv-x="328" 
d="M-14 98l17 108q12 80 67 109q16 9 63 29.5t49 21.5q10 5 14 23l4 25q6 32 -19 32h-3q-20 0 -25 -31l-8 -51h-111l12 74q8 47 35 76.5t95 29.5h22q143 0 124 -118l-47 -295q-5 -17 14 -17h14l-18 -114h-112q-19 0 -26 13t-2 47q-41 -65 -96 -65h-2q-35 0 -51.5 28.5
t-9.5 74.5zM128 102q22 0 27 31l21 131q-31 -18 -36 -23q-14 -14 -18 -42l-10 -62q-6 -35 16 -35z" />
    <glyph glyph-name="b" unicode="b" horiz-adv-x="331" 
d="M93 744h124l-42 -266q45 66 95 66h5q38 0 55.5 -28.5t11.5 -69.5l-53 -335q-9 -52 -36 -86t-68 -34h-2q-20 0 -36 7t-27.5 20t-18.5 25t-14 29q-13 -38 -20 -72h-92zM162 397l-41 -260q-5 -35 19 -35t28 31l42 266q5 35 -19 35t-29 -37z" />
    <glyph glyph-name="c" unicode="c" horiz-adv-x="314" 
d="M181 241h116l-18 -113q-11 -67 -42.5 -103t-94.5 -36h-20q-75 0 -108 39.5t-21 106.5l42 265q10 71 45 109.5t103 38.5h25q70 0 98 -37.5t19 -93.5l-14 -88h-116l12 76q7 38 -18 38q-13 0 -19 -8.5t-8 -28.5l-43 -271q-5 -33 19 -33q9 0 14.5 4t7.5 10t4 17z" />
    <glyph glyph-name="d" unicode="d" horiz-adv-x="333" 
d="M267 744h124l-118 -744h-124l10 60q-11 -24 -38 -47.5t-58 -23.5h-2q-39 0 -58.5 35t-11.5 85l52 328q7 44 30.5 75.5t61.5 31.5h4q57 0 86 -66zM171 140l40 252q6 42 -21 42q-22 0 -28 -37l-41 -258q-5 -38 20 -38q24 0 30 39z" />
    <glyph glyph-name="e" unicode="e" horiz-adv-x="316" 
d="M176 548h26q67 0 100 -36t22 -101l-25 -159h-168l-18 -117q-5 -33 20 -33q23 0 28 33l13 80h119l-14 -88q-22 -137 -141 -137h-27q-65 0 -97.5 35t-21.5 105l45 283q20 135 139 135zM157 413l-11 -65h51l10 63q6 38 -22 38q-13 0 -19 -8.5t-9 -27.5z" />
    <glyph glyph-name="f" unicode="f" horiz-adv-x="257" 
d="M327 744l-18 -113h-45q-9 0 -14.5 -4t-6.5 -7t-3 -13l-11 -69h65l-19 -119h-64l-67 -419h-124l67 419h-59l19 119h58l21 133q12 73 85 73h116z" />
    <glyph glyph-name="g" unicode="g" horiz-adv-x="332" 
d="M137 -66l20 125q-37 -69 -95 -69q-37 0 -58 31.5t-13 83.5l50 315q20 125 98 125h1q18 0 32 -6.5t24.5 -18.5t16 -21t12.5 -22l10 61h122l-97 -612q-17 -121 -153 -121h-17q-73 0 -102 29t-22 78l10 63h118l-7 -44q-5 -25 19 -25h4q22 0 27 28zM167 126l44 277
q5 34 -20 34q-22 0 -27 -33l-44 -278q-5 -30 21 -30q21 0 26 30z" />
    <glyph glyph-name="h" unicode="h" horiz-adv-x="333" 
d="M-25 0l118 744h123l-42 -268q47 64 98 64h7q40 0 55 -29.5t10 -63.5l-71 -447h-125l62 392q5 36 -21 36q-23 0 -28 -36l-62 -392h-124z" />
    <glyph glyph-name="i" unicode="i" horiz-adv-x="159" 
d="M184 538l-85 -538h-124l85 538h124zM208 690l-20 -126h-124l20 126h124z" />
    <glyph glyph-name="j" unicode="j" horiz-adv-x="159" 
d="M-105 -69h51q8 0 12 2.5t5.5 6t3.5 11.5l93 587h124l-103 -653q-11 -73 -82 -73h-123zM208 690l-20 -126h-124l20 126h124z" />
    <glyph glyph-name="k" unicode="k" horiz-adv-x="335" 
d="M155 355l98 183h122l-126 -234l48 -304h-125l-35 240l-38 -240h-124l118 744h124z" />
    <glyph glyph-name="l" unicode="l" horiz-adv-x="159" 
d="M217 744l-118 -744h-124l118 744h124z" />
    <glyph glyph-name="m" unicode="m" horiz-adv-x="500" 
d="M441 542h5q35 0 53.5 -26t11.5 -68l-71 -448h-125l62 392q6 36 -19 36q-13 0 -18.5 -8t-8.5 -28l-62 -392h-124l62 392q5 36 -19 36q-13 0 -19 -8.5t-8 -27.5l-62 -392h-124l85 538h123l-10 -63q46 67 98 67h4q27 0 44.5 -19t20.5 -47q48 66 101 66z" />
    <glyph glyph-name="n" unicode="n" horiz-adv-x="333" 
d="M-25 0l85 538h123l-10 -65q44 67 99 67h7q40 0 55 -29.5t10 -63.5l-71 -447h-125l62 392q5 36 -21 36q-23 0 -28 -36l-62 -392h-124z" />
    <glyph glyph-name="o" unicode="o" horiz-adv-x="331" 
d="M151 -10h-29q-72 0 -105 42.5t-23 109.5l41 255q12 75 46.5 113t98.5 38h29q68 0 103.5 -39.5t24.5 -109.5l-41 -255q-10 -70 -46.5 -112t-98.5 -42zM190 437q-24 0 -29 -37l-41 -256q-5 -38 22 -38q11 0 17 6t8 12.5t4 19.5l41 256q5 37 -22 37z" />
    <glyph glyph-name="p" unicode="p" horiz-adv-x="333" 
d="M60 538h123l-10 -61q14 26 40 46.5t57 20.5h2q41 0 59.5 -32t10.5 -83l-51 -321q-9 -57 -35 -88t-63 -31h-2q-57 0 -85 58l-37 -235h-124zM162 402l-43 -271q-6 -37 21 -37q22 0 28 36l43 272q4 34 -20 34q-14 0 -20 -7.5t-9 -26.5z" />
    <glyph glyph-name="q" unicode="q" horiz-adv-x="332" 
d="M271 538h87l-116 -726h-124l39 242q-41 -65 -95 -65h-4q-38 0 -57 35.5t-10 83.5l49 309q20 127 110 127h4q63 0 91 -85q15 37 26 79zM169 131l42 265q7 38 -21 38q-22 0 -27 -36l-42 -266q-6 -37 20 -37q22 0 28 36z" />
    <glyph glyph-name="r" unicode="r" horiz-adv-x="301" 
d="M184 538l-11 -69q11 25 36 48.5t57 23.5h5q60 0 49 -72l-30 -189h-115l19 120q3 15 0.5 22t-13.5 7q-14 0 -18 -27l-64 -402h-124l85 538h124z" />
    <glyph glyph-name="s" unicode="s" horiz-adv-x="298" 
d="M125 -9h-26q-65 0 -94 35.5t-20 94.5l12 75h114l-12 -75q-4 -27 20 -27h1q18 0 23 29l3 19q3 20 -1.5 33.5t-20.5 35.5l-40 54q-57 78 -47 149l3 20q17 114 131 114h27q65 0 90.5 -30.5t18.5 -77.5l-11 -67h-108l9 56q4 28 -18 28q-19 0 -23 -27l-2 -13q-5 -29 18 -59
l40 -54q37 -49 51 -84.5t8 -79.5l-3 -19q-21 -130 -143 -130z" />
    <glyph glyph-name="t" unicode="t" horiz-adv-x="254" 
d="M202 0h-112q-32 0 -48 20t-11 52l56 347h-57l19 119h57l28 178h124l-28 -178h57l-19 -119h-57l-45 -277q-3 -21 17 -21h38z" />
    <glyph glyph-name="u" unicode="u" horiz-adv-x="330" 
d="M355 538l-85 -538h-123l10 65q-17 -28 -43 -47.5t-55 -19.5h-7q-39 0 -54 30.5t-8 68.5l70 441h125l-62 -392q-6 -36 19 -36q13 0 19 8.5t8 27.5l62 392h124z" />
    <glyph glyph-name="v" unicode="v" horiz-adv-x="305" 
d="M43 0l-2 538h120l-15 -343l84 343h120l-164 -538h-143z" />
    <glyph glyph-name="w" unicode="w" horiz-adv-x="485" 
d="M178 0h-135l-2 538h122l-14 -332l83 332h111l-13 -336l83 336h117l-157 -538h-129l6 294z" />
    <glyph glyph-name="x" unicode="x" horiz-adv-x="307" 
d="M76 291l-30 247h117l10 -153l54 153h116l-106 -247l30 -291h-116l-12 171l-65 -171h-119z" />
    <glyph glyph-name="y" unicode="y" horiz-adv-x="308" 
d="M56 9l-15 529h119l-7 -296l76 296h125l-206 -646q-13 -42 -31.5 -61t-47.5 -19h-119l19 118h49q13 0 19 6t9 19l6 23q4 15 4 31z" />
    <glyph glyph-name="z" unicode="z" horiz-adv-x="266" 
d="M61 538h235l-16 -102l-173 -322h127l-18 -114h-251l18 107l172 319h-112z" />
    <glyph glyph-name="braceleft" unicode="{" horiz-adv-x="204" 
d="M133 -131h-31q-56 0 -84.5 28t-28.5 77q0 38 37 150t37 139q0 28 -27 28h-17l16 100h25q30 0 32 34q1 23 3 130.5t5 139.5q7 113 127 113h55l-15 -92h-25q-37 0 -42 -43q-2 -23 -3.5 -119.5t-2.5 -121.5q-3 -36 -17.5 -58t-48.5 -33q40 -19 40 -65q0 -31 -36 -143.5
t-36 -135.5q0 -36 41 -36h11z" />
    <glyph glyph-name="bar" unicode="|" horiz-adv-x="224" 
d="M175 808v-939h-92v939h92z" />
    <glyph glyph-name="braceright" unicode="}" horiz-adv-x="204" 
d="M92 808h31q113 0 113 -104q0 -38 -36 -148t-36 -137q0 -28 27 -28h17l-16 -100h-25q-30 0 -32 -34q-2 -36 -4.5 -140.5t-5.5 -133.5q-7 -114 -127 -114h-55l15 92h25q37 0 42 43q2 23 4.5 122t3.5 124q5 71 65 91q-39 19 -39 65q0 31 34.5 141.5t34.5 133.5q0 35 -40 35
h-11z" />
    <glyph glyph-name="asciitilde" unicode="~" horiz-adv-x="276" 
d="M211 434l10 64h82l-19 -119q-5 -34 -24 -54.5t-46 -20.5q-35 0 -68 42q-3 4 -7 9t-6 7t-4.5 5t-4 4.5t-3 2.5t-2.5 1.5t-3 0.5q-7 0 -8 -10l-10 -65h-82l18 116q13 77 70 77q22 0 37.5 -10t33.5 -33q21 -29 28 -29t8 12z" />
    <glyph glyph-name="exclamdown" unicode="&#xa1;" horiz-adv-x="158" 
d="M38 394l23 144h116l-23 -144h-116zM72 -206h-142l136 577h51z" />
    <glyph glyph-name="cent" unicode="&#xa2;" horiz-adv-x="320" 
d="M303 242l-18 -115q-9 -61 -43 -99.5t-98 -38.5h-7l-10 -64h-34l10 65q-63 5 -91.5 43.5t-19.5 95.5l43 271q21 148 147 148h10l10 64h34l-11 -65q61 -5 88 -39.5t18 -89.5l-14 -88h-106l12 77q5 29 -14 38l-55 -350q20 6 25 39l17 108h107zM150 407l-43 -273
q-5 -26 13 -37l56 350q-21 -5 -26 -40z" />
    <glyph glyph-name="sterling" unicode="&#xa3;" horiz-adv-x="409" 
d="M86 241q2 9 3.5 33t2.5 36h-74l17 110h62q7 96 10 117l8 53q12 77 47.5 120t112.5 43h32q75 0 102 -40.5t18 -103.5l-20 -126h-120l17 107q6 42 -23 42q-17 0 -24 -9.5t-11 -32.5l-12 -75q-5 -29 -11 -95h121l-17 -110h-114q-7 -50 -8 -58q-15 -87 -79 -135h122l22 132
h120l-40 -249h-381l14 89q49 29 71 60.5t32 91.5z" />
    <glyph glyph-name="yen" unicode="&#xa5;" horiz-adv-x="349" 
d="M230 218l-34 -218h-129l34 218h-97l14 84h97l4 26h-98l14 84h84l-42 332h123l11 -241l80 241h120l-137 -332h85l-14 -84h-97l-4 -26h98l-14 -84h-98z" />
    <glyph glyph-name="brokenbar" unicode="&#xa6;" horiz-adv-x="224" 
d="M175 343v-474h-92v474h92zM175 808v-426h-92v426h92z" />
    <glyph glyph-name="section" unicode="&#xa7;" horiz-adv-x="395" 
d="M384 270l-4 -24q-14 -91 -100 -110q22 -28 28 -59.5t-2 -72.5l-10 -63q-12 -73 -49 -111.5t-108 -38.5h-30q-69 0 -101.5 37t-21.5 107l18 114h126l-17 -107q-6 -36 22 -36q14 0 20 8t8 25l9 57q4 30 -1 48t-26 39l-68 69q-75 76 -59 163l4 24q16 86 102 104
q-38 53 -24 140l4 26q11 71 45.5 110.5t112.5 39.5h19q78 0 109.5 -35t19.5 -112l-14 -88h-124l14 87q6 36 -21 36q-16 0 -22 -9t-9 -30l-3 -19q-7 -32 -2 -53.5t26 -40.5l66 -68q44 -44 57 -80.5t6 -76.5zM223 325l-49 49q-24 -10 -28 -36l-2 -12q-3 -21 2.5 -35.5
t27.5 -36.5l52 -54q24 11 28 34l2 12q3 23 -2.5 38.5t-30.5 40.5z" />
    <glyph glyph-name="dieresis" unicode="&#xa8;" 
d="M324 564h-97l17 106h97zM220 670l-17 -106h-97l17 106h97z" />
    <glyph glyph-name="copyright" unicode="&#xa9;" horiz-adv-x="558" 
d="M301 -11h-10q-237 0 -237 255v258q0 124 62.5 188.5t175.5 64.5h12q113 0 172.5 -63t59.5 -190v-258q0 -128 -64 -191.5t-171 -63.5zM293 56h8q159 0 159 203v230q0 199 -157 199h-10q-86 0 -123 -49.5t-37 -149.5v-230q0 -203 160 -203zM299 207q17 0 17 26v107h104
v-117q0 -49 -31 -81t-81 -32h-18q-57 0 -87 33t-30 89v277q0 61 28.5 94.5t85.5 33.5h22q110 0 110 -115v-82h-104v75q0 9 -1 14t-4.5 8.5t-10.5 3.5q-11 0 -14 -6t-3 -20v-282q0 -26 17 -26z" />
    <glyph glyph-name="ordfeminine" unicode="&#xaa;" horiz-adv-x="203" 
d="M227 449h-66q-23 0 -19 37q-22 -40 -59 -40q-22 0 -31 16t-6 38l9 57q7 43 43 60q11 6 34.5 15.5t28.5 12.5q6 3 8 11l2 13q3 16 -12 16q-10 0 -13 -18l-3 -18h-70l5 33q7 64 78 64h14q46 0 63.5 -18.5t11.5 -52.5l-24 -150q-1 -6 0.5 -8t7.5 -2h9zM134 508q12 0 15 19
l9 58q-2 -1 -9 -4t-9 -5q-10 -7 -13 -28l-3 -20q-3 -20 10 -20z" />
    <glyph glyph-name="guillemotleft" unicode="&#xab;" horiz-adv-x="264" 
d="M287 451l-74 -169l22 -163h-90l-25 165l76 167h91zM175 451l-77 -167l26 -165h-90l-26 137l10 60l65 135h92z" />
    <glyph glyph-name="registered" unicode="&#xae;" horiz-adv-x="309" 
d="M209 399h-7q-59 0 -92.5 35t-33.5 99v86q0 61 33.5 96t92.5 35h8q57 0 89 -35t32 -95v-87q0 -62 -34.5 -98t-87.5 -36zM202 436h7q80 0 80 102v77q0 98 -79 98h-8q-46 0 -65 -24t-19 -77v-74q0 -102 84 -102zM197 560v-93h-50v220h75q41 0 41 -40v-30q0 -21 -20 -32
q20 -6 20 -29v-65q0 -13 3 -19v-5h-49q-4 7 -4 20v60q0 13 -9 13h-7zM197 650v-51h8q8 0 8 13v26q0 12 -8 12h-8z" />
    <glyph glyph-name="macron" unicode="&#xaf;" 
d="M124 576l14 87h186l-14 -87h-186z" />
    <glyph glyph-name="degree" unicode="&#xb0;" horiz-adv-x="210" 
d="M130 650q0 -38 36 -38t36 38q0 16 -10 26.5t-26 10.5q-17 0 -26.5 -10.5t-9.5 -26.5zM66 649q0 42 28 70t73 28q43 0 71 -28t28 -70t-28 -69.5t-71 -27.5q-45 0 -73 27.5t-28 69.5z" />
    <glyph glyph-name="two.sup" unicode="&#xb2;" horiz-adv-x="214" 
d="M229 402h-200l7 43q6 33 24 57.5t75 78.5q23 21 30 33.5t11 34.5l2 13q3 22 -11 22q-8 0 -10 -4t-5 -18l-8 -50h-77l11 63q11 75 91 75h14q47 0 66.5 -21.5t14.5 -58.5l-4 -19q-6 -38 -22 -62t-57 -55q-29 -21 -44 -34t-18.5 -18t-5.5 -12h55l9 50h72z" />
    <glyph glyph-name="three.sup" unicode="&#xb3;" horiz-adv-x="210" 
d="M146 630h-75l5 36q6 42 26 63t65 21h12q91 0 78 -82l-3 -21q-6 -45 -39 -55q33 -15 27 -58l-8 -51q-15 -86 -96 -86h-13q-49 0 -68 22t-12 57l8 51h79l-8 -46q-2 -17 11 -17q11 0 13 17l7 49q4 15 -8 15h-39l12 69h36q5 0 8 1.5t3.5 4t2.5 10.5l7 38q3 18 -11 18
q-10 0 -13 -14q-1 -3 -1 -4z" />
    <glyph glyph-name="acute" unicode="&#xb4;" 
d="M142 564l60 136h105l-63 -136h-102z" />
    <glyph glyph-name="paragraph" unicode="&#xb6;" horiz-adv-x="367" 
d="M438 744l-15 -98h-38l-102 -646h-84l102 646h-32l-102 -646h-84l55 342h-2q-51 0 -77 26.5t-18 78.5l31 197q18 100 114 100h252z" />
    <glyph glyph-name="periodcentered" unicode="&#xb7;" horiz-adv-x="145" 
d="M155 418l-23 -144h-116l23 144h116z" />
    <glyph glyph-name="cedilla" unicode="&#xb8;" 
d="M86 -188h-66l10 63h51q22 0 22 18q0 15 -18 15h-34l15 92h56l-6 -36h2q69 0 69 -65q0 -43 -27 -65t-74 -22z" />
    <glyph glyph-name="one.sup" unicode="&#xb9;" horiz-adv-x="151" 
d="M110 637h-43l11 67q28 0 40 10t18 30h72l-54 -340h-81z" />
    <glyph glyph-name="ordmasculine" unicode="&#xba;" horiz-adv-x="208" 
d="M149 446h-16q-44 0 -63.5 25.5t-13.5 66.5l18 114q15 94 89 94h16q42 0 63 -25.5t14 -68.5l-18 -114q-15 -92 -89 -92zM152 655l-19 -120q-3 -20 10 -20t16 19l19 120q5 26 -10 26q-11 0 -15 -22q-1 -2 -1 -3z" />
    <glyph glyph-name="guillemotright" unicode="&#xbb;" horiz-adv-x="264" 
d="M94 119l78 167l-24 165h90l24 -137l-9 -60l-68 -135h-91zM-16 119l74 169l-22 163h90l25 -165l-76 -167h-91z" />
    <glyph glyph-name="onequarter" unicode="&#xbc;" horiz-adv-x="368" 
d="M110 637h-43l11 67q28 0 40 10t18 30h72l-54 -340h-81zM348 744h75l-376 -744h-75zM137 59l9 58l117 225h83l-34 -211h27l-12 -72h-25l-10 -59h-77l9 59h-87zM205 131h30l14 89q-5 -9 -22 -44.5t-22 -44.5z" />
    <glyph glyph-name="onehalf" unicode="&#xbd;" horiz-adv-x="413" 
d="M110 637h-43l11 67q28 0 40 10t18 30h72l-54 -340h-81zM348 744h75l-376 -744h-75zM365 0h-200l7 43q6 33 24 57.5t75 78.5q23 21 30 33.5t11 34.5l2 13q3 22 -11 22q-8 0 -10 -4t-5 -18l-8 -50h-77l11 63q11 75 91 75h14q47 0 66.5 -21.5t14.5 -58.5l-4 -19
q-6 -38 -22 -62t-57 -55q-29 -21 -44 -34t-18.5 -18t-5.5 -12h55l9 50h72z" />
    <glyph glyph-name="threequarters" unicode="&#xbe;" horiz-adv-x="419" 
d="M399 744h75l-376 -744h-75zM146 630h-75l5 36q6 42 26 63t65 21h12q91 0 78 -82l-3 -21q-6 -45 -39 -55q33 -15 27 -58l-8 -51q-15 -86 -96 -86h-13q-49 0 -68 22t-12 57l8 51h79l-8 -46q-2 -17 11 -17q11 0 13 17l7 49q4 15 -8 15h-39l12 69h36q5 0 8 1.5t3.5 4
t2.5 10.5l7 38q3 18 -11 18q-10 0 -13 -14q-1 -3 -1 -4zM188 59l9 58l117 225h83l-34 -211h27l-12 -72h-25l-10 -59h-77l9 59h-87zM256 131h30l14 89q-5 -9 -21.5 -44.5t-22.5 -44.5z" />
    <glyph glyph-name="questiondown" unicode="&#xbf;" horiz-adv-x="319" 
d="M141 370h101l-22 -134q-6 -37 -15 -57t-33 -50l-45 -55q-26 -33 -34 -84l-8 -50q-6 -35 22 -35q14 0 19.5 8t8.5 27l18 114h121l-19 -120q-6 -36 -13 -58.5t-22 -45.5t-42.5 -34.5t-67.5 -11.5h-25q-152 0 -132 145l8 52q9 54 22 83t47 63l60 65q16 17 22.5 32t12.5 47z
M137 393l23 144h116l-23 -144h-116z" />
    <glyph glyph-name="Agrave" unicode="&#xc0;" horiz-adv-x="338" 
d="M176 0l6 125h-79l-31 -125h-117l209 744h153l-17 -744h-124zM136 253h52l11 251zM275 885l19 -115h-99l-24 115h104z" />
    <glyph glyph-name="Aacute" unicode="&#xc1;" horiz-adv-x="338" 
d="M176 0l6 125h-79l-31 -125h-117l209 744h153l-17 -744h-124zM136 253h52l11 251zM189 770l56 115h108l-59 -115h-105z" />
    <glyph glyph-name="Acircumflex" unicode="&#xc2;" horiz-adv-x="338" 
d="M176 0l6 125h-79l-31 -125h-117l209 744h153l-17 -744h-124zM136 253h52l11 251zM203 885h100l51 -115h-86l-22 47l-30 -47h-89z" />
    <glyph glyph-name="Atilde" unicode="&#xc3;" horiz-adv-x="338" 
d="M176 0l6 125h-79l-31 -125h-117l209 744h153l-17 -744h-124zM136 253h52l11 251zM290 864l3 19h72l-9 -57q-10 -55 -54 -55q-24 0 -61 19q-14 9 -22 9q-7 0 -9 -11l-3 -19h-71l7 44q11 69 56 69q19 0 60 -18q18 -8 23 -8q6 0 8 8z" />
    <glyph glyph-name="Adieresis" unicode="&#xc4;" horiz-adv-x="338" 
d="M176 0l6 125h-79l-31 -125h-117l209 744h153l-17 -744h-124zM136 253h52l11 251zM352 770h-97l17 106h97zM230 770h-97l17 106h97z" />
    <glyph glyph-name="Aring" unicode="&#xc5;" horiz-adv-x="338" 
d="M176 0l6 125h-79l-31 -125h-117l209 744h153l-17 -744h-124zM136 253h52l11 251zM245 765q-35 0 -57.5 22t-22.5 57t22.5 57t57.5 22t57.5 -22t22.5 -57t-22.5 -57t-57.5 -22zM245 811q15 0 23.5 9t8.5 24t-8.5 24t-23.5 9t-23.5 -9t-8.5 -24t8.5 -24t23.5 -9z" />
    <glyph glyph-name="AE" unicode="&#xc6;" horiz-adv-x="501" 
d="M450 0h-273l20 131h-79l-42 -131h-124l250 744h357l-21 -132h-135l-25 -161h104l-21 -135h-104l-29 -182h143zM159 258h58l56 352z" />
    <glyph glyph-name="Ccedilla" unicode="&#xc7;" horiz-adv-x="363" 
d="M202 165l26 162h129l-26 -164q-11 -80 -48 -127t-116 -47h-26q-87 0 -119 49.5t-21 124.5l67 422q14 80 50 124.5t115 44.5h27q165 0 138 -164l-20 -127h-129l20 122q6 43 -29 43q-18 0 -25.5 -10t-11.5 -33l-67 -422q-3 -19 4.5 -31t25.5 -12q17 0 24.5 11t11.5 34z
M105 -188h-66l10 63h51q22 0 22 18q0 15 -18 15h-34l15 92h56l-6 -36h2q69 0 69 -65q0 -43 -27 -65t-74 -22z" />
    <glyph glyph-name="Egrave" unicode="&#xc8;" horiz-adv-x="313" 
d="M96 744h275l-21 -131h-145l-26 -162h116l-22 -134h-116l-29 -183h154l-22 -134h-282zM271 885l19 -115h-99l-24 115h104z" />
    <glyph glyph-name="Eacute" unicode="&#xc9;" horiz-adv-x="313" 
d="M96 744h275l-21 -131h-145l-26 -162h116l-22 -134h-116l-29 -183h154l-22 -134h-282zM182 770l56 115h108l-59 -115h-105z" />
    <glyph glyph-name="Ecircumflex" unicode="&#xca;" horiz-adv-x="313" 
d="M96 744h275l-21 -131h-145l-26 -162h116l-22 -134h-116l-29 -183h154l-22 -134h-282zM199 885h100l51 -115h-86l-22 47l-30 -47h-89z" />
    <glyph glyph-name="Edieresis" unicode="&#xcb;" horiz-adv-x="313" 
d="M96 744h275l-21 -131h-145l-26 -162h116l-22 -134h-116l-29 -183h154l-22 -134h-282zM347 770h-97l17 106h97zM225 770h-97l17 106h97z" />
    <glyph glyph-name="Igrave" unicode="&#xcc;" horiz-adv-x="170" 
d="M225 744l-118 -744h-129l118 744h129zM195 885l19 -115h-99l-24 115h104z" />
    <glyph glyph-name="Iacute" unicode="&#xcd;" horiz-adv-x="170" 
d="M225 744l-118 -744h-129l118 744h129zM114 770l56 115h108l-59 -115h-105z" />
    <glyph glyph-name="Icircumflex" unicode="&#xce;" horiz-adv-x="170" 
d="M225 744l-118 -744h-129l118 744h129zM122 885h100l51 -115h-86l-22 47l-30 -47h-89z" />
    <glyph glyph-name="Idieresis" unicode="&#xcf;" horiz-adv-x="170" 
d="M225 744l-118 -744h-129l118 744h129zM274 770h-97l17 106h97zM152 770h-97l17 106h97z" />
    <glyph glyph-name="Eth" unicode="&#xd0;" horiz-adv-x="369" 
d="M52 443l48 301h172q155 0 128 -159l-66 -417q-13 -88 -44.5 -128t-107.5 -40h-200l51 325h-24l19 118h24zM162 325l-32 -201h27q23 0 31.5 11t13.5 44l63 397q8 50 -26 50h-29l-29 -183h43l-18 -118h-44z" />
    <glyph glyph-name="Ntilde" unicode="&#xd1;" horiz-adv-x="366" 
d="M96 744h121l28 -385l61 385h115l-118 -744h-110l-34 414l-66 -414h-115zM314 864l3 19h72l-9 -57q-10 -55 -54 -55q-24 0 -61 19q-14 9 -22 9q-7 0 -9 -11l-3 -19h-71l7 44q11 69 56 69q19 0 60 -18q18 -8 23 -8q6 0 8 8z" />
    <glyph glyph-name="Ograve" unicode="&#xd2;" horiz-adv-x="376" 
d="M241 623q-19 0 -27.5 -11.5t-12.5 -37.5l-65 -410q-6 -42 31 -42q32 0 39 42l65 410q7 49 -30 49zM230 753h27q87 0 124 -51t24 -138l-62 -392q-31 -183 -164 -183h-27q-84 0 -123.5 50t-25.5 138l61 386q15 95 52.5 142.5t113.5 47.5zM294 886l19 -115h-99l-24 115h104z
" />
    <glyph glyph-name="Oacute" unicode="&#xd3;" horiz-adv-x="376" 
d="M241 623q-19 0 -27.5 -11.5t-12.5 -37.5l-65 -410q-6 -42 31 -42q32 0 39 42l65 410q7 49 -30 49zM230 753h27q87 0 124 -51t24 -138l-62 -392q-31 -183 -164 -183h-27q-84 0 -123.5 50t-25.5 138l61 386q15 95 52.5 142.5t113.5 47.5zM210 771l56 115h108l-59 -115h-105
z" />
    <glyph glyph-name="Ocircumflex" unicode="&#xd4;" horiz-adv-x="376" 
d="M241 623q-19 0 -27.5 -11.5t-12.5 -37.5l-65 -410q-6 -42 31 -42q32 0 39 42l65 410q7 49 -30 49zM230 753h27q87 0 124 -51t24 -138l-62 -392q-31 -183 -164 -183h-27q-84 0 -123.5 50t-25.5 138l61 386q15 95 52.5 142.5t113.5 47.5zM224 886h100l51 -115h-86l-22 47
l-30 -47h-89z" />
    <glyph glyph-name="Otilde" unicode="&#xd5;" horiz-adv-x="376" 
d="M241 623q-19 0 -27.5 -11.5t-12.5 -37.5l-65 -410q-6 -42 31 -42q32 0 39 42l65 410q7 49 -30 49zM230 753h27q87 0 124 -51t24 -138l-62 -392q-31 -183 -164 -183h-27q-84 0 -123.5 50t-25.5 138l61 386q15 95 52.5 142.5t113.5 47.5zM309 865l3 19h72l-9 -57
q-10 -55 -54 -55q-24 0 -61 19q-14 9 -22 9q-7 0 -9 -11l-3 -19h-71l7 44q10 69 56 69q19 0 60 -18q18 -8 23 -8q6 0 8 8z" />
    <glyph glyph-name="Odieresis" unicode="&#xd6;" horiz-adv-x="376" 
d="M241 623q-19 0 -27.5 -11.5t-12.5 -37.5l-65 -410q-6 -42 31 -42q32 0 39 42l65 410q7 49 -30 49zM230 753h27q87 0 124 -51t24 -138l-62 -392q-31 -183 -164 -183h-27q-84 0 -123.5 50t-25.5 138l61 386q15 95 52.5 142.5t113.5 47.5zM371 771h-97l17 106h97zM249 771
h-97l17 106h97z" />
    <glyph glyph-name="multiply" unicode="&#xd7;" horiz-adv-x="304" 
d="M221 149l-70 86l-94 -86l-56 65l96 88l-70 87l69 63l69 -87l95 87l57 -66l-98 -89l70 -87z" />
    <glyph glyph-name="Oslash" unicode="&#xd8;" horiz-adv-x="372" 
d="M401 564l-62 -394q-28 -181 -167 -181h-26q-52 0 -94 31l-11 -20h-69l38 71q-18 43 -8 99l62 393q16 94 52.5 142t111.5 48h27q59 0 96 -30l11 21h69l-38 -74q19 -44 8 -106zM166 122q33 0 40 42l38 238l-112 -238v-1q-7 -41 34 -41zM239 623q-35 0 -42 -49l-37 -230
l112 238q3 41 -33 41z" />
    <glyph glyph-name="Ugrave" unicode="&#xd9;" horiz-adv-x="368" 
d="M5 177l90 567h133l-91 -576q-7 -46 27 -46q17 0 24.5 10.5t11.5 35.5l91 576h133l-90 -567q-16 -100 -54.5 -144t-110.5 -44h-29q-76 0 -112.5 49.5t-22.5 138.5zM296 885l19 -115h-99l-24 115h104z" />
    <glyph glyph-name="Uacute" unicode="&#xda;" horiz-adv-x="368" 
d="M5 177l90 567h133l-91 -576q-7 -46 27 -46q17 0 24.5 10.5t11.5 35.5l91 576h133l-90 -567q-16 -100 -54.5 -144t-110.5 -44h-29q-76 0 -112.5 49.5t-22.5 138.5zM206 770l56 115h108l-59 -115h-105z" />
    <glyph glyph-name="Ucircumflex" unicode="&#xdb;" horiz-adv-x="368" 
d="M5 177l90 567h133l-91 -576q-7 -46 27 -46q17 0 24.5 10.5t11.5 35.5l91 576h133l-90 -567q-16 -100 -54.5 -144t-110.5 -44h-29q-76 0 -112.5 49.5t-22.5 138.5zM222 885h100l51 -115h-86l-22 47l-30 -47h-89z" />
    <glyph glyph-name="Udieresis" unicode="&#xdc;" horiz-adv-x="368" 
d="M5 177l90 567h133l-91 -576q-7 -46 27 -46q17 0 24.5 10.5t11.5 35.5l91 576h133l-90 -567q-16 -100 -54.5 -144t-110.5 -44h-29q-76 0 -112.5 49.5t-22.5 138.5zM373 770h-97l17 106h97zM251 770h-97l17 106h97z" />
    <glyph glyph-name="Yacute" unicode="&#xdd;" horiz-adv-x="322" 
d="M403 744l-168 -444l-47 -300h-130l47 296l-36 448h126l4 -264l86 264h118zM183 770l56 115h108l-59 -115h-105z" />
    <glyph glyph-name="Thorn" unicode="&#xde;" horiz-adv-x="355" 
d="M217 188h-80l-30 -188h-129l118 744h129l-24 -150h57q68 0 97.5 -31.5t18.5 -101.5l-21 -134q-11 -72 -43.5 -105.5t-92.5 -33.5zM184 486l-30 -187h33q18 0 25.5 8.5t11.5 31.5l17 106q3 21 -3 31t-26 10h-28z" />
    <glyph glyph-name="germandbls" unicode="&#xdf;" horiz-adv-x="335" 
d="M288 443q59 -25 45 -101l-34 -212q-11 -69 -37 -99.5t-90 -30.5h-56l19 119h17q11 0 14.5 5t5.5 20l29 180q2 15 -0.5 19.5t-13.5 4.5h-17l20 118h16q16 0 20 25l18 113q4 30 -21 30h-2q-13 0 -18.5 -6.5t-7.5 -22.5l-96 -605h-124l96 606q18 138 146 138h26
q71 0 101.5 -34.5t20.5 -98.5l-14 -89q-11 -66 -63 -79z" />
    <glyph glyph-name="agrave" unicode="&#xe0;" horiz-adv-x="328" 
d="M-14 98l17 108q12 80 67 109q16 9 63 29.5t49 21.5q10 5 14 23l4 25q6 32 -19 32h-3q-20 0 -25 -31l-8 -51h-111l12 74q8 47 35 76.5t95 29.5h22q143 0 124 -118l-47 -295q-5 -17 14 -17h14l-18 -114h-112q-19 0 -26 13t-2 47q-41 -65 -96 -65h-2q-35 0 -51.5 28.5
t-9.5 74.5zM128 102q22 0 27 31l21 131q-31 -18 -36 -23q-14 -14 -18 -42l-10 -62q-6 -35 16 -35zM224 700l20 -136h-96l-22 136h98z" />
    <glyph glyph-name="aacute" unicode="&#xe1;" horiz-adv-x="328" 
d="M-14 98l17 108q12 80 67 109q16 9 63 29.5t49 21.5q10 5 14 23l4 25q6 32 -19 32h-3q-20 0 -25 -31l-8 -51h-111l12 74q8 47 35 76.5t95 29.5h22q143 0 124 -118l-47 -295q-5 -17 14 -17h14l-18 -114h-112q-19 0 -26 13t-2 47q-41 -65 -96 -65h-2q-35 0 -51.5 28.5
t-9.5 74.5zM128 102q22 0 27 31l21 131q-31 -18 -36 -23q-14 -14 -18 -42l-10 -62q-6 -35 16 -35zM144 564l60 136h105l-63 -136h-102z" />
    <glyph glyph-name="acircumflex" unicode="&#xe2;" horiz-adv-x="328" 
d="M-14 98l17 108q12 80 67 109q16 9 63 29.5t49 21.5q10 5 14 23l4 25q6 32 -19 32h-3q-20 0 -25 -31l-8 -51h-111l12 74q8 47 35 76.5t95 29.5h22q143 0 124 -118l-47 -295q-5 -17 14 -17h14l-18 -114h-112q-19 0 -26 13t-2 47q-41 -65 -96 -65h-2q-35 0 -51.5 28.5
t-9.5 74.5zM128 102q22 0 27 31l21 131q-31 -18 -36 -23q-14 -14 -18 -42l-10 -62q-6 -35 16 -35zM267 700l43 -136h-87l-17 62l-31 -62h-88l76 136h104z" />
    <glyph glyph-name="atilde" unicode="&#xe3;" horiz-adv-x="328" 
d="M-14 98l17 108q12 80 67 109q16 9 63 29.5t49 21.5q10 5 14 23l4 25q6 32 -19 32h-3q-20 0 -25 -31l-8 -51h-111l12 74q8 47 35 76.5t95 29.5h22q143 0 124 -118l-47 -295q-5 -17 14 -17h14l-18 -114h-112q-19 0 -26 13t-2 47q-41 -65 -96 -65h-2q-35 0 -51.5 28.5
t-9.5 74.5zM128 102q22 0 27 31l21 131q-31 -18 -36 -23q-14 -14 -18 -42l-10 -62q-6 -35 16 -35zM246 659l3 19h71l-9 -57q-10 -58 -53 -58q-23 0 -60 20q-14 9 -23 9q-8 0 -10 -11l-3 -18h-71l7 44q11 71 57 71q20 0 59 -19q15 -9 24 -9q6 0 8 9z" />
    <glyph glyph-name="adieresis" unicode="&#xe4;" horiz-adv-x="328" 
d="M-14 98l17 108q12 80 67 109q16 9 63 29.5t49 21.5q10 5 14 23l4 25q6 32 -19 32h-3q-20 0 -25 -31l-8 -51h-111l12 74q8 47 35 76.5t95 29.5h22q143 0 124 -118l-47 -295q-5 -17 14 -17h14l-18 -114h-112q-19 0 -26 13t-2 47q-41 -65 -96 -65h-2q-35 0 -51.5 28.5
t-9.5 74.5zM128 102q22 0 27 31l21 131q-31 -18 -36 -23q-14 -14 -18 -42l-10 -62q-6 -35 16 -35zM308 564h-97l17 106h97zM204 670l-17 -106h-97l17 106h97z" />
    <glyph glyph-name="aring" unicode="&#xe5;" horiz-adv-x="328" 
d="M-14 98l17 108q12 80 67 109q16 9 63 29.5t49 21.5q10 5 14 23l4 25q6 32 -19 32h-3q-20 0 -25 -31l-8 -51h-111l12 74q8 47 35 76.5t95 29.5h22q143 0 124 -118l-47 -295q-5 -17 14 -17h14l-18 -114h-112q-19 0 -26 13t-2 47q-41 -65 -96 -65h-2q-35 0 -51.5 28.5
t-9.5 74.5zM128 102q22 0 27 31l21 131q-31 -18 -36 -23q-14 -14 -18 -42l-10 -62q-6 -35 16 -35zM200 608q15 0 23.5 9t8.5 24t-8.5 24t-23.5 9t-23.5 -9t-8.5 -24t8.5 -24t23.5 -9zM200 562q-35 0 -57.5 22t-22.5 57t22.5 57t57.5 22t57.5 -22t22.5 -57t-22.5 -57
t-57.5 -22z" />
    <glyph glyph-name="ae" unicode="&#xe6;" horiz-adv-x="477" 
d="M156 58q-15 -23 -42 -43t-59 -20h-3q-37 0 -55.5 27.5t-12.5 63.5l16 103q7 43 21 67t45 41q16 9 63 29t50 21q9 4 14 25l7 45q5 29 -19 29h-3q-20 0 -25 -29l-12 -72h-110l15 93q8 47 35 76.5t95 29.5h22q51 0 80 -27q26 29 74 29h21q61 0 92 -36.5t21 -98.5l-26 -159
h-167l-18 -117q-5 -33 20 -33q22 0 28 36l12 77h119l-15 -90q-22 -135 -139 -135h-27q-90 0 -117 68zM128 102q22 0 27 32l18 111q-21 -9 -36 -22q-14 -14 -18 -43l-7 -44q-5 -34 16 -34zM319 413l-11 -65h51l11 65q2 19 -2.5 27.5t-20.5 8.5q-13 0 -19 -8.5t-9 -27.5z" />
    <glyph glyph-name="ccedilla" unicode="&#xe7;" horiz-adv-x="314" 
d="M181 241h116l-18 -113q-11 -67 -42.5 -103t-94.5 -36h-20q-75 0 -108 39.5t-21 106.5l42 265q10 71 45 109.5t103 38.5h25q70 0 98 -37.5t19 -93.5l-14 -88h-116l12 76q7 38 -18 38q-13 0 -19 -8.5t-8 -28.5l-43 -271q-5 -33 19 -33q9 0 14.5 4t7.5 10t4 17zM83 -188h-66
l10 63h51q22 0 22 18q0 15 -18 15h-34l15 92h56l-6 -36h2q69 0 69 -65q0 -43 -27 -65t-74 -22z" />
    <glyph glyph-name="egrave" unicode="&#xe8;" horiz-adv-x="316" 
d="M176 548h26q67 0 100 -36t22 -101l-25 -159h-168l-18 -117q-5 -33 20 -33q23 0 28 33l13 80h119l-14 -88q-22 -137 -141 -137h-27q-65 0 -97.5 35t-21.5 105l45 283q20 135 139 135zM157 413l-11 -65h51l10 63q6 38 -22 38q-13 0 -19 -8.5t-9 -27.5zM225 700l20 -136h-96
l-22 136h98z" />
    <glyph glyph-name="eacute" unicode="&#xe9;" horiz-adv-x="316" 
d="M176 548h26q67 0 100 -36t22 -101l-25 -159h-168l-18 -117q-5 -33 20 -33q23 0 28 33l13 80h119l-14 -88q-22 -137 -141 -137h-27q-65 0 -97.5 35t-21.5 105l45 283q20 135 139 135zM157 413l-11 -65h51l10 63q6 38 -22 38q-13 0 -19 -8.5t-9 -27.5zM148 564l60 136h105
l-63 -136h-102z" />
    <glyph glyph-name="ecircumflex" unicode="&#xea;" horiz-adv-x="316" 
d="M176 548h26q67 0 100 -36t22 -101l-25 -159h-168l-18 -117q-5 -33 20 -33q23 0 28 33l13 80h119l-14 -88q-22 -137 -141 -137h-27q-65 0 -97.5 35t-21.5 105l45 283q20 135 139 135zM157 413l-11 -65h51l10 63q6 38 -22 38q-13 0 -19 -8.5t-9 -27.5zM270 700l43 -136h-87
l-17 62l-31 -62h-88l76 136h104z" />
    <glyph glyph-name="edieresis" unicode="&#xeb;" horiz-adv-x="316" 
d="M176 548h26q67 0 100 -36t22 -101l-25 -159h-168l-18 -117q-5 -33 20 -33q23 0 28 33l13 80h119l-14 -88q-22 -137 -141 -137h-27q-65 0 -97.5 35t-21.5 105l45 283q20 135 139 135zM157 413l-11 -65h51l10 63q6 38 -22 38q-13 0 -19 -8.5t-9 -27.5zM309 564h-97l17 106
h97zM205 670l-17 -106h-97l17 106h97z" />
    <glyph glyph-name="igrave" unicode="&#xec;" horiz-adv-x="159" 
d="M184 538l-85 -538h-124l85 538h124zM155 700l20 -136h-96l-22 136h98z" />
    <glyph glyph-name="iacute" unicode="&#xed;" horiz-adv-x="159" 
d="M184 538l-85 -538h-124l85 538h124zM76 564l60 136h105l-63 -136h-102z" />
    <glyph glyph-name="icircumflex" unicode="&#xee;" horiz-adv-x="159" 
d="M199 697l25 -134h-80l-6 64l-29 -64h-81l67 134h104zM184 538l-85 -538h-124l85 538h124z" />
    <glyph glyph-name="idieresis" unicode="&#xef;" horiz-adv-x="159" 
d="M130 670l-17 -106h-88l17 106h88zM238 670l-17 -106h-88l17 106h88zM184 538l-85 -538h-124l85 538h124z" />
    <glyph glyph-name="eth" unicode="&#xf0;" horiz-adv-x="332" 
d="M101 553l12 82l62 25l-24 84h114l12 -41l73 30l-12 -81l-41 -17l21 -68q17 -58 21 -87.5t-3 -87.5l-39 -247q-10 -69 -47.5 -112t-98.5 -43h-32q-69 0 -101.5 44t-22.5 112l45 283q18 111 94 111h2q32 0 52.5 -16.5t39.5 -45.5l-33 114zM171 142l41 258q6 37 -22 37
q-14 0 -20 -8.5t-9 -28.5l-41 -258q-6 -36 24 -36q14 0 19 9t8 27z" />
    <glyph glyph-name="ntilde" unicode="&#xf1;" horiz-adv-x="333" 
d="M-25 0l85 538h123l-10 -65q44 67 99 67h7q40 0 55 -29.5t10 -63.5l-71 -447h-125l62 392q5 36 -21 36q-23 0 -28 -36l-62 -392h-124zM256 659l3 19h71l-9 -57q-10 -58 -53 -58q-23 0 -60 20q-14 9 -23 9q-8 0 -10 -11l-3 -18h-71l7 44q11 71 57 71q20 0 59 -19
q15 -9 24 -9q6 0 8 9z" />
    <glyph glyph-name="ograve" unicode="&#xf2;" horiz-adv-x="331" 
d="M151 -10h-29q-72 0 -105 42.5t-23 109.5l41 255q12 75 46.5 113t98.5 38h29q68 0 103.5 -39.5t24.5 -109.5l-41 -255q-10 -70 -46.5 -112t-98.5 -42zM190 437q-24 0 -29 -37l-41 -256q-5 -38 22 -38q11 0 17 6t8 12.5t4 19.5l41 256q5 37 -22 37zM233 700l20 -136h-96
l-22 136h98z" />
    <glyph glyph-name="oacute" unicode="&#xf3;" horiz-adv-x="331" 
d="M151 -10h-29q-72 0 -105 42.5t-23 109.5l41 255q12 75 46.5 113t98.5 38h29q68 0 103.5 -39.5t24.5 -109.5l-41 -255q-10 -70 -46.5 -112t-98.5 -42zM190 437q-24 0 -29 -37l-41 -256q-5 -38 22 -38q11 0 17 6t8 12.5t4 19.5l41 256q5 37 -22 37zM157 564l60 136h105
l-63 -136h-102z" />
    <glyph glyph-name="ocircumflex" unicode="&#xf4;" horiz-adv-x="331" 
d="M151 -10h-29q-72 0 -105 42.5t-23 109.5l41 255q12 75 46.5 113t98.5 38h29q68 0 103.5 -39.5t24.5 -109.5l-41 -255q-10 -70 -46.5 -112t-98.5 -42zM190 437q-24 0 -29 -37l-41 -256q-5 -38 22 -38q11 0 17 6t8 12.5t4 19.5l41 256q5 37 -22 37zM277 700l43 -136h-87
l-17 62l-31 -62h-88l76 136h104z" />
    <glyph glyph-name="otilde" unicode="&#xf5;" horiz-adv-x="331" 
d="M151 -10h-29q-72 0 -105 42.5t-23 109.5l41 255q12 75 46.5 113t98.5 38h29q68 0 103.5 -39.5t24.5 -109.5l-41 -255q-10 -70 -46.5 -112t-98.5 -42zM190 437q-24 0 -29 -37l-41 -256q-5 -38 22 -38q11 0 17 6t8 12.5t4 19.5l41 256q5 37 -22 37zM258 659l3 19h71l-9 -57
q-10 -58 -53 -58q-23 0 -60 20q-14 9 -23 9q-8 0 -10 -11l-3 -18h-71l7 44q11 71 57 71q20 0 59 -19q15 -9 24 -9q6 0 8 9z" />
    <glyph glyph-name="odieresis" unicode="&#xf6;" horiz-adv-x="331" 
d="M151 -10h-29q-72 0 -105 42.5t-23 109.5l41 255q12 75 46.5 113t98.5 38h29q68 0 103.5 -39.5t24.5 -109.5l-41 -255q-10 -70 -46.5 -112t-98.5 -42zM190 437q-24 0 -29 -37l-41 -256q-5 -38 22 -38q11 0 17 6t8 12.5t4 19.5l41 256q5 37 -22 37zM318 564h-97l17 106h97z
M214 670l-17 -106h-97l17 106h97z" />
    <glyph glyph-name="divide" unicode="&#xf7;" horiz-adv-x="333" 
d="M27 346h304l-14 -91h-304zM251 478l-17 -103h-100l16 103h101zM210 223l-16 -103h-101l16 103h101z" />
    <glyph glyph-name="oslash" unicode="&#xf8;" horiz-adv-x="330" 
d="M-4 151l39 246q12 75 46 113t98 38h29q51 0 82 -27l11 17h64l-39 -63q17 -40 9 -81l-40 -253q-11 -67 -46.5 -109t-97.5 -42h-29q-48 0 -80 28l-11 -18h-65l38 63q-16 43 -8 88zM159 397l-21 -130l74 132v1q5 37 -23 37q-15 0 -21 -9t-9 -31zM141 106q16 0 21.5 9t8.5 27
l20 129l-73 -131q-5 -34 23 -34z" />
    <glyph glyph-name="ugrave" unicode="&#xf9;" horiz-adv-x="330" 
d="M355 538l-85 -538h-123l10 65q-17 -28 -43 -47.5t-55 -19.5h-7q-39 0 -54 30.5t-8 68.5l70 441h125l-62 -392q-6 -36 19 -36q13 0 19 8.5t8 27.5l62 392h124zM242 700l20 -136h-96l-22 136h98z" />
    <glyph glyph-name="uacute" unicode="&#xfa;" horiz-adv-x="330" 
d="M355 538l-85 -538h-123l10 65q-17 -28 -43 -47.5t-55 -19.5h-7q-39 0 -54 30.5t-8 68.5l70 441h125l-62 -392q-6 -36 19 -36q13 0 19 8.5t8 27.5l62 392h124zM158 564l60 136h105l-63 -136h-102z" />
    <glyph glyph-name="ucircumflex" unicode="&#xfb;" horiz-adv-x="330" 
d="M355 538l-85 -538h-123l10 65q-17 -28 -43 -47.5t-55 -19.5h-7q-39 0 -54 30.5t-8 68.5l70 441h125l-62 -392q-6 -36 19 -36q13 0 19 8.5t8 27.5l62 392h124zM279 700l43 -136h-87l-17 62l-31 -62h-88l76 136h104z" />
    <glyph glyph-name="udieresis" unicode="&#xfc;" horiz-adv-x="330" 
d="M355 538l-85 -538h-123l10 65q-17 -28 -43 -47.5t-55 -19.5h-7q-39 0 -54 30.5t-8 68.5l70 441h125l-62 -392q-6 -36 19 -36q13 0 19 8.5t8 27.5l62 392h124zM319 564h-97l17 106h97zM215 670l-17 -106h-97l17 106h97z" />
    <glyph glyph-name="yacute" unicode="&#xfd;" horiz-adv-x="308" 
d="M56 9l-15 529h119l-7 -296l76 296h125l-206 -646q-13 -42 -31.5 -61t-47.5 -19h-119l19 118h49q13 0 19 6t9 19l6 23q4 15 4 31zM145 564l60 136h105l-63 -136h-102z" />
    <glyph glyph-name="thorn" unicode="&#xfe;" horiz-adv-x="333" 
d="M93 744h123l-43 -267q14 26 40 46.5t57 20.5h2q41 0 59.5 -32t10.5 -83l-51 -321q-8 -56 -34.5 -87.5t-63.5 -31.5h-2q-57 0 -85 58l-37 -235h-124zM162 402l-43 -272q-5 -36 21 -36q23 0 28 35l43 273q4 34 -20 34q-25 0 -29 -34z" />
    <glyph glyph-name="ydieresis" unicode="&#xff;" horiz-adv-x="308" 
d="M56 9l-15 529h119l-7 -296l76 296h125l-206 -646q-13 -42 -31.5 -61t-47.5 -19h-119l19 118h49q13 0 19 6t9 19l6 23q4 15 4 31zM306 564h-97l17 106h97zM202 670l-17 -106h-97l17 106h97z" />
    <glyph glyph-name="Amacron" unicode="&#x100;" horiz-adv-x="338" 
d="M176 0l6 125h-79l-31 -125h-117l209 744h153l-17 -744h-124zM136 253h52l11 251zM150 777l14 88h189l-14 -88h-189z" />
    <glyph glyph-name="amacron" unicode="&#x101;" horiz-adv-x="328" 
d="M-14 98l17 108q12 80 67 109q16 9 63 29.5t49 21.5q10 5 14 23l4 25q6 32 -19 32h-3q-20 0 -25 -31l-8 -51h-111l12 74q8 47 35 76.5t95 29.5h22q143 0 124 -118l-47 -295q-5 -17 14 -17h14l-18 -114h-112q-19 0 -26 13t-2 47q-41 -65 -96 -65h-2q-35 0 -51.5 28.5
t-9.5 74.5zM128 102q22 0 27 31l21 131q-31 -18 -36 -23q-14 -14 -18 -42l-10 -62q-6 -35 16 -35zM107 576l14 87h186l-14 -87h-186z" />
    <glyph glyph-name="Abreve" unicode="&#x102;" horiz-adv-x="338" 
d="M176 0l6 125h-79l-31 -125h-117l209 744h153l-17 -744h-124zM136 253h52l11 251zM247 767h-4q-50 0 -76 28.5t-20 79.5h81q-2 -13 3.5 -21.5t17.5 -8.5h1q26 0 26 30h83q-2 -51 -32.5 -79.5t-79.5 -28.5z" />
    <glyph glyph-name="abreve" unicode="&#x103;" horiz-adv-x="328" 
d="M-14 98l17 108q12 80 67 109q16 9 63 29.5t49 21.5q10 5 14 23l4 25q6 32 -19 32h-3q-20 0 -25 -31l-8 -51h-111l12 74q8 47 35 76.5t95 29.5h22q143 0 124 -118l-47 -295q-5 -17 14 -17h14l-18 -114h-112q-19 0 -26 13t-2 47q-41 -65 -96 -65h-2q-35 0 -51.5 28.5
t-9.5 74.5zM128 102q22 0 27 31l21 131q-31 -18 -36 -23q-14 -14 -18 -42l-10 -62q-6 -35 16 -35zM203 563h-3q-50 0 -77 28.5t-19 81.5l1 7h83l-1 -6q-6 -33 20 -33h1q21 0 27 33l1 6h81l-1 -8q-7 -53 -37.5 -81t-75.5 -28z" />
    <glyph glyph-name="Aogonek" unicode="&#x104;" horiz-adv-x="338" 
d="M176 0l6 125h-79l-31 -125h-117l209 744h153l-17 -744h-124zM136 253h52l11 251zM270 -188h-49q-38 0 -56.5 19t-13.5 51l2 13q9 49 86 105h61q-56 -56 -56 -90q0 -19 23 -19h15z" />
    <glyph glyph-name="aogonek" unicode="&#x105;" horiz-adv-x="328" 
d="M-14 98l17 108q12 80 67 109q16 9 63 29.5t49 21.5q10 5 14 23l4 25q6 32 -19 32h-3q-20 0 -25 -31l-8 -51h-111l12 74q8 47 35 76.5t95 29.5h22q143 0 124 -118l-47 -295q-5 -17 14 -17h14l-18 -114h-112q-19 0 -26 13t-2 47q-41 -65 -96 -65h-2q-35 0 -51.5 28.5
t-9.5 74.5zM128 102q22 0 27 31l21 131q-31 -18 -36 -23q-14 -14 -18 -42l-10 -62q-6 -35 16 -35zM255 -188h-49q-38 0 -56.5 19t-13.5 51l2 13q9 49 86 105h61q-56 -56 -56 -90q0 -19 23 -19h15z" />
    <glyph glyph-name="Cacute" unicode="&#x106;" horiz-adv-x="363" 
d="M204 771l56 114h108l-59 -114h-105zM202 165l26 162h129l-26 -164q-11 -80 -48 -127t-116 -47h-26q-87 0 -119 49.5t-21 124.5l67 422q14 80 50 124.5t115 44.5h27q165 0 138 -164l-20 -127h-129l20 122q6 43 -29 43q-18 0 -25.5 -10t-11.5 -33l-67 -422q-3 -19 4.5 -31
t25.5 -12q17 0 24.5 11t11.5 34z" />
    <glyph glyph-name="cacute" unicode="&#x107;" horiz-adv-x="314" 
d="M153 566l59 134h105l-62 -134h-102zM181 241h116l-18 -113q-11 -67 -42.5 -103t-94.5 -36h-20q-75 0 -108 39.5t-21 106.5l42 265q10 71 45 109.5t103 38.5h25q70 0 98 -37.5t19 -93.5l-14 -88h-116l12 76q7 38 -18 38q-13 0 -19 -8.5t-8 -28.5l-43 -271q-5 -33 19 -33
q9 0 14.5 4t7.5 10t4 17z" />
    <glyph glyph-name="Ccircumflex" unicode="&#x108;" horiz-adv-x="363" 
d="M220 885h100l51 -114h-86l-22 46l-30 -46h-89zM202 165l26 162h129l-26 -164q-11 -80 -48 -127t-116 -47h-26q-87 0 -119 49.5t-21 124.5l67 422q14 80 50 124.5t115 44.5h27q165 0 138 -164l-20 -127h-129l20 122q6 43 -29 43q-18 0 -25.5 -10t-11.5 -33l-67 -422
q-3 -19 4.5 -31t25.5 -12q17 0 24.5 11t11.5 34z" />
    <glyph glyph-name="ccircumflex" unicode="&#x109;" horiz-adv-x="314" 
d="M274 700l43 -134h-87l-17 60l-31 -60h-88l76 134h104zM181 241h116l-18 -113q-11 -67 -42.5 -103t-94.5 -36h-20q-75 0 -108 39.5t-21 106.5l42 265q10 71 45 109.5t103 38.5h25q70 0 98 -37.5t19 -93.5l-14 -88h-116l12 76q7 38 -18 38q-13 0 -19 -8.5t-8 -28.5
l-43 -271q-5 -33 19 -33q9 0 14.5 4t7.5 10t4 17z" />
    <glyph glyph-name="Cdotaccent" unicode="&#x10a;" horiz-adv-x="363" 
d="M319 771h-124l20 125h124zM202 165l26 162h129l-26 -164q-11 -80 -48 -127t-116 -47h-26q-87 0 -119 49.5t-21 124.5l67 422q14 80 50 124.5t115 44.5h27q165 0 138 -164l-20 -127h-129l20 122q6 43 -29 43q-18 0 -25.5 -10t-11.5 -33l-67 -422q-3 -19 4.5 -31t25.5 -12
q17 0 24.5 11t11.5 34z" />
    <glyph glyph-name="cdotaccent" unicode="&#x10b;" horiz-adv-x="314" 
d="M282 690l-20 -124h-124l20 124h124zM181 241h116l-18 -113q-11 -67 -42.5 -103t-94.5 -36h-20q-75 0 -108 39.5t-21 106.5l42 265q10 71 45 109.5t103 38.5h25q70 0 98 -37.5t19 -93.5l-14 -88h-116l12 76q7 38 -18 38q-13 0 -19 -8.5t-8 -28.5l-43 -271q-5 -33 19 -33
q9 0 14.5 4t7.5 10t4 17z" />
    <glyph glyph-name="Ccaron" unicode="&#x10c;" horiz-adv-x="363" 
d="M308 771h-100l-52 114h87l22 -48l30 48h89zM202 165l26 162h129l-26 -164q-11 -80 -48 -127t-116 -47h-26q-87 0 -119 49.5t-21 124.5l67 422q14 80 50 124.5t115 44.5h27q165 0 138 -164l-20 -127h-129l20 122q6 43 -29 43q-18 0 -25.5 -10t-11.5 -33l-67 -422
q-3 -19 4.5 -31t25.5 -12q17 0 24.5 11t11.5 34z" />
    <glyph glyph-name="ccaron" unicode="&#x10d;" horiz-adv-x="314" 
d="M148 566l-42 134h86l18 -62l31 62h88l-76 -134h-105zM181 241h116l-18 -113q-11 -67 -42.5 -103t-94.5 -36h-20q-75 0 -108 39.5t-21 106.5l42 265q10 71 45 109.5t103 38.5h25q70 0 98 -37.5t19 -93.5l-14 -88h-116l12 76q7 38 -18 38q-13 0 -19 -8.5t-8 -28.5l-43 -271
q-5 -33 19 -33q9 0 14.5 4t7.5 10t4 17z" />
    <glyph glyph-name="Dcaron" unicode="&#x10e;" horiz-adv-x="365" 
d="M-22 0l118 744h172q155 0 128 -159l-66 -417q-13 -88 -44.5 -128t-107.5 -40h-200zM206 626l-80 -502h27q23 0 31.5 11t13.5 44l63 397q8 50 -26 50h-29zM286 770h-100l-52 115h87l22 -48l30 48h89z" />
    <glyph glyph-name="dcaron" unicode="&#x10f;" horiz-adv-x="333" 
d="M384 594l29 150h88l-35 -150h-82zM267 744h124l-118 -744h-124l10 60q-11 -24 -38 -47.5t-58 -23.5h-2q-39 0 -58.5 35t-11.5 85l52 328q7 44 30.5 75.5t61.5 31.5h4q57 0 86 -66zM171 140l40 252q6 42 -21 42q-22 0 -28 -37l-41 -258q-5 -38 20 -38q24 0 30 39z" />
    <glyph glyph-name="Dcroat" unicode="&#x110;" horiz-adv-x="369" 
d="M52 443l48 301h172q155 0 128 -159l-66 -417q-13 -88 -44.5 -128t-107.5 -40h-200l51 325h-24l19 118h24zM162 325l-32 -201h27q23 0 31.5 11t13.5 44l63 397q8 50 -26 50h-29l-29 -183h43l-18 -118h-44z" />
    <glyph glyph-name="dcroat" unicode="&#x111;" horiz-adv-x="334" 
d="M170 583l14 91h229l-14 -91h-229zM267 744h124l-118 -744h-124l10 60q-11 -24 -38 -47.5t-58 -23.5h-2q-39 0 -58.5 35t-11.5 85l52 328q7 44 30.5 75.5t61.5 31.5h4q57 0 86 -66zM171 140l40 252q6 42 -21 42q-22 0 -28 -37l-41 -258q-5 -38 20 -38q24 0 30 39z" />
    <glyph glyph-name="Emacron" unicode="&#x112;" horiz-adv-x="313" 
d="M96 744h275l-21 -131h-145l-26 -162h116l-22 -134h-116l-29 -183h154l-22 -134h-282zM146 777l14 88h189l-14 -88h-189z" />
    <glyph glyph-name="emacron" unicode="&#x113;" horiz-adv-x="316" 
d="M176 548h26q67 0 100 -36t22 -101l-25 -159h-168l-18 -117q-5 -33 20 -33q23 0 28 33l13 80h119l-14 -88q-22 -137 -141 -137h-27q-65 0 -97.5 35t-21.5 105l45 283q20 135 139 135zM157 413l-11 -65h51l10 63q6 38 -22 38q-13 0 -19 -8.5t-9 -27.5zM110 578l14 87h186
l-14 -87h-186z" />
    <glyph glyph-name="Ebreve" unicode="&#x114;" horiz-adv-x="313" 
d="M96 744h275l-21 -131h-145l-26 -162h116l-22 -134h-116l-29 -183h154l-22 -134h-282zM241 767h-4q-50 0 -76 28.5t-20 79.5h81q-2 -13 3.5 -21.5t17.5 -8.5h1q26 0 26 30h83q-2 -51 -32.5 -79.5t-79.5 -28.5z" />
    <glyph glyph-name="ebreve" unicode="&#x115;" horiz-adv-x="316" 
d="M176 548h26q67 0 100 -36t22 -101l-25 -159h-168l-18 -117q-5 -33 20 -33q23 0 28 33l13 80h119l-14 -88q-22 -137 -141 -137h-27q-65 0 -97.5 35t-21.5 105l45 283q20 135 139 135zM157 413l-11 -65h51l10 63q6 38 -22 38q-13 0 -19 -8.5t-9 -27.5zM209 565h-3
q-50 0 -77 28.5t-19 81.5l1 7h83l-1 -6q-6 -33 20 -33h1q21 0 27 33l1 6h81l-1 -8q-7 -53 -37.5 -81t-75.5 -28z" />
    <glyph glyph-name="Edotaccent" unicode="&#x116;" horiz-adv-x="313" 
d="M96 744h275l-21 -131h-145l-26 -162h116l-22 -134h-116l-29 -183h154l-22 -134h-282zM299 770h-124l20 126h124z" />
    <glyph glyph-name="edotaccent" unicode="&#x117;" horiz-adv-x="316" 
d="M279 690l-20 -124h-124l20 124h124zM176 548h26q67 0 100 -36t22 -101l-25 -159h-168l-18 -117q-5 -33 20 -33q23 0 28 33l13 80h119l-14 -88q-22 -137 -141 -137h-27q-65 0 -97.5 35t-21.5 105l45 283q20 135 139 135zM157 413l-11 -65h51l10 63q6 38 -22 38
q-13 0 -19 -8.5t-9 -27.5z" />
    <glyph glyph-name="Eogonek" unicode="&#x118;" horiz-adv-x="313" 
d="M96 744h275l-21 -131h-145l-26 -162h116l-22 -134h-116l-29 -183h154l-22 -134h-282zM187 -188h-49q-38 0 -56.5 19t-13.5 51l2 13q9 49 86 105h61q-56 -56 -56 -90q0 -19 23 -19h15z" />
    <glyph glyph-name="eogonek" unicode="&#x119;" horiz-adv-x="316" 
d="M219 1q-53 -62 -53 -91q0 -19 23 -19h15l-12 -79h-49q-38 0 -56.5 19t-13.5 51l2 13q7 46 73 95h-10h-27q-65 0 -97.5 35t-21.5 105l45 283q20 135 139 135h26q67 0 100 -36t22 -101l-25 -159h-168l-18 -117q-5 -33 20 -33q23 0 28 33l13 80h119l-14 -88
q-5 -31 -17.5 -58.5t-18.5 -36t-24 -31.5zM157 413l-11 -65h51l10 63q6 38 -22 38q-13 0 -19 -8.5t-9 -27.5z" />
    <glyph glyph-name="Ecaron" unicode="&#x11a;" horiz-adv-x="313" 
d="M96 744h275l-21 -131h-145l-26 -162h116l-22 -134h-116l-29 -183h154l-22 -134h-282zM287 770h-100l-52 115h87l22 -48l30 48h89z" />
    <glyph glyph-name="ecaron" unicode="&#x11b;" horiz-adv-x="316" 
d="M145 566l-42 134h86l18 -62l31 62h88l-76 -134h-105zM176 548h26q67 0 100 -36t22 -101l-25 -159h-168l-18 -117q-5 -33 20 -33q23 0 28 33l13 80h119l-14 -88q-22 -137 -141 -137h-27q-65 0 -97.5 35t-21.5 105l45 283q20 135 139 135zM157 413l-11 -65h51l10 63
q6 38 -22 38q-13 0 -19 -8.5t-9 -27.5z" />
    <glyph glyph-name="Gcircumflex" unicode="&#x11c;" horiz-adv-x="368" 
d="M216 885h100l51 -114h-86l-22 46l-30 -46h-89zM109 -10h-9q-57 0 -85 43.5t-18 101.5l70 444q11 79 48 126.5t115 47.5h26q89 0 120 -48t18 -125l-13 -80h-126l13 81q3 25 -3 36t-25 11q-17 0 -25.5 -11t-12.5 -36l-65 -411q-7 -51 29 -51q37 0 44 46l26 161h-49l21 125
h172l-71 -451h-77q0 40 -11 71q-13 -28 -43.5 -54.5t-68.5 -26.5z" />
    <glyph glyph-name="gcircumflex" unicode="&#x11d;" horiz-adv-x="332" 
d="M137 -66l20 125q-37 -69 -95 -69q-37 0 -58 31.5t-13 83.5l50 315q20 125 98 125h1q18 0 32 -6.5t24.5 -18.5t16 -21t12.5 -22l10 61h122l-97 -612q-17 -121 -153 -121h-17q-73 0 -102 29t-22 78l10 63h118l-7 -44q-5 -25 19 -25h4q22 0 27 28zM167 126l44 277
q5 34 -20 34q-22 0 -27 -33l-44 -278q-5 -30 21 -30q21 0 26 30zM279 700l43 -136h-87l-17 62l-31 -62h-88l76 136h104z" />
    <glyph glyph-name="Gbreve" unicode="&#x11e;" horiz-adv-x="368" 
d="M109 -10h-9q-57 0 -85 43.5t-18 101.5l70 444q11 79 48 126.5t115 47.5h26q89 0 120 -48t18 -125l-13 -80h-126l13 81q3 25 -3 36t-25 11q-17 0 -25.5 -11t-12.5 -36l-65 -411q-7 -51 29 -51q37 0 44 46l26 161h-49l21 125h172l-71 -451h-77q0 40 -11 71
q-13 -28 -43.5 -54.5t-68.5 -26.5zM260 768h-4q-50 0 -76 28.5t-20 79.5h81q-2 -13 3.5 -21.5t17.5 -8.5h1q26 0 26 30h83q-2 -51 -32.5 -79.5t-79.5 -28.5z" />
    <glyph glyph-name="gbreve" unicode="&#x11f;" horiz-adv-x="332" 
d="M137 -66l20 125q-37 -69 -95 -69q-37 0 -58 31.5t-13 83.5l50 315q20 125 98 125h1q18 0 32 -6.5t24.5 -18.5t16 -21t12.5 -22l10 61h122l-97 -612q-17 -121 -153 -121h-17q-73 0 -102 29t-22 78l10 63h118l-7 -44q-5 -25 19 -25h4q22 0 27 28zM167 126l44 277
q5 34 -20 34q-22 0 -27 -33l-44 -278q-5 -30 21 -30q21 0 26 30zM209 563h-3q-50 0 -77 28.5t-19 81.5l1 7h83l-1 -6q-6 -33 20 -33h1q21 0 27 33l1 6h81l-1 -8q-7 -53 -37.5 -81t-75.5 -28z" />
    <glyph glyph-name="Gdotaccent" unicode="&#x120;" horiz-adv-x="368" 
d="M317 771h-124l20 125h124zM109 -10h-9q-57 0 -85 43.5t-18 101.5l70 444q11 79 48 126.5t115 47.5h26q89 0 120 -48t18 -125l-13 -80h-126l13 81q3 25 -3 36t-25 11q-17 0 -25.5 -11t-12.5 -36l-65 -411q-7 -51 29 -51q37 0 44 46l26 161h-49l21 125h172l-71 -451h-77
q0 40 -11 71q-13 -28 -43.5 -54.5t-68.5 -26.5z" />
    <glyph glyph-name="gdotaccent" unicode="&#x121;" horiz-adv-x="332" 
d="M137 -66l20 125q-37 -69 -95 -69q-37 0 -58 31.5t-13 83.5l50 315q20 125 98 125h1q18 0 32 -6.5t24.5 -18.5t16 -21t12.5 -22l10 61h122l-97 -612q-17 -121 -153 -121h-17q-73 0 -102 29t-22 78l10 63h118l-7 -44q-5 -25 19 -25h4q22 0 27 28zM167 126l44 277
q5 34 -20 34q-22 0 -27 -33l-44 -278q-5 -30 21 -30q21 0 26 30zM295 690l-20 -126h-124l20 126h124z" />
    <glyph glyph-name="uni0122" unicode="&#x122;" horiz-adv-x="368" 
d="M109 -10h-9q-57 0 -85 43.5t-18 101.5l70 444q11 79 48 126.5t115 47.5h26q89 0 120 -48t18 -125l-13 -80h-126l13 81q3 25 -3 36t-25 11q-17 0 -25.5 -11t-12.5 -36l-65 -411q-7 -51 29 -51q37 0 44 46l26 161h-49l21 125h172l-71 -451h-77q0 40 -11 71
q-13 -28 -43.5 -54.5t-68.5 -26.5zM148 -203h-53q14 30 22 67h-43l17 110h102l-11 -70q-9 -61 -34 -107z" />
    <glyph glyph-name="uni0123" unicode="&#x123;" horiz-adv-x="332" 
d="M137 -66l20 125q-37 -69 -95 -69q-37 0 -58 31.5t-13 83.5l50 315q20 125 98 125h1q18 0 32 -6.5t24.5 -18.5t16 -21t12.5 -22l10 61h122l-97 -612q-17 -121 -153 -121h-17q-73 0 -102 29t-22 78l10 63h118l-7 -44q-5 -25 19 -25h4q22 0 27 28zM167 126l44 277
q5 34 -20 34q-22 0 -27 -33l-44 -278q-5 -30 21 -30q21 0 26 30zM197 741h53q-14 -30 -22 -67h43l-17 -110h-102l11 68q13 70 34 109z" />
    <glyph glyph-name="Hcircumflex" unicode="&#x124;" horiz-adv-x="368" 
d="M157 314l-50 -314h-129l118 744h129l-45 -284h69l45 284h129l-118 -744h-129l50 314h-69zM221 885h100l51 -115h-86l-22 47l-30 -47h-89z" />
    <glyph glyph-name="hcircumflex" unicode="&#x125;" horiz-adv-x="333" 
d="M-25 0l118 744h123l-42 -268q47 64 98 64h7q40 0 55 -29.5t10 -63.5l-71 -447h-125l62 392q5 36 -21 36q-23 0 -28 -36l-62 -392h-124zM188 885h100l51 -115h-86l-22 47l-30 -47h-89z" />
    <glyph glyph-name="Hbar" unicode="&#x126;" horiz-adv-x="370" 
d="M42 550l16 101h375l-16 -101h-375zM158 314l-50 -314h-129l118 744h129l-45 -284h69l45 284h129l-118 -744h-129l50 314h-69z" />
    <glyph glyph-name="hbar" unicode="&#x127;" horiz-adv-x="333" 
d="M35 583l15 91h230l-15 -91h-230zM-25 0l118 744h123l-42 -268q47 64 98 64h7q40 0 55 -29.5t10 -63.5l-71 -447h-125l62 392q5 36 -21 36q-23 0 -28 -36l-62 -392h-124z" />
    <glyph glyph-name="Itilde" unicode="&#x128;" horiz-adv-x="170" 
d="M225 744l-118 -744h-129l118 744h129zM211 864l3 19h72l-9 -57q-10 -55 -54 -55q-24 0 -61 19q-14 9 -22 9q-7 0 -9 -11l-3 -19h-71l7 44q10 69 56 69q20 0 60 -18q18 -8 23 -8q6 0 8 8z" />
    <glyph glyph-name="itilde" unicode="&#x129;" horiz-adv-x="159" 
d="M170 659l3 19h65l-9 -57q-9 -58 -46 -58q-22 0 -53 20q-16 10 -21 10q-7 0 -9 -11l-3 -19h-65l7 44q6 36 16.5 53.5t32.5 17.5q18 0 52 -19q14 -9 22 -9q6 0 8 9zM184 538l-85 -538h-124l85 538h124z" />
    <glyph glyph-name="Imacron" unicode="&#x12a;" horiz-adv-x="170" 
d="M225 744l-118 -744h-129l118 744h129zM71 777l14 88h189l-14 -88h-189z" />
    <glyph glyph-name="imacron" unicode="&#x12b;" horiz-adv-x="159" 
d="M46 576l14 88h164l-14 -88h-164zM184 538l-85 -538h-124l85 538h124z" />
    <glyph glyph-name="Ibreve" unicode="&#x12c;" horiz-adv-x="170" 
d="M225 744l-118 -744h-129l118 744h129zM167 767h-4q-50 0 -76 28.5t-20 79.5h81q-2 -13 3.5 -21.5t17.5 -8.5h1q26 0 26 30h83q-2 -51 -32.5 -79.5t-79.5 -28.5z" />
    <glyph glyph-name="ibreve" unicode="&#x12d;" horiz-adv-x="159" 
d="M139 563h-4q-50 0 -72.5 25t-15.5 68l4 24h77l-3 -19q-3 -20 15 -20q15 0 18 21l3 18h77l-4 -26q-14 -91 -95 -91zM184 538l-85 -538h-124l85 538h124z" />
    <glyph glyph-name="Iogonek" unicode="&#x12e;" horiz-adv-x="170" 
d="M225 744l-118 -744h-129l118 744h129zM77 -188h-49q-38 0 -56.5 19t-13.5 51l2 13q9 49 86 105h61q-56 -56 -56 -90q0 -19 23 -19h15z" />
    <glyph glyph-name="iogonek" unicode="&#x12f;" horiz-adv-x="159" 
d="M184 538l-85 -538h-124l85 538h124zM208 690l-20 -126h-124l20 126h124zM69 -188h-49q-38 0 -56.5 19t-13.5 51l2 13q9 49 86 105h61q-56 -56 -56 -90q0 -19 23 -19h15z" />
    <glyph glyph-name="Idotaccent" unicode="&#x130;" horiz-adv-x="170" 
d="M225 744l-118 -744h-129l118 744h129zM225 770h-124l20 126h124z" />
    <glyph glyph-name="dotlessi" unicode="&#x131;" horiz-adv-x="159" 
d="M184 538l-85 -538h-124l85 538h124z" />
    <glyph glyph-name="IJ" unicode="&#x132;" horiz-adv-x="513" 
d="M225 744l-118 -744h-129l118 744h129zM189 327h126l-27 -170q-5 -35 22 -35h2q14 0 20.5 8t9.5 27l93 587h134l-94 -593q-12 -80 -48 -119.5t-103 -39.5h-44q-66 0 -99.5 37t-21.5 109z" />
    <glyph glyph-name="ij" unicode="&#x133;" horiz-adv-x="314" 
d="M184 538l-85 -538h-124l85 538h124zM208 690l-20 -126h-124l20 126h124zM50 -69h51q8 0 12 2.5t5.5 6t3.5 11.5l93 587h124l-103 -653q-11 -73 -82 -73h-123zM363 690l-20 -126h-124l20 126h124z" />
    <glyph glyph-name="Jcircumflex" unicode="&#x134;" horiz-adv-x="347" 
d="M23 327h126l-27 -170q-5 -35 22 -35h2q14 0 20.5 8t9.5 27l93 587h134l-94 -593q-12 -80 -48 -119.5t-103 -39.5h-44q-66 0 -99.5 37t-21.5 109zM297 885h100l51 -115h-86l-22 47l-30 -47h-89z" />
    <glyph glyph-name="jcircumflex" unicode="&#x135;" horiz-adv-x="159" 
d="M199 697l25 -134h-80l-6 64l-29 -64h-81l67 134h104zM-105 -69h51q8 0 12 2.5t5.5 6t3.5 11.5l93 587h124l-103 -653q-11 -73 -82 -73h-123z" />
    <glyph glyph-name="uni0136" unicode="&#x136;" horiz-adv-x="367" 
d="M180 460l126 284h131l-153 -343l46 -401h-136l-36 322l-51 -322h-129l118 744h129zM154 -203h-53q14 30 22 67h-43l17 110h102l-11 -70q-9 -61 -34 -107z" />
    <glyph glyph-name="uni0137" unicode="&#x137;" horiz-adv-x="335" 
d="M155 355l98 183h122l-126 -234l48 -304h-125l-35 240l-38 -240h-124l118 744h124zM134 -203h-53q14 30 22 67h-43l17 110h102l-11 -70q-9 -61 -34 -107z" />
    <glyph glyph-name="Lacute" unicode="&#x139;" horiz-adv-x="296" 
d="M96 744h129l-97 -610h138l-22 -134h-266zM112 770l56 115h108l-59 -115h-105z" />
    <glyph glyph-name="lacute" unicode="&#x13a;" horiz-adv-x="159" 
d="M217 744l-118 -744h-124l118 744h124zM108 770l56 115h108l-59 -115h-105z" />
    <glyph glyph-name="uni013B" unicode="&#x13b;" horiz-adv-x="296" 
d="M96 744h129l-97 -610h138l-22 -134h-266zM115 -203h-53q14 30 22 67h-43l17 110h102l-11 -70q-9 -61 -34 -107z" />
    <glyph glyph-name="uni013C" unicode="&#x13c;" horiz-adv-x="159" 
d="M217 744l-118 -744h-124l118 744h124zM41 -203h-53q14 30 22 67h-43l17 110h102l-11 -70q-9 -61 -34 -107z" />
    <glyph glyph-name="Lcaron" unicode="&#x13d;" horiz-adv-x="296" 
d="M218 594l29 150h88l-35 -150h-82zM96 744h129l-97 -610h138l-22 -134h-266z" />
    <glyph glyph-name="lcaron" unicode="&#x13e;" horiz-adv-x="159" 
d="M217 744l-118 -744h-124l118 744h124zM210 594l29 150h88l-35 -150h-82z" />
    <glyph glyph-name="Ldot" unicode="&#x13f;" horiz-adv-x="301" 
d="M321 458l-23 -144h-115l24 144h114zM96 744h129l-97 -610h138l-22 -134h-266z" />
    <glyph glyph-name="ldot" unicode="&#x140;" horiz-adv-x="286" 
d="M309 458l-24 -144h-115l24 144h115zM217 744l-118 -744h-124l118 744h124z" />
    <glyph glyph-name="Lslash" unicode="&#x141;" horiz-adv-x="311" 
d="M111 744h129l-49 -306l103 66l-17 -107l-103 -64l-31 -199h138l-22 -134h-266l39 245l-37 -23l17 103l36 23z" />
    <glyph glyph-name="lslash" unicode="&#x142;" horiz-adv-x="185" 
d="M179 425l-67 -425h-124l53 337l-30 -19l16 98l30 19l49 309h124l-35 -219l30 19l-16 -100z" />
    <glyph glyph-name="Nacute" unicode="&#x143;" horiz-adv-x="366" 
d="M96 744h121l28 -385l61 385h115l-118 -744h-110l-34 414l-66 -414h-115zM206 770l56 115h108l-59 -115h-105z" />
    <glyph glyph-name="nacute" unicode="&#x144;" horiz-adv-x="333" 
d="M-25 0l85 538h123l-10 -65q44 67 99 67h7q40 0 55 -29.5t10 -63.5l-71 -447h-125l62 392q5 36 -21 36q-23 0 -28 -36l-62 -392h-124zM152 564l60 136h105l-63 -136h-102z" />
    <glyph glyph-name="uni0145" unicode="&#x145;" horiz-adv-x="366" 
d="M96 744h121l28 -385l61 385h115l-118 -744h-110l-34 414l-66 -414h-115zM146 -203h-53q14 30 22 67h-43l17 110h102l-11 -70q-9 -61 -34 -107z" />
    <glyph glyph-name="uni0146" unicode="&#x146;" horiz-adv-x="333" 
d="M-25 0l85 538h123l-10 -65q44 67 99 67h7q40 0 55 -29.5t10 -63.5l-71 -447h-125l62 392q5 36 -21 36q-23 0 -28 -36l-62 -392h-124zM126 -203h-53q14 30 22 67h-43l17 110h102l-11 -70q-9 -61 -34 -107z" />
    <glyph glyph-name="Ncaron" unicode="&#x147;" horiz-adv-x="366" 
d="M96 744h121l28 -385l61 385h115l-118 -744h-110l-34 414l-66 -414h-115zM311 770h-100l-52 115h87l22 -48l30 48h89z" />
    <glyph glyph-name="ncaron" unicode="&#x148;" horiz-adv-x="333" 
d="M-25 0l85 538h123l-10 -65q44 67 99 67h7q40 0 55 -29.5t10 -63.5l-71 -447h-125l62 392q5 36 -21 36q-23 0 -28 -36l-62 -392h-124zM158 564l-43 136h86l18 -62l31 62h88l-77 -136h-103z" />
    <glyph glyph-name="napostrophe" unicode="&#x149;" horiz-adv-x="421" 
d="M63 0l85 538h123l-10 -65q44 67 99 67h7q40 0 55 -29.5t10 -63.5l-71 -447h-125l62 392q5 36 -21 36q-23 0 -28 -36l-62 -392h-124zM181 744l-17 -107q-9 -58 -41 -113h-62q25 52 34 92h-43l21 128h108z" />
    <glyph glyph-name="Eng" unicode="&#x14a;" horiz-adv-x="366" 
d="M102 -192l18 117h37q24 0 28 27l8 48l-34 414l-66 -414h-115l118 744h121l28 -385l61 385h115l-135 -849q-15 -87 -84 -87h-100z" />
    <glyph glyph-name="eng" unicode="&#x14b;" horiz-adv-x="335" 
d="M345 447l-89 -560q-11 -75 -82 -75h-94l19 119h21q8 0 12 2.5t5.5 6t3.5 11.5l70 441q5 36 -21 36q-23 0 -28 -36l-62 -392h-124l85 538h123l-10 -65q44 67 99 67h7q40 0 55 -29.5t10 -63.5z" />
    <glyph glyph-name="Omacron" unicode="&#x14c;" horiz-adv-x="376" 
d="M241 623q-19 0 -27.5 -11.5t-12.5 -37.5l-65 -410q-6 -42 31 -42q32 0 39 42l65 410q7 49 -30 49zM230 753h27q87 0 124 -51t24 -138l-62 -392q-31 -183 -164 -183h-27q-84 0 -123.5 50t-25.5 138l61 386q15 95 52.5 142.5t113.5 47.5zM171 778l14 88h189l-14 -88h-189z
" />
    <glyph glyph-name="omacron" unicode="&#x14d;" horiz-adv-x="331" 
d="M151 -10h-29q-72 0 -105 42.5t-23 109.5l41 255q12 75 46.5 113t98.5 38h29q68 0 103.5 -39.5t24.5 -109.5l-41 -255q-10 -70 -46.5 -112t-98.5 -42zM190 437q-24 0 -29 -37l-41 -256q-5 -38 22 -38q11 0 17 6t8 12.5t4 19.5l41 256q5 37 -22 37zM118 578l14 87h186
l-14 -87h-186z" />
    <glyph glyph-name="Obreve" unicode="&#x14e;" horiz-adv-x="376" 
d="M241 623q-19 0 -27.5 -11.5t-12.5 -37.5l-65 -410q-6 -42 31 -42q32 0 39 42l65 410q7 49 -30 49zM230 753h27q87 0 124 -51t24 -138l-62 -392q-31 -183 -164 -183h-27q-84 0 -123.5 50t-25.5 138l61 386q15 95 52.5 142.5t113.5 47.5zM265 768h-4q-50 0 -76 28.5
t-20 79.5h81q-2 -13 3.5 -21.5t17.5 -8.5h1q26 0 26 30h83q-2 -51 -32.5 -79.5t-79.5 -28.5z" />
    <glyph glyph-name="obreve" unicode="&#x14f;" horiz-adv-x="331" 
d="M151 -10h-29q-72 0 -105 42.5t-23 109.5l41 255q12 75 46.5 113t98.5 38h29q68 0 103.5 -39.5t24.5 -109.5l-41 -255q-10 -70 -46.5 -112t-98.5 -42zM190 437q-24 0 -29 -37l-41 -256q-5 -38 22 -38q11 0 17 6t8 12.5t4 19.5l41 256q5 37 -22 37zM218 565h-3
q-50 0 -77 28.5t-19 81.5l1 7h83l-1 -6q-6 -33 20 -33h1q21 0 27 33l1 6h81l-1 -8q-7 -53 -37.5 -81t-75.5 -28z" />
    <glyph glyph-name="Ohungarumlaut" unicode="&#x150;" horiz-adv-x="376" 
d="M357 771h-84l45 114h86zM165 771l42 114h87l-44 -114h-85zM241 623q-19 0 -27.5 -11.5t-12.5 -37.5l-65 -410q-6 -42 31 -42q32 0 39 42l65 410q7 49 -30 49zM230 753h27q87 0 124 -51t24 -138l-62 -392q-31 -183 -164 -183h-27q-84 0 -123.5 50t-25.5 138l61 386
q15 95 52.5 142.5t113.5 47.5z" />
    <glyph glyph-name="ohungarumlaut" unicode="&#x151;" horiz-adv-x="331" 
d="M304 566h-84l53 134h84zM114 566l51 134h84l-51 -134h-84zM151 -10h-29q-72 0 -105 42.5t-23 109.5l41 255q12 75 46.5 113t98.5 38h29q68 0 103.5 -39.5t24.5 -109.5l-41 -255q-10 -70 -46.5 -112t-98.5 -42zM190 437q-24 0 -29 -37l-41 -256q-5 -38 22 -38q11 0 17 6
t8 12.5t4 19.5l41 256q5 37 -22 37z" />
    <glyph glyph-name="OE" unicode="&#x152;" horiz-adv-x="503" 
d="M2 172l63 399q27 180 134 180q71 0 94 -61l8 54h260l-21 -132h-135l-26 -161h104l-21 -135h-104l-29 -182h144l-22 -134h-268l9 55q-36 -65 -103 -65q-53 0 -77 46t-10 136zM239 623q-19 0 -27 -12t-14 -42l-62 -393q-8 -54 29 -54q19 0 27 12.5t14 41.5l62 393
q8 54 -29 54z" />
    <glyph glyph-name="oe" unicode="&#x153;" horiz-adv-x="493" 
d="M207 21q-31 -31 -73 -31h-26q-67 0 -95.5 42t-18.5 110l41 255q24 151 144 151h30q58 0 78 -31q23 31 73 31h26q64 0 95.5 -36t20.5 -101l-26 -159h-167l-18 -117q-5 -33 19 -33q14 0 20 8t9 28l12 77h119l-15 -90q-22 -135 -139 -135h-26q-59 0 -83 31zM161 400
l-41 -256q-5 -38 23 -38q14 0 19.5 9.5t8.5 28.5l41 256q5 37 -22 37q-24 0 -29 -37zM324 348h51l11 65q2 19 -2.5 27.5t-20.5 8.5q-23 0 -28 -36z" />
    <glyph glyph-name="Racute" unicode="&#x154;" horiz-adv-x="360" 
d="M157 318l-50 -318h-129l118 744h194q61 0 90 -32.5t19 -91.5l-19 -119q-12 -81 -74 -100q52 -26 43 -88l-40 -252q-5 -34 2 -56l-1 -5h-129q-9 18 -3 57l34 214q5 27 -1 37t-27 10h-27zM207 629l-30 -188h28q19 0 28 9.5t13 34.5l16 104q7 40 -27 40h-28zM198 770l56 115
h108l-59 -115h-105z" />
    <glyph glyph-name="racute" unicode="&#x155;" horiz-adv-x="301" 
d="M184 538l-11 -69q11 25 36 48.5t57 23.5h5q60 0 49 -72l-30 -189h-115l19 120q3 15 0.5 22t-13.5 7q-14 0 -18 -27l-64 -402h-124l85 538h124zM143 564l60 136h105l-63 -136h-102z" />
    <glyph glyph-name="uni0156" unicode="&#x156;" horiz-adv-x="360" 
d="M157 318l-50 -318h-129l118 744h194q61 0 90 -32.5t19 -91.5l-19 -119q-12 -81 -74 -100q52 -26 43 -88l-40 -252q-5 -34 2 -56l-1 -5h-129q-9 18 -3 57l34 214q5 27 -1 37t-27 10h-27zM207 629l-30 -188h28q19 0 28 9.5t13 34.5l16 104q7 40 -27 40h-28zM144 -203h-53
q14 30 22 67h-43l17 110h102l-11 -70q-9 -61 -34 -107z" />
    <glyph glyph-name="uni0157" unicode="&#x157;" horiz-adv-x="301" 
d="M184 538l-11 -69q11 25 36 48.5t57 23.5h5q60 0 49 -72l-30 -189h-115l19 120q3 15 0.5 22t-13.5 7q-14 0 -18 -27l-64 -402h-124l85 538h124zM39 -203h-53q14 30 22 67h-43l17 110h102l-11 -70q-9 -61 -34 -107z" />
    <glyph glyph-name="Rcaron" unicode="&#x158;" horiz-adv-x="360" 
d="M157 318l-50 -318h-129l118 744h194q61 0 90 -32.5t19 -91.5l-19 -119q-12 -81 -74 -100q52 -26 43 -88l-40 -252q-5 -34 2 -56l-1 -5h-129q-9 18 -3 57l34 214q5 27 -1 37t-27 10h-27zM207 629l-30 -188h28q19 0 28 9.5t13 34.5l16 104q7 40 -27 40h-28zM297 770h-100
l-52 115h87l22 -48l30 48h89z" />
    <glyph glyph-name="rcaron" unicode="&#x159;" horiz-adv-x="301" 
d="M184 538l-11 -69q11 25 36 48.5t57 23.5h5q60 0 49 -72l-30 -189h-115l19 120q3 15 0.5 22t-13.5 7q-14 0 -18 -27l-64 -402h-124l85 538h124zM142 564l-43 136h86l18 -62l31 62h88l-77 -136h-103z" />
    <glyph glyph-name="Sacute" unicode="&#x15a;" horiz-adv-x="356" 
d="M200 771l56 114h108l-59 -114h-105zM158 -9h-29q-73 0 -110.5 42t-25.5 118l21 132h128l-19 -121q-7 -47 26 -47q30 0 40 54l4 24q6 35 -0.5 58.5t-32.5 63.5l-39 62q-38 58 -50.5 104t-3.5 101l5 31q12 73 50 106.5t107 33.5h29q149 0 125 -153l-14 -89h-124l14 89
q7 39 -25 39q-16 0 -21.5 -8.5t-8.5 -27.5l-4 -26q-4 -30 1 -46t29 -55l41 -66q41 -67 56.5 -113t7.5 -98l-6 -38q-27 -170 -171 -170z" />
    <glyph glyph-name="sacute" unicode="&#x15b;" horiz-adv-x="298" 
d="M145 566l59 134h105l-62 -134h-102zM125 -9h-26q-65 0 -94 35.5t-20 94.5l12 75h114l-12 -75q-4 -27 20 -27h1q18 0 23 29l3 19q3 20 -1.5 33.5t-20.5 35.5l-40 54q-57 78 -47 149l3 20q17 114 131 114h27q65 0 90.5 -30.5t18.5 -77.5l-11 -67h-108l9 56q4 28 -18 28
q-19 0 -23 -27l-2 -13q-5 -29 18 -59l40 -54q37 -49 51 -84.5t8 -79.5l-3 -19q-21 -130 -143 -130z" />
    <glyph glyph-name="Scircumflex" unicode="&#x15c;" horiz-adv-x="356" 
d="M217 885h100l51 -114h-86l-22 46l-30 -46h-89zM158 -9h-29q-73 0 -110.5 42t-25.5 118l21 132h128l-19 -121q-7 -47 26 -47q30 0 40 54l4 24q6 35 -0.5 58.5t-32.5 63.5l-39 62q-38 58 -50.5 104t-3.5 101l5 31q12 73 50 106.5t107 33.5h29q149 0 125 -153l-14 -89h-124
l14 89q7 39 -25 39q-16 0 -21.5 -8.5t-8.5 -27.5l-4 -26q-4 -30 1 -46t29 -55l41 -66q41 -67 56.5 -113t7.5 -98l-6 -38q-27 -170 -171 -170z" />
    <glyph glyph-name="scircumflex" unicode="&#x15d;" horiz-adv-x="298" 
d="M260 700l43 -134h-87l-17 60l-31 -60h-88l76 134h104zM125 -9h-26q-65 0 -94 35.5t-20 94.5l12 75h114l-12 -75q-4 -27 20 -27h1q18 0 23 29l3 19q3 20 -1.5 33.5t-20.5 35.5l-40 54q-57 78 -47 149l3 20q17 114 131 114h27q65 0 90.5 -30.5t18.5 -77.5l-11 -67h-108
l9 56q4 28 -18 28q-19 0 -23 -27l-2 -13q-5 -29 18 -59l40 -54q37 -49 51 -84.5t8 -79.5l-3 -19q-21 -130 -143 -130z" />
    <glyph glyph-name="uni015E" unicode="&#x15e;" horiz-adv-x="356" 
d="M158 -9h-29q-73 0 -110.5 42t-25.5 118l21 132h128l-19 -121q-7 -47 26 -47q30 0 40 54l4 24q6 35 -0.5 58.5t-32.5 63.5l-39 62q-38 58 -50.5 104t-3.5 101l5 31q12 73 50 106.5t107 33.5h29q149 0 125 -153l-14 -89h-124l14 89q7 39 -25 39q-16 0 -21.5 -8.5
t-8.5 -27.5l-4 -26q-4 -30 1 -46t29 -55l41 -66q41 -67 56.5 -113t7.5 -98l-6 -38q-27 -170 -171 -170zM97 -188h-66l10 63h51q22 0 22 18q0 15 -18 15h-34l15 92h56l-6 -36h2q69 0 69 -65q0 -43 -27 -65t-74 -22z" />
    <glyph glyph-name="uni015F" unicode="&#x15f;" horiz-adv-x="298" 
d="M125 -9h-26q-65 0 -94 35.5t-20 94.5l12 75h114l-12 -75q-4 -27 20 -27h1q18 0 23 29l3 19q3 20 -1.5 33.5t-20.5 35.5l-40 54q-57 78 -47 149l3 20q17 114 131 114h27q65 0 90.5 -30.5t18.5 -77.5l-11 -67h-108l9 56q4 28 -18 28q-19 0 -23 -27l-2 -13q-5 -29 18 -59
l40 -54q37 -49 51 -84.5t8 -79.5l-3 -19q-21 -130 -143 -130zM68 -188h-66l10 63h51q22 0 22 18q0 15 -18 15h-34l15 92h56l-6 -36h2q69 0 69 -65q0 -43 -27 -65t-74 -22z" />
    <glyph glyph-name="Scaron" unicode="&#x160;" horiz-adv-x="356" 
d="M158 -9h-29q-73 0 -110.5 42t-25.5 118l21 132h128l-19 -121q-7 -47 26 -47q30 0 40 54l4 24q6 35 -0.5 58.5t-32.5 63.5l-39 62q-38 58 -50.5 104t-3.5 101l5 31q12 73 50 106.5t107 33.5h29q149 0 125 -153l-14 -89h-124l14 89q7 39 -25 39q-16 0 -21.5 -8.5
t-8.5 -27.5l-4 -26q-4 -30 1 -46t29 -55l41 -66q41 -67 56.5 -113t7.5 -98l-6 -38q-27 -170 -171 -170zM300 771h-100l-52 115h87l22 -48l30 48h89z" />
    <glyph glyph-name="scaron" unicode="&#x161;" horiz-adv-x="298" 
d="M125 -9h-26q-65 0 -94 35.5t-20 94.5l12 75h114l-12 -75q-4 -27 20 -27h1q18 0 23 29l3 19q3 20 -1.5 33.5t-20.5 35.5l-40 54q-57 78 -47 149l3 20q17 114 131 114h27q65 0 90.5 -30.5t18.5 -77.5l-11 -67h-108l9 56q4 28 -18 28q-19 0 -23 -27l-2 -13q-5 -29 18 -59
l40 -54q37 -49 51 -84.5t8 -79.5l-3 -19q-21 -130 -143 -130zM141 566l-43 136h86l18 -62l31 62h88l-77 -136h-103z" />
    <glyph glyph-name="Tcommaaccent" unicode="&#x162;" horiz-adv-x="331" 
d="M84 744h314l-21 -131h-91l-97 -613h-129l97 613h-94zM129 -203h-53q14 30 22 67h-43l17 110h102l-11 -70q-9 -61 -34 -107z" />
    <glyph glyph-name="tcommaaccent" unicode="&#x163;" horiz-adv-x="254" 
d="M202 0h-112q-32 0 -48 20t-11 52l56 347h-57l19 119h57l28 178h124l-28 -178h57l-19 -119h-57l-45 -277q-3 -21 17 -21h38zM118 -203h-53q14 30 22 67h-43l17 110h102l-11 -70q-9 -61 -34 -107z" />
    <glyph glyph-name="Tcaron" unicode="&#x164;" horiz-adv-x="331" 
d="M84 744h314l-21 -131h-91l-97 -613h-129l97 613h-94zM294 770h-100l-52 115h87l22 -48l30 48h89z" />
    <glyph glyph-name="tcaron" unicode="&#x165;" horiz-adv-x="254" 
d="M256 594l29 150h88l-35 -150h-82zM202 0h-112q-32 0 -48 20t-11 52l56 347h-57l19 119h57l28 178h124l-28 -178h57l-19 -119h-57l-45 -277q-3 -21 17 -21h38z" />
    <glyph glyph-name="Tbar" unicode="&#x166;" horiz-adv-x="331" 
d="M312 349h-263l17 114h263zM84 744h314l-21 -131h-91l-97 -613h-129l97 613h-94z" />
    <glyph glyph-name="tbar" unicode="&#x167;" horiz-adv-x="254" 
d="M202 0h-112q-32 0 -48 20t-11 52l26 163h-56l16 104h57l13 80h-57l19 119h57l28 178h124l-28 -178h57l-19 -119h-57l-13 -80h57l-16 -104h-58l-15 -93q-3 -21 17 -21h38z" />
    <glyph glyph-name="Utilde" unicode="&#x168;" horiz-adv-x="368" 
d="M5 177l90 567h133l-91 -576q-7 -46 27 -46q17 0 24.5 10.5t11.5 35.5l91 576h133l-90 -567q-16 -100 -54.5 -144t-110.5 -44h-29q-76 0 -112.5 49.5t-22.5 138.5zM314 864l3 19h72l-9 -57q-10 -55 -54 -55q-24 0 -61 19q-14 9 -22 9q-7 0 -9 -11l-3 -19h-71l7 44
q11 69 56 69q19 0 60 -18q18 -8 23 -8q6 0 8 8z" />
    <glyph glyph-name="utilde" unicode="&#x169;" horiz-adv-x="330" 
d="M355 538l-85 -538h-123l10 65q-17 -28 -43 -47.5t-55 -19.5h-7q-39 0 -54 30.5t-8 68.5l70 441h125l-62 -392q-6 -36 19 -36q13 0 19 8.5t8 27.5l62 392h124zM263 659l3 19h71l-9 -57q-10 -58 -53 -58q-23 0 -60 20q-14 9 -23 9q-8 0 -10 -11l-3 -18h-71l7 44
q11 71 57 71q20 0 59 -19q15 -9 24 -9q7 0 8 9z" />
    <glyph glyph-name="Umacron" unicode="&#x16a;" horiz-adv-x="368" 
d="M5 177l90 567h133l-91 -576q-7 -46 27 -46q17 0 24.5 10.5t11.5 35.5l91 576h133l-90 -567q-16 -100 -54.5 -144t-110.5 -44h-29q-76 0 -112.5 49.5t-22.5 138.5zM171 777l14 88h189l-14 -88h-189z" />
    <glyph glyph-name="umacron" unicode="&#x16b;" horiz-adv-x="330" 
d="M355 538l-85 -538h-123l10 65q-17 -28 -43 -47.5t-55 -19.5h-7q-39 0 -54 30.5t-8 68.5l70 441h125l-62 -392q-6 -36 19 -36q13 0 19 8.5t8 27.5l62 392h124zM121 576l14 87h186l-14 -87h-186z" />
    <glyph glyph-name="Ubreve" unicode="&#x16c;" horiz-adv-x="368" 
d="M5 177l90 567h133l-91 -576q-7 -46 27 -46q17 0 24.5 10.5t11.5 35.5l91 576h133l-90 -567q-16 -100 -54.5 -144t-110.5 -44h-29q-76 0 -112.5 49.5t-22.5 138.5zM268 767h-4q-50 0 -76 28.5t-20 79.5h81q-2 -13 3.5 -21.5t17.5 -8.5h1q26 0 26 30h83q-2 -51 -32.5 -79.5
t-79.5 -28.5z" />
    <glyph glyph-name="ubreve" unicode="&#x16d;" horiz-adv-x="330" 
d="M355 538l-85 -538h-123l10 65q-17 -28 -43 -47.5t-55 -19.5h-7q-39 0 -54 30.5t-8 68.5l70 441h125l-62 -392q-6 -36 19 -36q13 0 19 8.5t8 27.5l62 392h124zM218 563h-3q-50 0 -77 28.5t-19 81.5l1 7h83l-1 -6q-6 -33 20 -33h1q21 0 27 33l1 6h81l-1 -8
q-7 -53 -37.5 -81t-75.5 -28z" />
    <glyph glyph-name="Uring" unicode="&#x16e;" horiz-adv-x="368" 
d="M5 177l90 567h133l-91 -576q-7 -46 27 -46q17 0 24.5 10.5t11.5 35.5l91 576h133l-90 -567q-16 -100 -54.5 -144t-110.5 -44h-29q-76 0 -112.5 49.5t-22.5 138.5zM265 765q-35 0 -57.5 22t-22.5 57t22.5 57t57.5 22t57.5 -22t22.5 -57t-22.5 -57t-57.5 -22zM265 811
q15 0 23.5 9t8.5 24t-8.5 24t-23.5 9t-23.5 -9t-8.5 -24t8.5 -24t23.5 -9z" />
    <glyph glyph-name="uring" unicode="&#x16f;" horiz-adv-x="330" 
d="M355 538l-85 -538h-123l10 65q-17 -28 -43 -47.5t-55 -19.5h-7q-39 0 -54 30.5t-8 68.5l70 441h125l-62 -392q-6 -36 19 -36q13 0 19 8.5t8 27.5l62 392h124zM216 608q15 0 23.5 9t8.5 24t-8.5 24t-23.5 9t-23.5 -9t-8.5 -24t8.5 -24t23.5 -9zM216 562q-35 0 -57.5 22
t-22.5 57t22.5 57t57.5 22t57.5 -22t22.5 -57t-22.5 -57t-57.5 -22z" />
    <glyph glyph-name="Uhungarumlaut" unicode="&#x170;" horiz-adv-x="368" 
d="M5 177l90 567h133l-91 -576q-7 -46 27 -46q17 0 24.5 10.5t11.5 35.5l91 576h133l-90 -567q-16 -100 -54.5 -144t-110.5 -44h-29q-76 0 -112.5 49.5t-22.5 138.5zM359 770h-84l45 115h86zM167 770l42 115h87l-44 -115h-85z" />
    <glyph glyph-name="uhungarumlaut" unicode="&#x171;" horiz-adv-x="330" 
d="M355 538l-85 -538h-123l10 65q-17 -28 -43 -47.5t-55 -19.5h-7q-39 0 -54 30.5t-8 68.5l70 441h125l-62 -392q-6 -36 19 -36q13 0 19 8.5t8 27.5l62 392h124zM306 564h-84l53 136h84zM116 564l51 136h84l-51 -136h-84z" />
    <glyph glyph-name="Uogonek" unicode="&#x172;" horiz-adv-x="368" 
d="M245 -2q-60 -54 -60 -88q0 -19 23 -19h15l-12 -79h-49q-38 0 -56.5 19t-13.5 51l2 13q7 49 76 94h-1h-29q-76 0 -112.5 49.5t-22.5 138.5l90 567h133l-91 -576q-7 -46 27 -46q17 0 24.5 10.5t11.5 35.5l91 576h133l-90 -567q-12 -76 -32.5 -111.5t-56.5 -67.5z" />
    <glyph glyph-name="uogonek" unicode="&#x173;" horiz-adv-x="330" 
d="M355 538l-85 -538h-123l10 65q-17 -28 -43 -47.5t-55 -19.5h-7q-39 0 -54 30.5t-8 68.5l70 441h125l-62 -392q-6 -36 19 -36q13 0 19 8.5t8 27.5l62 392h124zM240 -188h-49q-38 0 -56.5 19t-13.5 51l2 13q9 49 86 105h61q-56 -56 -56 -90q0 -19 23 -19h15z" />
    <glyph glyph-name="Wcircumflex" unicode="&#x174;" horiz-adv-x="557" 
d="M294 744h123l-24 -476l113 476h128l-203 -744h-151l24 417l-100 -417h-149l18 744h132l-27 -467zM316 885h100l51 -115h-86l-22 47l-30 -47h-89z" />
    <glyph glyph-name="wcircumflex" unicode="&#x175;" horiz-adv-x="485" 
d="M178 0h-135l-2 538h122l-14 -332l83 332h111l-13 -336l83 336h117l-157 -538h-129l6 294zM356 700l43 -136h-87l-17 62l-31 -62h-88l76 136h104z" />
    <glyph glyph-name="Ycircumflex" unicode="&#x176;" horiz-adv-x="322" 
d="M403 744l-168 -444l-47 -300h-130l47 296l-36 448h126l4 -264l86 264h118zM201 885h100l51 -115h-86l-22 47l-30 -47h-89z" />
    <glyph glyph-name="ycircumflex" unicode="&#x177;" horiz-adv-x="308" 
d="M56 9l-15 529h119l-7 -296l76 296h125l-206 -646q-13 -42 -31.5 -61t-47.5 -19h-119l19 118h49q13 0 19 6t9 19l6 23q4 15 4 31zM265 700l43 -136h-87l-17 62l-31 -62h-88l76 136h104z" />
    <glyph glyph-name="Ydieresis" unicode="&#x178;" horiz-adv-x="322" 
d="M403 744l-168 -444l-47 -300h-130l47 296l-36 448h126l4 -264l86 264h118zM351 770h-97l17 106h97zM229 770h-97l17 106h97z" />
    <glyph glyph-name="Zacute" unicode="&#x179;" horiz-adv-x="323" 
d="M94 744h286l-19 -119l-236 -494h169l-21 -131h-307l19 122l238 494h-149zM180 770l56 115h108l-59 -115h-105z" />
    <glyph glyph-name="zacute" unicode="&#x17a;" horiz-adv-x="266" 
d="M61 538h235l-16 -102l-173 -322h127l-18 -114h-251l18 107l172 319h-112zM125 564l60 136h105l-63 -136h-102z" />
    <glyph glyph-name="Zdotaccent" unicode="&#x17b;" horiz-adv-x="323" 
d="M94 744h286l-19 -119l-236 -494h169l-21 -131h-307l19 122l238 494h-149zM298 770h-124l20 126h124z" />
    <glyph glyph-name="zdotaccent" unicode="&#x17c;" horiz-adv-x="266" 
d="M61 538h235l-16 -102l-173 -322h127l-18 -114h-251l18 107l172 319h-112zM263 690l-20 -126h-124l20 126h124z" />
    <glyph glyph-name="Zcaron" unicode="&#x17d;" horiz-adv-x="323" 
d="M94 744h286l-19 -119l-236 -494h169l-21 -131h-307l19 122l238 494h-149zM286 770h-100l-52 115h87l22 -48l30 48h89z" />
    <glyph glyph-name="zcaron" unicode="&#x17e;" horiz-adv-x="266" 
d="M61 538h235l-16 -102l-173 -322h127l-18 -114h-251l18 107l172 319h-112zM130 564l-43 136h86l18 -62l31 62h88l-77 -136h-103z" />
    <glyph glyph-name="uni0192" unicode="&#x192;" horiz-adv-x="273" 
d="M-30 -188l110 550h-56l19 119h61l35 175q8 44 32.5 66t77.5 22h87l-18 -113h-39q-13 0 -18.5 -5.5t-8.5 -21.5l-25 -123h67l-19 -119h-72l-109 -550h-124z" />
    <glyph glyph-name="Aringacute" unicode="&#x1fa;" horiz-adv-x="338" 
d="M247 765q-35 0 -57.5 22t-22.5 57t22.5 57t57.5 22t57.5 -22t22.5 -57t-22.5 -57t-57.5 -22zM247 811q15 0 23.5 9t8.5 24t-8.5 24t-23.5 9t-23.5 -9t-8.5 -24t8.5 -24t23.5 -9zM205 939l56 115h108l-59 -115h-105zM176 0l6 125h-79l-31 -125h-117l209 744h153l-17 -744
h-124zM136 253h52l11 251z" />
    <glyph glyph-name="aringacute" unicode="&#x1fb;" horiz-adv-x="328" 
d="M-14 98l17 108q12 80 67 109q16 9 63 29.5t49 21.5q10 5 14 23l4 25q6 32 -19 32h-3q-20 0 -25 -31l-8 -51h-111l12 74q8 47 35 76.5t95 29.5h22q143 0 124 -118l-47 -295q-5 -17 14 -17h14l-18 -114h-112q-19 0 -26 13t-2 47q-41 -65 -96 -65h-2q-35 0 -51.5 28.5
t-9.5 74.5zM128 102q22 0 27 31l21 131q-31 -18 -36 -23q-14 -14 -18 -42l-10 -62q-6 -35 16 -35zM200 608q15 0 23.5 9t8.5 24t-8.5 24t-23.5 9t-23.5 -9t-8.5 -24t8.5 -24t23.5 -9zM200 562q-35 0 -57.5 22t-22.5 57t22.5 57t57.5 22t57.5 -22t22.5 -57t-22.5 -57
t-57.5 -22zM159 736l60 136h105l-63 -136h-102z" />
    <glyph glyph-name="AEacute" unicode="&#x1fc;" horiz-adv-x="501" 
d="M450 0h-273l20 131h-79l-42 -131h-124l250 744h357l-21 -132h-135l-25 -161h104l-21 -135h-104l-29 -182h143zM159 258h58l56 352zM325 770l56 115h108l-59 -115h-105z" />
    <glyph glyph-name="aeacute" unicode="&#x1fd;" horiz-adv-x="477" 
d="M156 58q-15 -23 -42 -43t-59 -20h-3q-37 0 -55.5 27.5t-12.5 63.5l16 103q7 43 21 67t45 41q16 9 63 29t50 21q9 4 14 25l7 45q5 29 -19 29h-3q-20 0 -25 -29l-12 -72h-110l15 93q8 47 35 76.5t95 29.5h22q51 0 80 -27q26 29 74 29h21q61 0 92 -36.5t21 -98.5l-26 -159
h-167l-18 -117q-5 -33 20 -33q22 0 28 36l12 77h119l-15 -90q-22 -135 -139 -135h-27q-90 0 -117 68zM128 102q22 0 27 32l18 111q-21 -9 -36 -22q-14 -14 -18 -43l-7 -44q-5 -34 16 -34zM319 413l-11 -65h51l11 65q2 19 -2.5 27.5t-20.5 8.5q-13 0 -19 -8.5t-9 -27.5z
M228 564l60 136h105l-63 -136h-102z" />
    <glyph glyph-name="Oslashacute" unicode="&#x1fe;" horiz-adv-x="372" 
d="M198 771l56 114h108l-59 -114h-105zM401 564l-62 -394q-28 -181 -167 -181h-26q-52 0 -94 31l-11 -20h-69l38 71q-18 43 -8 99l62 393q16 94 52.5 142t111.5 48h27q59 0 96 -30l11 21h69l-38 -74q19 -44 8 -106zM166 122q33 0 40 42l38 238l-112 -238v-1q-7 -41 34 -41z
M239 623q-35 0 -42 -49l-37 -230l112 238q3 41 -33 41z" />
    <glyph glyph-name="oslashacute" unicode="&#x1ff;" horiz-adv-x="330" 
d="M150 566l59 134h105l-62 -134h-102zM-4 151l39 246q12 75 46 113t98 38h29q51 0 82 -27l11 17h64l-39 -63q17 -40 9 -81l-40 -253q-11 -67 -46.5 -109t-97.5 -42h-29q-48 0 -80 28l-11 -18h-65l38 63q-16 43 -8 88zM159 397l-21 -130l74 132v1q5 37 -23 37q-15 0 -21 -9
t-9 -31zM141 106q16 0 21.5 9t8.5 27l20 129l-73 -131q-5 -34 23 -34z" />
    <glyph glyph-name="uni0218" unicode="&#x218;" horiz-adv-x="356" 
d="M158 -9h-29q-73 0 -110.5 42t-25.5 118l21 132h128l-19 -121q-7 -47 26 -47q30 0 40 54l4 24q6 35 -0.5 58.5t-32.5 63.5l-39 62q-38 58 -50.5 104t-3.5 101l5 31q12 73 50 106.5t107 33.5h29q149 0 125 -153l-14 -89h-124l14 89q7 39 -25 39q-16 0 -21.5 -8.5
t-8.5 -27.5l-4 -26q-4 -30 1 -46t29 -55l41 -66q41 -67 56.5 -113t7.5 -98l-6 -38q-27 -170 -171 -170zM146 -204h-53q14 30 22 67h-43l17 110h102l-11 -70q-9 -61 -34 -107z" />
    <glyph glyph-name="uni0219" unicode="&#x219;" horiz-adv-x="298" 
d="M125 -9h-26q-65 0 -94 35.5t-20 94.5l12 75h114l-12 -75q-4 -27 20 -27h1q18 0 23 29l3 19q3 20 -1.5 33.5t-20.5 35.5l-40 54q-57 78 -47 149l3 20q17 114 131 114h27q65 0 90.5 -30.5t18.5 -77.5l-11 -67h-108l9 56q4 28 -18 28q-19 0 -23 -27l-2 -13q-5 -29 18 -59
l40 -54q37 -49 51 -84.5t8 -79.5l-3 -19q-21 -130 -143 -130zM110 -204h-53q14 30 22 67h-43l17 110h102l-11 -70q-9 -61 -34 -107z" />
    <glyph glyph-name="uni021A" unicode="&#x21a;" horiz-adv-x="331" 
d="M84 744h314l-21 -131h-91l-97 -613h-129l97 613h-94zM129 -203h-53q14 30 22 67h-43l17 110h102l-11 -70q-9 -61 -34 -107z" />
    <glyph glyph-name="uni021B" unicode="&#x21b;" horiz-adv-x="254" 
d="M202 0h-112q-32 0 -48 20t-11 52l56 347h-57l19 119h57l28 178h124l-28 -178h57l-19 -119h-57l-45 -277q-3 -21 17 -21h38zM118 -203h-53q14 30 22 67h-43l17 110h102l-11 -70q-9 -61 -34 -107z" />
    <glyph glyph-name="uni0237" unicode="&#x237;" horiz-adv-x="159" 
d="M-105 -69h51q8 0 12 2.5t5.5 6t3.5 11.5l93 587h124l-103 -653q-11 -73 -82 -73h-123z" />
    <glyph glyph-name="uni02BC" unicode="&#x2bc;" horiz-adv-x="137" 
d="M140 524h-62q25 52 34 92h-43l21 128h108l-17 -107q-9 -58 -41 -113z" />
    <glyph glyph-name="circumflex" unicode="&#x2c6;" 
d="M285 700l43 -136h-87l-17 62l-31 -62h-88l76 136h104z" />
    <glyph glyph-name="caron" unicode="&#x2c7;" 
d="M169 564l-43 136h86l18 -62l31 62h88l-77 -136h-103z" />
    <glyph glyph-name="breve" unicode="&#x2d8;" 
d="M226 563h-3q-50 0 -77 28.5t-19 81.5l1 7h83l-1 -6q-6 -33 20 -33h1q21 0 27 33l1 6h81l-1 -8q-7 -53 -37.5 -81t-75.5 -28z" />
    <glyph glyph-name="dotaccent" unicode="&#x2d9;" 
d="M298 690l-20 -126h-124l20 126h124z" />
    <glyph glyph-name="ring" unicode="&#x2da;" 
d="M228 608q15 0 23.5 9t8.5 24t-8.5 24t-23.5 9t-23.5 -9t-8.5 -24t8.5 -24t23.5 -9zM228 562q-35 0 -57.5 22t-22.5 57t22.5 57t57.5 22t57.5 -22t22.5 -57t-22.5 -57t-57.5 -22z" />
    <glyph glyph-name="ogonek" unicode="&#x2db;" 
d="M160 -188h-49q-38 0 -56.5 19t-13.5 51l2 13q9 49 86 105h61q-56 -56 -56 -90q0 -19 23 -19h15z" />
    <glyph glyph-name="tilde" unicode="&#x2dc;" 
d="M265 659l3 19h71l-9 -57q-10 -58 -53 -58q-23 0 -60 20q-14 9 -23 9q-8 0 -10 -11l-3 -18h-71l7 44q11 71 57 71q20 0 59 -19q15 -9 24 -9q7 0 8 9z" />
    <glyph glyph-name="hungarumlaut" unicode="&#x2dd;" 
d="M294 564h-84l53 136h84zM104 564l51 136h84l-51 -136h-84z" />
    <glyph glyph-name="uni0401" unicode="&#x401;" horiz-adv-x="313" 
d="M96 744h275l-21 -131h-145l-26 -162h116l-22 -134h-116l-29 -183h154l-22 -134h-282zM347 770h-97l17 106h97zM225 770h-97l17 106h97z" />
    <glyph glyph-name="uni0402" unicode="&#x402;" horiz-adv-x="429" 
d="M178 -119l18 119h3q24 0 34 13t14 40l37 236q5 29 -2 38.5t-28 9.5h-1q-20 0 -32 -5l-53 -332h-129l98 613h-75l20 131h319l-20 -131h-115l-27 -167q34 11 72 11h2q63 0 89.5 -34t17.5 -95l-43 -275q-13 -88 -51.5 -130t-116.5 -42h-31z" />
    <glyph glyph-name="uni0403" unicode="&#x403;" horiz-adv-x="295" 
d="M166 770l56 115h108l-59 -115h-105zM105 0h-129l118 744h271l-21 -131h-142z" />
    <glyph glyph-name="uni0404" unicode="&#x404;" horiz-adv-x="359" 
d="M165 -11h-26q-87 0 -119 49.5t-21 124.5l67 422q14 80 50 124.5t115 44.5h27q165 0 138 -164l-17 -106h-129l17 101q6 43 -29 43q-18 0 -25.5 -10t-11.5 -33l-20 -128h99l-23 -140h-99l-24 -154q-3 -19 4.5 -31t25.5 -12q17 0 24.5 11t11.5 34l20 126h129l-20 -128
q-11 -80 -48 -127t-116 -47z" />
    <glyph glyph-name="uni0405" unicode="&#x405;" horiz-adv-x="352" 
d="M158 -9h-29q-73 0 -110.5 42t-25.5 118l21 132h128l-19 -121q-7 -47 26 -47q30 0 40 54l4 24q6 35 -0.5 58.5t-32.5 63.5l-39 62q-38 58 -50.5 104t-3.5 101l5 31q12 73 50 106.5t107 33.5h29q149 0 125 -153l-14 -89h-124l14 89q7 39 -25 39q-16 0 -21.5 -8.5
t-8.5 -27.5l-4 -26q-4 -30 1 -46t29 -55l41 -66q41 -67 56.5 -113t7.5 -98l-6 -38q-27 -170 -171 -170z" />
    <glyph glyph-name="uni0406" unicode="&#x406;" horiz-adv-x="166" 
d="M225 744l-118 -744h-129l118 744h129z" />
    <glyph glyph-name="uni0407" unicode="&#x407;" horiz-adv-x="170" 
d="M225 744l-118 -744h-129l118 744h129zM274 770h-97l17 106h97zM152 770h-97l17 106h97z" />
    <glyph glyph-name="uni0408" unicode="&#x408;" horiz-adv-x="343" 
d="M23 327h126l-27 -170q-5 -35 22 -35h2q14 0 20.5 8t9.5 27l93 587h134l-94 -593q-12 -80 -48 -119.5t-103 -39.5h-44q-66 0 -99.5 37t-21.5 109z" />
    <glyph glyph-name="uni0409" unicode="&#x409;" horiz-adv-x="558" 
d="M3 0h-33l21 135h8q20 0 30 15t18 59q42 228 91 535h298l-43 -268h63q129 0 103 -150l-29 -180q-11 -75 -44 -110.5t-112 -35.5h-185l97 613h-46q-45 -288 -85 -482q-17 -71 -49 -101t-103 -30zM336 115h25q21 0 29 10.5t12 32.5l25 155q3 21 -2 31.5t-26 10.5h-25z" />
    <glyph glyph-name="uni040A" unicode="&#x40a;" horiz-adv-x="543" 
d="M105 0h-129l118 744h129l-43 -274h70l43 274h129l-43 -274h63q67 0 89.5 -38.5t12.5 -111.5l-28 -174q-11 -75 -44 -110.5t-112 -35.5h-185l53 335h-70zM322 115h25q21 0 29 10.5t12 32.5l24 149q3 21 -2 31.5t-26 10.5h-25z" />
    <glyph glyph-name="uni040B" unicode="&#x40b;" horiz-adv-x="428" 
d="M168 0h-129l97 613h-75l21 131h319l-21 -131h-115l-27 -167q35 11 83 11h3q116 0 97 -119l-54 -338h-129l46 289q5 29 -2 38.5t-28 9.5h-1q-20 0 -33 -5z" />
    <glyph glyph-name="uni040C" unicode="&#x40c;" horiz-adv-x="363" 
d="M180 460l126 284h131l-153 -343l46 -401h-136l-36 322l-51 -322h-129l118 744h129zM206 770l56 115h108l-59 -115h-105z" />
    <glyph glyph-name="uni040E" unicode="&#x40e;" horiz-adv-x="326" 
d="M-16 0l19 119h43q12 0 17 6t9 21l3 11q6 25 6 64l-16 523h129l-6 -309l93 309h125l-228 -663q-27 -81 -87 -81h-107zM241 767h-4q-50 0 -76 28.5t-20 79.5h81q-2 -13 3.5 -21.5t17.5 -8.5h1q26 0 26 30h83q-2 -51 -32.5 -79.5t-79.5 -28.5z" />
    <glyph glyph-name="uni040F" unicode="&#x40f;" horiz-adv-x="355" 
d="M-24 0l118 744h129l-97 -613h60l97 613h129l-118 -744h-97l-16 -105h-123l16 105h-98z" />
    <glyph glyph-name="uni0410" unicode="&#x410;" horiz-adv-x="334" 
d="M176 0l6 125h-79l-31 -125h-117l209 744h153l-17 -744h-124zM136 253h52l11 251z" />
    <glyph glyph-name="uni0411" unicode="&#x411;" horiz-adv-x="350" 
d="M344 316l-27 -170q-11 -75 -44 -110.5t-112 -35.5h-185l118 744h291l-21 -131h-162l-23 -147h63q67 0 89.5 -38.5t12.5 -111.5zM123 115h25q21 0 29 10.5t12 32.5l23 145q4 21 -1 31.5t-26 10.5h-25z" />
    <glyph glyph-name="uni0412" unicode="&#x412;" horiz-adv-x="363" 
d="M-22 0l118 744h185q68 0 97.5 -31.5t17.5 -101.5l-15 -95q-14 -89 -79 -108q68 -25 55 -117l-19 -124q-15 -89 -44.5 -128t-87.5 -39h-228zM190 333h-30l-35 -215h37q18 0 27 8t14 38l19 120q4 25 -3 37t-29 12zM236 630h-29l-28 -177h32q16 0 24.5 8t13.5 31l16 99
q6 39 -29 39z" />
    <glyph glyph-name="uni0413" unicode="&#x413;" horiz-adv-x="295" 
d="M105 0h-129l118 744h271l-21 -131h-142z" />
    <glyph glyph-name="uni0414" unicode="&#x414;" horiz-adv-x="395" 
d="M-16 134h25q2 6 8 26q11 36 19 78q37 188 85 506h309l-97 -610h35l-37 -239h-119l16 105h-146l-16 -105h-119zM131 134h74l76 479h-58q-42 -264 -67 -387q-13 -55 -17 -67q-1 -3 -3.5 -12t-4.5 -13z" />
    <glyph glyph-name="uni0415" unicode="&#x415;" horiz-adv-x="309" 
d="M96 744h275l-21 -131h-145l-26 -162h116l-22 -134h-116l-29 -183h154l-22 -134h-282z" />
    <glyph glyph-name="uni0416" unicode="&#x416;" horiz-adv-x="559" 
d="M219 318l-133 -318h-136l178 406l-49 338h127l36 -287l45 287h129l-46 -287l127 287h127l-156 -338l49 -406h-136l-33 316l-50 -316h-129z" />
    <glyph glyph-name="uni0417" unicode="&#x417;" 
d="M52 515l15 96q10 72 43.5 107t102.5 35h23q81 0 113.5 -40.5t22.5 -110.5l-14 -92q-14 -84 -64 -103q54 -19 41 -110l-24 -154q-13 -82 -49.5 -118t-106.5 -36h-28q-158 0 -135 154l20 130h129l-18 -118q-6 -35 22 -35q27 0 33 35l22 140q3 19 -1.5 27t-21.5 8h-65
l21 133h62q17 0 23.5 7t9.5 26l15 93q6 34 -21 34q-13 0 -20 -7t-10 -27l-12 -74h-128z" />
    <glyph glyph-name="uni0418" unicode="&#x418;" horiz-adv-x="377" 
d="M189 0l63 395l-149 -395h-127l118 744h127l-63 -398l149 398h127l-118 -744h-127z" />
    <glyph glyph-name="uni0419" unicode="&#x419;" horiz-adv-x="377" 
d="M189 0l63 395l-149 -395h-127l118 744h127l-63 -398l149 398h127l-118 -744h-127zM277 767h-4q-50 0 -76 28.5t-20 79.5h81q-2 -13 3.5 -21.5t17.5 -8.5h1q26 0 26 30h83q-2 -51 -32.5 -79.5t-79.5 -28.5z" />
    <glyph glyph-name="uni041A" unicode="&#x41a;" horiz-adv-x="363" 
d="M192 0l-36 322l-51 -322h-129l118 744h129l-45 -283l126 283h131l-153 -343l46 -401h-136z" />
    <glyph glyph-name="uni041B" unicode="&#x41b;" horiz-adv-x="383" 
d="M193 0l97 613h-51q-57 -368 -85 -482q-17 -70 -49 -100.5t-102 -30.5h-33l21 135h8q19 0 28 11t15 39q45 229 96 559h302l-118 -744h-129z" />
    <glyph glyph-name="uni041C" unicode="&#x41c;" horiz-adv-x="446" 
d="M-22 0l118 744h153l-10 -378l108 378h158l-118 -744h-117l71 445l-134 -445h-50l5 445l-71 -445h-113z" />
    <glyph glyph-name="uni041D" unicode="&#x41d;" horiz-adv-x="364" 
d="M157 314l-50 -314h-129l118 744h129l-45 -284h69l45 284h129l-118 -744h-129l50 314h-69z" />
    <glyph glyph-name="uni041E" unicode="&#x41e;" horiz-adv-x="372" 
d="M241 623q-19 0 -27.5 -11.5t-12.5 -37.5l-65 -410q-6 -42 31 -42q32 0 39 42l65 410q7 49 -30 49zM230 753h27q87 0 124 -51t24 -138l-62 -392q-31 -183 -164 -183h-27q-84 0 -123.5 50t-25.5 138l61 386q15 95 52.5 142.5t113.5 47.5z" />
    <glyph glyph-name="uni041F" unicode="&#x41f;" horiz-adv-x="355" 
d="M105 0h-129l118 744h318l-118 -744h-129l97 613h-60z" />
    <glyph glyph-name="uni0420" unicode="&#x420;" horiz-adv-x="347" 
d="M229 298h-75l-47 -298h-129l118 744h171q79 0 107.5 -37.5t15.5 -109.5l-24 -149q-11 -73 -42 -111.5t-95 -38.5zM207 629l-33 -210h27q19 0 26 9t10 31l20 126q7 44 -27 44h-23z" />
    <glyph glyph-name="uni0421" unicode="&#x421;" horiz-adv-x="359" 
d="M202 165l26 162h129l-26 -164q-11 -80 -48 -127t-116 -47h-26q-87 0 -119 49.5t-21 124.5l67 422q14 80 50 124.5t115 44.5h27q165 0 138 -164l-20 -127h-129l20 122q6 43 -29 43q-18 0 -25.5 -10t-11.5 -33l-67 -422q-3 -19 4.5 -31t25.5 -12q17 0 24.5 11t11.5 34z" />
    <glyph glyph-name="uni0422" unicode="&#x422;" horiz-adv-x="327" 
d="M84 744h314l-21 -131h-91l-97 -613h-129l97 613h-94z" />
    <glyph glyph-name="uni0423" unicode="&#x423;" horiz-adv-x="326" 
d="M-16 0l19 119h43q12 0 17 6t9 21l3 11q6 25 6 64l-16 523h129l-6 -309l93 309h125l-228 -663q-27 -81 -87 -81h-107z" />
    <glyph glyph-name="uni0424" unicode="&#x424;" horiz-adv-x="532" 
d="M269 693l10 61h129l-10 -61h7q183 0 153 -196l-36 -229q-17 -98 -67 -148.5t-149 -50.5h-7l-13 -79h-129l13 79h-7q-184 0 -153 196l36 229q30 199 216 199h7zM248 560h-1q-30 0 -44.5 -12t-19.5 -44l-39 -243q-5 -31 4.5 -45t40.5 -14h2zM377 560l-57 -358q30 0 45 12.5
t20 43.5l38 243q5 31 -4.5 45t-40.5 14h-1z" />
    <glyph glyph-name="uni0425" unicode="&#x425;" horiz-adv-x="349" 
d="M110 398l-25 346h127l8 -223l74 223h124l-131 -346l27 -398h-128l-9 258l-94 -258h-129z" />
    <glyph glyph-name="uni0426" unicode="&#x426;" horiz-adv-x="377" 
d="M194 -105l17 105h-235l118 744h129l-97 -613h60l97 613h129l-97 -610h36l-38 -239h-119z" />
    <glyph glyph-name="uni0427" unicode="&#x427;" horiz-adv-x="352" 
d="M162 0l47 298q-34 -11 -77 -11q-124 0 -103 131l52 326h129l-46 -289q-5 -29 2.5 -38.5t28.5 -9.5q24 0 32 5l53 332h129l-118 -744h-129z" />
    <glyph glyph-name="uni0428" unicode="&#x428;" horiz-adv-x="534" 
d="M-24 0l118 744h129l-97 -610h55l97 610h129l-97 -610h55l97 610h129l-118 -744h-497z" />
    <glyph glyph-name="uni0429" unicode="&#x429;" horiz-adv-x="556" 
d="M-24 0l118 744h129l-97 -610h55l97 610h129l-97 -610h55l97 610h129l-97 -610h36l-38 -239h-119l16 105h-413z" />
    <glyph glyph-name="uni042A" unicode="&#x42a;" horiz-adv-x="413" 
d="M249 476h63q128 0 102 -150l-29 -180q-11 -75 -43.5 -110.5t-111.5 -35.5h-185l97 613h-80l20 131h210zM192 115h25q21 0 29 10.5t12 32.5l25 155q4 20 -1.5 31t-26.5 11h-25z" />
    <glyph glyph-name="uni042B" unicode="&#x42b;" horiz-adv-x="511" 
d="M180 476h63q128 0 102 -150l-29 -180q-11 -75 -43.5 -110.5t-111.5 -35.5h-185l118 744h129zM123 115h25q21 0 29 10.5t12 32.5l25 155q4 20 -1.5 31t-26.5 11h-25zM570 744l-118 -744h-129l118 744h129z" />
    <glyph glyph-name="uni042C" unicode="&#x42c;" horiz-adv-x="344" 
d="M180 476h63q128 0 102 -150l-29 -180q-11 -75 -43.5 -110.5t-111.5 -35.5h-185l118 744h129zM123 115h25q21 0 29 10.5t12 32.5l25 155q4 20 -1.5 31t-26.5 11h-25z" />
    <glyph glyph-name="uni042D" unicode="&#x42d;" horiz-adv-x="356" 
d="M148 -12h-27q-77 0 -108.5 52t-18.5 133l19 118h128l-20 -127q-7 -45 26 -45t41 45l24 153h-99l23 140h99l20 127q6 42 -28 42q-33 0 -39 -42l-16 -100h-128l17 105q6 37 14.5 62.5t26 50.5t49 38t76.5 13h27q83 0 114.5 -50.5t18.5 -132.5l-64 -406q-7 -40 -16.5 -67.5
t-28.5 -54.5t-51.5 -40.5t-78.5 -13.5z" />
    <glyph glyph-name="uni042E" unicode="&#x42e;" horiz-adv-x="549" 
d="M354 -11h-27q-84 0 -123.5 50t-25.5 138l22 137h-45l-50 -314h-129l118 744h129l-45 -284h45l16 103q15 95 52.5 142.5t113.5 47.5h27q87 0 124 -51t24 -138l-62 -392q-31 -183 -164 -183zM381 164l65 410q7 49 -30 49q-19 0 -27.5 -11.5t-12.5 -37.5l-65 -410
q-6 -42 31 -42q32 0 39 42z" />
    <glyph glyph-name="uni042F" unicode="&#x42f;" horiz-adv-x="354" 
d="M81 0h-136l131 311q-49 27 -33 117l27 170q11 74 44.5 110t112.5 36h184l-118 -744h-129l44 278h-11zM227 399l37 230h-25q-21 0 -29 -10.5t-12 -32.5l-23 -145q-4 -21 1 -31.5t26 -10.5h25z" />
    <glyph glyph-name="uni0430" unicode="&#x430;" horiz-adv-x="324" 
d="M-14 98l17 108q12 80 67 109q16 9 63 29.5t49 21.5q10 5 14 23l4 25q6 32 -19 32h-3q-20 0 -25 -31l-8 -51h-111l12 74q8 47 35 76.5t95 29.5h22q143 0 124 -118l-47 -295q-5 -17 14 -17h14l-18 -114h-112q-19 0 -26 13t-2 47q-41 -65 -96 -65h-2q-35 0 -51.5 28.5
t-9.5 74.5zM128 102q22 0 27 31l21 131q-31 -18 -36 -23q-14 -14 -18 -42l-10 -62q-6 -35 16 -35z" />
    <glyph glyph-name="uni0431" unicode="&#x431;" horiz-adv-x="330" 
d="M339 411l-43 -271q-22 -149 -155 -149h-20q-76 0 -107.5 42t-20.5 107l64 406q15 99 54.5 139t138.5 40h9q12 0 17.5 3.5t7.5 15.5h109q-13 -73 -35 -100.5t-79 -27.5h-23q-39 0 -54 -14t-21 -56l-6 -41q41 41 93 41h5q47 0 62.5 -33.5t3.5 -101.5zM140 105q25 0 30 32
l41 259q7 41 -21 41q-25 0 -32 -41l-41 -259q-5 -32 23 -32z" />
    <glyph glyph-name="uni0432" unicode="&#x432;" horiz-adv-x="318" 
d="M147 0h-174l86 538h164q66 0 89.5 -28.5t13.5 -93.5l-6 -38q-10 -69 -65 -88q26 -10 38 -29.5t4 -63.5l-12 -76q-11 -63 -39 -92t-99 -29zM150 334h14q15 0 22 7.5t10 26.5l6 38q4 30 -22 30h-14zM114 102h14q17 0 25.5 9t11.5 28l9 59q6 35 -26 35h-14z" />
    <glyph glyph-name="uni0433" unicode="&#x433;" horiz-adv-x="239" 
d="M-27 0l86 538h217l-19 -119h-93l-67 -419h-124z" />
    <glyph glyph-name="uni0434" unicode="&#x434;" horiz-adv-x="362" 
d="M-55 -100l35 219h16q13 9 24 47q9 36 64 372h283l-67 -419h35l-35 -219h-113l16 100h-129l-16 -100h-113zM114 119h62l48 300h-44q-29 -178 -50 -257q-6 -20 -16 -43z" />
    <glyph glyph-name="uni0435" unicode="&#x435;" horiz-adv-x="312" 
d="M176 548h26q67 0 100 -36t22 -101l-25 -159h-168l-18 -117q-5 -33 20 -33q23 0 28 33l13 80h119l-14 -88q-22 -137 -141 -137h-27q-65 0 -97.5 35t-21.5 105l45 283q20 135 139 135zM157 413l-11 -65h51l10 63q6 38 -22 38q-13 0 -19 -8.5t-9 -27.5z" />
    <glyph glyph-name="uni0436" unicode="&#x436;" horiz-adv-x="500" 
d="M182 223l-110 -223h-122l142 283l-49 255h117l38 -215l34 215h119l-34 -215l106 215h117l-130 -256l51 -282h-122l-39 221l-35 -221h-119z" />
    <glyph glyph-name="uni0437" unicode="&#x437;" horiz-adv-x="302" 
d="M283 195l-11 -69q-5 -30 -12.5 -51t-23 -42.5t-44.5 -32.5t-70 -11h-21q-66 0 -94.5 38t-18.5 98l14 89h114l-13 -81q-4 -31 20 -31q25 0 29 27l11 72q2 15 -4.5 22t-26.5 7h-52l18 112h52q20 0 28.5 7t12.5 30l5 27q1 12 0.5 20t-5 12.5t-14.5 4.5q-26 0 -31 -38l-8 -49
h-113l10 62q21 130 141 130h25q68 0 95.5 -35.5t16.5 -100.5l-6 -36q-10 -69 -65 -88q54 -19 41 -93z" />
    <glyph glyph-name="uni0438" unicode="&#x438;" horiz-adv-x="338" 
d="M-27 0l86 538h120l-45 -283l111 283h120l-86 -538h-120l45 282l-111 -282h-120z" />
    <glyph glyph-name="uni0439" unicode="&#x439;" horiz-adv-x="338" 
d="M-27 0l86 538h120l-45 -283l111 283h120l-86 -538h-120l45 282l-111 -282h-120zM218 563h-3q-50 0 -77 28.5t-19 81.5l1 7h83l-1 -6q-6 -33 20 -33h1q21 0 27 33l1 6h81l-1 -8q-7 -53 -37.5 -81t-75.5 -28z" />
    <glyph glyph-name="uni043A" unicode="&#x43a;" horiz-adv-x="334" 
d="M132 217l-35 -217h-124l86 538h124l-33 -209l108 209h118l-135 -256l56 -282h-123z" />
    <glyph glyph-name="uni043B" unicode="&#x43b;" horiz-adv-x="350" 
d="M167 0l67 419h-40q-38 -234 -58 -311q-17 -61 -46.5 -84.5t-84.5 -23.5h-35l20 121h6q16 0 24 10t14 35q9 36 64 372h279l-86 -538h-124z" />
    <glyph glyph-name="uni043C" unicode="&#x43c;" horiz-adv-x="420" 
d="M138 0l-5 314l-51 -314h-109l86 538h151l5 -280l95 280h137l-86 -538h-109l52 321l-108 -321h-58z" />
    <glyph glyph-name="uni043D" unicode="&#x43d;" horiz-adv-x="330" 
d="M97 0h-124l86 538h124l-33 -206h50l33 206h124l-86 -538h-124l34 213h-50z" />
    <glyph glyph-name="uni043E" unicode="&#x43e;" horiz-adv-x="327" 
d="M151 -10h-29q-72 0 -105 42.5t-23 109.5l41 255q12 75 46.5 113t98.5 38h29q68 0 103.5 -39.5t24.5 -109.5l-41 -255q-10 -70 -46.5 -112t-98.5 -42zM190 437q-24 0 -29 -37l-41 -256q-5 -38 22 -38q11 0 17 6t8 12.5t4 19.5l41 256q5 37 -22 37z" />
    <glyph glyph-name="uni043F" unicode="&#x43f;" horiz-adv-x="325" 
d="M-27 0l86 538h293l-86 -538h-124l67 419h-45l-67 -419h-124z" />
    <glyph glyph-name="uni0440" unicode="&#x440;" horiz-adv-x="332" 
d="M60 538h123l-10 -61q14 26 40 46.5t57 20.5h2q41 0 59.5 -32t10.5 -83l-51 -321q-9 -57 -35 -88t-63 -31h-2q-57 0 -85 58l-37 -235h-124zM162 402l-43 -271q-6 -37 21 -37q22 0 28 36l43 272q4 34 -20 34q-14 0 -20 -7.5t-9 -26.5z" />
    <glyph glyph-name="uni0441" unicode="&#x441;" horiz-adv-x="310" 
d="M181 241h116l-18 -113q-11 -67 -42.5 -103t-94.5 -36h-20q-75 0 -108 39.5t-21 106.5l42 265q10 71 45 109.5t103 38.5h25q70 0 98 -37.5t19 -93.5l-14 -88h-116l12 76q7 38 -18 38q-13 0 -19 -8.5t-8 -28.5l-43 -271q-5 -33 19 -33q9 0 14.5 4t7.5 10t4 17z" />
    <glyph glyph-name="uni0442" unicode="&#x442;" horiz-adv-x="267" 
d="M27 0l67 419h-65l19 119h254l-19 -119h-65l-67 -419h-124z" />
    <glyph glyph-name="uni0443" unicode="&#x443;" horiz-adv-x="304" 
d="M56 9l-15 529h119l-7 -296l76 296h125l-206 -646q-13 -42 -31.5 -61t-47.5 -19h-119l19 118h49q13 0 19 6t9 19l6 23q4 15 4 31z" />
    <glyph glyph-name="uni0444" unicode="&#x444;" horiz-adv-x="491" 
d="M111 -188l28 178h-34q-65 0 -94 40t-18 112l41 255q12 81 48.5 116t111.5 35h34l31 196h124l-31 -196h33q60 0 92 -39.5t21 -109.5l-40 -255q-13 -76 -49.5 -115t-112.5 -39h-33l-28 -178h-124zM139 106h19l52 331h-19q-15 0 -22 -8.5t-10 -28.5l-40 -256q-5 -38 20 -38z
M282 106h18q16 0 23 9.5t10 28.5l40 256q5 37 -21 37h-18z" />
    <glyph glyph-name="uni0445" unicode="&#x445;" horiz-adv-x="303" 
d="M76 291l-30 247h117l10 -153l54 153h116l-106 -247l30 -291h-116l-12 171l-65 -171h-119z" />
    <glyph glyph-name="uni0446" unicode="&#x446;" horiz-adv-x="347" 
d="M285 -100h-113l16 100h-215l86 538h124l-67 -419h45l67 419h124l-67 -419h35z" />
    <glyph glyph-name="uni0447" unicode="&#x447;" horiz-adv-x="317" 
d="M220 538h124l-86 -538h-124l33 207q-28 -12 -65 -12q-104 0 -85 119l36 224h124l-32 -202q-3 -17 1.5 -23.5t18.5 -6.5q9 0 18 4z" />
    <glyph glyph-name="uni0448" unicode="&#x448;" horiz-adv-x="484" 
d="M-27 0l86 538h124l-67 -419h40l67 419h124l-67 -419h40l67 419h124l-86 -538h-452z" />
    <glyph glyph-name="uni0449" unicode="&#x449;" horiz-adv-x="506" 
d="M-27 0l86 538h124l-67 -419h40l67 419h124l-67 -419h40l67 419h124l-67 -419h35l-34 -219h-113l15 100h-374z" />
    <glyph glyph-name="uni044A" unicode="&#x44a;" horiz-adv-x="376" 
d="M27 419l19 119h195l-27 -170h41q68 0 93.5 -33t13.5 -101l-16 -97q-10 -71 -44 -104t-106 -33h-165l67 419h-71zM172 103h14q31 0 36 32l16 100q2 17 -4 23.5t-23 6.5h-14z" />
    <glyph glyph-name="uni044B" unicode="&#x44b;" horiz-adv-x="466" 
d="M-27 0l86 538h124l-27 -170h41q68 0 93.5 -33t13.5 -101l-16 -97q-10 -71 -44 -104t-106 -33h-165zM114 103h14q31 0 36 32l16 100q2 17 -4 23.5t-23 6.5h-14zM495 538l-85 -538h-124l85 538h124z" />
    <glyph glyph-name="uni044C" unicode="&#x44c;" horiz-adv-x="318" 
d="M-27 0l86 538h124l-27 -170h41q68 0 93.5 -33t13.5 -101l-16 -97q-10 -71 -44 -104t-106 -33h-165zM114 103h14q31 0 36 32l16 100q2 17 -4 23.5t-23 6.5h-14z" />
    <glyph glyph-name="uni044D" unicode="&#x44d;" horiz-adv-x="310" 
d="M120 -11h-21q-67 0 -94 38t-17 98l14 89h115l-13 -81q-5 -31 19 -31h1q22 0 27 33l15 95h-85l18 112h85l10 64q3 18 0 27.5t-16 9.5h-1q-25 0 -30 -38l-8 -49h-114l10 62q9 62 41 96t102 34h20q67 0 99 -38t21 -110l-43 -271q-10 -68 -46 -104t-109 -36z" />
    <glyph glyph-name="uni044E" unicode="&#x44e;" horiz-adv-x="490" 
d="M312 -10h-29q-72 0 -105 42.5t-23 109.5l11 71h-35l-34 -213h-124l86 538h124l-33 -206h36l10 65q12 75 46.5 113t98.5 38h29q68 0 103.5 -39.5t24.5 -109.5l-41 -255q-10 -70 -46.5 -112t-98.5 -42zM302 106h1q11 0 17 6t8 12.5t4 19.5l41 256q5 37 -21 37h-1
q-24 0 -29 -37l-41 -256q-5 -38 21 -38z" />
    <glyph glyph-name="uni044F" unicode="&#x44f;" horiz-adv-x="325" 
d="M171 180h-9l-82 -180h-123l96 209q-42 29 -29 109l13 83q12 74 40.5 105.5t91.5 31.5h183l-86 -538h-124zM211 435h-14q-31 0 -36 -32l-14 -90q-3 -17 3 -23.5t23 -6.5h14z" />
    <glyph glyph-name="uni0451" unicode="&#x451;" horiz-adv-x="316" 
d="M176 548h26q67 0 100 -36t22 -101l-25 -159h-168l-18 -117q-5 -33 20 -33q23 0 28 33l13 80h119l-14 -88q-22 -137 -141 -137h-27q-65 0 -97.5 35t-21.5 105l45 283q20 135 139 135zM157 413l-11 -65h51l10 63q6 38 -22 38q-13 0 -19 -8.5t-9 -27.5zM309 564h-97l17 106
h97zM205 670l-17 -106h-97l17 106h97z" />
    <glyph glyph-name="uni0452" unicode="&#x452;" horiz-adv-x="333" 
d="M48 -188l19 119h52q10 0 14.5 4t6.5 17l71 446q6 30 -20 30q-25 0 -32 -34l-62 -394h-124l92 583h-32l15 91h32l11 70h124l-11 -70h75l-15 -91h-75l-17 -107q52 64 106 64h5q36 0 52 -23.5t10 -60.5l-90 -572q-6 -31 -27 -51.5t-55 -20.5h-125z" />
    <glyph glyph-name="uni0453" unicode="&#x453;" horiz-adv-x="239" 
d="M-27 0l86 538h217l-19 -119h-93l-67 -419h-124zM118 564l60 136h105l-63 -136h-102z" />
    <glyph glyph-name="uni0454" unicode="&#x454;" horiz-adv-x="312" 
d="M139 -11h-21q-72 0 -103.5 38.5t-21.5 101.5l43 271q11 73 44.5 110.5t103.5 37.5h25q135 0 116 -130l-10 -62h-114l8 49q5 38 -18 38h-1q-14 0 -20 -9t-8 -28l-10 -64h85l-18 -112h-85l-15 -95q-5 -33 17 -33h1q22 0 27 31l13 81h115l-14 -89q-11 -63 -42.5 -99.5
t-96.5 -36.5z" />
    <glyph glyph-name="uni0455" unicode="&#x455;" horiz-adv-x="294" 
d="M125 -9h-26q-65 0 -94 35.5t-20 94.5l12 75h114l-12 -75q-4 -27 20 -27h1q18 0 23 29l3 19q3 20 -1.5 33.5t-20.5 35.5l-40 54q-57 78 -47 149l3 20q17 114 131 114h27q65 0 90.5 -30.5t18.5 -77.5l-11 -67h-108l9 56q4 28 -18 28q-19 0 -23 -27l-2 -13q-5 -29 18 -59
l40 -54q37 -49 51 -84.5t8 -79.5l-3 -19q-21 -130 -143 -130z" />
    <glyph glyph-name="uni0456" unicode="&#x456;" horiz-adv-x="155" 
d="M184 538l-85 -538h-124l85 538h124zM208 690l-20 -126h-124l20 126h124z" />
    <glyph glyph-name="uni0457" unicode="&#x457;" horiz-adv-x="155" 
d="M140 690l-20 -126h-80l20 126h80zM230 690l-20 -126h-80l20 126h80zM184 538l-85 -538h-124l85 538h124z" />
    <glyph glyph-name="uni0458" unicode="&#x458;" horiz-adv-x="155" 
d="M-105 -69h51q8 0 12 2.5t5.5 6t3.5 11.5l93 587h124l-103 -653q-11 -73 -82 -73h-123zM208 690l-20 -126h-124l20 126h124z" />
    <glyph glyph-name="uni0459" unicode="&#x459;" horiz-adv-x="512" 
d="M98 538h279l-27 -170h41q68 0 93.5 -33t13.5 -101l-16 -97q-10 -71 -44 -104t-106 -33h-165l67 419h-40q-38 -234 -58 -311q-17 -61 -46.5 -84.5t-84.5 -23.5h-35l20 121h6q16 0 23.5 9.5t14.5 35.5q9 36 64 372zM308 103h14q31 0 36 32l16 100q2 17 -4 23.5t-23 6.5h-14
z" />
    <glyph glyph-name="uni045A" unicode="&#x45a;" horiz-adv-x="487" 
d="M97 0h-124l86 538h124l-30 -190h50l30 190h124l-30 -190h36q72 0 96.5 -33.5t14.5 -101.5l-12 -76q-10 -71 -44 -104t-106 -33h-165l37 229h-50zM310 245l-22 -142h14q18 0 25.5 7t10.5 27l12 78q2 17 -3.5 23.5t-22.5 6.5h-14z" />
    <glyph glyph-name="uni045B" unicode="&#x45b;" horiz-adv-x="333" 
d="M35 583l15 91h32l11 70h123l-11 -70h75l-15 -91h-74l-17 -107q47 64 98 64h7q40 0 55 -29.5t10 -63.5l-71 -447h-125l62 392q5 36 -21 36q-23 0 -28 -36l-62 -392h-124l92 583h-32z" />
    <glyph glyph-name="uni045C" unicode="&#x45c;" horiz-adv-x="334" 
d="M168 564l60 136h105l-63 -136h-102zM132 217l-35 -217h-124l86 538h124l-33 -209l108 209h118l-135 -256l56 -282h-123z" />
    <glyph glyph-name="uni045E" unicode="&#x45e;" horiz-adv-x="304" 
d="M56 9l-15 529h119l-7 -296l76 296h125l-206 -646q-13 -42 -31.5 -61t-47.5 -19h-119l19 118h49q13 0 19 6t9 19l6 23q4 15 4 31zM199 563h-3q-50 0 -77 28.5t-19 81.5l1 7h83l-1 -6q-6 -33 20 -33h1q21 0 27 33l1 6h81l-1 -8q-7 -53 -37.5 -81t-75.5 -28z" />
    <glyph glyph-name="uni045F" unicode="&#x45f;" horiz-adv-x="325" 
d="M266 0h-90l-16 -100h-113l16 100h-90l86 538h124l-67 -419h45l67 419h124z" />
    <glyph glyph-name="uni0490" unicode="&#x490;" horiz-adv-x="295" 
d="M105 0h-129l118 744h148l17 105h123l-17 -105l-21 -130v-1h-142z" />
    <glyph glyph-name="uni0491" unicode="&#x491;" horiz-adv-x="239" 
d="M-27 0l86 538h114l16 100h103l-16 -100l-19 -119h-93l-67 -419h-124z" />
    <glyph glyph-name="uni0492" unicode="&#x492;" horiz-adv-x="299" 
d="M225 325h-65l-51 -325h-129l52 325h-25l18 118h25l48 301h271l-21 -131h-142l-27 -170h64z" />
    <glyph glyph-name="uni0493" unicode="&#x493;" horiz-adv-x="249" 
d="M33 313l36 225h217l-19 -119h-93l-17 -106h53l-16 -104h-54l-33 -209h-124l33 209h-24l16 104h25z" />
    <glyph glyph-name="uni0496" unicode="&#x496;" horiz-adv-x="569" 
d="M506 -105h-119l16 105h-22l-33 316l-50 -316h-129l50 318l-133 -318h-136l178 406l-49 338h127l36 -287l45 287h129l-46 -287l127 287h127l-156 -338l33 -272h43z" />
    <glyph glyph-name="uni0497" unicode="&#x497;" horiz-adv-x="515" 
d="M451 -100h-103l15 100h-24l-39 221l-35 -221h-119l36 223l-110 -223h-122l142 283l-49 255h117l38 -215l34 215h119l-34 -215l106 215h117l-130 -256l29 -163h46z" />
    <glyph glyph-name="uni049A" unicode="&#x49a;" horiz-adv-x="385" 
d="M322 -105h-119l16 105h-27l-36 322l-51 -322h-129l118 744h129l-45 -283l126 283h131l-153 -343l30 -267h48z" />
    <glyph glyph-name="uni049B" unicode="&#x49b;" horiz-adv-x="351" 
d="M132 217l-35 -217h-124l86 538h124l-33 -209l108 209h118l-135 -256l32 -163h48l-34 -219h-103l15 100h-25z" />
    <glyph glyph-name="uni04A2" unicode="&#x4a2;" horiz-adv-x="386" 
d="M322 -105h-123l16 105h-41l50 314h-69l-50 -314h-129l118 744h129l-45 -284h69l45 284h129l-97 -610h36z" />
    <glyph glyph-name="uni04A3" unicode="&#x4a3;" horiz-adv-x="352" 
d="M97 0h-124l86 538h124l-33 -206h50l33 206h124l-67 -419h35l-34 -219h-103l15 100h-56l34 213h-50z" />
    <glyph glyph-name="uni04AE" unicode="&#x4ae;" horiz-adv-x="318" 
d="M403 744l-168 -444l-47 -300h-130l47 296l-36 448h126l4 -264l86 264h118z" />
    <glyph glyph-name="uni04AF" unicode="&#x4af;" horiz-adv-x="306" 
d="M169 3l-30 -191h-124l29 188l-6 538h120l-19 -362l94 362h118z" />
    <glyph glyph-name="uni04B0" unicode="&#x4b0;" horiz-adv-x="318" 
d="M89 196h-73l18 114h70l-35 434h126l4 -264l86 264h118l-164 -434h68l-18 -114h-71l-30 -196h-130z" />
    <glyph glyph-name="uni04B1" unicode="&#x4b1;" horiz-adv-x="306" 
d="M154 -91l-15 -97h-124l15 97h-56l14 91h56l-6 538h120l-19 -362l94 362h118l-182 -535l-1 -3h68l-14 -91h-68z" />
    <glyph glyph-name="uni04B2" unicode="&#x4b2;" horiz-adv-x="361" 
d="M301 -105h-119l16 105h-12l-9 258l-94 -258h-129l156 398l-25 346h127l8 -223l74 223h124l-131 -346l18 -264h34z" />
    <glyph glyph-name="uni04B3" unicode="&#x4b3;" horiz-adv-x="316" 
d="M76 291l-30 247h117l10 -153l54 153h116l-106 -247l17 -172h35l-34 -219h-103l15 100h-16l-12 171l-65 -171h-119z" />
    <glyph glyph-name="uni04BA" unicode="&#x4ba;" horiz-adv-x="365" 
d="M223 744l-47 -298q34 11 77 11q124 0 103 -131l-52 -326h-129l46 289q5 29 -2 38.5t-29 9.5q-24 0 -32 -5l-53 -332h-129l118 744h129z" />
    <glyph glyph-name="uni04BB" unicode="&#x4bb;" horiz-adv-x="329" 
d="M-25 0l118 744h123l-42 -268q47 64 98 64h7q40 0 55 -29.5t10 -63.5l-71 -447h-125l62 392q5 36 -21 36q-23 0 -28 -36l-62 -392h-124z" />
    <glyph glyph-name="uni04C0" unicode="&#x4c0;" horiz-adv-x="166" 
d="M225 744l-118 -744h-129l118 744h129z" />
    <glyph glyph-name="uni04CF" unicode="&#x4cf;" horiz-adv-x="155" 
d="M217 744l-118 -744h-124l118 744h124z" />
    <glyph glyph-name="uni04D8" unicode="&#x4d8;" horiz-adv-x="365" 
d="M2 160l43 277h196l23 147q4 22 -2 32.5t-24 10.5q-35 0 -41 -43l-16 -100h-128l17 104q14 79 51 122t120 43h21q79 0 113.5 -48.5t22.5 -127.5l-66 -413q-15 -90 -54.5 -133t-113.5 -43h-22q-76 0 -113 50t-27 122zM153 307l-23 -143q-7 -45 26 -45t41 45l23 143h-67z
" />
    <glyph glyph-name="uni04D9" unicode="&#x4d9;" horiz-adv-x="318" 
d="M325 408l-45 -283q-11 -63 -43 -99t-96 -36h-26q-67 0 -100 36t-22 101l26 167h168l17 109q5 33 -20 33q-24 0 -28 -33l-13 -80h-119l14 88q22 137 141 137h27q65 0 97.5 -35t21.5 -105zM132 89q13 0 19 8.5t9 27.5l12 73h-51l-11 -71q-6 -38 22 -38z" />
    <glyph glyph-name="uni04E8" unicode="&#x4e8;" horiz-adv-x="382" 
d="M228 753h32q88 0 128 -51t25 -138l-62 -392q-15 -87 -57 -135t-112 -48h-32q-84 0 -123.5 50t-25.5 138l61 386q15 95 52.5 142.5t113.5 47.5zM200 579l-21 -134h80l21 134q8 49 -35 49q-38 0 -45 -49zM159 320l-26 -161q-3 -17 6.5 -29.5t29.5 -12.5q19 0 30 12.5
t14 29.5l26 161h-80z" />
    <glyph glyph-name="uni04E9" unicode="&#x4e9;" horiz-adv-x="336" 
d="M158 -10h-38q-72 0 -105 42.5t-23 109.5l41 255q12 75 46.5 113t98.5 38h38q68 0 103.5 -39.5t24.5 -109.5l-41 -255q-10 -70 -46.5 -112t-98.5 -42zM160 405l-13 -81h60l13 81q5 37 -26 37h-1q-28 0 -33 -37zM144 101h1q27 0 33 38l13 82h-60l-13 -82q-5 -38 26 -38z
" />
    <glyph glyph-name="Wgrave" unicode="&#x1e80;" horiz-adv-x="557" 
d="M294 744h123l-24 -476l113 476h128l-203 -744h-151l24 417l-100 -417h-149l18 744h132l-27 -467zM388 885l19 -115h-99l-24 115h104z" />
    <glyph glyph-name="wgrave" unicode="&#x1e81;" horiz-adv-x="485" 
d="M178 0h-135l-2 538h122l-14 -332l83 332h111l-13 -336l83 336h117l-157 -538h-129l6 294zM317 700l20 -136h-96l-22 136h98z" />
    <glyph glyph-name="Wacute" unicode="&#x1e82;" horiz-adv-x="557" 
d="M294 744h123l-24 -476l113 476h128l-203 -744h-151l24 417l-100 -417h-149l18 744h132l-27 -467zM307 770l56 115h108l-59 -115h-105z" />
    <glyph glyph-name="wacute" unicode="&#x1e83;" horiz-adv-x="485" 
d="M178 0h-135l-2 538h122l-14 -332l83 332h111l-13 -336l83 336h117l-157 -538h-129l6 294zM240 564l60 136h105l-63 -136h-102z" />
    <glyph glyph-name="Wdieresis" unicode="&#x1e84;" horiz-adv-x="557" 
d="M294 744h123l-24 -476l113 476h128l-203 -744h-151l24 417l-100 -417h-149l18 744h132l-27 -467zM466 770h-97l17 106h97zM344 770h-97l17 106h97z" />
    <glyph glyph-name="wdieresis" unicode="&#x1e85;" horiz-adv-x="485" 
d="M178 0h-135l-2 538h122l-14 -332l83 332h111l-13 -336l83 336h117l-157 -538h-129l6 294zM397 564h-97l17 106h97zM293 670l-17 -106h-97l17 106h97z" />
    <glyph glyph-name="Ygrave" unicode="&#x1ef2;" horiz-adv-x="322" 
d="M403 744l-168 -444l-47 -300h-130l47 296l-36 448h126l4 -264l86 264h118zM271 885l19 -115h-99l-24 115h104z" />
    <glyph glyph-name="ygrave" unicode="&#x1ef3;" horiz-adv-x="308" 
d="M56 9l-15 529h119l-7 -296l76 296h125l-206 -646q-13 -42 -31.5 -61t-47.5 -19h-119l19 118h49q13 0 19 6t9 19l6 23q4 15 4 31zM228 700l20 -136h-96l-22 136h98z" />
    <glyph glyph-name="uni2009" unicode="&#x2009;" horiz-adv-x="12" 
 />
    <glyph glyph-name="endash" unicode="&#x2013;" horiz-adv-x="328" 
d="M27 345h299l-14 -90h-299z" />
    <glyph glyph-name="emdash" unicode="&#x2014;" horiz-adv-x="494" 
d="M27 345h465l-14 -90h-465z" />
    <glyph glyph-name="quoteleft" unicode="&#x2018;" horiz-adv-x="141" 
d="M57 524l17 107q9 58 41 113h62q-25 -52 -34 -92h43l-21 -128h-108z" />
    <glyph glyph-name="quoteright" unicode="&#x2019;" horiz-adv-x="141" 
d="M200 744l-17 -107q-9 -58 -41 -113h-62q25 52 34 92h-43l21 128h108z" />
    <glyph glyph-name="quotesinglbase" unicode="&#x201a;" horiz-adv-x="142" 
d="M104 128l-17 -107q-9 -58 -41 -113h-62q25 52 34 92h-43l21 128h108z" />
    <glyph glyph-name="quotedblleft" unicode="&#x201c;" horiz-adv-x="266" 
d="M182 524l17 107q9 58 41 113h62q-25 -52 -34 -92h43l-21 -128h-108zM57 524l17 107q9 58 41 113h62q-25 -52 -34 -92h43l-21 -128h-108z" />
    <glyph glyph-name="quotedblright" unicode="&#x201d;" horiz-adv-x="266" 
d="M325 744l-17 -107q-9 -58 -41 -113h-62q25 52 34 92h-43l21 128h108zM200 744l-17 -107q-9 -58 -41 -113h-62q25 52 34 92h-43l21 128h108z" />
    <glyph glyph-name="quotedblbase" unicode="&#x201e;" horiz-adv-x="266" 
d="M229 128l-17 -107q-9 -58 -41 -113h-62q25 52 34 92h-43l21 128h108zM104 128l-17 -107q-9 -58 -41 -113h-62q25 52 34 92h-43l21 128h108z" />
    <glyph glyph-name="dagger" unicode="&#x2020;" horiz-adv-x="263" 
d="M27 0l75 475h-62l20 126h62l23 143h124l-23 -143h63l-20 -126h-63l-75 -475h-124z" />
    <glyph glyph-name="daggerdbl" unicode="&#x2021;" horiz-adv-x="263" 
d="M49 144h-62l20 125h62l33 206h-62l20 125h62l23 144h124l-23 -144h63l-21 -125h-62l-32 -206h62l-20 -125h-62l-23 -144h-124z" />
    <glyph glyph-name="bullet" unicode="&#x2022;" horiz-adv-x="237" 
d="M23 329q0 47 29 78t76 31q45 0 75 -31.5t30 -77.5t-30 -77t-75 -31q-47 0 -76 31t-29 77z" />
    <glyph glyph-name="ellipsis" unicode="&#x2026;" horiz-adv-x="419" 
d="M270 144h116l-23 -144h-116zM110 0l23 144h116l-23 -144h-116zM89 0h-116l23 144h116z" />
    <glyph glyph-name="perthousand" unicode="&#x2030;" horiz-adv-x="714" 
d="M696 231l-20 -127q-18 -109 -106 -109h-19q-46 0 -70.5 29t-16.5 81l20 127q16 106 105 106h19q46 0 71 -28.5t17 -78.5zM584 94l23 144q3 20 -15 20q-14 0 -17 -20l-23 -143q-3 -20 14 -20q13 0 18 19zM157 407h-19q-46 0 -70.5 29t-16.5 81l20 127q16 106 105 106h19
q46 0 71 -28.5t17 -78.5l-20 -127q-18 -109 -106 -109zM353 94l23 144q3 20 -15 20q-14 0 -17 -20l-23 -143q-3 -20 14 -20q13 0 18 19zM413 744h77l-388 -744h-78zM171 506l23 144q3 20 -15 20q-14 0 -17 -20l-23 -143q-3 -20 14 -20q13 0 18 19zM465 231l-20 -127
q-18 -109 -106 -109h-19q-46 0 -70.5 29t-16.5 81l20 127q16 106 105 106h19q46 0 71 -28.5t17 -78.5z" />
    <glyph glyph-name="uni2032" unicode="&#x2032;" horiz-adv-x="122" 
d="M190 744l-46 -191h-91l47 191h90z" />
    <glyph glyph-name="uni2033" unicode="&#x2033;" horiz-adv-x="229" 
d="M188 744l-46 -191h-89l47 191h88zM297 744l-48 -191h-89l48 191h89z" />
    <glyph glyph-name="guilsinglleft" unicode="&#x2039;" horiz-adv-x="157" 
d="M108 283l18 -164h-96l-22 138l10 59l62 135h100z" />
    <glyph glyph-name="guilsinglright" unicode="&#x203a;" horiz-adv-x="157" 
d="M56 286l-19 165h97l21 -138l-9 -59l-63 -135h-99z" />
    <glyph glyph-name="fraction" unicode="&#x2044;" horiz-adv-x="302" 
d="M318 744h75l-376 -744h-75z" />
    <glyph glyph-name="zero.sup" unicode="&#x2070;" horiz-adv-x="228" 
d="M176 750h11q50 0 73 -26t15 -72l-25 -163q-7 -43 -32.5 -67.5t-67.5 -24.5h-13q-48 0 -71 25t-16 73l25 157q7 48 30 73t71 25zM178 675q-8 0 -11 -4.5t-5 -16.5l-26 -161q-3 -19 12 -19q14 0 17 19l26 161q3 21 -13 21z" />
    <glyph glyph-name="four.sup" unicode="&#x2074;" horiz-adv-x="208" 
d="M40 462l9 58l117 225h83l-34 -211h27l-12 -72h-25l-10 -59h-77l9 59h-87zM108 534h30l14 89q-6 -9 -22 -44.5t-22 -44.5z" />
    <glyph glyph-name="five.sup" unicode="&#x2075;" horiz-adv-x="213" 
d="M135 545h-76l32 199h175l-12 -71h-100l-9 -61q23 37 60 37h2q24 0 35.5 -17.5t7.5 -47.5l-14 -93q-14 -94 -96 -94h-14q-48 0 -67.5 23t-13.5 59l6 40h82l-7 -41q-2 -15 10 -15q11 0 13 15l13 83q3 18 -10 18q-9 0 -14 -18z" />
    <glyph glyph-name="six.sup" unicode="&#x2076;" horiz-adv-x="223" 
d="M210 623h2q25 0 37.5 -17.5t8.5 -43.5l-12 -75q-6 -41 -30.5 -65.5t-67.5 -24.5h-11q-50 0 -71.5 26t-15.5 70l27 169q7 41 28 64.5t71 23.5h10q95 0 81 -85l-5 -26h-81l4 26q3 16 -10 16q-11 0 -13 -16l-12 -74q27 32 60 32zM145 466q14 0 17 20l8 54q3 21 -13 21
q-10 0 -15 -21l-8 -54q-3 -20 11 -20z" />
    <glyph glyph-name="seven.sup" unicode="&#x2077;" horiz-adv-x="196" 
d="M86 744h175l-5 -36q-2 -11 -8.5 -31t-18.5 -53.5t-21 -62.5q-25 -79 -36 -158h-95q9 50 17.5 77.5t31.5 72.5q53 104 57 129h-35l-10 -59h-72z" />
    <glyph glyph-name="eight.sup" unicode="&#x2078;" horiz-adv-x="213" 
d="M262 672l-4 -28q-6 -47 -38 -60q13 -7 20.5 -23.5t2.5 -39.5l-6 -40q-14 -84 -98 -84h-8q-49 0 -70 22.5t-15 62.5l6 41q8 46 42 61q-25 23 -20 59l4 28q7 41 28.5 60t65.5 19h9q45 0 66 -19.5t15 -58.5zM176 630l6 39q3 16 -10 16q-10 0 -13 -16l-7 -39q-3 -17 11 -17
q10 0 13 17zM154 483l8 47q3 20 -11 20q-8 0 -10.5 -4t-4.5 -16l-8 -47q-3 -17 11 -17q3 0 5.5 1t3.5 1.5t2.5 4t2 4.5t1.5 6z" />
    <glyph glyph-name="nine.sup" unicode="&#x2079;" horiz-adv-x="223" 
d="M63 593l11 67q14 90 98 90h11q50 0 72 -26t15 -70l-27 -169q-10 -88 -96 -88h-11q-95 0 -83 85l5 26h81l-4 -26q-3 -16 11 -16q7 0 13 16l11 74q-24 -32 -58 -32h-2q-27 0 -39.5 19.5t-7.5 49.5zM176 681q-14 0 -17 -20l-9 -54q-3 -21 13 -21q12 0 15 21l8 54
q5 20 -10 20z" />
    <glyph glyph-name="zero.sub" unicode="&#x2080;" horiz-adv-x="228" 
d="M97 248h11q50 0 73 -26t15 -72l-25 -163q-7 -43 -32.5 -67.5t-67.5 -24.5h-13q-48 0 -71 25t-16 73l25 157q7 48 30 73t71 25zM99 173q-8 0 -11 -4.5t-5 -16.5l-26 -161q-3 -19 12 -19q14 0 17 19l26 161q3 21 -13 21z" />
    <glyph glyph-name="one.sub" unicode="&#x2081;" horiz-adv-x="151" 
d="M31 133h-43l11 67q28 0 40 10t18 30h72l-54 -340h-81z" />
    <glyph glyph-name="two.sub" unicode="&#x2082;" horiz-adv-x="214" 
d="M150 -100h-200l7 43q6 33 24 57.5t75 78.5q23 21 30 33.5t11 34.5l2 13q3 22 -11 22q-8 0 -10 -4t-5 -18l-8 -50h-77l11 63q11 75 91 75h14q46 0 66 -21.5t15 -58.5l-4 -19q-6 -38 -22 -62t-57 -55q-29 -21 -44 -34t-18.5 -18t-5.5 -12h55l9 50h72z" />
    <glyph glyph-name="three.sub" unicode="&#x2083;" horiz-adv-x="210" 
d="M67 128h-75l5 36q6 42 26 63t65 21h12q91 0 78 -82l-3 -21q-6 -45 -39 -55q33 -15 27 -58l-8 -51q-15 -86 -96 -86h-13q-49 0 -68 22t-12 57l8 51h79l-8 -46q-2 -17 11 -17q11 0 13 17l7 49q4 15 -8 15h-39l12 69h36q5 0 8 1.5t3.5 4t2.5 10.5l7 38q3 18 -11 18
q-10 0 -13 -14q-1 -3 -1 -4z" />
    <glyph glyph-name="four.sub" unicode="&#x2084;" horiz-adv-x="208" 
d="M-39 -41l9 58l117 225h83l-34 -211h27l-12 -72h-25l-10 -59h-77l9 59h-87zM29 31h30l14 89q-6 -9 -22.5 -44.5t-21.5 -44.5z" />
    <glyph glyph-name="five.sub" unicode="&#x2085;" horiz-adv-x="212" 
d="M56 43h-76l32 199h175l-12 -71h-100l-9 -61q23 37 60 37h2q24 0 35.5 -17.5t7.5 -47.5l-14 -93q-14 -94 -96 -94h-14q-48 0 -67.5 23t-13.5 59l6 40h82l-7 -41q-2 -15 10 -15q11 0 13 15l13 83q3 18 -10 18q-9 0 -14 -18z" />
    <glyph glyph-name="six.sub" unicode="&#x2086;" horiz-adv-x="223" 
d="M131 121h2q25 0 37.5 -17.5t8.5 -43.5l-12 -75q-6 -41 -30.5 -65.5t-67.5 -24.5h-11q-50 0 -71.5 26t-15.5 70l27 169q7 41 28 64.5t71 23.5h10q95 0 81 -85l-5 -26h-81l4 26q3 16 -10 16q-11 0 -13 -16l-12 -74q27 32 60 32zM66 -36q14 0 17 20l8 54q3 21 -13 21
q-10 0 -15 -21l-8 -54q-3 -20 11 -20z" />
    <glyph glyph-name="seven.sub" unicode="&#x2087;" horiz-adv-x="196" 
d="M7 241h175l-5 -36q-2 -11 -8.5 -31t-18.5 -53.5t-21 -62.5q-25 -79 -36 -158h-95q9 50 17.5 77.5t31.5 72.5q53 104 57 129h-35l-10 -59h-72z" />
    <glyph glyph-name="eight.sub" unicode="&#x2088;" horiz-adv-x="213" 
d="M183 170l-4 -28q-6 -47 -38 -60q13 -7 20.5 -23.5t2.5 -39.5l-6 -40q-14 -84 -98 -84h-8q-49 0 -70 22.5t-15 62.5l6 41q8 46 42 61q-25 23 -20 59l4 28q7 41 28.5 60t65.5 19h9q45 0 66 -19.5t15 -58.5zM97 128l6 39q3 16 -10 16q-10 0 -13 -16l-7 -39q-3 -17 11 -17
q10 0 13 17zM75 -19l8 47q3 20 -11 20q-8 0 -10 -4t-5 -16l-8 -47q-3 -17 11 -17q3 0 5.5 1t3.5 1.5t2.5 4t2 4.5t1.5 6z" />
    <glyph glyph-name="nine.sub" unicode="&#x2089;" horiz-adv-x="223" 
d="M-16 91l11 67q14 90 98 90h11q50 0 72 -26t15 -70l-27 -169q-10 -88 -96 -88h-11q-95 0 -83 85l5 26h81l-4 -26q-3 -16 11 -16q7 0 13 16l11 74q-24 -32 -58 -32h-2q-27 0 -39.5 19.5t-7.5 49.5zM97 179q-14 0 -17 -20l-9 -54q-3 -21 13 -21q12 0 15 21l8 54q5 20 -10 20
z" />
    <glyph glyph-name="Euro" unicode="&#x20ac;" horiz-adv-x="405" 
d="M10 291l14 84h53l4 26h-53l14 84h52l16 100q14 80 50 124.5t115 44.5h27q165 0 138 -164l-13 -82h-129l13 79q6 41 -29 41q-18 0 -25.5 -10t-11.5 -33l-16 -100h129l-14 -84h-128l-4 -26h128l-14 -84h-128l-19 -124q-7 -47 29 -47q29 0 36 45l16 101h129l-17 -105
q-25 -172 -163 -172h-26q-87 0 -119.5 50t-19.5 128l19 124h-53z" />
    <glyph glyph-name="uni20B4" unicode="&#x20b4;" horiz-adv-x="370" 
d="M393 481l-13 -84h-351l13 84h159l5 5q49 46 56 96l3 17q6 40 -23 40q-17 0 -24.5 -9.5t-10.5 -29.5l-15 -93h-124l16 100q12 76 49 111t113 35h27q70 0 102.5 -38t21.5 -110l-3 -20q-10 -58 -48 -104h47zM349 261l-18 -116q-25 -154 -172 -154h-26q-80 0 -112 49t-17 135
l2 16q9 54 42 96h-36l13 84h351l-13 -84h-172q-25 -25 -33 -44.5t-15 -59.5l-2 -14q-9 -54 24 -54q35 0 41 45l16 101h127z" />
    <glyph glyph-name="uni20B8" unicode="&#x20b8;" horiz-adv-x="337" 
d="M404 744l-13 -84h-319l13 84h319zM62 0l80 503h-95l20 131h319l-20 -131h-95l-80 -503h-129z" />
    <glyph glyph-name="uni20BD" unicode="&#x20bd;" horiz-adv-x="383" 
d="M302 188h-133l-30 -188h-128l30 188h-55l13 84h55l4 26h-55l14 84h55l57 362h185q78 0 99 -35t10 -112l-24 -148q-25 -151 -150 -151h-63l-4 -26h133zM239 629l-35 -220h25q21 0 29 10.5t12 31.5l21 135q4 22 -1 32.5t-26 10.5h-25z" />
    <glyph glyph-name="uni2116" unicode="&#x2116;" horiz-adv-x="622" 
d="M515 391h-19q-50 0 -76.5 28t-18.5 79l23 144q8 50 42.5 78.5t86.5 28.5h19q51 0 76 -28t17 -79l-23 -144q-8 -49 -41.5 -78t-85.5 -29zM517 477q19 0 24 23l23 141q5 23 -18 23q-16 0 -21 -23l-23 -141q-5 -23 15 -23zM370 272l15 93h230l-15 -93h-230zM96 744h121
l28 -385l61 385h115l-118 -744h-110l-34 414l-66 -414h-115z" />
    <glyph glyph-name="trademark" unicode="&#x2122;" horiz-adv-x="344" 
d="M181 463l45 281h74l-5 -122l31 122h80l-45 -281h-56l26 159l-47 -159h-27l4 159l-26 -159h-54zM214 744l-10 -64h-30l-35 -217h-71l35 217h-30l10 64h131z" />
    <glyph glyph-name="onethird" unicode="&#x2153;" horiz-adv-x="408" 
d="M110 637h-43l11 67q28 0 40 10t18 30h72l-54 -340h-81zM347 744h75l-376 -744h-75zM281 228h-75l5 36q6 42 26 63t65 21h12q91 0 78 -82l-3 -21q-6 -45 -39 -55q33 -15 27 -58l-8 -51q-15 -86 -96 -86h-13q-49 0 -68 22t-12 57l8 51h79l-8 -46q-2 -17 11 -17q11 0 13 17
l7 49q4 15 -8 15h-39l12 69h36q5 0 8 1.5t3.5 4t2.5 10.5l7 38q3 18 -11 18q-10 0 -13 -14q-1 -3 -1 -4z" />
    <glyph glyph-name="twothirds" unicode="&#x2154;" horiz-adv-x="481" 
d="M421 744h75l-376 -744h-75zM229 402h-200l7 43q6 33 24 57.5t75 78.5q23 21 30 33.5t11 34.5l2 13q3 22 -11 22q-8 0 -10 -4t-5 -18l-8 -50h-77l11 63q11 75 91 75h14q47 0 66.5 -21.5t14.5 -58.5l-4 -19q-6 -38 -22 -62t-57 -55q-29 -21 -44 -34t-18.5 -18t-5.5 -12h55
l9 50h72zM354 228h-75l5 36q6 42 26 63t65 21h12q91 0 78 -82l-3 -21q-6 -45 -39 -55q33 -15 27 -58l-8 -51q-15 -86 -96 -86h-13q-49 0 -68 22t-12 57l8 51h79l-8 -46q-2 -17 11 -17q11 0 13 17l7 49q4 15 -8 15h-39l12 69h36q5 0 8 1.5t3.5 4t2.5 10.5l7 38q3 18 -11 18
q-10 0 -13 -14q-1 -3 -1 -4z" />
    <glyph glyph-name="oneeighth" unicode="&#x215b;" horiz-adv-x="412" 
d="M110 637h-43l11 67q28 0 40 10t18 30h72l-54 -340h-81zM348 744h75l-376 -744h-75zM398 270l-4 -28q-6 -47 -38 -60q13 -7 20.5 -23.5t2.5 -39.5l-6 -40q-14 -84 -98 -84h-8q-49 0 -70 22.5t-15 62.5l6 41q8 46 42 61q-25 23 -20 59l4 28q7 41 28.5 60t65.5 19h9
q45 0 66 -19.5t15 -58.5zM312 228l6 39q3 16 -10 16q-10 0 -13 -16l-7 -39q-3 -17 11 -17q10 0 13 17zM290 81l8 47q3 20 -11 20q-8 0 -10.5 -3.5t-4.5 -16.5l-8 -47q-3 -17 11 -17q3 0 5.5 1t3.5 1.5t2.5 4t2 4.5t1.5 6z" />
    <glyph glyph-name="threeeighths" unicode="&#x215c;" horiz-adv-x="463" 
d="M146 630h-75l5 36q6 42 26 63t65 21h12q91 0 78 -82l-3 -21q-6 -45 -39 -55q33 -15 27 -58l-8 -51q-15 -86 -96 -86h-13q-49 0 -68 22t-12 57l8 51h79l-8 -46q-2 -17 11 -17q11 0 13 17l7 49q4 15 -8 15h-39l12 69h36q5 0 8 1.5t3.5 4t2.5 10.5l7 38q3 18 -11 18
q-10 0 -13 -14q-1 -3 -1 -4zM399 744h75l-376 -744h-75zM449 270l-4 -28q-6 -47 -38 -60q13 -7 20.5 -23.5t2.5 -39.5l-6 -40q-14 -84 -98 -84h-8q-49 0 -70 22.5t-15 62.5l6 41q8 46 42 61q-25 23 -20 59l4 28q7 41 28.5 60t65.5 19h9q45 0 66 -19.5t15 -58.5zM363 228
l6 39q3 16 -10 16q-10 0 -13 -16l-7 -39q-3 -17 11 -17q10 0 13 17zM341 81l8 47q3 20 -11 20q-8 0 -10 -4t-5 -16l-8 -47q-3 -17 11 -17q3 0 5.5 1t3.5 1.5t2.5 4t2 4.5t1.5 6z" />
    <glyph glyph-name="fiveeighths" unicode="&#x215d;" horiz-adv-x="462" 
d="M398 744h75l-376 -744h-75zM135 545h-76l32 199h175l-12 -71h-100l-9 -61q23 37 60 37h2q24 0 35.5 -17.5t7.5 -47.5l-14 -93q-14 -94 -96 -94h-14q-48 0 -67.5 23t-13.5 59l6 40h82l-7 -41q-2 -15 10 -15q11 0 13 15l13 83q3 18 -10 18q-9 0 -14 -18zM448 270l-4 -28
q-6 -47 -38 -60q13 -7 20.5 -23.5t2.5 -39.5l-6 -40q-14 -84 -98 -84h-8q-49 0 -70 22.5t-15 62.5l6 41q8 46 42 61q-25 23 -20 59l4 28q7 41 28.5 60t65.5 19h9q45 0 66 -19.5t15 -58.5zM362 228l6 39q3 16 -10 16q-10 0 -13 -16l-7 -39q-3 -17 11 -17q10 0 13 17zM340 81
l8 47q3 20 -11 20q-8 0 -10.5 -4t-4.5 -16l-8 -47q-3 -17 11 -17q3 0 5.5 1t3.5 1.5t2.5 4t2 4.5t1.5 6z" />
    <glyph glyph-name="seveneighths" unicode="&#x215e;" horiz-adv-x="430" 
d="M366 744h75l-376 -744h-75zM86 744h175l-5 -36q-2 -11 -8.5 -31t-18.5 -53.5t-21 -62.5q-25 -79 -36 -158h-95q9 50 17.5 77.5t31.5 72.5q53 104 57 129h-35l-10 -59h-72zM416 270l-4 -28q-6 -47 -38 -60q13 -7 20.5 -23.5t2.5 -39.5l-6 -40q-14 -84 -98 -84h-8
q-49 0 -70 22.5t-15 62.5l6 41q8 46 42 61q-25 23 -20 59l4 28q7 41 28.5 60t65.5 19h9q45 0 66 -19.5t15 -58.5zM330 228l6 39q3 16 -10 16q-10 0 -13 -16l-7 -39q-3 -17 11 -17q10 0 13 17zM308 81l8 47q3 20 -11 20q-8 0 -10.5 -4t-4.5 -16l-8 -47q-3 -17 11 -17
q3 0 5.5 1t3.5 1.5t2.5 4t2 4.5t1.5 6z" />
    <glyph glyph-name="minus" unicode="&#x2212;" horiz-adv-x="312" 
d="M27 346h283l-14 -91h-283z" />
    <glyph glyph-name="uni24C5" unicode="&#x24c5;" horiz-adv-x="557" 
d="M301 -11h-10q-237 0 -237 255v258q0 124 62.5 188.5t175.5 64.5h12q231 0 231 -253v-258q0 -129 -63.5 -192t-170.5 -63zM293 56h8q158 0 158 203v230q0 199 -156 199h-10q-86 0 -123.5 -50t-37.5 -149v-230q0 -203 161 -203zM331 312h-44v-192h-103v506h147
q49 0 71.5 -22t22.5 -78v-112q0 -53 -23 -77.5t-71 -24.5zM287 542v-146h15q21 0 21 30v88q0 16 -4.5 22t-16.5 6h-15z" />
    <glyph glyph-name="zero.den" unicode="&#xe402;" horiz-adv-x="228" 
d="M113 348h11q50 0 73 -26t15 -72l-25 -163q-7 -43 -32.5 -67.5t-67.5 -24.5h-13q-48 0 -71 25t-16 73l25 157q7 48 30 73t71 25zM115 273q-8 0 -11 -4.5t-5 -16.5l-26 -161q-3 -19 12 -19q14 0 17 19l26 161q3 21 -13 21z" />
    <glyph glyph-name="one.den" unicode="&#xe403;" horiz-adv-x="151" 
d="M47 233h-43l11 67q28 0 40 10t18 30h72l-54 -340h-81z" />
    <glyph glyph-name="two.den" unicode="&#xe404;" horiz-adv-x="214" 
d="M166 0h-200l7 43q6 33 24 57.5t75 78.5q23 21 30 33.5t11 34.5l2 13q3 22 -11 22q-8 0 -10 -4t-5 -18l-8 -50h-77l11 63q11 75 91 75h14q46 0 66 -21.5t15 -58.5l-4 -19q-6 -38 -22 -62t-57 -55q-29 -21 -44 -34t-18.5 -18t-5.5 -12h55l9 50h72z" />
    <glyph glyph-name="three.den" unicode="&#xe405;" horiz-adv-x="210" 
d="M83 228h-75l5 36q6 42 26 63t65 21h12q91 0 78 -82l-3 -21q-6 -45 -39 -55q33 -15 27 -58l-8 -51q-15 -86 -96 -86h-13q-49 0 -68 22t-12 57l8 51h79l-8 -46q-2 -17 11 -17q11 0 13 17l7 49q4 15 -8 15h-39l12 69h36q5 0 8 1.5t3.5 4t2.5 10.5l7 38q3 18 -11 18
q-10 0 -13 -14q-1 -3 -1 -4z" />
    <glyph glyph-name="four.den" unicode="&#xe406;" horiz-adv-x="208" 
d="M-23 59l9 58l117 225h83l-34 -211h27l-12 -72h-25l-10 -59h-77l9 59h-87zM45 131h30l14 89q-5 -9 -21.5 -44.5t-22.5 -44.5z" />
    <glyph glyph-name="five.den" unicode="&#xe407;" horiz-adv-x="212" 
d="M72 143h-76l32 199h175l-12 -71h-100l-9 -61q23 37 60 37h2q24 0 35.5 -17.5t7.5 -47.5l-14 -93q-14 -94 -96 -94h-14q-48 0 -67.5 23t-13.5 59l6 40h82l-7 -41q-2 -15 10 -15q11 0 13 15l13 83q3 18 -10 18q-9 0 -14 -18z" />
    <glyph glyph-name="six.den" unicode="&#xe408;" horiz-adv-x="223" 
d="M147 221h2q25 0 37.5 -17.5t8.5 -43.5l-12 -75q-6 -41 -30.5 -65.5t-67.5 -24.5h-11q-50 0 -71.5 26t-15.5 70l27 169q7 41 28 64.5t71 23.5h10q95 0 81 -85l-5 -26h-81l4 26q3 16 -10 16q-11 0 -13 -16l-12 -74q27 32 60 32zM82 64q14 0 17 20l8 54q3 21 -13 21
q-10 0 -15 -21l-8 -54q-3 -20 11 -20z" />
    <glyph glyph-name="seven.den" unicode="&#xe409;" horiz-adv-x="196" 
d="M23 341h175l-5 -36q-2 -11 -8.5 -31t-18.5 -53.5t-21 -62.5q-25 -79 -36 -158h-95q9 50 17.5 77.5t31.5 72.5q53 104 57 129h-35l-10 -59h-72z" />
    <glyph glyph-name="eight.den" unicode="&#xe40a;" horiz-adv-x="213" 
d="M199 270l-4 -28q-6 -47 -38 -60q13 -7 20.5 -23.5t2.5 -39.5l-6 -40q-14 -84 -98 -84h-8q-49 0 -70 22.5t-15 62.5l6 41q8 46 42 61q-25 23 -20 59l4 28q7 41 28.5 60t65.5 19h9q45 0 66 -19.5t15 -58.5zM113 228l6 39q3 16 -10 16q-10 0 -13 -16l-7 -39q-3 -17 11 -17
q10 0 13 17zM91 81l8 47q3 20 -11 20q-8 0 -10 -4t-5 -16l-8 -47q-3 -17 11 -17q3 0 5.5 1t3.5 1.5t2.5 4t2 4.5t1.5 6z" />
    <glyph glyph-name="nine.den" unicode="&#xe40b;" horiz-adv-x="223" 
d="M0 191l11 67q14 90 98 90h11q50 0 72 -26t15 -70l-27 -169q-10 -88 -96 -88h-11q-95 0 -83 85l5 26h81l-4 -26q-3 -16 11 -16q7 0 13 16l11 74q-24 -32 -58 -32h-2q-27 0 -39.5 19.5t-7.5 49.5zM113 279q-14 0 -17 -20l-9 -54q-3 -21 13 -21q12 0 15 21l8 54q5 20 -10 20
z" />
    <glyph glyph-name="zero.num" unicode="&#xe416;" horiz-adv-x="228" 
d="M176 750h11q50 0 73 -26t15 -72l-25 -163q-7 -43 -32.5 -67.5t-67.5 -24.5h-13q-48 0 -71 25t-16 73l25 157q7 48 30 73t71 25zM178 675q-8 0 -11 -4.5t-5 -16.5l-26 -161q-3 -19 12 -19q14 0 17 19l26 161q3 21 -13 21z" />
    <glyph glyph-name="one.num" unicode="&#xe417;" horiz-adv-x="151" 
d="M110 637h-43l11 67q28 0 40 10t18 30h72l-54 -340h-81z" />
    <glyph glyph-name="two.num" unicode="&#xe418;" horiz-adv-x="214" 
d="M229 402h-200l7 43q6 33 24 57.5t75 78.5q23 21 30 33.5t11 34.5l2 13q3 22 -11 22q-8 0 -10 -4t-5 -18l-8 -50h-77l11 63q11 75 91 75h14q47 0 66.5 -21.5t14.5 -58.5l-4 -19q-6 -38 -22 -62t-57 -55q-29 -21 -44 -34t-18.5 -18t-5.5 -12h55l9 50h72z" />
    <glyph glyph-name="three.num" unicode="&#xe419;" horiz-adv-x="210" 
d="M146 630h-75l5 36q6 42 26 63t65 21h12q91 0 78 -82l-3 -21q-6 -45 -39 -55q33 -15 27 -58l-8 -51q-15 -86 -96 -86h-13q-49 0 -68 22t-12 57l8 51h79l-8 -46q-2 -17 11 -17q11 0 13 17l7 49q4 15 -8 15h-39l12 69h36q5 0 8 1.5t3.5 4t2.5 10.5l7 38q3 18 -11 18
q-10 0 -13 -14q-1 -3 -1 -4z" />
    <glyph glyph-name="four.num" unicode="&#xe41a;" horiz-adv-x="208" 
d="M40 462l9 58l117 225h83l-34 -211h27l-12 -72h-25l-10 -59h-77l9 59h-87zM108 534h30l14 89q-6 -9 -22 -44.5t-22 -44.5z" />
    <glyph glyph-name="five.num" unicode="&#xe41b;" horiz-adv-x="212" 
d="M135 545h-76l32 199h175l-12 -71h-100l-9 -61q23 37 60 37h2q24 0 35.5 -17.5t7.5 -47.5l-14 -93q-14 -94 -96 -94h-14q-48 0 -67.5 23t-13.5 59l6 40h82l-7 -41q-2 -15 10 -15q11 0 13 15l13 83q3 18 -10 18q-9 0 -14 -18z" />
    <glyph glyph-name="six.num" unicode="&#xe41c;" horiz-adv-x="223" 
d="M210 623h2q25 0 37.5 -17.5t8.5 -43.5l-12 -75q-6 -41 -30.5 -65.5t-67.5 -24.5h-11q-50 0 -71.5 26t-15.5 70l27 169q7 41 28 64.5t71 23.5h10q95 0 81 -85l-5 -26h-81l4 26q3 16 -10 16q-11 0 -13 -16l-12 -74q27 32 60 32zM145 466q14 0 17 20l8 54q3 21 -13 21
q-10 0 -15 -21l-8 -54q-3 -20 11 -20z" />
    <glyph glyph-name="seven.num" unicode="&#xe41d;" horiz-adv-x="196" 
d="M86 744h175l-5 -36q-2 -11 -8.5 -31t-18.5 -53.5t-21 -62.5q-25 -79 -36 -158h-95q9 50 17.5 77.5t31.5 72.5q53 104 57 129h-35l-10 -59h-72z" />
    <glyph glyph-name="eight.num" unicode="&#xe41e;" horiz-adv-x="213" 
d="M262 672l-4 -28q-6 -47 -38 -60q13 -7 20.5 -23.5t2.5 -39.5l-6 -40q-14 -84 -98 -84h-8q-49 0 -70 22.5t-15 62.5l6 41q8 46 42 61q-25 23 -20 59l4 28q7 41 28.5 60t65.5 19h9q45 0 66 -19.5t15 -58.5zM176 630l6 39q3 16 -10 16q-10 0 -13 -16l-7 -39q-3 -17 11 -17
q10 0 13 17zM154 483l8 47q3 20 -11 20q-8 0 -10.5 -4t-4.5 -16l-8 -47q-3 -17 11 -17q3 0 5.5 1t3.5 1.5t2.5 4t2 4.5t1.5 6z" />
    <glyph glyph-name="nine.num" unicode="&#xe41f;" horiz-adv-x="223" 
d="M63 593l11 67q14 90 98 90h11q50 0 72 -26t15 -70l-27 -169q-10 -88 -96 -88h-11q-95 0 -83 85l5 26h81l-4 -26q-3 -16 11 -16q7 0 13 16l11 74q-24 -32 -58 -32h-2q-27 0 -39.5 19.5t-7.5 49.5zM176 681q-14 0 -17 -20l-9 -54q-3 -21 13 -21q12 0 15 21l8 54
q5 20 -10 20z" />
    <glyph glyph-name="f_f_i" unicode="&#xfb03;" horiz-adv-x="614" 
d="M417 744h111l-18 -113h-40q-9 0 -14.5 -4t-6.5 -7t-3 -13l-11 -69h60l-19 -119h-59l-67 -419h-124l67 419h-82l-67 -419h-124l67 419h-59l19 119h58l21 133q12 73 85 73h116l-18 -113h-45q-9 0 -14.5 -4t-6.5 -7t-3 -13l-11 -69h82l21 133q12 73 85 73zM643 538l-85 -538
h-124l85 538h124zM667 690l-20 -126h-124l20 126h124z" />
    <glyph glyph-name="f_f_l" unicode="&#xfb04;" horiz-adv-x="614" 
d="M417 744h111l-18 -113h-40q-9 0 -14.5 -4t-6.5 -7t-3 -13l-11 -69h60l-19 -119h-59l-67 -419h-124l67 419h-82l-67 -419h-124l67 419h-59l19 119h58l21 133q12 73 85 73h116l-18 -113h-45q-9 0 -14.5 -4t-6.5 -7t-3 -13l-11 -69h82l21 133q12 73 85 73zM676 744
l-118 -744h-124l118 744h124z" />
    <glyph glyph-name="idotaccent" horiz-adv-x="159" 
d="M184 538l-85 -538h-124l85 538h124zM208 690l-20 -126h-124l20 126h124z" />
    <glyph glyph-name="space_uni0326" 
d="M129 -203h-53q14 30 22 67h-43l17 110h102l-11 -70q-9 -61 -34 -107z" />
    <glyph glyph-name="E.alt" horiz-adv-x="303" 
d="M96 744h265l-20 -131h-136l-26 -162h130l-22 -134h-130l-29 -183h141l-22 -134h-269z" />
    <glyph glyph-name="F.alt" horiz-adv-x="298" 
d="M96 744h264l-21 -130h-134l-26 -162h129l-22 -134h-129l-50 -318h-129z" />
    <glyph glyph-name="J.alt" horiz-adv-x="235" 
d="M-34 0l22 133h55q14 0 19 25l93 586h135l-104 -657q-14 -87 -83 -87h-137z" />
    <glyph glyph-name="IJ.alt" horiz-adv-x="401" 
d="M225 744l-118 -744h-129l118 744h129zM132 0l22 133h55q14 0 19 25l93 586h135l-104 -657q-14 -87 -83 -87h-137z" />
    <glyph glyph-name="a.alt" horiz-adv-x="314" 
d="M145 60q-41 -65 -96 -65h-2q-35 0 -51.5 28.5t-9.5 74.5l17 108q12 80 67 109q16 9 63 29.5t49 21.5q10 5 14 23l4 25q6 32 -19 32h-3q-20 0 -25 -31l-8 -51h-111l12 74q8 47 35 76.5t95 29.5h22q143 0 124 -118l-49 -308q-13 -86 -7 -113l-1 -5h-117q-9 18 -3 60z
M128 102q22 0 27 31l21 131q-31 -18 -36 -23q-14 -14 -18 -42l-10 -62q-6 -35 16 -35z" />
    <glyph glyph-name="a.alt2" horiz-adv-x="331" 
d="M234 538h123l-86 -538h-123l10 60q-11 -24 -37.5 -47.5t-56.5 -23.5h-2q-40 0 -59 33.5t-13 81.5l53 333q7 46 30 76.5t62 30.5h4q23 0 42 -13t26 -24t17 -29zM170 143l40 251q7 40 -21 40q-13 0 -19 -9t-8 -28l-41 -258q-6 -38 19 -38q24 0 30 42z" />
    <glyph glyph-name="r.alt" horiz-adv-x="265" 
d="M183 538l-12 -80q38 84 92 84h7q12 0 28 -4l-23 -146q-24 9 -53 9h-4q-55 0 -62 -41l-57 -360h-124l85 538h123z" />
    <glyph glyph-name="Eacute.alt" horiz-adv-x="313" 
d="M182 770l56 115h108l-59 -115h-105zM96 744h265l-20 -131h-136l-26 -162h130l-22 -134h-130l-29 -183h141l-22 -134h-269z" />
    <glyph glyph-name="Ebreve.alt" horiz-adv-x="303" 
d="M96 744h265l-20 -131h-136l-26 -162h130l-22 -134h-130l-29 -183h141l-22 -134h-269zM235 767h-4q-50 0 -76 28.5t-20 79.5h81q-2 -13 3.5 -21.5t17.5 -8.5h1q26 0 26 30h83q-2 -51 -32.5 -79.5t-79.5 -28.5z" />
    <glyph glyph-name="Ecaron.alt" horiz-adv-x="303" 
d="M96 744h265l-20 -131h-136l-26 -162h130l-22 -134h-130l-29 -183h141l-22 -134h-269zM280 770h-100l-52 115h87l22 -48l30 48h89z" />
    <glyph glyph-name="Ecircumflex.alt" horiz-adv-x="313" 
d="M199 885h100l51 -115h-86l-22 47l-30 -47h-89zM96 744h265l-20 -131h-136l-26 -162h130l-22 -134h-130l-29 -183h141l-22 -134h-269z" />
    <glyph glyph-name="Edieresis.alt" horiz-adv-x="313" 
d="M347 770h-97l17 106h97zM225 770h-97l17 106h97zM96 744h265l-20 -131h-136l-26 -162h130l-22 -134h-130l-29 -183h141l-22 -134h-269z" />
    <glyph glyph-name="Edotaccent.alt" horiz-adv-x="303" 
d="M96 744h265l-20 -131h-136l-26 -162h130l-22 -134h-130l-29 -183h141l-22 -134h-269zM294 770h-124l20 126h124z" />
    <glyph glyph-name="Egrave.alt" horiz-adv-x="313" 
d="M271 885l19 -115h-99l-24 115h104zM96 744h265l-20 -131h-136l-26 -162h130l-22 -134h-130l-29 -183h141l-22 -134h-269z" />
    <glyph glyph-name="Emacron.alt" horiz-adv-x="303" 
d="M96 744h265l-20 -131h-136l-26 -162h130l-22 -134h-130l-29 -183h141l-22 -134h-269zM139 777l14 88h189l-14 -88h-189z" />
    <glyph glyph-name="Eogonek.alt" horiz-adv-x="303" 
d="M96 744h265l-20 -131h-136l-26 -162h130l-22 -134h-130l-29 -183h141l-22 -134h-269zM175 -188h-49q-38 0 -56.5 19t-13.5 51l2 13q9 49 86 105h61q-56 -56 -56 -90q0 -19 23 -19h15z" />
    <glyph glyph-name="Jcircumflex.alt" horiz-adv-x="235" 
d="M-34 0l22 133h55q14 0 19 25l93 586h135l-104 -657q-14 -87 -83 -87h-137zM184 885h100l51 -115h-86l-22 47l-30 -47h-89z" />
    <glyph glyph-name="aacute.alt" horiz-adv-x="314" 
d="M144 564l60 136h105l-63 -136h-102zM145 60q-41 -65 -96 -65h-2q-35 0 -51.5 28.5t-9.5 74.5l17 108q12 80 67 109q16 9 63 29.5t49 21.5q10 5 14 23l4 25q6 32 -19 32h-3q-20 0 -25 -31l-8 -51h-111l12 74q8 47 35 76.5t95 29.5h22q143 0 124 -118l-49 -308
q-13 -86 -7 -113l-1 -5h-117q-9 18 -3 60zM128 102q22 0 27 31l21 131q-31 -18 -36 -23q-14 -14 -18 -42l-10 -62q-6 -35 16 -35z" />
    <glyph glyph-name="aacute.alt2" horiz-adv-x="331" 
d="M234 538h123l-86 -538h-123l10 60q-11 -24 -37.5 -47.5t-56.5 -23.5h-2q-40 0 -59 33.5t-13 81.5l53 333q7 46 30 76.5t62 30.5h4q23 0 42 -13t26 -24t17 -29zM170 143l40 251q7 40 -21 40q-13 0 -19 -9t-8 -28l-41 -258q-6 -38 19 -38q24 0 30 42zM155 564l60 136h105
l-63 -136h-102z" />
    <glyph glyph-name="abreve.alt" horiz-adv-x="314" 
d="M145 60q-41 -65 -96 -65h-2q-35 0 -51.5 28.5t-9.5 74.5l17 108q12 80 67 109q16 9 63 29.5t49 21.5q10 5 14 23l4 25q6 32 -19 32h-3q-20 0 -25 -31l-8 -51h-111l12 74q8 47 35 76.5t95 29.5h22q143 0 124 -118l-49 -308q-13 -86 -7 -113l-1 -5h-117q-9 18 -3 60z
M128 102q22 0 27 31l21 131q-31 -18 -36 -23q-14 -14 -18 -42l-10 -62q-6 -35 16 -35zM204 563h-3q-50 0 -77 28.5t-19 81.5l1 7h83l-1 -6q-6 -33 20 -33h1q21 0 27 33l1 6h81l-1 -8q-7 -53 -37.5 -81t-75.5 -28z" />
    <glyph glyph-name="abreve.alt2" horiz-adv-x="331" 
d="M234 538h123l-86 -538h-123l10 60q-11 -24 -37.5 -47.5t-56.5 -23.5h-2q-40 0 -59 33.5t-13 81.5l53 333q7 46 30 76.5t62 30.5h4q23 0 42 -13t26 -24t17 -29zM170 143l40 251q7 40 -21 40q-13 0 -19 -9t-8 -28l-41 -258q-6 -38 19 -38q24 0 30 42zM211 563h-3
q-50 0 -77 28.5t-19 81.5l1 7h83l-1 -6q-6 -33 20 -33h1q21 0 27 33l1 6h81l-1 -8q-7 -53 -37.5 -81t-75.5 -28z" />
    <glyph glyph-name="acircumflex.alt" horiz-adv-x="314" 
d="M268 700l43 -136h-87l-17 62l-31 -62h-88l76 136h104zM145 60q-41 -65 -96 -65h-2q-35 0 -51.5 28.5t-9.5 74.5l17 108q12 80 67 109q16 9 63 29.5t49 21.5q10 5 14 23l4 25q6 32 -19 32h-3q-20 0 -25 -31l-8 -51h-111l12 74q8 47 35 76.5t95 29.5h22q143 0 124 -118
l-49 -308q-13 -86 -7 -113l-1 -5h-117q-9 18 -3 60zM128 102q22 0 27 31l21 131q-31 -18 -36 -23q-14 -14 -18 -42l-10 -62q-6 -35 16 -35z" />
    <glyph glyph-name="acircumflex.alt2" horiz-adv-x="331" 
d="M234 538h123l-86 -538h-123l10 60q-11 -24 -37.5 -47.5t-56.5 -23.5h-2q-40 0 -59 33.5t-13 81.5l53 333q7 46 30 76.5t62 30.5h4q23 0 42 -13t26 -24t17 -29zM170 143l40 251q7 40 -21 40q-13 0 -19 -9t-8 -28l-41 -258q-6 -38 19 -38q24 0 30 42zM278 700l43 -136h-87
l-17 62l-31 -62h-88l76 136h104z" />
    <glyph glyph-name="adieresis.alt" horiz-adv-x="314" 
d="M145 60q-41 -65 -96 -65h-2q-35 0 -51.5 28.5t-9.5 74.5l17 108q12 80 67 109q16 9 63 29.5t49 21.5q10 5 14 23l4 25q6 32 -19 32h-3q-20 0 -25 -31l-8 -51h-111l12 74q8 47 35 76.5t95 29.5h22q143 0 124 -118l-49 -308q-13 -86 -7 -113l-1 -5h-117q-9 18 -3 60z
M128 102q22 0 27 31l21 131q-31 -18 -36 -23q-14 -14 -18 -42l-10 -62q-6 -35 16 -35zM308 564h-97l17 106h97zM204 670l-17 -106h-97l17 106h97z" />
    <glyph glyph-name="adieresis.alt2" horiz-adv-x="331" 
d="M234 538h123l-86 -538h-123l10 60q-11 -24 -37.5 -47.5t-56.5 -23.5h-2q-40 0 -59 33.5t-13 81.5l53 333q7 46 30 76.5t62 30.5h4q23 0 42 -13t26 -24t17 -29zM170 143l40 251q7 40 -21 40q-13 0 -19 -9t-8 -28l-41 -258q-6 -38 19 -38q24 0 30 42zM318 564h-97l17 106
h97zM214 670l-17 -106h-97l17 106h97z" />
    <glyph glyph-name="agrave.alt" horiz-adv-x="314" 
d="M224 700l20 -136h-96l-22 136h98zM145 60q-41 -65 -96 -65h-2q-35 0 -51.5 28.5t-9.5 74.5l17 108q12 80 67 109q16 9 63 29.5t49 21.5q10 5 14 23l4 25q6 32 -19 32h-3q-20 0 -25 -31l-8 -51h-111l12 74q8 47 35 76.5t95 29.5h22q143 0 124 -118l-49 -308
q-13 -86 -7 -113l-1 -5h-117q-9 18 -3 60zM128 102q22 0 27 31l21 131q-31 -18 -36 -23q-14 -14 -18 -42l-10 -62q-6 -35 16 -35z" />
    <glyph glyph-name="agrave.alt2" horiz-adv-x="331" 
d="M234 538h123l-86 -538h-123l10 60q-11 -24 -37.5 -47.5t-56.5 -23.5h-2q-40 0 -59 33.5t-13 81.5l53 333q7 46 30 76.5t62 30.5h4q23 0 42 -13t26 -24t17 -29zM170 143l40 251q7 40 -21 40q-13 0 -19 -9t-8 -28l-41 -258q-6 -38 19 -38q24 0 30 42zM239 700l20 -136h-96
l-22 136h98z" />
    <glyph glyph-name="amacron.alt" horiz-adv-x="314" 
d="M145 60q-41 -65 -96 -65h-2q-35 0 -51.5 28.5t-9.5 74.5l17 108q12 80 67 109q16 9 63 29.5t49 21.5q10 5 14 23l4 25q6 32 -19 32h-3q-20 0 -25 -31l-8 -51h-111l12 74q8 47 35 76.5t95 29.5h22q143 0 124 -118l-49 -308q-13 -86 -7 -113l-1 -5h-117q-9 18 -3 60z
M128 102q22 0 27 31l21 131q-31 -18 -36 -23q-14 -14 -18 -42l-10 -62q-6 -35 16 -35zM108 576l14 87h186l-14 -87h-186z" />
    <glyph glyph-name="amacron.alt2" horiz-adv-x="331" 
d="M234 538h123l-86 -538h-123l10 60q-11 -24 -37.5 -47.5t-56.5 -23.5h-2q-40 0 -59 33.5t-13 81.5l53 333q7 46 30 76.5t62 30.5h4q23 0 42 -13t26 -24t17 -29zM170 143l40 251q7 40 -21 40q-13 0 -19 -9t-8 -28l-41 -258q-6 -38 19 -38q24 0 30 42zM113 576l14 87h186
l-14 -87h-186z" />
    <glyph glyph-name="aogonek.alt" horiz-adv-x="314" 
d="M145 60q-41 -65 -96 -65h-2q-35 0 -51.5 28.5t-9.5 74.5l17 108q12 80 67 109q16 9 63 29.5t49 21.5q10 5 14 23l4 25q6 32 -19 32h-3q-20 0 -25 -31l-8 -51h-111l12 74q8 47 35 76.5t95 29.5h22q143 0 124 -118l-49 -308q-13 -86 -7 -113l-1 -5h-117q-9 18 -3 60z
M128 102q22 0 27 31l21 131q-31 -18 -36 -23q-14 -14 -18 -42l-10 -62q-6 -35 16 -35zM235 -188h-49q-38 0 -56.5 19t-13.5 51l2 13q9 49 86 105h61q-56 -56 -56 -90q0 -19 23 -19h15z" />
    <glyph glyph-name="aogonek.alt2" horiz-adv-x="331" 
d="M234 538h123l-86 -538h-123l10 60q-11 -24 -37.5 -47.5t-56.5 -23.5h-2q-40 0 -59 33.5t-13 81.5l53 333q7 46 30 76.5t62 30.5h4q23 0 42 -13t26 -24t17 -29zM170 143l40 251q7 40 -21 40q-13 0 -19 -9t-8 -28l-41 -258q-6 -38 19 -38q24 0 30 42zM241 -188h-49
q-38 0 -56.5 19t-13.5 51l2 13q9 49 86 105h61q-56 -56 -56 -90q0 -19 23 -19h15z" />
    <glyph glyph-name="aring.alt" horiz-adv-x="314" 
d="M145 60q-41 -65 -96 -65h-2q-35 0 -51.5 28.5t-9.5 74.5l17 108q12 80 67 109q16 9 63 29.5t49 21.5q10 5 14 23l4 25q6 32 -19 32h-3q-20 0 -25 -31l-8 -51h-111l12 74q8 47 35 76.5t95 29.5h22q143 0 124 -118l-49 -308q-13 -86 -7 -113l-1 -5h-117q-9 18 -3 60z
M128 102q22 0 27 31l21 131q-31 -18 -36 -23q-14 -14 -18 -42l-10 -62q-6 -35 16 -35zM200 608q15 0 23.5 9t8.5 24t-8.5 24t-23.5 9t-23.5 -9t-8.5 -24t8.5 -24t23.5 -9zM200 562q-35 0 -57.5 22t-22.5 57t22.5 57t57.5 22t57.5 -22t22.5 -57t-22.5 -57t-57.5 -22z" />
    <glyph glyph-name="aring.alt2" horiz-adv-x="331" 
d="M234 538h123l-86 -538h-123l10 60q-11 -24 -37.5 -47.5t-56.5 -23.5h-2q-40 0 -59 33.5t-13 81.5l53 333q7 46 30 76.5t62 30.5h4q23 0 42 -13t26 -24t17 -29zM170 143l40 251q7 40 -21 40q-13 0 -19 -9t-8 -28l-41 -258q-6 -38 19 -38q24 0 30 42zM209 608q15 0 23.5 9
t8.5 24t-8.5 24t-23.5 9t-23.5 -9t-8.5 -24t8.5 -24t23.5 -9zM209 562q-35 0 -57.5 22t-22.5 57t22.5 57t57.5 22t57.5 -22t22.5 -57t-22.5 -57t-57.5 -22z" />
    <glyph glyph-name="aringacute.alt" horiz-adv-x="314" 
d="M159 736l60 136h105l-63 -136h-102zM200 608q15 0 23.5 9t8.5 24t-8.5 24t-23.5 9t-23.5 -9t-8.5 -24t8.5 -24t23.5 -9zM200 562q-35 0 -57.5 22t-22.5 57t22.5 57t57.5 22t57.5 -22t22.5 -57t-22.5 -57t-57.5 -22zM145 60q-41 -65 -96 -65h-2q-35 0 -51.5 28.5
t-9.5 74.5l17 108q12 80 67 109q16 9 63 29.5t49 21.5q10 5 14 23l4 25q6 32 -19 32h-3q-20 0 -25 -31l-8 -51h-111l12 74q8 47 35 76.5t95 29.5h22q143 0 124 -118l-49 -308q-13 -86 -7 -113l-1 -5h-117q-9 18 -3 60zM128 102q22 0 27 31l21 131q-31 -18 -36 -23
q-14 -14 -18 -42l-10 -62q-6 -35 16 -35z" />
    <glyph glyph-name="aringacute.alt2" horiz-adv-x="331" 
d="M209 608q15 0 23.5 9t8.5 24t-8.5 24t-23.5 9t-23.5 -9t-8.5 -24t8.5 -24t23.5 -9zM209 562q-35 0 -57.5 22t-22.5 57t22.5 57t57.5 22t57.5 -22t22.5 -57t-22.5 -57t-57.5 -22zM168 736l60 136h105l-63 -136h-102zM234 538h123l-86 -538h-123l10 60q-11 -24 -37.5 -47.5
t-56.5 -23.5h-2q-40 0 -59 33.5t-13 81.5l53 333q7 46 30 76.5t62 30.5h4q23 0 42 -13t26 -24t17 -29zM170 143l40 251q7 40 -21 40q-13 0 -19 -9t-8 -28l-41 -258q-6 -38 19 -38q24 0 30 42z" />
    <glyph glyph-name="atilde.alt" horiz-adv-x="314" 
d="M145 60q-41 -65 -96 -65h-2q-35 0 -51.5 28.5t-9.5 74.5l17 108q12 80 67 109q16 9 63 29.5t49 21.5q10 5 14 23l4 25q6 32 -19 32h-3q-20 0 -25 -31l-8 -51h-111l12 74q8 47 35 76.5t95 29.5h22q143 0 124 -118l-49 -308q-13 -86 -7 -113l-1 -5h-117q-9 18 -3 60z
M128 102q22 0 27 31l21 131q-31 -18 -36 -23q-14 -14 -18 -42l-10 -62q-6 -35 16 -35zM246 659l3 19h71l-9 -57q-10 -58 -53 -58q-23 0 -60 20q-14 9 -23 9q-8 0 -10 -11l-3 -18h-71l7 44q11 71 57 71q20 0 59 -19q15 -9 24 -9q6 0 8 9z" />
    <glyph glyph-name="atilde.alt2" horiz-adv-x="331" 
d="M234 538h123l-86 -538h-123l10 60q-11 -24 -37.5 -47.5t-56.5 -23.5h-2q-40 0 -59 33.5t-13 81.5l53 333q7 46 30 76.5t62 30.5h4q23 0 42 -13t26 -24t17 -29zM170 143l40 251q7 40 -21 40q-13 0 -19 -9t-8 -28l-41 -258q-6 -38 19 -38q24 0 30 42zM260 659l3 19h71
l-9 -57q-10 -58 -53 -58q-23 0 -60 20q-14 9 -23 9q-8 0 -10 -11l-3 -18h-71l7 44q11 71 57 71q20 0 59 -19q15 -9 24 -9q6 0 8 9z" />
    <glyph glyph-name="racute.alt" horiz-adv-x="265" 
d="M183 538l-12 -80q38 84 92 84h7q12 0 28 -4l-23 -146q-24 9 -53 9h-4q-55 0 -62 -41l-57 -360h-124l85 538h123zM133 564l60 136h105l-63 -136h-102z" />
    <glyph glyph-name="rcaron.alt" horiz-adv-x="265" 
d="M183 538l-12 -80q38 84 92 84h7q12 0 28 -4l-23 -146q-24 9 -53 9h-4q-55 0 -62 -41l-57 -360h-124l85 538h123zM129 564l-43 136h86l18 -62l31 62h88l-77 -136h-103z" />
    <glyph glyph-name="rcommaaccent.alt" horiz-adv-x="265" 
d="M183 538l-12 -80q38 84 92 84h7q12 0 28 -4l-23 -146q-24 9 -53 9h-4q-55 0 -62 -41l-57 -360h-124l85 538h123zM38 -203h-53q14 30 22 67h-43l17 110h102l-11 -70q-9 -61 -34 -107z" />
    <glyph glyph-name="space_uni0326.alt" 
d="M209 741h53q-14 -30 -22 -67h43l-17 -110h-102l11 68q13 70 34 109z" />
    <glyph glyph-name="ordfeminine.alt" horiz-adv-x="196" 
d="M142 486q-22 -40 -59 -40q-22 0 -31 16t-6 38l9 57q7 43 43 60q11 6 34.5 15.5t28.5 12.5q6 3 8 11l2 13q3 16 -12 16q-10 0 -13 -18l-3 -18h-70l5 33q7 64 78 64h14q46 0 63.5 -18.5t11.5 -52.5l-26 -161q-9 -53 -4 -62l-1 -3h-70q-6 8 -2 37zM134 508q12 0 15 19l9 58
q-2 -1 -9 -4t-9 -5q-10 -7 -13 -28l-3 -20q-3 -20 10 -20z" />
    <glyph glyph-name="ordfeminine.alt2" horiz-adv-x="210" 
d="M193 744h77l-47 -295h-77l7 40q-20 -42 -57 -42h-1q-26 0 -36.5 19t-5.5 49l27 170q9 61 55 61h2q30 0 50 -38zM160 536l20 126q5 21 -11 21q-5 0 -8 -3t-4 -5.5t-3 -11.5l-21 -132q-3 -20 10 -20q8 0 11.5 5t5.5 20z" />
    <glyph glyph-name="caron.alt" 
d="M173 594l29 150h88l-35 -150h-82z" />
    <glyph glyph-name="plus.uc" horiz-adv-x="334" 
d="M104 175l19 121h-104l14 91h104l20 122h96l-20 -122h105l-14 -91h-105l-19 -121h-96z" />
    <glyph glyph-name="minus.uc" horiz-adv-x="312" 
d="M33 387h283l-14 -91h-283z" />
    <glyph glyph-name="multiply.uc" horiz-adv-x="304" 
d="M227 190l-70 86l-94 -86l-56 65l96 88l-70 87l69 63l69 -87l95 87l57 -66l-98 -89l70 -87z" />
    <glyph glyph-name="divide.uc" horiz-adv-x="333" 
d="M33 387h304l-14 -91h-304zM257 519l-17 -103h-100l16 103h101zM216 264l-16 -103h-101l16 103h101z" />
    <glyph glyph-name="equal.uc" horiz-adv-x="327" 
d="M26 328h294l-14 -83h-294zM43 439h294l-13 -84h-294z" />
    <glyph glyph-name="less.uc" horiz-adv-x="288" 
d="M31 385l274 105l-15 -96l-160 -55l143 -53l-15 -93l-241 105z" />
    <glyph glyph-name="greater.uc" horiz-adv-x="288" 
d="M278 298l-273 -105l15 97l160 55l-143 53l15 92l240 -105z" />
    <glyph glyph-name="questiondown.uc" horiz-adv-x="325" 
d="M175 577h101l-22 -134q-6 -37 -15 -57t-33 -50l-45 -55q-26 -33 -34 -84l-8 -50q-6 -35 22 -35q14 0 19.5 8t8.5 27l18 114h121l-19 -120q-6 -36 -13 -58.5t-22 -45.5t-42.5 -34.5t-67.5 -11.5h-25q-152 0 -132 145l8 52q9 54 22 83t47 63l60 65q16 17 22.5 32t12.5 47z
M171 600l23 144h116l-23 -144h-116z" />
    <glyph glyph-name="exclamdown.uc" horiz-adv-x="158" 
d="M70 600l23 144h116l-23 -144h-116zM104 0h-142l136 577h51z" />
    <glyph glyph-name="hyphen.uc" horiz-adv-x="178" 
d="M36 400h149l-19 -121h-149z" />
    <glyph glyph-name="endash.uc" horiz-adv-x="328" 
d="M33 386h299l-14 -90h-299z" />
    <glyph glyph-name="emdash.uc" horiz-adv-x="494" 
d="M33 386h465l-14 -90h-465z" />
    <glyph glyph-name="guilsinglleft.uc" horiz-adv-x="158" 
d="M111 305l18 -164h-96l-22 138l10 59l62 135h100z" />
    <glyph glyph-name="guilsinglright.uc" horiz-adv-x="158" 
d="M60 308l-19 165h97l21 -138l-9 -59l-63 -135h-99z" />
    <glyph glyph-name="guillemotleft.uc" horiz-adv-x="265" 
d="M290 473l-74 -169l22 -163h-90l-25 165l76 167h91zM178 473l-77 -167l26 -165h-90l-26 137l10 60l65 135h92z" />
    <glyph glyph-name="guillemotright.uc" horiz-adv-x="265" 
d="M98 141l78 167l-24 165h90l24 -137l-9 -60l-68 -135h-91zM-12 141l74 169l-22 163h90l25 -165l-76 -167h-91z" />
    <glyph glyph-name="parenleft.uc" horiz-adv-x="209" 
d="M148 -81h-75q-50 167 -50 292q0 322 194 605h76q-65 -132 -113 -307.5t-48 -361.5q0 -102 16 -228z" />
    <glyph glyph-name="parenright.uc" horiz-adv-x="209" 
d="M86 816h75q49 -157 49 -293q0 -321 -194 -604h-75q66 130 113.5 306t47.5 362q0 85 -16 229z" />
    <glyph glyph-name="bracketleft.uc" horiz-adv-x="198" 
d="M276 817l-15 -96h-53l-111 -698h53l-15 -96h-157l142 890h156z" />
    <glyph glyph-name="bracketright.uc" horiz-adv-x="198" 
d="M-45 -73l15 96h52l111 698h-52l15 96h156l-142 -890h-155z" />
    <glyph glyph-name="braceleft.uc" horiz-adv-x="204" 
d="M140 -73h-31q-56 0 -84 27t-28 76q0 38 34.5 138t34.5 128t-26 28h-18l16 101h25q30 0 32 33q3 38 3 127.5t2 117.5q7 114 127 114h55l-15 -92h-25q-37 0 -42 -43q-2 -23 -2 -107.5t-1 -109.5q-3 -36 -17.5 -58t-47.5 -33q39 -18 39 -65q0 -30 -33.5 -132t-33.5 -124
q0 -34 41 -34h10z" />
    <glyph glyph-name="braceright.uc" horiz-adv-x="204" 
d="M95 817h32q113 0 113 -103q0 -38 -34.5 -136t-34.5 -126q0 -27 27 -27h17l-16 -101h-24q-28 0 -33 -33q-3 -42 -3.5 -134.5t-1.5 -115.5q-7 -114 -127 -114h-56l15 92h25q37 0 42 43q1 19 1.5 106t3.5 115q3 36 17.5 58t47.5 33q-40 19 -40 66q0 30 33.5 129.5
t33.5 121.5q0 34 -41 34h-12z" />
    <glyph glyph-name="slash.uc" horiz-adv-x="216" 
d="M301 816l-265 -897h-91l265 897h91z" />
    <glyph glyph-name="backslash.uc" horiz-adv-x="216" 
d="M88 -81l-8 897h86l6 -897h-84z" />
    <glyph glyph-name="bar.uc" horiz-adv-x="224" 
d="M175 816v-897h-92v897h92z" />
    <glyph glyph-name="at.uc" horiz-adv-x="572" 
d="M431 76l48 -56q-30 -40 -85 -74.5t-126 -34.5h-10q-291 0 -233 385l17 108q29 184 101.5 280.5t199.5 96.5h18q131 0 191.5 -78.5t34.5 -234.5l-16 -101q-18 -109 -45 -172.5t-56 -84.5t-70 -21h-8q-41 0 -64.5 19t-29.5 47q-40 -66 -93 -66h-5q-35 0 -53.5 34t-8.5 87
l57 287q19 96 84 96h5q42 0 74 -54l11 50h119l-84 -392q-6 -28 12 -28q42 0 73 198l16 101q20 131 -21.5 183.5t-128.5 52.5h-18q-84 0 -135.5 -74t-74.5 -225l-17 -108q-48 -307 150 -307h10q84 0 161 86zM290 212l54 259q6 28 -14 28q-9 0 -13 -6t-7 -22l-55 -261
q-6 -28 13 -28q17 0 22 30z" />
    <glyph glyph-name="grave.uc" 
d="M286 885l19 -115h-99l-24 115h104z" />
    <glyph glyph-name="dieresis.uc" 
d="M358 770h-97l17 106h97zM236 770h-97l17 106h97z" />
    <glyph glyph-name="macron.uc" 
d="M155 777l14 88h189l-14 -88h-189z" />
    <glyph glyph-name="acute.uc" 
d="M176 770l56 115h108l-59 -115h-105z" />
    <glyph glyph-name="circumflex.uc" 
d="M210 885h100l51 -115h-86l-22 47l-30 -47h-89z" />
    <glyph glyph-name="caron.uc" 
d="M296 770h-100l-52 115h87l22 -48l30 48h89z" />
    <glyph glyph-name="breve.uc" 
d="M256 767h-4q-50 0 -76 28.5t-20 79.5h81q-2 -13 3.5 -21.5t17.5 -8.5h1q26 0 26 30h83q-2 -51 -32.5 -79.5t-79.5 -28.5z" />
    <glyph glyph-name="dotaccent.uc" 
d="M310 770h-124l20 126h124z" />
    <glyph glyph-name="ring.uc" 
d="M259 765q-35 0 -57.5 22t-22.5 57t22.5 57t57.5 22t57.5 -22t22.5 -57t-22.5 -57t-57.5 -22zM259 811q15 0 23.5 9t8.5 24t-8.5 24t-23.5 9t-23.5 -9t-8.5 -24t8.5 -24t23.5 -9z" />
    <glyph glyph-name="tilde.uc" 
d="M297 864l3 19h72l-9 -57q-10 -55 -54 -55q-24 0 -61 19q-14 9 -22 9q-7 0 -9 -11l-3 -19h-71l7 44q11 69 56 69q20 0 60 -18q18 -8 23 -8q6 0 8 8z" />
    <glyph glyph-name="hungarumlaut.uc" 
d="M331 770h-84l45 115h86zM139 770l42 115h87l-44 -115h-85z" />
    <glyph glyph-name="emdash.altuc" horiz-adv-x="959" 
d="M949 296h-930l14 90h930z" />
    <glyph glyph-name="f.short" horiz-adv-x="252" 
d="M322 744l-18 -113h-40q-9 0 -14.5 -4t-6.5 -7t-3 -13l-11 -69h60l-19 -119h-59l-67 -419h-124l67 419h-59l19 119h58l21 133q12 73 85 73h111z" />
    <glyph glyph-name="f_f.short" horiz-adv-x="458" 
d="M417 744h111l-18 -113h-40q-9 0 -14.5 -4t-6.5 -7t-3 -13l-11 -69h60l-19 -119h-59l-67 -419h-124l67 419h-82l-67 -419h-124l67 419h-59l19 119h58l21 133q12 73 85 73h116l-18 -113h-45q-9 0 -14.5 -4t-6.5 -7t-3 -13l-11 -69h82l21 133q12 73 85 73z" />
    <glyph glyph-name="j.short" horiz-adv-x="159" 
d="M-79 -69h25q8 0 12 2.5t5.5 6t3.5 11.5l93 587h124l-103 -653q-11 -73 -82 -73h-97zM208 690l-20 -126h-124l20 126h124z" />
    <glyph glyph-name="uni0408.alt" horiz-adv-x="237" 
d="M-34 0l22 133h55q14 0 19 25l93 586h135l-104 -657q-14 -87 -83 -87h-137z" />
    <glyph glyph-name="uni0414.bgr" horiz-adv-x="404" 
d="M61 -105h-119l37 239h39l175 610h161l-15 -610h38l-37 -239h-119l16 105h-160zM209 134l23 367l-95 -367h72z" />
    <glyph glyph-name="uni0415.alt" horiz-adv-x="299" 
d="M96 744h265l-20 -131h-136l-26 -162h130l-22 -134h-130l-29 -183h141l-22 -134h-269z" />
    <glyph glyph-name="uni0416.bgr" horiz-adv-x="559" 
d="M219 318l-133 -318h-136l178 406l-49 338h127l36 -287l45 287h129l-46 -287l127 287h127l-156 -338l49 -406h-136l-33 316l-50 -316h-129z" />
    <glyph glyph-name="uni041A.bgr" horiz-adv-x="363" 
d="M180 460l126 284h131l-153 -343l46 -401h-136l-36 322l-51 -322h-129l118 744h129z" />
    <glyph glyph-name="uni041B.bgr" horiz-adv-x="345" 
d="M321 744l-14 -744h-132l26 499l-124 -499h-125l205 744h164z" />
    <glyph glyph-name="uni042F.alt" horiz-adv-x="354" 
d="M164 0l47 298h-23q-20 0 -28.5 -9t-13.5 -35l-31 -197q-6 -40 -21 -57h-129l1 5q14 18 20 55l36 228q11 70 66 88q-54 24 -44 100l23 143q20 125 138 125h206l-118 -744h-129zM231 421l33 208h-30q-20 0 -28 -9t-12 -33l-19 -121q-5 -26 2 -35.5t28 -9.5h26z" />
    <glyph glyph-name="uni0430.alt" horiz-adv-x="310" 
d="M145 60q-41 -65 -96 -65h-2q-35 0 -51.5 28.5t-9.5 74.5l17 108q12 80 67 109q16 9 63 29.5t49 21.5q10 5 14 23l4 25q6 32 -19 32h-3q-20 0 -25 -31l-8 -51h-111l12 74q8 47 35 76.5t95 29.5h22q143 0 124 -118l-49 -308q-13 -86 -7 -113l-1 -5h-117q-9 18 -3 60z
M128 102q22 0 27 31l21 131q-31 -18 -36 -23q-14 -14 -18 -42l-10 -62q-6 -35 16 -35z" />
    <glyph glyph-name="uni0430.alt2" horiz-adv-x="328" 
d="M234 538h123l-86 -538h-123l10 60q-11 -24 -37.5 -47.5t-56.5 -23.5h-2q-40 0 -59 33.5t-13 81.5l53 333q7 46 30 76.5t62 30.5h4q23 0 42 -13t26 -24t17 -29zM170 143l40 251q7 40 -21 40q-13 0 -19 -9t-8 -28l-41 -258q-6 -38 19 -38q24 0 30 42z" />
    <glyph glyph-name="uni0431.alt" horiz-adv-x="330" 
d="M143 -9h-20q-77 0 -108.5 41.5t-21.5 107.5l64 406q16 106 55 146.5t139 40.5h49q39 0 63 6q11 3 15 6l-18 -109q-5 -4 -14 -6q-22 -6 -63 -6h-25q-40 0 -54.5 -15t-22.5 -63l-7 -42q45 42 98 42h5q47 0 60.5 -33t1.5 -102l-43 -271q-26 -149 -153 -149zM139 105
q26 0 31 32l41 259q7 41 -20 41q-26 0 -33 -41l-41 -259q-5 -32 22 -32z" />
    <glyph glyph-name="uni0431.locl" horiz-adv-x="329" 
d="M144 -10h-30q-68 0 -100 42.5t-22 109.5l41 254q12 83 70 115q-40 38 -30 103q15 111 153 111h23q12 0 17.5 3.5t7.5 15.5h109q-13 -73 -36 -100.5t-84 -27.5h-35q-24 0 -36.5 -7.5t-12.5 -29.5q0 -27 29 -31l33 -4q60 -8 82 -48t13 -97l-40 -255q-25 -154 -152 -154z
M138 106q27 0 33 38l40 256q5 37 -21 37q-27 0 -32 -37l-40 -256q-5 -38 20 -38z" />
    <glyph glyph-name="uni0431.loclalt" horiz-adv-x="329" 
d="M144 -10h-30q-68 0 -100 42.5t-22 109.5l41 254q12 83 70 115q-32 30 -32 82q0 140 160 140h50q39 0 65 6q12 3 17 6l-18 -109q-4 -2 -16 -6q-24 -6 -65 -6h-35q-50 0 -50 -42q0 -31 36 -35l26 -3q60 -8 82 -48t13 -97l-40 -255q-25 -154 -152 -154zM138 106q27 0 33 38
l40 256q5 37 -21 37q-27 0 -32 -37l-40 -256q-5 -38 20 -38z" />
    <glyph glyph-name="uni0432.bgr" horiz-adv-x="327" 
d="M-6 144l75 475q9 60 45.5 96t99.5 36h28q66 0 100.5 -38t25.5 -99l-16 -106q-12 -66 -57 -86q43 -24 31 -101l-29 -185q-23 -145 -158 -145h-14q-67 0 -104.5 38t-26.5 115zM191 607l-23 -148h35q20 0 25 34l18 113q7 38 -21 38h-4q-24 0 -30 -37zM140 103q28 0 34 40
l30 187q2 15 -3 22t-22 7h-27l-34 -216q-7 -40 22 -40z" />
    <glyph glyph-name="uni0433.bgr" horiz-adv-x="298" 
d="M126 -9h-23q-66 0 -95.5 39.5t-19.5 98.5l3 18q6 45 24.5 77t64.5 72l82 70q28 25 31 52l2 11q5 28 -16 28t-26 -28l-9 -56h-111l9 56q18 119 133 119h18q67 0 96.5 -32t21.5 -88l-3 -17q-7 -46 -23.5 -78t-55.5 -64l-78 -65q-33 -27 -39 -67l-2 -12q-4 -31 17 -31
q24 0 28 30l11 72h115l-12 -77q-20 -128 -143 -128z" />
    <glyph glyph-name="uni0433.locl" horiz-adv-x="239" 
d="M-27 0l86 538h217l-19 -119h-93l-67 -419h-124z" />
    <glyph glyph-name="uni0434.bgr" horiz-adv-x="328" 
d="M137 -66l20 125q-37 -69 -95 -69q-37 0 -58 31.5t-13 83.5l50 315q20 125 98 125h1q18 0 32 -6.5t24.5 -18.5t16 -21t12.5 -22l10 61h122l-97 -612q-17 -121 -153 -121h-17q-73 0 -102 29t-22 78l10 63h118l-7 -44q-5 -25 19 -25h4q22 0 27 28zM167 126l44 277
q5 34 -20 34q-22 0 -27 -33l-44 -278q-5 -30 21 -30q21 0 26 30z" />
    <glyph glyph-name="uni0434.locl" horiz-adv-x="362" 
d="M-55 -100l35 219h16q13 9 24 47q9 36 64 372h283l-67 -419h35l-35 -219h-113l16 100h-129l-16 -100h-113zM114 119h62l48 300h-44q-29 -178 -50 -257q-6 -20 -16 -43z" />
    <glyph glyph-name="uni0436.bgr" horiz-adv-x="502" 
d="M73 0h-123l141 282l-49 256h118l37 -208l66 414h124l-66 -416l103 210h118l-129 -255l51 -283h-123l-38 216l-34 -216h-124l34 216z" />
    <glyph glyph-name="uni0437.bgr" horiz-adv-x="318" 
d="M25 326l14 92q21 130 141 130h25q72 0 98 -34t16 -102l-15 -96q-10 -69 -65 -88q25 -10 36 -29.5t5 -63.5l-30 -193q-5 -30 -12.5 -51t-23.5 -42.5t-45 -32.5t-70 -11h-21q-67 0 -95.5 37.5t-18.5 98.5l26 169h115l-25 -161q-5 -31 19 -31q25 0 29 27l31 196
q2 15 -4.5 22t-26.5 7h-56l18 112h56q20 0 28.5 7t12.5 30l14 87q6 37 -19 37q-15 0 -21.5 -9.5t-9.5 -28.5l-12 -79h-114z" />
    <glyph glyph-name="uni0438.bgr" horiz-adv-x="326" 
d="M355 538l-85 -538h-123l10 65q-17 -28 -43 -47.5t-55 -19.5h-7q-39 0 -54 30.5t-8 68.5l70 441h125l-62 -392q-6 -36 19 -36q13 0 19 8.5t8 27.5l62 392h124z" />
    <glyph glyph-name="uni043A.bgr" horiz-adv-x="331" 
d="M155 355l98 183h122l-126 -234l48 -304h-125l-35 240l-38 -240h-124l118 744h124z" />
    <glyph glyph-name="uni043B.bgr" horiz-adv-x="309" 
d="M262 538l2 -538h-120l15 343l-84 -343h-120l164 538h143z" />
    <glyph glyph-name="uni043D.bgr" horiz-adv-x="330" 
d="M97 0h-124l86 538h124l-33 -206h50l33 206h124l-86 -538h-124l34 213h-50z" />
    <glyph glyph-name="uni043F.bgr" horiz-adv-x="329" 
d="M-25 0l85 538h123l-10 -65q44 67 99 67h7q40 0 55 -29.5t10 -63.5l-71 -447h-125l62 392q5 36 -21 36q-23 0 -28 -36l-62 -392h-124z" />
    <glyph glyph-name="uni043F.locl" horiz-adv-x="325" 
d="M-27 0l86 538h293l-86 -538h-124l67 419h-45l-67 -419h-124z" />
    <glyph glyph-name="uni0442.bgr" horiz-adv-x="497" 
d="M441 542h5q35 0 53.5 -26t11.5 -68l-71 -448h-125l62 392q6 36 -19 36q-13 0 -18.5 -8t-8.5 -28l-62 -392h-124l62 392q5 36 -19 36q-13 0 -19 -8.5t-8 -27.5l-62 -392h-124l85 538h123l-10 -63q46 67 98 67h4q27 0 44.5 -19t20.5 -47q48 66 101 66z" />
    <glyph glyph-name="uni0442.locl" horiz-adv-x="267" 
d="M27 0l67 419h-65l19 119h254l-19 -119h-65l-67 -419h-124z" />
    <glyph glyph-name="uni0446.bgr" horiz-adv-x="348" 
d="M289 119h33l-34 -219h-113l15 100h-43l10 65q-17 -28 -43 -47.5t-55 -19.5h-7q-39 0 -54 30.5t-8 68.5l70 441h125l-62 -392q-6 -36 19 -36q13 0 19 8.5t8 27.5l62 392h124z" />
    <glyph glyph-name="uni0447.bgr" horiz-adv-x="317" 
d="M220 538h124l-86 -538h-124l33 207q-28 -12 -65 -12q-104 0 -85 119l36 224h124l-32 -202q-3 -17 1.5 -23.5t18.5 -6.5q9 0 18 4z" />
    <glyph glyph-name="uni0448.bgr" horiz-adv-x="497" 
d="M56 -4h-5q-35 0 -53.5 26t-11.5 68l71 448h125l-62 -392q-6 -36 19 -36q13 0 18.5 8t8.5 28l62 392h124l-62 -392q-5 -36 19 -36q13 0 19 8.5t8 27.5l62 392h124l-85 -538h-123l10 63q-46 -67 -98 -67h-4q-27 0 -44.5 19t-20.5 47q-48 -66 -101 -66z" />
    <glyph glyph-name="uni0449.bgr" horiz-adv-x="519" 
d="M56 -4h-5q-35 0 -53.5 26t-11.5 68l71 448h125l-62 -392q-6 -36 19 -36q13 0 18.5 8t8.5 28l62 392h124l-62 -392q-5 -36 19 -36q13 0 19 8.5t8 27.5l62 392h124l-66 -419h37l-34 -219h-113l15 100h-47l10 63q-46 -67 -98 -67h-4q-27 0 -44.5 19t-20.5 47
q-48 -66 -101 -66z" />
    <glyph glyph-name="uni044A.bgr" horiz-adv-x="379" 
d="M195 -9h-18q-73 0 -104 42.5t-21 108.5l45 277h-70l19 119h194l-28 -180h17q82 0 115.5 -32t21.5 -107l-14 -89q-22 -139 -157 -139zM206 255h-11l-17 -112q-6 -38 20 -38q25 0 32 38l10 64q5 28 -1.5 38t-32.5 10z" />
    <glyph glyph-name="uni044C.bgr" horiz-adv-x="319" 
d="M135 -9h-18q-73 0 -104 42.5t-21 108.5l64 396h124l-28 -180h17q82 0 115.5 -32t21.5 -107l-14 -89q-22 -139 -157 -139zM146 255h-11l-17 -112q-6 -38 20 -38q25 0 32 38l10 64q5 28 -1.5 38t-32.5 10z" />
    <glyph glyph-name="uni044E.bgr" horiz-adv-x="490" 
d="M312 -10h-29q-72 0 -105 42.5t-23 109.5l11 71h-35l-34 -213h-124l118 744h124l-66 -412h37l10 65q12 75 46.5 113t98.5 38h29q68 0 103.5 -39.5t24.5 -109.5l-41 -255q-10 -70 -46.5 -112t-98.5 -42zM303 106q11 0 17 6t8 12.5t4 19.5l41 256q5 37 -22 37q-24 0 -29 -37
l-41 -256q-5 -38 22 -38z" />
    <glyph glyph-name="uni044F.alt" horiz-adv-x="325" 
d="M91 0h-124l1 5q15 23 20 55l18 107q11 59 49 75q-38 26 -27 99l10 67q10 68 42 99t99 31h173l-86 -538h-124l29 180h-19q-9 0 -14.5 -4.5t-7.5 -11t-4 -18.5l-14 -85q-8 -46 -21 -61zM211 435h-14q-31 0 -36 -32l-14 -89q-2 -17 3.5 -24t22.5 -7h14z" />
    <glyph glyph-name="uni0458.short" horiz-adv-x="155" 
d="M-79 -69h25q8 0 12 2.5t5.5 6t3.5 11.5l93 587h124l-103 -653q-11 -73 -82 -73h-97zM208 690l-20 -126h-124l20 126h124z" />
    <glyph glyph-name="f_b" horiz-adv-x="575" 
d="M322 744l-18 -113h-40q-9 0 -14.5 -4t-6.5 -7t-3 -13l-11 -69h60l-19 -119h-59l-67 -419h-124l67 419h-59l19 119h58l21 133q12 73 85 73h111zM341 744h124l-42 -266q45 66 95 66h5q38 0 55.5 -28.5t11.5 -69.5l-53 -335q-9 -52 -36 -86t-68 -34h-2q-20 0 -36 7t-27.5 20
t-18.5 25t-14 29q-13 -38 -20 -72h-92zM410 397l-41 -260q-5 -35 19 -35t28 31l42 266q5 35 -19 35t-29 -37z" />
    <glyph glyph-name="f_h" horiz-adv-x="577" 
d="M322 744l-18 -113h-40q-9 0 -14.5 -4t-6.5 -7t-3 -13l-11 -69h60l-19 -119h-59l-67 -419h-124l67 419h-59l19 119h58l21 133q12 73 85 73h111zM223 0l118 744h123l-42 -268q47 64 98 64h7q40 0 55 -29.5t10 -63.5l-71 -447h-125l62 392q5 36 -21 36q-23 0 -28 -36
l-62 -392h-124z" />
    <glyph glyph-name="f_j" horiz-adv-x="403" 
d="M322 744l-18 -113h-40q-9 0 -14.5 -4t-6.5 -7t-3 -13l-11 -69h60l-19 -119h-59l-67 -419h-124l67 419h-59l19 119h58l21 133q12 73 85 73h111zM143 -69h51q8 0 12 2.5t5.5 6t3.5 11.5l93 587h124l-103 -653q-11 -73 -82 -73h-123zM456 690l-20 -126h-124l20 126h124z" />
    <glyph glyph-name="f_k" horiz-adv-x="579" 
d="M322 744l-18 -113h-40q-9 0 -14.5 -4t-6.5 -7t-3 -13l-11 -69h60l-19 -119h-59l-67 -419h-124l67 419h-59l19 119h58l21 133q12 73 85 73h111zM403 355l98 183h122l-126 -234l48 -304h-125l-35 240l-38 -240h-124l118 744h124z" />
    <glyph glyph-name="f_f_b" horiz-adv-x="786" 
d="M417 744h111l-18 -113h-40q-9 0 -14.5 -4t-6.5 -7t-3 -13l-11 -69h60l-19 -119h-59l-67 -419h-124l67 419h-82l-67 -419h-124l67 419h-59l19 119h58l21 133q12 73 85 73h116l-18 -113h-45q-9 0 -14.5 -4t-6.5 -7t-3 -13l-11 -69h82l21 133q12 73 85 73zM552 744h124
l-42 -266q45 66 95 66h5q38 0 55.5 -28.5t11.5 -69.5l-53 -335q-9 -52 -36 -86t-68 -34h-2q-20 0 -36 7t-27.5 20t-18.5 25t-14 29q-13 -38 -20 -72h-92zM621 397l-41 -260q-5 -35 19 -35t28 31l42 266q5 35 -19 35t-29 -37z" />
    <glyph glyph-name="f_f_h" horiz-adv-x="788" 
d="M417 744h111l-18 -113h-40q-9 0 -14.5 -4t-6.5 -7t-3 -13l-11 -69h60l-19 -119h-59l-67 -419h-124l67 419h-82l-67 -419h-124l67 419h-59l19 119h58l21 133q12 73 85 73h116l-18 -113h-45q-9 0 -14.5 -4t-6.5 -7t-3 -13l-11 -69h82l21 133q12 73 85 73zM434 0l118 744
h123l-42 -268q47 64 98 64h7q40 0 55 -29.5t10 -63.5l-71 -447h-125l62 392q5 36 -21 36q-23 0 -28 -36l-62 -392h-124z" />
    <glyph glyph-name="f_f_k" horiz-adv-x="790" 
d="M417 744h111l-18 -113h-40q-9 0 -14.5 -4t-6.5 -7t-3 -13l-11 -69h60l-19 -119h-59l-67 -419h-124l67 419h-82l-67 -419h-124l67 419h-59l19 119h58l21 133q12 73 85 73h116l-18 -113h-45q-9 0 -14.5 -4t-6.5 -7t-3 -13l-11 -69h82l21 133q12 73 85 73zM614 355l98 183
h122l-126 -234l48 -304h-125l-35 240l-38 -240h-124l118 744h124z" />
    <glyph glyph-name="f_f_j" horiz-adv-x="614" 
d="M417 744h111l-18 -113h-40q-9 0 -14.5 -4t-6.5 -7t-3 -13l-11 -69h60l-19 -119h-59l-67 -419h-124l67 419h-82l-67 -419h-124l67 419h-59l19 119h58l21 133q12 73 85 73h116l-18 -113h-45q-9 0 -14.5 -4t-6.5 -7t-3 -13l-11 -69h82l21 133q12 73 85 73zM354 -69h51
q8 0 12 2.5t5.5 6t3.5 11.5l93 587h124l-103 -653q-11 -73 -82 -73h-123zM667 690l-20 -126h-124l20 126h124z" />
    <glyph glyph-name="uni0401.alt" horiz-adv-x="313" 
d="M96 744h265l-20 -131h-136l-26 -162h130l-22 -134h-130l-29 -183h141l-22 -134h-269zM347 770h-97l17 106h97zM225 770h-97l17 106h97z" />
    <glyph glyph-name="uni0439.bgr" horiz-adv-x="330" 
d="M355 538l-85 -538h-123l10 65q-17 -28 -43 -47.5t-55 -19.5h-7q-39 0 -54 30.5t-8 68.5l70 441h125l-62 -392q-6 -36 19 -36q13 0 19 8.5t8 27.5l62 392h124zM218 563h-3q-50 0 -77 28.5t-19 81.5l1 7h83l-1 -6q-6 -33 20 -33h1q21 0 27 33l1 6h81l-1 -8
q-7 -53 -37.5 -81t-75.5 -28z" />
    </font>
</defs>
</svg>
