<?xml version="1.0" standalone="no"?>
<!DOCTYPE svg PUBLIC "-//W3C//DTD SVG 1.1//EN" "http://www.w3.org/Graphics/SVG/1.1/DTD/svg11.dtd" >
<svg xmlns="http://www.w3.org/2000/svg" xmlns:xlink="http://www.w3.org/1999/xlink" version="1.1">
<metadata>
Created by FontForge 20170731 at Sat Aug  4 06:59:41 2018
 By Aleksey,,,
Copyright (c) 2014 by Commercial Type, Inc.. All rights reserved. |DCNT
</metadata>
<defs>
<font id="DrukCyr-Medium" horiz-adv-x="342" >
  <font-face 
    font-family="Druk Cyr"
    font-weight="500"
    font-stretch="normal"
    units-per-em="1000"
    panose-1="0 0 0 0 0 0 0 0 0 0"
    ascent="800"
    descent="-200"
    x-height="538"
    cap-height="744"
    bbox="-50 -215 878 1054"
    underline-thickness="84"
    underline-position="-272"
    unicode-range="U+000D-FB04"
  />
<missing-glyph horiz-adv-x="102" 
 />
    <glyph glyph-name="f_f" unicode="ff" horiz-adv-x="454" 
d="M445 744v-99h-48q-14 0 -18 -5.5t-4 -20.5v-81h70v-102h-70v-436h-107v436h-91v-436h-107v436h-64v102h64v137q0 27 17.5 48t58.5 21h100v-99h-47q-14 0 -18 -5.5t-4 -20.5v-81h91v137q0 27 17.5 48t58.5 21h101z" />
    <glyph glyph-name="f_i" unicode="fi" horiz-adv-x="395" 
d="M243 744v-99h-44q-14 0 -18 -5.5t-4 -20.5v-81h66v-102h-66v-436h-107v436h-64v102h64v137q0 27 17.5 48t58.5 21h97zM375 538v-538h-107v538h107zM375 682v-115h-107v115h107z" />
    <glyph glyph-name="f_l" unicode="fl" horiz-adv-x="395" 
d="M243 744v-99h-44q-14 0 -18 -5.5t-4 -20.5v-81h66v-102h-66v-436h-107v436h-64v102h64v137q0 27 17.5 48t58.5 21h97zM375 744v-744h-107v744h107z" />
    <glyph glyph-name="emdash.alt" unicode="&#x2014;&#x2014;" horiz-adv-x="894" 
d="M878 261h-862v78h862v-78z" />
    <glyph glyph-name=".notdef" horiz-adv-x="102" 
 />
    <glyph glyph-name=".null" horiz-adv-x="0" 
 />
    <glyph glyph-name="nonmarkingreturn" horiz-adv-x="333" 
 />
    <glyph glyph-name="NULL" horiz-adv-x="0" 
 />
    <glyph glyph-name="NULL" horiz-adv-x="0" 
 />
    <glyph glyph-name="CR" unicode="&#xd;" horiz-adv-x="102" 
 />
    <glyph glyph-name="space" unicode=" " horiz-adv-x="102" 
 />
    <glyph glyph-name="exclam" unicode="!" horiz-adv-x="152" 
d="M127 128v-128h-104v128h104zM14 744h124l-44 -591h-37z" />
    <glyph glyph-name="quotedbl" unicode="&#x22;" horiz-adv-x="220" 
d="M99 744v-175h-82v175h82zM203 744v-175h-82v175h82z" />
    <glyph glyph-name="numbersign" unicode="#" horiz-adv-x="366" 
d="M112 744h83l-20 -217h40l20 217h83l-20 -217h65l-8 -82h-65l-9 -105h64l-9 -84h-63l-23 -256h-83l23 256h-40l-23 -256h-82l23 256h-65l9 84h63l10 105h-64l9 82h62zM167 445l-9 -105h40l9 105h-40z" />
    <glyph glyph-name="dollar" unicode="$" horiz-adv-x="335" 
d="M148 -75v67q-133 5 -133 141v143h106v-130q0 -44 27 -51v224l-66 79q-37 43 -51.5 85.5t-14.5 102.5v20q0 68 34.5 105.5t97.5 39.5v61h35v-61q65 -2 94 -32.5t29 -96.5v-117h-98v106q0 36 -25 43v-199l71 -84q40 -46 53.5 -84.5t13.5 -98.5v-23q0 -79 -36 -125t-102 -48
v-67h-35zM210 157v22q0 35 -5 55t-22 43v-182q27 11 27 62zM123 602v-18q0 -53 25 -86v156q-25 -6 -25 -52z" />
    <glyph glyph-name="percent" unicode="%" horiz-adv-x="465" 
d="M14 508v144q0 47 24.5 72t67.5 25h19q42 0 66 -25.5t24 -71.5v-144q0 -45 -24 -71t-66 -26h-19q-41 0 -66.5 25t-25.5 72zM251 93v144q0 47 24.5 72t67.5 25h18q42 0 66 -25.5t24 -71.5v-144q0 -45 -23.5 -71t-65.5 -26h-19q-41 0 -66.5 25t-25.5 72zM331 744h74
l-268 -744h-74zM134 510v141q0 23 -21 23q-18 0 -18 -23v-141q0 -23 18 -23q21 0 21 23zM350 72q20 0 20 23v141q0 23 -20 23q-18 0 -18 -23v-141q0 -23 18 -23z" />
    <glyph glyph-name="ampersand" unicode="&#x26;" horiz-adv-x="425" 
d="M13 194v37q0 116 89 193q-45 100 -45 175v26q0 55 29.5 90.5t90.5 35.5h20q66 0 89.5 -34.5t23.5 -96.5v-11q0 -56 -18.5 -95.5t-75.5 -93.5l88 -202q7 56 7 229h99q-3 -121 -12 -197.5t-34 -139.5q22 -22 59 -28l-29 -100q-58 10 -90 42q-33 -33 -92 -33h-18
q-87 0 -134 53t-47 150zM213 87q23 0 40 12l-2 6l-112 239q-17 -40 -17 -94v-15q0 -148 91 -148zM156 618v-14q0 -46 28 -112q19 28 25 51.5t6 59.5v16q0 23 -6 33.5t-23 10.5q-30 0 -30 -45z" />
    <glyph glyph-name="quotesingle" unicode="'" horiz-adv-x="118" 
d="M101 744v-175h-84v175h84z" />
    <glyph glyph-name="parenleft" unicode="(" horiz-adv-x="207" 
d="M31 344q0 261 107 464h67q-70 -192 -70 -461q0 -247 73 -478h-67q-110 214 -110 475z" />
    <glyph glyph-name="parenright" unicode=")" horiz-adv-x="207" 
d="M72 347q0 269 -70 461h67q107 -203 107 -464t-110 -475h-67q73 231 73 478z" />
    <glyph glyph-name="asterisk" unicode="*" horiz-adv-x="237" 
d="M145 679l50 38l31 -55l-58 -24l58 -27l-32 -54l-50 39l7 -65h-65l7 65l-50 -39l-32 54l57 27l-57 24l31 55l50 -38l-6 65h65z" />
    <glyph glyph-name="plus" unicode="+" horiz-adv-x="337" 
d="M123 135v125h-107v85h107v126h91v-126h107v-85h-107v-125h-91z" />
    <glyph glyph-name="comma" unicode="," horiz-adv-x="137" 
d="M94 -90h-56q16 40 21 90h-43v128h105v-94q0 -72 -27 -124z" />
    <glyph glyph-name="hyphen" unicode="-" horiz-adv-x="173" 
d="M16 347h141v-98h-141v98z" />
    <glyph glyph-name="period" unicode="." horiz-adv-x="137" 
d="M121 128v-128h-105v128h105z" />
    <glyph glyph-name="slash" unicode="/" horiz-adv-x="209" 
d="M205 808l-128 -939h-84l128 939h84z" />
    <glyph glyph-name="zero" unicode="0" horiz-adv-x="341" 
d="M320 582v-436q0 -69 -36.5 -112t-102.5 -43h-25q-135 0 -135 155v434q0 84 33 127.5t108 43.5h21q75 0 106 -44t31 -125zM205 154v432q0 30 -7.5 42.5t-27.5 12.5q-19 0 -26.5 -13t-7.5 -42v-432q0 -50 33 -50q36 0 36 50z" />
    <glyph glyph-name="one" unicode="1" horiz-adv-x="224" 
d="M84 570h-76v92q50 3 70.5 20t28.5 62h91v-744h-114v570z" />
    <glyph glyph-name="two" unicode="2" horiz-adv-x="330" 
d="M163 643q-16 0 -22 -9t-6 -30v-127h-108v136q0 60 29 99t94 39h23q138 0 138 -138v-37q0 -71 -11 -109.5t-55 -105.5q-12 -18 -72 -102q-46 -66 -58.5 -96t-12.5 -57h100v143h114v-249h-308v56q0 73 16.5 125.5t70.5 145.5l65 115q15 27 22.5 47.5t8.5 32t1 34.5v48
q0 39 -29 39z" />
    <glyph glyph-name="three" unicode="3" horiz-adv-x="327" 
d="M129 520h-105v94q0 54 27.5 95.5t89.5 41.5h28q67 0 100 -37t33 -102v-85q0 -94 -47 -117q28 -10 41 -30t13 -59v-183q0 -68 -35.5 -107.5t-95.5 -39.5h-31q-68 0 -99.5 35t-31.5 93v151h112v-122q0 -44 33 -44q31 0 31 44v155q0 22 -5.5 30t-24.5 8h-61v116h53
q20 0 26 8t6 34v104q0 23 -6.5 32t-22.5 9q-15 0 -21.5 -8.5t-6.5 -31.5v-84z" />
    <glyph glyph-name="four" unicode="4" horiz-adv-x="346" 
d="M161 282v198q-28 -90 -68 -198h68zM7 180v93q98 258 167 474h98v-465h69v-102h-69v-180h-111v180h-154z" />
    <glyph glyph-name="five" unicode="5" horiz-adv-x="329" 
d="M137 333h-111v411h278v-112h-167v-167q36 73 91 73h4q41 0 60 -25.5t19 -62.5v-319q0 -59 -34 -99.5t-102 -40.5h-21q-77 0 -107.5 38.5t-30.5 89.5v153h116v-131q0 -43 30 -43q28 0 28 43v237q0 44 -26 44q-27 0 -27 -44v-45z" />
    <glyph glyph-name="six" unicode="6" horiz-adv-x="336" 
d="M170 98q33 0 33 47v181q0 46 -33 46t-33 -44v-183q0 -47 33 -47zM233 475h4q42 0 62 -27t20 -61v-247q0 -65 -33.5 -107t-104.5 -42h-21q-71 0 -105 40.5t-34 103.5v470q0 146 132 146h20q67 0 99.5 -31.5t32.5 -85.5v-110h-115v85q0 36 -27 36t-27 -36v-201q44 67 97 67
z" />
    <glyph glyph-name="seven" unicode="7" horiz-adv-x="306" 
d="M15 744h280v-109l-41 -237q-33 -198 -33 -314v-84h-137v73q0 101 54 274q70 238 70 295h-86v-118h-107v220z" />
    <glyph glyph-name="eight" unicode="8" horiz-adv-x="329" 
d="M195 137v158q0 43 -31 43q-17 0 -23.5 -9.5t-6.5 -33.5v-158q0 -37 31 -37q30 0 30 37zM193 490v120q0 13 -1.5 20.5t-8 14t-19.5 6.5t-19.5 -6.5t-7.5 -14t-1 -20.5v-119q0 -38 29 -38q28 0 28 37zM305 620v-112q0 -65 -48 -96q56 -32 56 -104v-179q0 -61 -34.5 -99.5
t-104.5 -38.5h-21q-70 0 -103.5 39t-33.5 101v177q0 68 52 104q-45 36 -45 96v116q0 53 30 90t99 37h20q67 0 100 -35.5t33 -95.5z" />
    <glyph glyph-name="nine" unicode="9" horiz-adv-x="336" 
d="M104 267h-3q-38 0 -61 32.5t-23 71.5v240q0 63 32.5 101.5t105.5 38.5h23q137 0 137 -140v-490q0 -59 -33 -94.5t-97 -35.5h-25q-130 0 -130 129v98h117v-84q0 -38 28 -38q25 0 25 38v199q-44 -66 -96 -66zM166 644q-33 0 -33 -46v-181q0 -47 33 -47q34 0 34 45v183
q0 46 -34 46z" />
    <glyph glyph-name="colon" unicode=":" horiz-adv-x="141" 
d="M123 128v-128h-105v128h105zM123 427v-128h-105v128h105z" />
    <glyph glyph-name="semicolon" unicode=";" horiz-adv-x="141" 
d="M96 -90h-56q16 40 21 90h-43v128h105v-94q0 -72 -27 -124zM123 427v-128h-105v128h105z" />
    <glyph glyph-name="less" unicode="&#x3c;" horiz-adv-x="283" 
d="M10 265v76l260 104v-82l-162 -61l162 -60v-81z" />
    <glyph glyph-name="equal" unicode="=" horiz-adv-x="334" 
d="M18 287h298v-76h-298v76zM18 394h298v-76h-298v76z" />
    <glyph glyph-name="greater" unicode="&#x3e;" horiz-adv-x="283" 
d="M13 363v82l260 -104v-76l-260 -104v81l161 61z" />
    <glyph glyph-name="question" unicode="?" horiz-adv-x="305" 
d="M183 153h-91v120q0 49 6 72t29 62l29 49q15 24 19 43.5t4 53.5v54q0 22 -6 30.5t-23 8.5t-22 -8.5t-5 -30.5v-120h-108v120q0 71 26 108.5t98 37.5h22q74 0 103.5 -35t29.5 -104v-74q0 -68 -45 -134l-33 -46q-21 -32 -27 -53.5t-6 -66.5v-87zM190 128v-128h-104v128h104z
" />
    <glyph glyph-name="at" unicode="@" horiz-adv-x="544" 
d="M435 27l47 -57q-11 -16 -25.5 -31.5t-39.5 -34.5t-60.5 -31t-76.5 -12h-7q-40 0 -72 7.5t-68 32t-60 66t-40 116t-16 174.5v90q0 378 262 378h12q123 0 179.5 -76.5t56.5 -233.5v-90q0 -154 -33 -220.5t-98 -66.5h-2q-74 0 -90 62q-21 -33 -39.5 -47.5t-44.5 -14.5h-6
q-30 0 -52 28t-20 80l13 309q3 36 21 61.5t51 25.5h5q39 0 70 -51l2 47h106l-21 -410q0 -18 13 -18q47 0 47 213v93q0 128 -38.5 182t-119.5 54h-12q-89 0 -135 -73.5t-46 -233.5v-87q0 -86 13 -148.5t30.5 -94.5t44 -51t45.5 -23t42 -4h7q52 0 94 29t61 61zM286 155l13 268
q2 32 -20 32q-18 0 -20 -32l-13 -268q-2 -32 18 -32t22 32z" />
    <glyph glyph-name="A" unicode="A" horiz-adv-x="320" 
d="M212 0l-15 140h-83l-14 -140h-101l91 744h134l97 -744h-109zM155 526l-29 -275h59z" />
    <glyph glyph-name="B" unicode="B" horiz-adv-x="345" 
d="M23 0v744h178q66 0 92.5 -31t26.5 -90v-114q0 -82 -56 -103q65 -25 65 -109v-161q0 -63 -29.5 -99.5t-90.5 -36.5h-186zM170 339h-34v-234h34q26 0 35 12t9 38v136q0 25 -9 36.5t-35 11.5zM170 643h-34v-193h34q39 0 39 52v94q0 25 -8.5 36t-30.5 11z" />
    <glyph glyph-name="C" unicode="C" horiz-adv-x="336" 
d="M208 151v173h111v-172q0 -161 -135 -161h-25q-139 0 -139 157v454q0 64 32 106.5t103 42.5h26q44 0 73.5 -13t42.5 -38t17.5 -48.5t4.5 -55.5v-133h-111v131q0 49 -38 49q-20 0 -27.5 -11.5t-7.5 -37.5v-442q0 -51 36 -51q37 0 37 50z" />
    <glyph glyph-name="D" unicode="D" horiz-adv-x="344" 
d="M23 0v744h173q69 0 98 -36.5t29 -106.5v-453q0 -148 -127 -148h-173zM136 643v-535h27q25 0 34.5 13.5t9.5 44.5v419q0 32 -9 45t-30 13h-32z" />
    <glyph glyph-name="E" unicode="E" horiz-adv-x="296" 
d="M23 744h257v-108h-144v-195h113v-113h-113v-215h150v-113h-263v744z" />
    <glyph glyph-name="F" unicode="F" horiz-adv-x="290" 
d="M23 0v744h257v-108h-144v-196h114v-113h-114v-327h-113z" />
    <glyph glyph-name="G" unicode="G" horiz-adv-x="341" 
d="M135 -10h-7q-49 0 -78.5 38.5t-29.5 97.5v465q0 160 139 160h22q44 0 72 -13t41 -38.5t17.5 -51.5t4.5 -64v-76h-110v84q0 51 -36 51q-35 0 -35 -51v-435q0 -53 37 -53q42 0 42 48v186h-51v114h158v-452h-64q-12 49 -19 73q-8 -26 -36.5 -54.5t-66.5 -28.5z" />
    <glyph glyph-name="H" unicode="H" horiz-adv-x="349" 
d="M136 327v-327h-113v744h113v-298h77v298h113v-744h-113v327h-77z" />
    <glyph glyph-name="I" unicode="I" horiz-adv-x="159" 
d="M136 744v-744h-113v744h113z" />
    <glyph glyph-name="J" unicode="J" horiz-adv-x="319" 
d="M15 328h111v-183q0 -41 27 -41h4q26 0 26 41v599h115v-608q0 -71 -33.5 -106.5t-94.5 -35.5h-31q-124 0 -124 135v199z" />
    <glyph glyph-name="K" unicode="K" 
d="M136 323v-323h-113v744h113v-298l89 298h110l-105 -346l116 -398h-116z" />
    <glyph glyph-name="L" unicode="L" horiz-adv-x="284" 
d="M23 744h113v-629h138v-115h-251v744z" />
    <glyph glyph-name="M" unicode="M" horiz-adv-x="435" 
d="M23 0v744h145l54 -393l55 393h135v-744h-106v481l-68 -481h-45l-69 481v-481h-101z" />
    <glyph glyph-name="N" unicode="N" horiz-adv-x="348" 
d="M23 744h102l97 -399v399h103v-744h-92l-108 428v-428h-102v744z" />
    <glyph glyph-name="O" unicode="O" horiz-adv-x="349" 
d="M329 581v-415q0 -175 -144 -175h-19q-146 0 -146 175v414q0 171 145 171h19q78 0 111.5 -44t33.5 -126zM214 158v428q0 57 -39 57q-40 0 -40 -57v-428q0 -57 41 -57q38 0 38 57z" />
    <glyph glyph-name="P" unicode="P" horiz-adv-x="333" 
d="M202 309h-66v-309h-113v744h179q61 0 88.5 -28.5t27.5 -94.5v-176q0 -136 -116 -136zM136 643v-227h29q24 0 31.5 13.5t7.5 40.5v122q0 25 -8 38t-31 13h-29z" />
    <glyph glyph-name="Q" unicode="Q" horiz-adv-x="349" 
d="M329 581v-415q0 -151 -106 -171l52 -150h-135v148q-120 15 -120 173v414q0 171 145 171h19q78 0 111.5 -44t33.5 -126zM214 158v428q0 57 -39 57q-40 0 -40 -57v-428q0 -57 41 -57q38 0 38 57z" />
    <glyph glyph-name="R" unicode="R" horiz-adv-x="339" 
d="M136 643v-205h30q41 0 41 53v104q0 26 -8 37t-33 11h-30zM136 332v-332h-113v744h183q58 0 85.5 -26.5t27.5 -88.5v-132q0 -75 -49 -95q49 -22 49 -81v-261q0 -31 11 -55v-5h-112q-11 18 -11 61v224q0 26 -8 36.5t-34 10.5h-29z" />
    <glyph glyph-name="S" unicode="S" horiz-adv-x="333" 
d="M159 751h21q69 0 99 -31t30 -98v-122h-109v107q0 44 -32 44q-19 0 -26 -12t-7 -40v-14q0 -32 9 -55t37 -59l72 -93q39 -51 53 -88.5t14 -99.5v-24q0 -174 -146 -174h-22q-138 0 -138 141v149h112v-130q0 -52 37 -52q20 0 28.5 14.5t8.5 49.5v17q0 41 -8 63t-38 62l-72 92
q-35 46 -48.5 86.5t-13.5 97.5v24q0 145 139 145z" />
    <glyph glyph-name="T" unicode="T" horiz-adv-x="320" 
d="M9 744h302v-108h-95v-636h-112v636h-95v108z" />
    <glyph glyph-name="U" unicode="U" horiz-adv-x="345" 
d="M21 162v582h115v-589q0 -53 36 -53q37 0 37 53v589h115v-582q0 -171 -142 -171h-20q-141 0 -141 171z" />
    <glyph glyph-name="V" unicode="V" horiz-adv-x="327" 
d="M95 0l-94 744h115l51 -512l52 512h107l-94 -744h-137z" />
    <glyph glyph-name="W" unicode="W" horiz-adv-x="531" 
d="M216 744h105l51 -482l52 482h106l-95 -744h-121l-47 433l-48 -433h-125l-93 744h114l51 -481z" />
    <glyph glyph-name="X" unicode="X" 
d="M97 398l-84 346h115l48 -235l46 235h110l-85 -346l96 -398h-117l-56 269l-57 -269h-114z" />
    <glyph glyph-name="Y" unicode="Y" horiz-adv-x="306" 
d="M310 744l-99 -435v-309h-113v310l-102 434h110l52 -278l50 278h102z" />
    <glyph glyph-name="Z" unicode="Z" horiz-adv-x="305" 
d="M18 744h271v-98l-163 -537h171v-109h-289v101l161 537h-151v106z" />
    <glyph glyph-name="bracketleft" unicode="[" horiz-adv-x="192" 
d="M186 808v-80h-54v-778h54v-80h-146v938h146z" />
    <glyph glyph-name="backslash" unicode="\" horiz-adv-x="209" 
d="M132 -131l-128 939h84l127 -939h-83z" />
    <glyph glyph-name="bracketright" unicode="]" horiz-adv-x="193" 
d="M6 -130v80h54v778h-54l1 80h146l-1 -938h-146z" />
    <glyph glyph-name="asciicircum" unicode="^" horiz-adv-x="221" 
d="M150 744l69 -305h-77l-33 161l-31 -161h-76l69 305h79z" />
    <glyph glyph-name="underscore" unicode="_" horiz-adv-x="313" 
d="M5 -104v84h303v-84h-303z" />
    <glyph glyph-name="grave" unicode="`" 
d="M235 567h-89l-39 130h91z" />
    <glyph glyph-name="a" unicode="a" horiz-adv-x="310" 
d="M15 81v126q0 41 11 65.5t40 42.5q11 7 30 17t39 19.5t24 11.5q9 6 11 9t2 14v34q0 20 -6 27.5t-20 7.5h-2q-15 0 -21 -7.5t-6 -26.5v-57h-96v76q0 102 113 102h20q71 0 96 -28.5t25 -77.5v-320q0 -10 3 -13.5t14 -3.5h19v-99h-102q-35 0 -35 61q-36 -64 -88 -64h-3
q-31 0 -49.5 25t-18.5 59zM172 133v139q-26 -15 -38 -27q-14 -14 -14 -43v-74q0 -35 25 -35q27 0 27 40z" />
    <glyph glyph-name="b" unicode="b" horiz-adv-x="312" 
d="M20 744h107v-266q43 63 89 63h3q35 0 55 -26t20 -66v-334q0 -51 -25.5 -85t-71.5 -34h-2q-59 0 -94 76q-11 -38 -13 -72h-68v744zM127 400v-264q0 -41 30 -41q28 0 28 40v265q0 41 -29 41t-29 -41z" />
    <glyph glyph-name="c" unicode="c" horiz-adv-x="297" 
d="M179 241h103v-121q0 -52 -29.5 -90.5t-91.5 -38.5h-20q-61 0 -92.5 36.5t-31.5 93.5v293q0 132 128 132h19q118 0 118 -117v-96h-103v73q0 24 -5 34.5t-22 10.5t-22 -10.5t-5 -33.5v-275q0 -41 26 -41q28 0 28 40v110z" />
    <glyph glyph-name="d" unicode="d" horiz-adv-x="311" 
d="M184 744h107v-744h-107v61q-8 -23 -29.5 -44.5t-53.5 -21.5h-1q-36 0 -58.5 31.5t-22.5 82.5v328q0 43 19.5 73.5t57.5 30.5h2q10 0 19 -2t17 -6.5t14 -8.5t12 -11.5t9 -11t8.5 -11.5t6.5 -9v263zM184 142v255q0 48 -30 48q-28 0 -28 -43v-266q0 -43 28 -43q30 0 30 49z
" />
    <glyph glyph-name="e" unicode="e" horiz-adv-x="295" 
d="M139 545h20q120 0 120 -134v-155h-159v-124q0 -40 29 -40q27 0 27 39v89h103v-94q0 -136 -125 -136h-19q-56 0 -87 34t-31 101v291q0 58 30 93.5t92 35.5zM120 412v-68h59v68q0 43 -29 43q-13 0 -20 -6t-8.5 -14.5t-1.5 -22.5z" />
    <glyph glyph-name="f" unicode="f" horiz-adv-x="256" 
d="M247 744v-99h-48q-14 0 -18 -5.5t-4 -20.5v-81h70v-102h-70v-436h-107v436h-64v102h64v137q0 27 17.5 48t58.5 21h101z" />
    <glyph glyph-name="g" unicode="g" horiz-adv-x="312" 
d="M185 -73v137q-32 -69 -88 -69q-33 0 -55.5 28t-22.5 72v322q0 124 79 124q54 0 89 -65v62h105v-625q0 -108 -126 -108h-24q-119 0 -119 92v78h103v-48q0 -31 27 -31h4q16 0 22 7.5t6 23.5zM185 135v272q0 39 -30 39q-28 0 -28 -39v-273q0 -40 29 -40t29 41z" />
    <glyph glyph-name="h" unicode="h" horiz-adv-x="313" 
d="M20 0v744h107v-267q38 64 89 64h5q39 0 55.5 -25t16.5 -58v-458h-108v403q0 40 -28 40q-30 0 -30 -44v-399h-107z" />
    <glyph glyph-name="i" unicode="i" horiz-adv-x="147" 
d="M127 538v-538h-107v538h107zM127 682v-115h-107v115h107z" />
    <glyph glyph-name="j" unicode="j" horiz-adv-x="148" 
d="M128 682v-115h-107v115h107zM-50 -86h50q21 0 21 24v600h107v-648q0 -78 -69 -78h-109v102z" />
    <glyph glyph-name="k" unicode="k" horiz-adv-x="318" 
d="M127 342l83 196h107l-101 -230l108 -308h-111l-86 249v-249h-107v744h107v-402z" />
    <glyph glyph-name="l" unicode="l" horiz-adv-x="147" 
d="M127 744v-744h-107v744h107z" />
    <glyph glyph-name="m" unicode="m" horiz-adv-x="471" 
d="M20 0v538h105v-61q40 64 88 64h4q57 0 70 -63q37 63 91 63h5q68 0 68 -81v-460h-107v399q0 23 -5.5 33.5t-21.5 10.5q-26 0 -28 -36v-407h-107v399q0 23 -5.5 33.5t-22.5 10.5q-16 0 -21.5 -10t-5.5 -34v-399h-107z" />
    <glyph glyph-name="n" unicode="n" horiz-adv-x="313" 
d="M20 0v538h105v-63q37 66 91 66h5q37 0 54.5 -25.5t17.5 -57.5v-458h-108v403q0 40 -28 40q-30 0 -30 -44v-399h-107z" />
    <glyph glyph-name="o" unicode="o" horiz-adv-x="310" 
d="M17 130v277q0 67 33.5 103t94.5 36h20q61 0 94.5 -35t33.5 -100v-281q0 -57 -34.5 -98t-93.5 -41h-20q-65 0 -96.5 39.5t-31.5 99.5zM125 406v-271q0 -42 30 -42t30 42v271q0 41 -30 41t-30 -41z" />
    <glyph glyph-name="p" unicode="p" horiz-adv-x="313" 
d="M20 538h107v-58q38 61 87 61h1q39 0 59 -28t20 -73v-338q0 -51 -23.5 -78.5t-58.5 -27.5h-2q-41 0 -83 51v-235h-107v726zM127 407v-279q0 -20 8.5 -30.5t21.5 -10.5q28 0 28 39v281q0 39 -28 39q-30 0 -30 -39z" />
    <glyph glyph-name="q" unicode="q" horiz-adv-x="313" 
d="M228 538h65v-726h-107v249q-9 -21 -31.5 -42.5t-54.5 -21.5h-2q-37 0 -58 33.5t-21 83.5v305q0 50 22 86t68 36h2q61 0 101 -85q12 35 16 82zM186 135v262q0 44 -32 44q-27 0 -27 -43v-268q0 -40 30 -40q29 0 29 45z" />
    <glyph glyph-name="r" unicode="r" horiz-adv-x="280" 
d="M125 538v-68q32 71 82 71h4q56 0 56 -61v-195h-104v120q0 19 -3 26t-15 7t-15 -7.5t-3 -25.5v-405h-107v538h105z" />
    <glyph glyph-name="s" unicode="s" horiz-adv-x="278" 
d="M262 449v-81h-96v64q0 30 -24 30q-23 0 -23 -33v-9q0 -19 5 -30.5t20 -29.5l65 -78q36 -43 48 -74.5t12 -73.5v-14q0 -54 -30 -91.5t-91 -37.5h-21q-60 0 -88 30t-28 80v97h100v-77q0 -21 6 -29t21 -8q25 0 25 37v9q0 44 -29 77l-63 72q-53 60 -53 139v15q0 53 28.5 83
t87.5 30h19q109 0 109 -97z" />
    <glyph glyph-name="t" unicode="t" horiz-adv-x="247" 
d="M237 0h-106q-64 0 -64 66v370h-61v102h61v177h107v-177h63v-102h-63v-308q0 -15 3.5 -20t17.5 -5h42v-103z" />
    <glyph glyph-name="u" unicode="u" horiz-adv-x="307" 
d="M287 538v-538h-103v64q-13 -20 -22 -31t-28 -23t-41 -12h-2q-31 0 -51 27.5t-20 63.5v449h107v-403q0 -36 25 -36q28 0 28 39v400h107z" />
    <glyph glyph-name="v" unicode="v" horiz-adv-x="282" 
d="M85 0l-86 538h104l41 -336l40 336h99l-83 -538h-115z" />
    <glyph glyph-name="w" unicode="w" horiz-adv-x="460" 
d="M193 0h-112l-82 538h107l40 -335l41 335h94l41 -335l40 335h99l-82 -538h-108l-39 306z" />
    <glyph glyph-name="x" unicode="x" horiz-adv-x="282" 
d="M75 287l-74 251h103l40 -160l36 160h95l-68 -249l77 -289h-100l-43 171l-46 -171h-97z" />
    <glyph glyph-name="y" unicode="y" horiz-adv-x="285" 
d="M83 16l-84 522h104l42 -329l40 329h102l-108 -646q-7 -41 -22.5 -60.5t-43.5 -19.5h-101v102h46q13 0 17 5.5t7 21.5l3 23q3 22 -2 52z" />
    <glyph glyph-name="z" unicode="z" horiz-adv-x="249" 
d="M18 538h215v-89l-124 -351h132v-98h-234v94l121 348h-110v96z" />
    <glyph glyph-name="braceleft" unicode="{" horiz-adv-x="200" 
d="M163 258q0 -27 -14 -131t-14 -128q0 -50 43 -50h16v-80h-32q-62 0 -93 28.5t-31 91.5q0 24 16.5 128t16.5 143q0 35 -27 35h-24v92h21q30 0 30 30q0 40 -16.5 148.5t-16.5 132.5q0 61 31.5 85.5t92.5 24.5h32v-80h-18q-41 0 -41 -46q0 -23 14 -125.5t14 -129.5
q0 -34 -9.5 -54.5t-36.5 -31.5q27 -11 36.5 -30.5t9.5 -52.5z" />
    <glyph glyph-name="bar" unicode="|" horiz-adv-x="171" 
d="M126 808v-939h-81v939h81z" />
    <glyph glyph-name="braceright" unicode="}" horiz-adv-x="200" 
d="M37 427q0 27 14 129.5t14 125.5q0 46 -40 46h-19v80h32q62 0 93 -24.5t31 -85.5q0 -24 -16 -132.5t-16 -148.5q0 -30 30 -30h20v-92h-24q-26 0 -26 -35q0 -39 16 -143t16 -128q0 -63 -31 -91.5t-93 -28.5h-32v80h16q25 0 34 12t9 38q0 24 -14 128t-14 131q0 33 9.5 52.5
t36.5 30.5q-27 11 -36.5 31.5t-9.5 54.5z" />
    <glyph glyph-name="asciitilde" unicode="~" horiz-adv-x="276" 
d="M130 351q-29 34 -36 34q-6 0 -6 -11v-70h-75v116q0 25 16 46t47 21q21 0 37 -10t37 -35q27 -33 32 -33q6 0 6 10v73h75v-118q0 -30 -17 -48.5t-44 -18.5q-35 0 -72 44z" />
    <glyph glyph-name="exclamdown" unicode="&#xa1;" horiz-adv-x="150" 
d="M21 410v128h102v-128h-102zM132 -206h-122l43 591h37z" />
    <glyph glyph-name="cent" unicode="&#xa2;" horiz-adv-x="305" 
d="M291 242v-122q0 -52 -28 -89.5t-88 -40.5v-65h-37v66q-63 3 -92 39.5t-29 85.5v294q0 131 121 135v64h37v-63q61 -2 88.5 -35t27.5 -85v-92h-95v77q0 32 -21 41v-364q19 10 19 38v116h97zM117 412v-286q0 -30 21 -39v365q-21 -9 -21 -40z" />
    <glyph glyph-name="sterling" unicode="&#xa3;" horiz-adv-x="388" 
d="M189 254q0 -55 -16 -89.5t-46 -64.5h139v148h107v-248h-365v61q78 63 78 152q0 36 -7 111h-71v92h62q-7 77 -7 132v41q0 79 29.5 120.5t106.5 41.5h27q125 0 125 -129v-127h-107v103q0 25 -6.5 36.5t-25.5 11.5q-20 0 -26.5 -11.5t-6.5 -36.5v-85q0 -35 2 -97h123v-92
h-117q2 -54 2 -70z" />
    <glyph glyph-name="yen" unicode="&#xa5;" horiz-adv-x="331" 
d="M222 230v-230h-113v230h-102v80h102v29h-102v79h89l-92 326h111l51 -253l51 253h101l-85 -326h91v-79h-102v-29h102v-80h-102z" />
    <glyph glyph-name="brokenbar" unicode="&#xa6;" horiz-adv-x="171" 
d="M126 341v-472h-81v472h81zM126 808v-425h-81v425h81z" />
    <glyph glyph-name="section" unicode="&#xa7;" horiz-adv-x="380" 
d="M368 270v-27q0 -91 -85 -106q30 -34 38.5 -56.5t8.5 -65.5v-75q0 -61 -34 -98t-101 -37h-26q-60 0 -92.5 34.5t-32.5 97.5v117h111v-104q0 -42 31 -42q27 0 27 44v39q0 39 -9 59.5t-42 51.5l-75 66q-46 38 -60.5 70.5t-14.5 83.5v39q0 82 85 96q-25 25 -33 55.5t-8 82.5
v27q0 56 31.5 92.5t101.5 36.5h25q69 0 97 -33t28 -100v-90h-110v81q0 25 -6.5 33.5t-23.5 8.5t-23 -10t-6 -32v-7q0 -43 8 -64.5t37 -45.5q7 -7 19 -17t28 -24l24 -21q55 -51 68.5 -80.5t13.5 -79.5zM207 346l-4 3q-4 3 -11 8.5t-13 10.5l-28 22q-30 -5 -30 -44v-17
q0 -28 8.5 -42.5t37.5 -38.5l9 -8q9 -6 21 -17l30 -24q28 6 28 57v7q0 26 -8.5 40.5t-39.5 42.5z" />
    <glyph glyph-name="dieresis" unicode="&#xa8;" 
d="M160 665v-98h-89v98h89zM273 665v-98h-89v98h89z" />
    <glyph glyph-name="copyright" unicode="&#xa9;" horiz-adv-x="495" 
d="M253 -11h-10q-223 0 -223 245v278q0 119 58 181t166 62h12q219 0 219 -243v-278q0 -124 -59 -184.5t-163 -60.5zM245 51h8q150 0 150 196v257q0 189 -148 189h-10q-83 0 -117 -49t-34 -140v-257q0 -196 151 -196zM251 197q19 0 19 28v115h92v-127q0 -47 -28 -75t-74 -28
h-19q-51 0 -78 30.5t-27 77.5v300q0 118 102 118h23q100 0 100 -110v-83h-93v76q0 30 -18 30q-19 0 -19 -31v-293q0 -28 20 -28z" />
    <glyph glyph-name="ordfeminine" unicode="&#xaa;" horiz-adv-x="186" 
d="M167 685v-154q0 -9 8 -9h11v-63h-60q-21 0 -22 37q-19 -40 -52 -40h-1q-20 0 -31.5 15.5t-11.5 38.5v54q0 26 9 39.5t30 25.5l49 25q7 4 7 12v8q0 18 -14 18h-1q-14 0 -14 -18v-19h-62v30q0 29 14 46t55 17h12q44 0 59 -16t15 -47zM103 536v63q-10 -5 -19 -13
q-9 -9 -9 -27v-25q0 -19 13 -19q15 0 15 21z" />
    <glyph glyph-name="guillemotleft" unicode="&#xab;" horiz-adv-x="249" 
d="M91 286l48 -163h-78l-47 136v54l47 134h78zM198 286l42 -163h-79l-46 163l46 161h80z" />
    <glyph glyph-name="registered" unicode="&#xae;" horiz-adv-x="267" 
d="M138 403h-6q-55 0 -87 34t-32 93v97q0 55 31.5 89t87.5 34h7q54 0 84.5 -33.5t30.5 -89.5v-97q0 -57 -32.5 -92t-83.5 -35zM133 438h5q76 0 76 99v84q0 94 -75 94h-6q-44 -1 -62.5 -25t-18.5 -73v-80q0 -99 81 -99zM126 564v-94h-45v219h68q38 0 38 -39v-34
q0 -22 -18 -29q18 -5 18 -27v-65q0 -16 4 -21v-4h-44q-3 6 -3 20v61q0 9 -1 11t-9 2h-8zM126 654v-54h9q9 0 9 13v29q0 12 -9 12h-9z" />
    <glyph glyph-name="macron" unicode="&#xaf;" 
d="M85 579v77h172v-77h-172z" />
    <glyph glyph-name="degree" unicode="&#xb0;" horiz-adv-x="209" 
d="M6 650q0 42 28 69t71 27t70.5 -26.5t27.5 -69.5q0 -44 -27.5 -70.5t-70.5 -26.5t-71 26.5t-28 70.5zM67 650q0 -17 10 -27.5t27 -10.5t27 10.5t10 27.5t-10 27.5t-27 10.5t-27 -10.5t-10 -27.5z" />
    <glyph glyph-name="two.sup" unicode="&#xb2;" horiz-adv-x="206" 
d="M197 405h-190v38q0 27 14 52t62 85q17 20 22.5 33.5t5.5 36.5v19q0 20 -15 20t-15 -19v-60h-68v62q0 38 17 58t59 20h15q83 0 83 -76v-21q0 -35 -12 -59t-44 -58q-42 -44 -48.5 -52.5t-6.5 -18.5h56v56h65v-116z" />
    <glyph glyph-name="three.sup" unicode="&#xb3;" horiz-adv-x="199" 
d="M80 629h-67v37q0 43 17.5 63.5t60.5 20.5h12q42 0 60 -19t18 -61v-28q0 -37 -25 -52q31 -16 31 -49v-64q0 -79 -81 -79h-14q-80 0 -80 75v54h70v-49q0 -20 15 -20q13 0 13 20v49q0 12 -3 16t-13 4h-33v64h31q10 0 14 4t4 16v38q0 22 -15 22t-15 -22v-40z" />
    <glyph glyph-name="acute" unicode="&#xb4;" 
d="M107 567l38 130h90l-40 -130h-88z" />
    <glyph glyph-name="paragraph" unicode="&#xb6;" horiz-adv-x="349" 
d="M118 744h227v-84h-37v-660h-76v660h-34v-660h-75v341h-5q-55 0 -79 27t-24 87v182q0 55 24.5 81t78.5 26z" />
    <glyph glyph-name="periodcentered" unicode="&#xb7;" horiz-adv-x="137" 
d="M121 381v-128h-105v128h105z" />
    <glyph glyph-name="cedilla" unicode="&#xb8;" 
d="M153 -188h-55v60h38q24 0 24 18q0 19 -24 19h-23v91h55v-40q77 0 77 -71v-3q0 -37 -25.5 -55.5t-66.5 -18.5z" />
    <glyph glyph-name="one.sup" unicode="&#xb9;" horiz-adv-x="141" 
d="M51 647h-44v56q21 0 33.5 7t16 14t6.5 20h60v-339h-72v242z" />
    <glyph glyph-name="ordmasculine" unicode="&#xba;" horiz-adv-x="195" 
d="M105 456h-16q-38 0 -57.5 22.5t-19.5 62.5v120q0 87 77 87h16q37 0 57.5 -21.5t20.5 -62.5v-123q0 -39 -20 -62t-58 -23zM81 668v-127q0 -21 16 -21t16 21v127q0 21 -16 21t-16 -21z" />
    <glyph glyph-name="guillemotright" unicode="&#xbb;" horiz-adv-x="249" 
d="M109 123l50 163l-50 161h80l46 -136v-52l-48 -136h-78zM8 123l43 163l-43 161h79l47 -161l-47 -163h-79z" />
    <glyph glyph-name="onequarter" unicode="&#xbc;" horiz-adv-x="354" 
d="M51 647h-44v56q21 0 33.5 7t16 14t6.5 20h60v-339h-72v242zM262 744h73l-252 -744h-74zM160 63v47q53 130 89 230h69v-215h29v-62h-29v-63h-69v63h-89zM215 125h34v96q-10 -43 -34 -96z" />
    <glyph glyph-name="onehalf" unicode="&#xbd;" horiz-adv-x="399" 
d="M262 744h73l-252 -744h-74zM51 647h-44v56q21 0 33.5 7t16 14t6.5 20h60v-339h-72v242zM390 0h-190v38q0 27 14 52t62 85q17 20 22.5 33.5t5.5 36.5v19q0 20 -15 20t-15 -19v-60h-68v62q0 38 17 58t59 20h15q83 0 83 -76v-21q0 -36 -12 -59.5t-44 -57.5
q-42 -44 -48.5 -52.5t-6.5 -18.5h56v56h65v-116z" />
    <glyph glyph-name="threequarters" unicode="&#xbe;" horiz-adv-x="400" 
d="M308 744h73l-252 -744h-74zM80 629h-67v37q0 43 17.5 63.5t60.5 20.5h12q42 0 60 -19t18 -61v-28q0 -37 -25 -52q31 -16 31 -49v-64q0 -79 -81 -79h-14q-80 0 -80 75v54h70v-49q0 -20 15 -20q13 0 13 20v49q0 12 -3 16t-13 4h-33v64h31q10 0 14 4t4 16v38q0 22 -15 22
t-15 -22v-40zM206 63v47q53 130 89 230h69v-215h29v-62h-29v-63h-69v63h-89zM261 125h34v96q-10 -43 -34 -96z" />
    <glyph glyph-name="questiondown" unicode="&#xbf;" horiz-adv-x="296" 
d="M118 385h89v-120q0 -50 -5.5 -73t-28.5 -61l-29 -49q-22 -36 -22 -97v-54q0 -22 5.5 -30.5t22.5 -8.5t22 8.5t5 30.5v120h106v-120q0 -71 -26 -108.5t-96 -37.5h-22q-72 0 -101.5 35t-29.5 104v74q0 68 45 134l32 46q21 32 27 53.5t6 66.5v87zM111 410v128h102v-128h-102
z" />
    <glyph glyph-name="Agrave" unicode="&#xc0;" horiz-adv-x="320" 
d="M212 0l-15 140h-83l-14 -140h-101l91 744h134l97 -744h-109zM155 526l-29 -275h59zM204 773h-92l-44 109h94z" />
    <glyph glyph-name="Aacute" unicode="&#xc1;" horiz-adv-x="320" 
d="M212 0l-15 140h-83l-14 -140h-101l91 744h134l97 -744h-109zM155 526l-29 -275h59zM111 773l42 109h94l-44 -109h-92z" />
    <glyph glyph-name="Acircumflex" unicode="&#xc2;" horiz-adv-x="320" 
d="M212 0l-15 140h-83l-14 -140h-101l91 744h134l97 -744h-109zM155 526l-29 -275h59zM201 882l63 -109h-81l-27 48l-27 -48h-80l63 109h89z" />
    <glyph glyph-name="Atilde" unicode="&#xc3;" horiz-adv-x="320" 
d="M212 0l-15 140h-83l-14 -140h-101l91 744h134l97 -744h-109zM155 526l-29 -275h59zM254 878v-46q0 -57 -42 -57h-1q-21 0 -57 17q-20 9 -23 9q-7 0 -7 -9v-19h-64v47q0 56 43 56h1q22 0 54 -16q19 -11 26 -11q6 0 6 9v20h64z" />
    <glyph glyph-name="Adieresis" unicode="&#xc4;" horiz-adv-x="320" 
d="M212 0l-15 140h-83l-14 -140h-101l91 744h134l97 -744h-109zM155 526l-29 -275h59zM143 872v-99h-90v99h90zM259 872v-99h-90v99h90z" />
    <glyph glyph-name="Aring" unicode="&#xc5;" horiz-adv-x="320" 
d="M212 0l-15 140h-83l-14 -140h-101l91 744h134l97 -744h-109zM155 526l-29 -275h59zM157 813q14 0 22.5 9t8.5 24q0 14 -8.5 23.5t-22.5 9.5t-22.5 -9.5t-8.5 -23.5q0 -15 8.5 -24t22.5 -9zM236 847q0 -35 -22 -58t-57 -23t-57.5 23t-22.5 58q0 33 23 56t57 23
q35 0 57 -22.5t22 -56.5z" />
    <glyph glyph-name="AE" unicode="&#xc6;" horiz-adv-x="486" 
d="M476 0h-260v144h-86l-26 -144h-108l141 744h332v-108h-140v-195h110v-113h-110v-215h147v-113zM150 254h66v366z" />
    <glyph glyph-name="Ccedilla" unicode="&#xc7;" horiz-adv-x="336" 
d="M208 151v173h111v-172q0 -161 -135 -161h-25q-139 0 -139 157v454q0 64 32 106.5t103 42.5h26q44 0 73.5 -13t42.5 -38t17.5 -48.5t4.5 -55.5v-133h-111v131q0 49 -38 49q-20 0 -27.5 -11.5t-7.5 -37.5v-442q0 -51 36 -51q37 0 37 50zM154 -188h-55v60h38q24 0 24 18
q0 19 -24 19h-23v91h55v-40q77 0 77 -71v-3q0 -37 -25.5 -55.5t-66.5 -18.5z" />
    <glyph glyph-name="Egrave" unicode="&#xc8;" horiz-adv-x="296" 
d="M23 744h257v-108h-144v-195h113v-113h-113v-215h150v-113h-263v744zM204 773h-92l-44 109h94z" />
    <glyph glyph-name="Eacute" unicode="&#xc9;" horiz-adv-x="296" 
d="M23 744h257v-108h-144v-195h113v-113h-113v-215h150v-113h-263v744zM108 773l42 109h94l-44 -109h-92z" />
    <glyph glyph-name="Ecircumflex" unicode="&#xca;" horiz-adv-x="296" 
d="M23 744h257v-108h-144v-195h113v-113h-113v-215h150v-113h-263v744zM198 882l63 -109h-81l-27 48l-27 -48h-80l63 109h89z" />
    <glyph glyph-name="Edieresis" unicode="&#xcb;" horiz-adv-x="296" 
d="M23 744h257v-108h-144v-195h113v-113h-113v-215h150v-113h-263v744zM140 872v-99h-90v99h90zM256 872v-99h-90v99h90z" />
    <glyph glyph-name="Igrave" unicode="&#xcc;" horiz-adv-x="159" 
d="M136 744v-744h-113v744h113zM125 773h-92l-44 109h94z" />
    <glyph glyph-name="Iacute" unicode="&#xcd;" horiz-adv-x="159" 
d="M136 744v-744h-113v744h113zM34 773l42 109h94l-44 -109h-92z" />
    <glyph glyph-name="Icircumflex" unicode="&#xce;" horiz-adv-x="159" 
d="M136 744v-744h-113v744h113zM124 882l63 -109h-81l-27 48l-27 -48h-80l63 109h89z" />
    <glyph glyph-name="Idieresis" unicode="&#xcf;" horiz-adv-x="159" 
d="M136 744v-744h-113v744h113zM66 872v-99h-90v99h90zM182 872v-99h-90v99h90z" />
    <glyph glyph-name="Eth" unicode="&#xd0;" horiz-adv-x="346" 
d="M25 430v314h173q69 0 98 -36.5t29 -106.5v-453q0 -148 -127 -148h-173v335h-27v95h27zM138 335v-227h27q25 0 34.5 13.5t9.5 44.5v419q0 32 -9 45t-30 13h-32v-213h46v-95h-46z" />
    <glyph glyph-name="Ntilde" unicode="&#xd1;" horiz-adv-x="348" 
d="M23 744h102l97 -399v399h103v-744h-92l-108 428v-428h-102v744zM276 878v-46q0 -57 -42 -57h-1q-21 0 -57 17q-20 9 -23 9q-7 0 -7 -9v-19h-64v47q0 56 43 56h1q22 0 54 -16q19 -11 26 -11q6 0 6 9v20h64z" />
    <glyph glyph-name="Ograve" unicode="&#xd2;" horiz-adv-x="349" 
d="M329 581v-415q0 -175 -144 -175h-19q-146 0 -146 175v414q0 171 145 171h19q78 0 111.5 -44t33.5 -126zM214 158v428q0 57 -39 57q-40 0 -40 -57v-428q0 -57 41 -57q38 0 38 57zM220 773h-92l-44 109h94z" />
    <glyph glyph-name="Oacute" unicode="&#xd3;" horiz-adv-x="349" 
d="M329 581v-415q0 -175 -144 -175h-19q-146 0 -146 175v414q0 171 145 171h19q78 0 111.5 -44t33.5 -126zM214 158v428q0 57 -39 57q-40 0 -40 -57v-428q0 -57 41 -57q38 0 38 57zM129 773l42 109h94l-44 -109h-92z" />
    <glyph glyph-name="Ocircumflex" unicode="&#xd4;" horiz-adv-x="349" 
d="M329 581v-415q0 -175 -144 -175h-19q-146 0 -146 175v414q0 171 145 171h19q78 0 111.5 -44t33.5 -126zM214 158v428q0 57 -39 57q-40 0 -40 -57v-428q0 -57 41 -57q38 0 38 57zM219 882l63 -109h-81l-27 48l-27 -48h-80l63 109h89z" />
    <glyph glyph-name="Otilde" unicode="&#xd5;" horiz-adv-x="349" 
d="M329 581v-415q0 -175 -144 -175h-19q-146 0 -146 175v414q0 171 145 171h19q78 0 111.5 -44t33.5 -126zM214 158v428q0 57 -39 57q-40 0 -40 -57v-428q0 -57 41 -57q38 0 38 57zM272 878v-46q0 -57 -42 -57h-1q-21 0 -57 17q-20 9 -23 9q-7 0 -7 -9v-19h-64v47
q0 56 43 56h1q22 0 54 -16q19 -11 26 -11q6 0 6 9v20h64z" />
    <glyph glyph-name="Odieresis" unicode="&#xd6;" horiz-adv-x="349" 
d="M329 581v-415q0 -175 -144 -175h-19q-146 0 -146 175v414q0 171 145 171h19q78 0 111.5 -44t33.5 -126zM214 158v428q0 57 -39 57q-40 0 -40 -57v-428q0 -57 41 -57q38 0 38 57zM161 872v-99h-90v99h90zM277 872v-99h-90v99h90z" />
    <glyph glyph-name="multiply" unicode="&#xd7;" horiz-adv-x="301" 
d="M237 153l-88 89l-85 -89l-58 54l87 92l-88 90l60 63l87 -90l85 90l59 -56l-88 -92l88 -91z" />
    <glyph glyph-name="Oslash" unicode="&#xd8;" horiz-adv-x="349" 
d="M330 582v-430q0 -71 -38 -116.5t-105 -45.5h-21q-58 0 -88 35l-11 -25h-68l31 81q-11 26 -11 71v429q0 170 144 170h23q52 0 87 -31l9 24h68l-31 -83q11 -36 11 -79zM175 641q-25 0 -34.5 -13.5t-9.5 -42.5v-257l88 256v2q0 55 -44 55zM175 105q44 0 44 49v261l-88 -254
v-8q0 -48 44 -48z" />
    <glyph glyph-name="Ugrave" unicode="&#xd9;" horiz-adv-x="345" 
d="M21 162v582h115v-589q0 -53 36 -53q37 0 37 53v589h115v-582q0 -171 -142 -171h-20q-141 0 -141 171zM220 773h-92l-44 109h94z" />
    <glyph glyph-name="Uacute" unicode="&#xda;" horiz-adv-x="345" 
d="M21 162v582h115v-589q0 -53 36 -53q37 0 37 53v589h115v-582q0 -171 -142 -171h-20q-141 0 -141 171zM127 773l42 109h94l-44 -109h-92z" />
    <glyph glyph-name="Ucircumflex" unicode="&#xdb;" horiz-adv-x="345" 
d="M21 162v582h115v-589q0 -53 36 -53q37 0 37 53v589h115v-582q0 -171 -142 -171h-20q-141 0 -141 171zM217 882l63 -109h-81l-27 48l-27 -48h-80l63 109h89z" />
    <glyph glyph-name="Udieresis" unicode="&#xdc;" horiz-adv-x="345" 
d="M21 162v582h115v-589q0 -53 36 -53q37 0 37 53v589h115v-582q0 -171 -142 -171h-20q-141 0 -141 171zM159 872v-99h-90v99h90zM275 872v-99h-90v99h90z" />
    <glyph glyph-name="Yacute" unicode="&#xdd;" horiz-adv-x="306" 
d="M310 744l-99 -435v-309h-113v310l-102 434h110l52 -278l50 278h102zM111 773l42 109h94l-44 -109h-92z" />
    <glyph glyph-name="Thorn" unicode="&#xde;" horiz-adv-x="338" 
d="M208 191h-72v-191h-113v744h113v-152h71q58 0 87.5 -29t29.5 -95v-141q0 -136 -116 -136zM136 493v-203h34q24 0 31.5 13.5t7.5 40.5v98q0 26 -7.5 38.5t-31.5 12.5h-34z" />
    <glyph glyph-name="germandbls" unicode="&#xdf;" horiz-adv-x="312" 
d="M245 442q24 -9 38 -28t14 -63v-225q0 -67 -24.5 -96.5t-94.5 -29.5h-32v107h19q23 0 23 29v192q0 15 -4.5 22t-18.5 7h-19v105h17q12 0 17 7t5 27v117q0 19 -5.5 28.5t-21.5 9.5h-5q-26 0 -26 -37v-614h-107v624q0 58 31 90t90 32h28q63 0 91 -30t28 -97v-102
q0 -54 -43 -75z" />
    <glyph glyph-name="agrave" unicode="&#xe0;" horiz-adv-x="310" 
d="M15 81v126q0 41 11 65.5t40 42.5q11 7 30 17t39 19.5t24 11.5q9 6 11 9t2 14v34q0 20 -6 27.5t-20 7.5h-2q-15 0 -21 -7.5t-6 -26.5v-57h-96v76q0 102 113 102h20q71 0 96 -28.5t25 -77.5v-320q0 -10 3 -13.5t14 -3.5h19v-99h-102q-35 0 -35 61q-36 -64 -88 -64h-3
q-31 0 -49.5 25t-18.5 59zM172 133v139q-26 -15 -38 -27q-14 -14 -14 -43v-74q0 -35 25 -35q27 0 27 40zM188 567h-89l-39 130h91z" />
    <glyph glyph-name="aacute" unicode="&#xe1;" horiz-adv-x="310" 
d="M15 81v126q0 41 11 65.5t40 42.5q11 7 30 17t39 19.5t24 11.5q9 6 11 9t2 14v34q0 20 -6 27.5t-20 7.5h-2q-15 0 -21 -7.5t-6 -26.5v-57h-96v76q0 102 113 102h20q71 0 96 -28.5t25 -77.5v-320q0 -10 3 -13.5t14 -3.5h19v-99h-102q-35 0 -35 61q-36 -64 -88 -64h-3
q-31 0 -49.5 25t-18.5 59zM172 133v139q-26 -15 -38 -27q-14 -14 -14 -43v-74q0 -35 25 -35q27 0 27 40zM101 567l38 130h90l-40 -130h-88z" />
    <glyph glyph-name="acircumflex" unicode="&#xe2;" horiz-adv-x="310" 
d="M15 81v126q0 41 11 65.5t40 42.5q11 7 30 17t39 19.5t24 11.5q9 6 11 9t2 14v34q0 20 -6 27.5t-20 7.5h-2q-15 0 -21 -7.5t-6 -26.5v-57h-96v76q0 102 113 102h20q71 0 96 -28.5t25 -77.5v-320q0 -10 3 -13.5t14 -3.5h19v-99h-102q-35 0 -35 61q-36 -64 -88 -64h-3
q-31 0 -49.5 25t-18.5 59zM172 133v139q-26 -15 -38 -27q-14 -14 -14 -43v-74q0 -35 25 -35q27 0 27 40zM191 698l57 -131h-79l-25 65l-25 -65h-77l57 131h92z" />
    <glyph glyph-name="atilde" unicode="&#xe3;" horiz-adv-x="310" 
d="M15 81v126q0 41 11 65.5t40 42.5q11 7 30 17t39 19.5t24 11.5q9 6 11 9t2 14v34q0 20 -6 27.5t-20 7.5h-2q-15 0 -21 -7.5t-6 -26.5v-57h-96v76q0 102 113 102h20q71 0 96 -28.5t25 -77.5v-320q0 -10 3 -13.5t14 -3.5h19v-99h-102q-35 0 -35 61q-36 -64 -88 -64h-3
q-31 0 -49.5 25t-18.5 59zM172 133v139q-26 -15 -38 -27q-14 -14 -14 -43v-74q0 -35 25 -35q27 0 27 40zM178 672h64v-46q0 -57 -42 -57h-1q-21 0 -57 17q-20 9 -23 9q-7 0 -7 -9v-19h-64v47q0 56 43 56h1q22 0 54 -16q19 -11 26 -11q6 0 6 9v20z" />
    <glyph glyph-name="adieresis" unicode="&#xe4;" horiz-adv-x="310" 
d="M15 81v126q0 41 11 65.5t40 42.5q11 7 30 17t39 19.5t24 11.5q9 6 11 9t2 14v34q0 20 -6 27.5t-20 7.5h-2q-15 0 -21 -7.5t-6 -26.5v-57h-96v76q0 102 113 102h20q71 0 96 -28.5t25 -77.5v-320q0 -10 3 -13.5t14 -3.5h19v-99h-102q-35 0 -35 61q-36 -64 -88 -64h-3
q-31 0 -49.5 25t-18.5 59zM172 133v139q-26 -15 -38 -27q-14 -14 -14 -43v-74q0 -35 25 -35q27 0 27 40zM133 665v-98h-89v98h89zM246 665v-98h-89v98h89z" />
    <glyph glyph-name="aring" unicode="&#xe5;" horiz-adv-x="310" 
d="M15 81v126q0 41 11 65.5t40 42.5q11 7 30 17t39 19.5t24 11.5q9 6 11 9t2 14v34q0 20 -6 27.5t-20 7.5h-2q-15 0 -21 -7.5t-6 -26.5v-57h-96v76q0 102 113 102h20q71 0 96 -28.5t25 -77.5v-320q0 -10 3 -13.5t14 -3.5h19v-99h-102q-35 0 -35 61q-36 -64 -88 -64h-3
q-31 0 -49.5 25t-18.5 59zM172 133v139q-26 -15 -38 -27q-14 -14 -14 -43v-74q0 -35 25 -35q27 0 27 40zM145 563q-35 0 -57.5 23t-22.5 58q0 33 23 56t57 23q35 0 57 -22.5t22 -56.5q0 -35 -22 -58t-57 -23zM145 610q14 0 22.5 9t8.5 24q0 14 -8.5 23.5t-22.5 9.5
t-22.5 -9.5t-8.5 -23.5q0 -15 8.5 -24t22.5 -9z" />
    <glyph glyph-name="ae" unicode="&#xe6;" horiz-adv-x="450" 
d="M181 59q-35 -62 -93 -62h-3q-32 0 -51 25t-19 59v104q0 41 11 65.5t40 42.5q11 7 30 17t39 19.5t24 11.5q9 6 11 9t2 14v58q0 20 -6 27.5t-20 7.5h-2q-15 0 -21 -7.5t-6 -26.5v-81h-96v100q0 102 113 102h18q54 0 75 -29q19 31 73 31h17q61 0 89 -33.5t28 -100.5v-159
h-159v-120q0 -40 29 -40q27 0 27 39v85h103v-89q0 -71 -34 -104t-87 -33h-17q-94 0 -115 68zM172 133v117q-26 -15 -38 -27q-14 -14 -14 -43v-52q0 -35 25 -35q27 0 27 40zM275 414v-67h59v67q0 42 -29 42q-13 0 -20 -6t-8.5 -14.5t-1.5 -21.5z" />
    <glyph glyph-name="ccedilla" unicode="&#xe7;" horiz-adv-x="297" 
d="M179 241h103v-121q0 -52 -29.5 -90.5t-91.5 -38.5h-20q-61 0 -92.5 36.5t-31.5 93.5v293q0 132 128 132h19q118 0 118 -117v-96h-103v73q0 24 -5 34.5t-22 10.5t-22 -10.5t-5 -33.5v-275q0 -41 26 -41q28 0 28 40v110zM135 -188h-55v60h38q24 0 24 18q0 19 -24 19h-23v91
h55v-40q77 0 77 -71v-3q0 -37 -25.5 -55.5t-66.5 -18.5z" />
    <glyph glyph-name="egrave" unicode="&#xe8;" horiz-adv-x="295" 
d="M139 545h20q120 0 120 -134v-155h-159v-124q0 -40 29 -40q27 0 27 39v89h103v-94q0 -136 -125 -136h-19q-56 0 -87 34t-31 101v291q0 58 30 93.5t92 35.5zM120 412v-68h59v68q0 43 -29 43q-13 0 -20 -6t-8.5 -14.5t-1.5 -22.5zM193 567h-89l-39 130h91z" />
    <glyph glyph-name="eacute" unicode="&#xe9;" horiz-adv-x="295" 
d="M139 545h20q120 0 120 -134v-155h-159v-124q0 -40 29 -40q27 0 27 39v89h103v-94q0 -136 -125 -136h-19q-56 0 -87 34t-31 101v291q0 58 30 93.5t92 35.5zM120 412v-68h59v68q0 43 -29 43q-13 0 -20 -6t-8.5 -14.5t-1.5 -22.5zM105 567l38 130h90l-40 -130h-88z" />
    <glyph glyph-name="ecircumflex" unicode="&#xea;" horiz-adv-x="295" 
d="M139 545h20q120 0 120 -134v-155h-159v-124q0 -40 29 -40q27 0 27 39v89h103v-94q0 -136 -125 -136h-19q-56 0 -87 34t-31 101v291q0 58 30 93.5t92 35.5zM120 412v-68h59v68q0 43 -29 43q-13 0 -20 -6t-8.5 -14.5t-1.5 -22.5zM195 698l57 -131h-79l-25 65l-25 -65h-77
l57 131h92z" />
    <glyph glyph-name="edieresis" unicode="&#xeb;" horiz-adv-x="295" 
d="M139 545h20q120 0 120 -134v-155h-159v-124q0 -40 29 -40q27 0 27 39v89h103v-94q0 -136 -125 -136h-19q-56 0 -87 34t-31 101v291q0 58 30 93.5t92 35.5zM120 412v-68h59v68q0 43 -29 43q-13 0 -20 -6t-8.5 -14.5t-1.5 -22.5zM137 665v-98h-89v98h89zM250 665v-98h-89
v98h89z" />
    <glyph glyph-name="igrave" unicode="&#xec;" horiz-adv-x="147" 
d="M127 538v-538h-107v538h107zM116 567h-89l-39 130h91z" />
    <glyph glyph-name="iacute" unicode="&#xed;" horiz-adv-x="147" 
d="M127 538v-538h-107v538h107zM31 567l38 130h90l-40 -130h-88z" />
    <glyph glyph-name="icircumflex" unicode="&#xee;" horiz-adv-x="147" 
d="M120 696l48 -131h-73l-21 65l-22 -65h-71l47 131h92zM127 538v-538h-107v538h107z" />
    <glyph glyph-name="idieresis" unicode="&#xef;" horiz-adv-x="147" 
d="M63 665v-98h-83v98h83zM167 665v-98h-83v98h83zM127 538v-538h-107v538h107z" />
    <glyph glyph-name="eth" unicode="&#xf0;" horiz-adv-x="314" 
d="M53 552v77l49 25l-42 90h109l22 -45l71 37v-78l-41 -21l35 -71q17 -36 23.5 -54t12 -48.5t5.5 -70.5v-263q0 -62 -33.5 -100.5t-94.5 -38.5h-23q-64 0 -95.5 39.5t-31.5 100.5v307q0 49 20.5 75.5t54.5 26.5h2q44 0 81 -48l-46 99zM187 135v272q0 42 -30 42t-30 -42v-272
q0 -42 30 -42t30 42z" />
    <glyph glyph-name="ntilde" unicode="&#xf1;" horiz-adv-x="313" 
d="M20 0v538h105v-63q37 66 91 66h5q37 0 54.5 -25.5t17.5 -57.5v-458h-108v403q0 40 -28 40q-30 0 -30 -44v-399h-107zM189 672h64v-46q0 -57 -42 -57h-1q-21 0 -57 17q-20 9 -23 9q-7 0 -7 -9v-19h-64v47q0 56 43 56h1q22 0 54 -16q19 -11 26 -11q6 0 6 9v20z" />
    <glyph glyph-name="ograve" unicode="&#xf2;" horiz-adv-x="310" 
d="M17 130v277q0 67 33.5 103t94.5 36h20q61 0 94.5 -35t33.5 -100v-281q0 -57 -34.5 -98t-93.5 -41h-20q-65 0 -96.5 39.5t-31.5 99.5zM125 406v-271q0 -42 30 -42t30 42v271q0 41 -30 41t-30 -41zM198 567h-89l-39 130h91z" />
    <glyph glyph-name="oacute" unicode="&#xf3;" horiz-adv-x="310" 
d="M17 130v277q0 67 33.5 103t94.5 36h20q61 0 94.5 -35t33.5 -100v-281q0 -57 -34.5 -98t-93.5 -41h-20q-65 0 -96.5 39.5t-31.5 99.5zM125 406v-271q0 -42 30 -42t30 42v271q0 41 -30 41t-30 -41zM110 567l38 130h90l-40 -130h-88z" />
    <glyph glyph-name="ocircumflex" unicode="&#xf4;" horiz-adv-x="310" 
d="M17 130v277q0 67 33.5 103t94.5 36h20q61 0 94.5 -35t33.5 -100v-281q0 -57 -34.5 -98t-93.5 -41h-20q-65 0 -96.5 39.5t-31.5 99.5zM125 406v-271q0 -42 30 -42t30 42v271q0 41 -30 41t-30 -41zM201 698l57 -131h-79l-25 65l-25 -65h-77l57 131h92z" />
    <glyph glyph-name="otilde" unicode="&#xf5;" horiz-adv-x="310" 
d="M17 130v277q0 67 33.5 103t94.5 36h20q61 0 94.5 -35t33.5 -100v-281q0 -57 -34.5 -98t-93.5 -41h-20q-65 0 -96.5 39.5t-31.5 99.5zM125 406v-271q0 -42 30 -42t30 42v271q0 41 -30 41t-30 -41zM188 672h64v-46q0 -57 -42 -57h-1q-21 0 -57 17q-20 9 -23 9q-7 0 -7 -9
v-19h-64v47q0 56 43 56h1q22 0 54 -16q19 -11 26 -11q6 0 6 9v20z" />
    <glyph glyph-name="odieresis" unicode="&#xf6;" horiz-adv-x="310" 
d="M17 130v277q0 67 33.5 103t94.5 36h20q61 0 94.5 -35t33.5 -100v-281q0 -57 -34.5 -98t-93.5 -41h-20q-65 0 -96.5 39.5t-31.5 99.5zM125 406v-271q0 -42 30 -42t30 42v271q0 41 -30 41t-30 -41zM143 665v-98h-89v98h89zM256 665v-98h-89v98h89z" />
    <glyph glyph-name="divide" unicode="&#xf7;" horiz-adv-x="343" 
d="M16 345h311v-85h-311v85zM221 476v-97h-99v97h99zM221 222v-98h-99v98h99z" />
    <glyph glyph-name="oslash" unicode="&#xf8;" horiz-adv-x="306" 
d="M17 130v277q0 67 32.5 103t92.5 36h22q52 0 81 -29l10 21h61l-34 -75q7 -21 7 -52v-281q0 -58 -33 -98.5t-92 -40.5h-22q-52 0 -80 31l-10 -22h-61l34 74q-8 19 -8 56zM186 402v4q0 23 -7.5 32t-25.5 9q-33 0 -33 -41v-154zM153 93q33 0 33 42v146l-66 -147q0 -41 33 -41
z" />
    <glyph glyph-name="ugrave" unicode="&#xf9;" horiz-adv-x="307" 
d="M287 538v-538h-103v64q-13 -20 -22 -31t-28 -23t-41 -12h-2q-31 0 -51 27.5t-20 63.5v449h107v-403q0 -36 25 -36q28 0 28 39v400h107zM200 567h-89l-39 130h91z" />
    <glyph glyph-name="uacute" unicode="&#xfa;" horiz-adv-x="307" 
d="M287 538v-538h-103v64q-13 -20 -22 -31t-28 -23t-41 -12h-2q-31 0 -51 27.5t-20 63.5v449h107v-403q0 -36 25 -36q28 0 28 39v400h107zM108 567l38 130h90l-40 -130h-88z" />
    <glyph glyph-name="ucircumflex" unicode="&#xfb;" horiz-adv-x="307" 
d="M287 538v-538h-103v64q-13 -20 -22 -31t-28 -23t-41 -12h-2q-31 0 -51 27.5t-20 63.5v449h107v-403q0 -36 25 -36q28 0 28 39v400h107zM199 698l57 -131h-79l-25 65l-25 -65h-77l57 131h92z" />
    <glyph glyph-name="udieresis" unicode="&#xfc;" horiz-adv-x="307" 
d="M287 538v-538h-103v64q-13 -20 -22 -31t-28 -23t-41 -12h-2q-31 0 -51 27.5t-20 63.5v449h107v-403q0 -36 25 -36q28 0 28 39v400h107zM141 665v-98h-89v98h89zM254 665v-98h-89v98h89z" />
    <glyph glyph-name="yacute" unicode="&#xfd;" horiz-adv-x="285" 
d="M83 16l-84 522h104l42 -329l40 329h102l-108 -646q-7 -41 -22.5 -60.5t-43.5 -19.5h-101v102h46q13 0 17 5.5t7 21.5l3 23q3 22 -2 52zM101 567l38 130h90l-40 -130h-88z" />
    <glyph glyph-name="thorn" unicode="&#xfe;" horiz-adv-x="313" 
d="M20 744h107v-263q35 60 87 60h1q39 0 59 -28t20 -73v-338q0 -51 -23.5 -78.5t-58.5 -27.5h-2q-41 0 -83 51v-235h-107v932zM127 407v-279q0 -20 8.5 -30.5t21.5 -10.5q28 0 28 39v281q0 39 -28 39q-30 0 -30 -39z" />
    <glyph glyph-name="ydieresis" unicode="&#xff;" horiz-adv-x="285" 
d="M83 16l-84 522h104l42 -329l40 329h102l-108 -646q-7 -41 -22.5 -60.5t-43.5 -19.5h-101v102h46q13 0 17 5.5t7 21.5l3 23q3 22 -2 52zM132 665v-98h-89v98h89zM245 665v-98h-89v98h89z" />
    <glyph glyph-name="Amacron" unicode="&#x100;" horiz-adv-x="320" 
d="M212 0l-15 140h-83l-14 -140h-101l91 744h134l97 -744h-109zM155 526l-29 -275h59zM70 780v79h173v-79h-173z" />
    <glyph glyph-name="amacron" unicode="&#x101;" horiz-adv-x="310" 
d="M15 81v126q0 41 11 65.5t40 42.5q11 7 30 17t39 19.5t24 11.5q9 6 11 9t2 14v34q0 20 -6 27.5t-20 7.5h-2q-15 0 -21 -7.5t-6 -26.5v-57h-96v76q0 102 113 102h20q71 0 96 -28.5t25 -77.5v-320q0 -10 3 -13.5t14 -3.5h19v-99h-102q-35 0 -35 61q-36 -64 -88 -64h-3
q-31 0 -49.5 25t-18.5 59zM172 133v139q-26 -15 -38 -27q-14 -14 -14 -43v-74q0 -35 25 -35q27 0 27 40zM59 579v77h172v-77h-172z" />
    <glyph glyph-name="Abreve" unicode="&#x102;" horiz-adv-x="320" 
d="M212 0l-15 140h-83l-14 -140h-101l91 744h134l97 -744h-109zM155 526l-29 -275h59zM158 770h-3q-44 0 -71.5 25t-27.5 69v6h77v-4q0 -27 23 -27h1q24 0 24 27v4h76v-6q0 -44 -29 -69t-70 -25z" />
    <glyph glyph-name="abreve" unicode="&#x103;" horiz-adv-x="310" 
d="M15 81v126q0 41 11 65.5t40 42.5q11 7 30 17t39 19.5t24 11.5q9 6 11 9t2 14v34q0 20 -6 27.5t-20 7.5h-2q-15 0 -21 -7.5t-6 -26.5v-57h-96v76q0 102 113 102h20q71 0 96 -28.5t25 -77.5v-320q0 -10 3 -13.5t14 -3.5h19v-99h-102q-35 0 -35 61q-36 -64 -88 -64h-3
q-31 0 -49.5 25t-18.5 59zM172 133v139q-26 -15 -38 -27q-14 -14 -14 -43v-74q0 -35 25 -35q27 0 27 40zM146 565h-3q-47 0 -74 25.5t-27 77.5v4h78v-4q0 -34 24 -34h1q24 0 24 34v4h75v-4q0 -51 -27 -77t-71 -26z" />
    <glyph glyph-name="Aogonek" unicode="&#x104;" horiz-adv-x="320" 
d="M212 0l-15 140h-83l-14 -140h-101l91 744h134l97 -744h-109zM155 526l-29 -275h59zM199 -124v15q0 43 66 109h56q-25 -35 -34 -53t-9 -38v-4q0 -21 24 -21h19v-72h-50q-32 0 -52 16.5t-20 47.5z" />
    <glyph glyph-name="aogonek" unicode="&#x105;" horiz-adv-x="310" 
d="M15 81v126q0 41 11 65.5t40 42.5q11 7 30 17t39 19.5t24 11.5q9 6 11 9t2 14v34q0 20 -6 27.5t-20 7.5h-2q-15 0 -21 -7.5t-6 -26.5v-57h-96v76q0 102 113 102h20q71 0 96 -28.5t25 -77.5v-320q0 -10 3 -13.5t14 -3.5h19v-99h-102q-35 0 -35 61q-36 -64 -88 -64h-3
q-31 0 -49.5 25t-18.5 59zM172 133v139q-26 -15 -38 -27q-14 -14 -14 -43v-74q0 -35 25 -35q27 0 27 40zM189 -124v15q0 43 66 109h56q-25 -35 -34 -53t-9 -38v-4q0 -21 24 -21h19v-72h-50q-32 0 -52 16.5t-20 47.5z" />
    <glyph glyph-name="Cacute" unicode="&#x106;" horiz-adv-x="336" 
d="M208 151v173h111v-172q0 -161 -135 -161h-25q-139 0 -139 157v454q0 64 32 106.5t103 42.5h26q44 0 73.5 -13t42.5 -38t17.5 -48.5t4.5 -55.5v-133h-111v131q0 49 -38 49q-20 0 -27.5 -11.5t-7.5 -37.5v-442q0 -51 36 -51q37 0 37 50zM125 773l42 109h94l-44 -109h-92z
" />
    <glyph glyph-name="cacute" unicode="&#x107;" horiz-adv-x="297" 
d="M179 241h103v-121q0 -52 -29.5 -90.5t-91.5 -38.5h-20q-61 0 -92.5 36.5t-31.5 93.5v293q0 132 128 132h19q118 0 118 -117v-96h-103v73q0 24 -5 34.5t-22 10.5t-22 -10.5t-5 -33.5v-275q0 -41 26 -41q28 0 28 40v110zM108 567l38 130h90l-40 -130h-88z" />
    <glyph glyph-name="Ccircumflex" unicode="&#x108;" horiz-adv-x="336" 
d="M208 151v173h111v-172q0 -161 -135 -161h-25q-139 0 -139 157v454q0 64 32 106.5t103 42.5h26q44 0 73.5 -13t42.5 -38t17.5 -48.5t4.5 -55.5v-133h-111v131q0 49 -38 49q-20 0 -27.5 -11.5t-7.5 -37.5v-442q0 -51 36 -51q37 0 37 50zM216 882l63 -109h-81l-27 48
l-27 -48h-80l63 109h89z" />
    <glyph glyph-name="ccircumflex" unicode="&#x109;" horiz-adv-x="297" 
d="M179 241h103v-121q0 -52 -29.5 -90.5t-91.5 -38.5h-20q-61 0 -92.5 36.5t-31.5 93.5v293q0 132 128 132h19q118 0 118 -117v-96h-103v73q0 24 -5 34.5t-22 10.5t-22 -10.5t-5 -33.5v-275q0 -41 26 -41q28 0 28 40v110zM199 698l57 -131h-79l-25 65l-25 -65h-77l57 131h92
z" />
    <glyph glyph-name="Cdotaccent" unicode="&#x10a;" horiz-adv-x="336" 
d="M208 151v173h111v-172q0 -161 -135 -161h-25q-139 0 -139 157v454q0 64 32 106.5t103 42.5h26q44 0 73.5 -13t42.5 -38t17.5 -48.5t4.5 -55.5v-133h-111v131q0 49 -38 49q-20 0 -27.5 -11.5t-7.5 -37.5v-442q0 -51 36 -51q37 0 37 50zM224 888v-115h-107v115h107z" />
    <glyph glyph-name="cdotaccent" unicode="&#x10b;" horiz-adv-x="297" 
d="M179 241h103v-121q0 -52 -29.5 -90.5t-91.5 -38.5h-20q-61 0 -92.5 36.5t-31.5 93.5v293q0 132 128 132h19q118 0 118 -117v-96h-103v73q0 24 -5 34.5t-22 10.5t-22 -10.5t-5 -33.5v-275q0 -41 26 -41q28 0 28 40v110zM205 682v-115h-107v115h107z" />
    <glyph glyph-name="Ccaron" unicode="&#x10c;" horiz-adv-x="336" 
d="M208 151v173h111v-172q0 -161 -135 -161h-25q-139 0 -139 157v454q0 64 32 106.5t103 42.5h26q44 0 73.5 -13t42.5 -38t17.5 -48.5t4.5 -55.5v-133h-111v131q0 49 -38 49q-20 0 -27.5 -11.5t-7.5 -37.5v-442q0 -51 36 -51q37 0 37 50zM127 773l-63 109h81l27 -48l27 48
h80l-63 -109h-89z" />
    <glyph glyph-name="ccaron" unicode="&#x10d;" horiz-adv-x="297" 
d="M179 241h103v-121q0 -52 -29.5 -90.5t-91.5 -38.5h-20q-61 0 -92.5 36.5t-31.5 93.5v293q0 132 128 132h19q118 0 118 -117v-96h-103v73q0 24 -5 34.5t-22 10.5t-22 -10.5t-5 -33.5v-275q0 -41 26 -41q28 0 28 40v110zM106 567l-57 130h79l25 -64l25 64h77l-57 -130h-92z
" />
    <glyph glyph-name="Dcaron" unicode="&#x10e;" horiz-adv-x="344" 
d="M23 0v744h173q69 0 98 -36.5t29 -106.5v-453q0 -148 -127 -148h-173zM136 643v-535h27q25 0 34.5 13.5t9.5 44.5v419q0 32 -9 45t-30 13h-32zM112 773l-63 109h81l27 -48l27 48h80l-63 -109h-89z" />
    <glyph glyph-name="dcaron" unicode="&#x10f;" horiz-adv-x="311" 
d="M184 744h107v-744h-107v61q-8 -23 -29.5 -44.5t-53.5 -21.5h-1q-36 0 -58.5 31.5t-22.5 82.5v328q0 43 19.5 73.5t57.5 30.5h2q10 0 19 -2t17 -6.5t14 -8.5t12 -11.5t9 -11t8.5 -11.5t6.5 -9v263zM184 142v255q0 48 -30 48q-28 0 -28 -43v-266q0 -43 28 -43q30 0 30 49z
M309 600l7 144h81l-12 -144h-76z" />
    <glyph glyph-name="Dcroat" unicode="&#x110;" horiz-adv-x="346" 
d="M25 430v314h173q69 0 98 -36.5t29 -106.5v-453q0 -148 -127 -148h-173v335h-27v95h27zM138 335v-227h27q25 0 34.5 13.5t9.5 44.5v419q0 32 -9 45t-30 13h-32v-213h46v-95h-46z" />
    <glyph glyph-name="dcroat" unicode="&#x111;" horiz-adv-x="311" 
d="M106 592v71h223v-71h-223zM184 744h107v-744h-107v61q-8 -23 -29.5 -44.5t-53.5 -21.5h-1q-36 0 -58.5 31.5t-22.5 82.5v328q0 43 19.5 73.5t57.5 30.5h2q10 0 19 -2t17 -6.5t14 -8.5t12 -11.5t9 -11t8.5 -11.5t6.5 -9v263zM184 142v255q0 48 -30 48q-28 0 -28 -43v-266
q0 -43 28 -43q30 0 30 49z" />
    <glyph glyph-name="Emacron" unicode="&#x112;" horiz-adv-x="296" 
d="M23 744h257v-108h-144v-195h113v-113h-113v-215h150v-113h-263v744zM66 780v79h173v-79h-173z" />
    <glyph glyph-name="emacron" unicode="&#x113;" horiz-adv-x="295" 
d="M139 545h20q120 0 120 -134v-155h-159v-124q0 -40 29 -40q27 0 27 39v89h103v-94q0 -136 -125 -136h-19q-56 0 -87 34t-31 101v291q0 58 30 93.5t92 35.5zM120 412v-68h59v68q0 43 -29 43q-13 0 -20 -6t-8.5 -14.5t-1.5 -22.5zM64 579v77h172v-77h-172z" />
    <glyph glyph-name="Ebreve" unicode="&#x114;" horiz-adv-x="296" 
d="M23 744h257v-108h-144v-195h113v-113h-113v-215h150v-113h-263v744zM156 770h-3q-44 0 -71.5 25t-27.5 69v6h77v-4q0 -27 23 -27h1q24 0 24 27v4h76v-6q0 -44 -29 -69t-70 -25z" />
    <glyph glyph-name="ebreve" unicode="&#x115;" horiz-adv-x="295" 
d="M139 545h20q120 0 120 -134v-155h-159v-124q0 -40 29 -40q27 0 27 39v89h103v-94q0 -136 -125 -136h-19q-56 0 -87 34t-31 101v291q0 58 30 93.5t92 35.5zM120 412v-68h59v68q0 43 -29 43q-13 0 -20 -6t-8.5 -14.5t-1.5 -22.5zM151 565h-3q-47 0 -74 25.5t-27 77.5v4h78
v-4q0 -34 24 -34h1q24 0 24 34v4h75v-4q0 -51 -27 -77t-71 -26z" />
    <glyph glyph-name="Edotaccent" unicode="&#x116;" horiz-adv-x="296" 
d="M23 744h257v-108h-144v-195h113v-113h-113v-215h150v-113h-263v744zM207 888v-115h-107v115h107z" />
    <glyph glyph-name="edotaccent" unicode="&#x117;" horiz-adv-x="295" 
d="M139 545h20q120 0 120 -134v-155h-159v-124q0 -40 29 -40q27 0 27 39v89h103v-94q0 -136 -125 -136h-19q-56 0 -87 34t-31 101v291q0 58 30 93.5t92 35.5zM120 412v-68h59v68q0 43 -29 43q-13 0 -20 -6t-8.5 -14.5t-1.5 -22.5zM203 682v-115h-107v115h107z" />
    <glyph glyph-name="Eogonek" unicode="&#x118;" horiz-adv-x="296" 
d="M23 744h257v-108h-144v-195h113v-113h-113v-215h150v-113h-263v744zM123 -124v15q0 43 66 109h56q-25 -35 -34 -53t-9 -38v-4q0 -21 24 -21h19v-72h-50q-32 0 -52 16.5t-20 47.5z" />
    <glyph glyph-name="eogonek" unicode="&#x119;" horiz-adv-x="295" 
d="M228 -3q-42 -54 -42 -88v-4q0 -21 24 -21h19v-72h-50q-32 0 -52 16.5t-20 47.5v15q0 41 55 99h-8h-19q-56 0 -87 34t-31 101v291q0 58 30 93.5t92 35.5h20q120 0 120 -134v-155h-159v-124q0 -40 29 -40q27 0 27 39v89h103v-94q0 -18 -2.5 -34.5t-6 -27t-10 -22.5
t-10.5 -17l-12 -15t-10 -13zM120 412v-68h59v68q0 43 -29 43q-13 0 -20 -6t-8.5 -14.5t-1.5 -22.5z" />
    <glyph glyph-name="Ecaron" unicode="&#x11a;" horiz-adv-x="296" 
d="M23 744h257v-108h-144v-195h113v-113h-113v-215h150v-113h-263v744zM111 773l-63 109h81l27 -48l27 48h80l-63 -109h-89z" />
    <glyph glyph-name="ecaron" unicode="&#x11b;" horiz-adv-x="295" 
d="M139 545h20q120 0 120 -134v-155h-159v-124q0 -40 29 -40q27 0 27 39v89h103v-94q0 -136 -125 -136h-19q-56 0 -87 34t-31 101v291q0 58 30 93.5t92 35.5zM120 412v-68h59v68q0 43 -29 43q-13 0 -20 -6t-8.5 -14.5t-1.5 -22.5zM104 567l-57 130h79l25 -64l25 64h77
l-57 -130h-92z" />
    <glyph glyph-name="Gcircumflex" unicode="&#x11c;" horiz-adv-x="341" 
d="M135 -10h-7q-49 0 -78.5 38.5t-29.5 97.5v465q0 160 139 160h22q44 0 72 -13t41 -38.5t17.5 -51.5t4.5 -64v-76h-110v84q0 51 -36 51q-35 0 -35 -51v-435q0 -53 37 -53q42 0 42 48v186h-51v114h158v-452h-64q-12 49 -19 73q-8 -26 -36.5 -54.5t-66.5 -28.5zM216 882
l63 -109h-81l-27 48l-27 -48h-80l63 109h89z" />
    <glyph glyph-name="gcircumflex" unicode="&#x11d;" horiz-adv-x="312" 
d="M185 -73v137q-32 -69 -88 -69q-33 0 -55.5 28t-22.5 72v322q0 124 79 124q54 0 89 -65v62h105v-625q0 -108 -126 -108h-24q-119 0 -119 92v78h103v-48q0 -31 27 -31h4q16 0 22 7.5t6 23.5zM185 135v272q0 39 -30 39q-28 0 -28 -39v-273q0 -40 29 -40t29 41zM201 698
l57 -131h-79l-25 65l-25 -65h-77l57 131h92z" />
    <glyph glyph-name="Gbreve" unicode="&#x11e;" horiz-adv-x="341" 
d="M135 -10h-7q-49 0 -78.5 38.5t-29.5 97.5v465q0 160 139 160h22q44 0 72 -13t41 -38.5t17.5 -51.5t4.5 -64v-76h-110v84q0 51 -36 51q-35 0 -35 -51v-435q0 -53 37 -53q42 0 42 48v186h-51v114h158v-452h-64q-12 49 -19 73q-8 -26 -36.5 -54.5t-66.5 -28.5zM173 770h-3
q-44 0 -71.5 25t-27.5 69v6h77v-4q0 -27 23 -27h1q24 0 24 27v4h76v-6q0 -44 -29 -69t-70 -25z" />
    <glyph glyph-name="gbreve" unicode="&#x11f;" horiz-adv-x="312" 
d="M185 -73v137q-32 -69 -88 -69q-33 0 -55.5 28t-22.5 72v322q0 124 79 124q54 0 89 -65v62h105v-625q0 -108 -126 -108h-24q-119 0 -119 92v78h103v-48q0 -31 27 -31h4q16 0 22 7.5t6 23.5zM185 135v272q0 39 -30 39q-28 0 -28 -39v-273q0 -40 29 -40t29 41zM157 565h-3
q-47 0 -74 25.5t-27 77.5v4h78v-4q0 -34 24 -34h1q24 0 24 34v4h75v-4q0 -51 -27 -77t-71 -26z" />
    <glyph glyph-name="Gdotaccent" unicode="&#x120;" horiz-adv-x="341" 
d="M135 -10h-7q-49 0 -78.5 38.5t-29.5 97.5v465q0 160 139 160h22q44 0 72 -13t41 -38.5t17.5 -51.5t4.5 -64v-76h-110v84q0 51 -36 51q-35 0 -35 -51v-435q0 -53 37 -53q42 0 42 48v186h-51v114h158v-452h-64q-12 49 -19 73q-8 -26 -36.5 -54.5t-66.5 -28.5zM224 888v-115
h-107v115h107z" />
    <glyph glyph-name="gdotaccent" unicode="&#x121;" horiz-adv-x="312" 
d="M185 -73v137q-32 -69 -88 -69q-33 0 -55.5 28t-22.5 72v322q0 124 79 124q54 0 89 -65v62h105v-625q0 -108 -126 -108h-24q-119 0 -119 92v78h103v-48q0 -31 27 -31h4q16 0 22 7.5t6 23.5zM185 135v272q0 39 -30 39q-28 0 -28 -39v-273q0 -40 29 -40t29 41zM208 682v-115
h-107v115h107z" />
    <glyph glyph-name="uni0122" unicode="&#x122;" horiz-adv-x="341" 
d="M135 -10h-7q-49 0 -78.5 38.5t-29.5 97.5v465q0 160 139 160h22q44 0 72 -13t41 -38.5t17.5 -51.5t4.5 -64v-76h-110v84q0 51 -36 51q-35 0 -35 -51v-435q0 -53 37 -53q42 0 42 48v186h-51v114h158v-452h-64q-12 49 -19 73q-8 -26 -36.5 -54.5t-66.5 -28.5zM197 -196h-45
q12 31 13 65h-38v102h92v-64q0 -56 -22 -103z" />
    <glyph glyph-name="uni0123" unicode="&#x123;" horiz-adv-x="312" 
d="M185 -73v137q-32 -69 -88 -69q-33 0 -55.5 28t-22.5 72v322q0 124 79 124q54 0 89 -65v62h105v-625q0 -108 -126 -108h-24q-119 0 -119 92v78h103v-48q0 -31 27 -31h4q16 0 22 7.5t6 23.5zM185 135v272q0 39 -30 39q-28 0 -28 -39v-273q0 -40 29 -40t29 41zM127 734h49
q-13 -39 -13 -66h37v-101h-93v62q0 62 20 105z" />
    <glyph glyph-name="Hcircumflex" unicode="&#x124;" horiz-adv-x="349" 
d="M136 327v-327h-113v744h113v-298h77v298h113v-744h-113v327h-77zM219 882l63 -109h-81l-27 48l-27 -48h-80l63 109h89z" />
    <glyph glyph-name="hcircumflex" unicode="&#x125;" horiz-adv-x="313" 
d="M20 0v744h107v-267q38 64 89 64h5q39 0 55.5 -25t16.5 -58v-458h-108v403q0 40 -28 40q-30 0 -30 -44v-399h-107zM184 882l63 -109h-81l-27 48l-27 -48h-80l63 109h89z" />
    <glyph glyph-name="Hbar" unicode="&#x126;" horiz-adv-x="349" 
d="M-5 553v84h359v-84h-359zM136 327v-327h-113v744h113v-298h77v298h113v-744h-113v327h-77z" />
    <glyph glyph-name="hbar" unicode="&#x127;" horiz-adv-x="313" 
d="M-18 592v71h223v-71h-223zM20 0v744h107v-267q38 64 89 64h5q39 0 55.5 -25t16.5 -58v-458h-108v403q0 40 -28 40q-30 0 -30 -44v-399h-107z" />
    <glyph glyph-name="Itilde" unicode="&#x128;" horiz-adv-x="159" 
d="M136 744v-744h-113v744h113zM177 878v-46q0 -57 -42 -57h-1q-21 0 -57 17q-20 9 -23 9q-7 0 -7 -9v-19h-64v47q0 56 43 56h1q22 0 54 -16q19 -11 26 -11q6 0 6 9v20h64z" />
    <glyph glyph-name="itilde" unicode="&#x129;" horiz-adv-x="147" 
d="M108 668h61v-38q0 -28 -11.5 -44.5t-31.5 -16.5h-1q-20 0 -53 16q-17 7 -21 7q-8 0 -8 -11v-14h-61v38q0 29 12 45t32 16h1q17 0 49 -14q20 -9 26 -9t6 9v16zM127 538v-538h-107v538h107z" />
    <glyph glyph-name="Imacron" unicode="&#x12a;" horiz-adv-x="159" 
d="M136 744v-744h-113v744h113zM-7 780v79h173v-79h-173z" />
    <glyph glyph-name="imacron" unicode="&#x12b;" horiz-adv-x="147" 
d="M-5 579v78h157v-78h-157zM127 538v-538h-107v538h107z" />
    <glyph glyph-name="Ibreve" unicode="&#x12c;" horiz-adv-x="159" 
d="M136 744v-744h-113v744h113zM81 770h-3q-44 0 -71.5 25t-27.5 69v6h77v-4q0 -27 23 -27h1q24 0 24 27v4h76v-6q0 -44 -29 -69t-70 -25z" />
    <glyph glyph-name="ibreve" unicode="&#x12d;" horiz-adv-x="147" 
d="M75 565h-3q-45 0 -69 23t-24 65v19h76v-10q0 -27 18 -27h1q18 0 18 27v10h76v-19q0 -41 -25.5 -64.5t-67.5 -23.5zM127 538v-538h-107v538h107z" />
    <glyph glyph-name="Iogonek" unicode="&#x12e;" horiz-adv-x="159" 
d="M136 744v-744h-113v744h113zM14 -124v15q0 43 66 109h56q-25 -35 -34 -53t-9 -38v-4q0 -21 24 -21h19v-72h-50q-32 0 -52 16.5t-20 47.5z" />
    <glyph glyph-name="iogonek" unicode="&#x12f;" horiz-adv-x="147" 
d="M127 538v-538h-107v538h107zM127 682v-115h-107v115h107zM5 -124v15q0 43 66 109h56q-25 -35 -34 -53t-9 -38v-4q0 -21 24 -21h19v-72h-50q-32 0 -52 16.5t-20 47.5z" />
    <glyph glyph-name="Idotaccent" unicode="&#x130;" horiz-adv-x="159" 
d="M136 744v-744h-113v744h113zM132 888v-115h-107v115h107z" />
    <glyph glyph-name="dotlessi" unicode="&#x131;" horiz-adv-x="147" 
d="M127 538v-538h-107v538h107z" />
    <glyph glyph-name="IJ" unicode="&#x132;" horiz-adv-x="474" 
d="M136 744v-744h-113v744h113zM170 328h111v-183q0 -41 27 -41h4q26 0 26 41v599h115v-608q0 -71 -33.5 -106.5t-94.5 -35.5h-31q-124 0 -124 135v199z" />
    <glyph glyph-name="ij" unicode="&#x133;" horiz-adv-x="291" 
d="M127 538v-538h-107v538h107zM127 682v-115h-107v115h107zM271 682v-115h-107v115h107zM93 -86h50q21 0 21 24v600h107v-648q0 -78 -69 -78h-109v102z" />
    <glyph glyph-name="Jcircumflex" unicode="&#x134;" horiz-adv-x="319" 
d="M15 328h111v-183q0 -41 27 -41h4q26 0 26 41v599h115v-608q0 -71 -33.5 -106.5t-94.5 -35.5h-31q-124 0 -124 135v199zM283 882l63 -109h-81l-27 48l-27 -48h-80l63 109h89z" />
    <glyph glyph-name="jcircumflex" unicode="&#x135;" horiz-adv-x="148" 
d="M120 696l48 -131h-73l-21 65l-22 -65h-71l47 131h92zM-50 -86h50q21 0 21 24v600h107v-648q0 -78 -69 -78h-109v102z" />
    <glyph glyph-name="uni0136" unicode="&#x136;" 
d="M136 323v-323h-113v744h113v-298l89 298h110l-105 -346l116 -398h-116zM204 -196h-45q12 31 13 65h-38v102h92v-64q0 -56 -22 -103z" />
    <glyph glyph-name="uni0137" unicode="&#x137;" horiz-adv-x="318" 
d="M127 342l83 196h107l-101 -230l108 -308h-111l-86 249v-249h-107v744h107v-402zM194 -196h-45q12 31 13 65h-38v102h92v-64q0 -56 -22 -103z" />
    <glyph glyph-name="Lacute" unicode="&#x139;" horiz-adv-x="284" 
d="M23 744h113v-629h138v-115h-251v744zM34 773l42 109h94l-44 -109h-92z" />
    <glyph glyph-name="lacute" unicode="&#x13a;" horiz-adv-x="147" 
d="M127 744v-744h-107v744h107zM29 773l42 109h94l-44 -109h-92z" />
    <glyph glyph-name="uni013B" unicode="&#x13b;" horiz-adv-x="284" 
d="M23 744h113v-629h138v-115h-251v744zM174 -196h-45q12 31 13 65h-38v102h92v-64q0 -56 -22 -103z" />
    <glyph glyph-name="uni013C" unicode="&#x13c;" horiz-adv-x="147" 
d="M127 744v-744h-107v744h107zM99 -196h-45q12 31 13 65h-38v102h92v-64q0 -56 -22 -103z" />
    <glyph glyph-name="Lcaron" unicode="&#x13d;" horiz-adv-x="284" 
d="M154 600l7 144h81l-12 -144h-76zM23 744h113v-629h138v-115h-251v744z" />
    <glyph glyph-name="lcaron" unicode="&#x13e;" horiz-adv-x="147" 
d="M145 600l7 144h81l-12 -144h-76zM127 744v-744h-107v744h107z" />
    <glyph glyph-name="Ldot" unicode="&#x13f;" horiz-adv-x="283" 
d="M272 448v-127h-105v127h105zM23 744h113v-629h138v-115h-251v744z" />
    <glyph glyph-name="ldot" unicode="&#x140;" horiz-adv-x="261" 
d="M254 450v-128h-104v128h104zM127 744v-744h-107v744h107z" />
    <glyph glyph-name="Lslash" unicode="&#x141;" horiz-adv-x="297" 
d="M37 744h113v-311l96 70v-104l-96 -68v-216h138v-115h-251v252l-34 -24v99l34 24v393z" />
    <glyph glyph-name="lslash" unicode="&#x142;" horiz-adv-x="169" 
d="M138 426v-426h-107v349l-30 -21v95l30 21v300h107v-222l30 22v-96z" />
    <glyph glyph-name="Nacute" unicode="&#x143;" horiz-adv-x="348" 
d="M23 744h102l97 -399v399h103v-744h-92l-108 428v-428h-102v744zM126 773l42 109h94l-44 -109h-92z" />
    <glyph glyph-name="nacute" unicode="&#x144;" horiz-adv-x="313" 
d="M20 0v538h105v-63q37 66 91 66h5q37 0 54.5 -25.5t17.5 -57.5v-458h-108v403q0 40 -28 40q-30 0 -30 -44v-399h-107zM111 567l38 130h90l-40 -130h-88z" />
    <glyph glyph-name="uni0145" unicode="&#x145;" horiz-adv-x="348" 
d="M23 744h102l97 -399v399h103v-744h-92l-108 428v-428h-102v744zM202 -196h-45q12 31 13 65h-38v102h92v-64q0 -56 -22 -103z" />
    <glyph glyph-name="uni0146" unicode="&#x146;" horiz-adv-x="313" 
d="M20 0v538h105v-63q37 66 91 66h5q37 0 54.5 -25.5t17.5 -57.5v-458h-108v403q0 40 -28 40q-30 0 -30 -44v-399h-107zM182 -196h-45q12 31 13 65h-38v102h92v-64q0 -56 -22 -103z" />
    <glyph glyph-name="Ncaron" unicode="&#x147;" horiz-adv-x="348" 
d="M23 744h102l97 -399v399h103v-744h-92l-108 428v-428h-102v744zM133 773l-63 109h81l27 -48l27 48h80l-63 -109h-89z" />
    <glyph glyph-name="ncaron" unicode="&#x148;" horiz-adv-x="313" 
d="M20 0v538h105v-63q37 66 91 66h5q37 0 54.5 -25.5t17.5 -57.5v-458h-108v403q0 40 -28 40q-30 0 -30 -44v-399h-107zM111 567l-57 130h79l25 -64l25 64h77l-57 -130h-92z" />
    <glyph glyph-name="napostrophe" unicode="&#x149;" horiz-adv-x="388" 
d="M95 0v538h105v-63q37 66 91 66h5q37 0 54.5 -25.5t17.5 -57.5v-458h-108v403q0 40 -28 40q-30 0 -30 -44v-399h-107zM79 547h-55q13 36 18 85h-40v112h99v-82q0 -64 -22 -115z" />
    <glyph glyph-name="Eng" unicode="&#x14a;" horiz-adv-x="348" 
d="M229 -188h-58v102h26q14 0 20 6t6 22v58l-98 426v-426h-102v744h104l96 -421v421h102v-821q0 -61 -22 -86t-74 -25z" />
    <glyph glyph-name="eng" unicode="&#x14b;" horiz-adv-x="313" 
d="M185 -62v465q0 40 -28 40q-30 0 -30 -44v-399h-107v538h105v-63q15 27 39 46.5t52 19.5h5q37 0 54.5 -25.5t17.5 -57.5v-568q0 -78 -70 -78h-82v102h23q21 0 21 24z" />
    <glyph glyph-name="Omacron" unicode="&#x14c;" horiz-adv-x="349" 
d="M329 581v-415q0 -175 -144 -175h-19q-146 0 -146 175v414q0 171 145 171h19q78 0 111.5 -44t33.5 -126zM214 158v428q0 57 -39 57q-40 0 -40 -57v-428q0 -57 41 -57q38 0 38 57zM88 780v79h173v-79h-173z" />
    <glyph glyph-name="omacron" unicode="&#x14d;" horiz-adv-x="310" 
d="M17 130v277q0 67 33.5 103t94.5 36h20q61 0 94.5 -35t33.5 -100v-281q0 -57 -34.5 -98t-93.5 -41h-20q-65 0 -96.5 39.5t-31.5 99.5zM125 406v-271q0 -42 30 -42t30 42v271q0 41 -30 41t-30 -41zM69 579v77h172v-77h-172z" />
    <glyph glyph-name="Obreve" unicode="&#x14e;" horiz-adv-x="349" 
d="M329 581v-415q0 -175 -144 -175h-19q-146 0 -146 175v414q0 171 145 171h19q78 0 111.5 -44t33.5 -126zM214 158v428q0 57 -39 57q-40 0 -40 -57v-428q0 -57 41 -57q38 0 38 57zM176 770h-3q-44 0 -71.5 25t-27.5 69v6h77v-4q0 -27 23 -27h1q24 0 24 27v4h76v-6
q0 -44 -29 -69t-70 -25z" />
    <glyph glyph-name="obreve" unicode="&#x14f;" horiz-adv-x="310" 
d="M17 130v277q0 67 33.5 103t94.5 36h20q61 0 94.5 -35t33.5 -100v-281q0 -57 -34.5 -98t-93.5 -41h-20q-65 0 -96.5 39.5t-31.5 99.5zM125 406v-271q0 -42 30 -42t30 42v271q0 41 -30 41t-30 -41zM157 565h-3q-47 0 -74 25.5t-27 77.5v4h78v-4q0 -34 24 -34h1q24 0 24 34
v4h75v-4q0 -51 -27 -77t-71 -26z" />
    <glyph glyph-name="Ohungarumlaut" unicode="&#x150;" horiz-adv-x="349" 
d="M329 581v-415q0 -175 -144 -175h-19q-146 0 -146 175v414q0 171 145 171h19q78 0 111.5 -44t33.5 -126zM214 158v428q0 57 -39 57q-40 0 -40 -57v-428q0 -57 41 -57q38 0 38 57zM269 773h-75l29 108h78zM97 773l25 108h78l-28 -108h-75z" />
    <glyph glyph-name="ohungarumlaut" unicode="&#x151;" horiz-adv-x="310" 
d="M17 130v277q0 67 33.5 103t94.5 36h20q61 0 94.5 -35t33.5 -100v-281q0 -57 -34.5 -98t-93.5 -41h-20q-65 0 -96.5 39.5t-31.5 99.5zM125 406v-271q0 -42 30 -42t30 42v271q0 41 -30 41t-30 -41zM245 567h-74l27 127h76zM73 567l25 127h76l-27 -127h-74z" />
    <glyph glyph-name="OE" unicode="&#x152;" horiz-adv-x="486" 
d="M20 160v422q0 79 27 124t80 45h3q15 0 27.5 -3t20 -6.5t16 -11t11 -10.5t9 -12.5t7.5 -10.5v47h248v-108h-140v-195h110v-113h-110v-215h147v-113h-255v51q-32 -61 -93 -61h-3q-47 0 -76 42.5t-29 127.5zM216 167v411q0 63 -39 63q-40 0 -40 -63v-411q0 -63 40 -63
q39 0 39 63z" />
    <glyph glyph-name="oe" unicode="&#x153;" horiz-adv-x="463" 
d="M447 253h-159v-123q0 -38 29 -38q27 0 27 38v87h103v-91q0 -70 -34 -103t-88 -33h-17q-53 0 -80 31q-22 -31 -74 -31h-17q-61 0 -90.5 40.5t-29.5 99.5v278q0 65 31 101.5t88 36.5h16q57 0 83 -29q23 29 76 29h19q58 0 87.5 -31.5t29.5 -87.5v-174zM125 404v-266
q0 -42 30 -42t30 42v266q0 42 -30 42t-30 -42zM288 414v-67h59v64q0 44 -29 44q-13 0 -20 -6t-8.5 -14t-1.5 -21z" />
    <glyph glyph-name="Racute" unicode="&#x154;" horiz-adv-x="339" 
d="M136 643v-205h30q41 0 41 53v104q0 26 -8 37t-33 11h-30zM136 332v-332h-113v744h183q58 0 85.5 -26.5t27.5 -88.5v-132q0 -75 -49 -95q49 -22 49 -81v-261q0 -31 11 -55v-5h-112q-11 18 -11 61v224q0 26 -8 36.5t-34 10.5h-29zM117 773l42 109h94l-44 -109h-92z" />
    <glyph glyph-name="racute" unicode="&#x155;" horiz-adv-x="280" 
d="M125 538v-68q32 71 82 71h4q56 0 56 -61v-195h-104v120q0 19 -3 26t-15 7t-15 -7.5t-3 -25.5v-405h-107v538h105zM102 567l38 130h90l-40 -130h-88z" />
    <glyph glyph-name="uni0156" unicode="&#x156;" horiz-adv-x="339" 
d="M136 643v-205h30q41 0 41 53v104q0 26 -8 37t-33 11h-30zM136 332v-332h-113v744h183q58 0 85.5 -26.5t27.5 -88.5v-132q0 -75 -49 -95q49 -22 49 -81v-261q0 -31 11 -55v-5h-112q-11 18 -11 61v224q0 26 -8 36.5t-34 10.5h-29zM199 -196h-45q12 31 13 65h-38v102h92v-64
q0 -56 -22 -103z" />
    <glyph glyph-name="uni0157" unicode="&#x157;" horiz-adv-x="280" 
d="M125 538v-68q32 71 82 71h4q56 0 56 -61v-195h-104v120q0 19 -3 26t-15 7t-15 -7.5t-3 -25.5v-405h-107v538h105zM98 -196h-45q12 31 13 65h-38v102h92v-64q0 -56 -22 -103z" />
    <glyph glyph-name="Rcaron" unicode="&#x158;" horiz-adv-x="339" 
d="M136 643v-205h30q41 0 41 53v104q0 26 -8 37t-33 11h-30zM136 332v-332h-113v744h183q58 0 85.5 -26.5t27.5 -88.5v-132q0 -75 -49 -95q49 -22 49 -81v-261q0 -31 11 -55v-5h-112q-11 18 -11 61v224q0 26 -8 36.5t-34 10.5h-29zM119 773l-63 109h81l27 -48l27 48h80
l-63 -109h-89z" />
    <glyph glyph-name="rcaron" unicode="&#x159;" horiz-adv-x="280" 
d="M125 538v-68q32 71 82 71h4q56 0 56 -61v-195h-104v120q0 19 -3 26t-15 7t-15 -7.5t-3 -25.5v-405h-107v538h105zM101 567l-57 130h79l25 -64l25 64h77l-57 -130h-92z" />
    <glyph glyph-name="Sacute" unicode="&#x15a;" horiz-adv-x="333" 
d="M159 751h21q69 0 99 -31t30 -98v-122h-109v107q0 44 -32 44q-19 0 -26 -12t-7 -40v-14q0 -32 9 -55t37 -59l72 -93q39 -51 53 -88.5t14 -99.5v-24q0 -174 -146 -174h-22q-138 0 -138 141v149h112v-130q0 -52 37 -52q20 0 28.5 14.5t8.5 49.5v17q0 41 -8 63t-38 62l-72 92
q-35 46 -48.5 86.5t-13.5 97.5v24q0 145 139 145zM122 773l42 109h94l-44 -109h-92z" />
    <glyph glyph-name="sacute" unicode="&#x15b;" horiz-adv-x="278" 
d="M262 449v-81h-96v64q0 30 -24 30q-23 0 -23 -33v-9q0 -19 5 -30.5t20 -29.5l65 -78q36 -43 48 -74.5t12 -73.5v-14q0 -54 -30 -91.5t-91 -37.5h-21q-60 0 -88 30t-28 80v97h100v-77q0 -21 6 -29t21 -8q25 0 25 37v9q0 44 -29 77l-63 72q-53 60 -53 139v15q0 53 28.5 83
t87.5 30h19q109 0 109 -97zM99 567l38 130h90l-40 -130h-88z" />
    <glyph glyph-name="Scircumflex" unicode="&#x15c;" horiz-adv-x="333" 
d="M159 751h21q69 0 99 -31t30 -98v-122h-109v107q0 44 -32 44q-19 0 -26 -12t-7 -40v-14q0 -32 9 -55t37 -59l72 -93q39 -51 53 -88.5t14 -99.5v-24q0 -174 -146 -174h-22q-138 0 -138 141v149h112v-130q0 -52 37 -52q20 0 28.5 14.5t8.5 49.5v17q0 41 -8 63t-38 62l-72 92
q-35 46 -48.5 86.5t-13.5 97.5v24q0 145 139 145zM212 882l63 -109h-81l-27 48l-27 -48h-80l63 109h89z" />
    <glyph glyph-name="scircumflex" unicode="&#x15d;" horiz-adv-x="278" 
d="M262 449v-81h-96v64q0 30 -24 30q-23 0 -23 -33v-9q0 -19 5 -30.5t20 -29.5l65 -78q36 -43 48 -74.5t12 -73.5v-14q0 -54 -30 -91.5t-91 -37.5h-21q-60 0 -88 30t-28 80v97h100v-77q0 -21 6 -29t21 -8q25 0 25 37v9q0 44 -29 77l-63 72q-53 60 -53 139v15q0 53 28.5 83
t87.5 30h19q109 0 109 -97zM190 698l57 -131h-79l-25 65l-25 -65h-77l57 131h92z" />
    <glyph glyph-name="uni015E" unicode="&#x15e;" horiz-adv-x="333" 
d="M159 751h21q69 0 99 -31t30 -98v-122h-109v107q0 44 -32 44q-19 0 -26 -12t-7 -40v-14q0 -32 9 -55t37 -59l72 -93q39 -51 53 -88.5t14 -99.5v-24q0 -174 -146 -174h-22q-138 0 -138 141v149h112v-130q0 -52 37 -52q20 0 28.5 14.5t8.5 49.5v17q0 41 -8 63t-38 62l-72 92
q-35 46 -48.5 86.5t-13.5 97.5v24q0 145 139 145zM151 -188h-55v60h38q24 0 24 18q0 19 -24 19h-23v91h55v-40q77 0 77 -71v-3q0 -37 -25.5 -55.5t-66.5 -18.5z" />
    <glyph glyph-name="uni015F" unicode="&#x15f;" horiz-adv-x="278" 
d="M262 449v-81h-96v64q0 30 -24 30q-23 0 -23 -33v-9q0 -19 5 -30.5t20 -29.5l65 -78q36 -43 48 -74.5t12 -73.5v-14q0 -54 -30 -91.5t-91 -37.5h-21q-60 0 -88 30t-28 80v97h100v-77q0 -21 6 -29t21 -8q25 0 25 37v9q0 44 -29 77l-63 72q-53 60 -53 139v15q0 53 28.5 83
t87.5 30h19q109 0 109 -97zM124 -188h-55v60h38q24 0 24 18q0 19 -24 19h-23v91h55v-40q77 0 77 -71v-3q0 -37 -25.5 -55.5t-66.5 -18.5z" />
    <glyph glyph-name="Scaron" unicode="&#x160;" horiz-adv-x="333" 
d="M159 751h21q69 0 99 -31t30 -98v-122h-109v107q0 44 -32 44q-19 0 -26 -12t-7 -40v-14q0 -32 9 -55t37 -59l72 -93q39 -51 53 -88.5t14 -99.5v-24q0 -174 -146 -174h-22q-138 0 -138 141v149h112v-130q0 -52 37 -52q20 0 28.5 14.5t8.5 49.5v17q0 41 -8 63t-38 62l-72 92
q-35 46 -48.5 86.5t-13.5 97.5v24q0 145 139 145zM124 773l-63 109h81l27 -48l27 48h80l-63 -109h-89z" />
    <glyph glyph-name="scaron" unicode="&#x161;" horiz-adv-x="278" 
d="M262 449v-81h-96v64q0 30 -24 30q-23 0 -23 -33v-9q0 -19 5 -30.5t20 -29.5l65 -78q36 -43 48 -74.5t12 -73.5v-14q0 -54 -30 -91.5t-91 -37.5h-21q-60 0 -88 30t-28 80v97h100v-77q0 -21 6 -29t21 -8q25 0 25 37v9q0 44 -29 77l-63 72q-53 60 -53 139v15q0 53 28.5 83
t87.5 30h19q109 0 109 -97zM98 567l-57 130h79l25 -64l25 64h77l-57 -130h-92z" />
    <glyph glyph-name="Tcommaaccent" unicode="&#x162;" horiz-adv-x="320" 
d="M9 744h302v-108h-95v-636h-112v636h-95v108zM186 -196h-45q12 31 13 65h-38v102h92v-64q0 -56 -22 -103z" />
    <glyph glyph-name="tcommaaccent" unicode="&#x163;" horiz-adv-x="247" 
d="M237 0h-106q-64 0 -64 66v370h-61v102h61v177h107v-177h63v-102h-63v-308q0 -15 3.5 -20t17.5 -5h42v-103zM184 -196h-45q12 31 13 65h-38v102h92v-64q0 -56 -22 -103z" />
    <glyph glyph-name="Tcaron" unicode="&#x164;" horiz-adv-x="320" 
d="M9 744h302v-108h-95v-636h-112v636h-95v108zM117 773l-63 109h81l27 -48l27 48h80l-63 -109h-89z" />
    <glyph glyph-name="tcaron" unicode="&#x165;" horiz-adv-x="247" 
d="M192 600l7 144h81l-12 -144h-76zM237 0h-106q-64 0 -64 66v370h-61v102h61v177h107v-177h63v-102h-63v-308q0 -15 3.5 -20t17.5 -5h42v-103z" />
    <glyph glyph-name="Tbar" unicode="&#x166;" horiz-adv-x="320" 
d="M286 368h-252v96h252v-96zM9 744h302v-108h-95v-636h-112v636h-95v108z" />
    <glyph glyph-name="tbar" unicode="&#x167;" horiz-adv-x="247" 
d="M238 0h-106q-64 0 -64 66v188h-62v94h62v87h-62v103h62v177h107v-177h63v-103h-63v-87h63v-94h-63v-125q0 -15 3.5 -20t17.5 -5h42v-104z" />
    <glyph glyph-name="Utilde" unicode="&#x168;" horiz-adv-x="345" 
d="M21 162v582h115v-589q0 -53 36 -53q37 0 37 53v589h115v-582q0 -171 -142 -171h-20q-141 0 -141 171zM270 878v-46q0 -57 -42 -57h-1q-21 0 -57 17q-20 9 -23 9q-7 0 -7 -9v-19h-64v47q0 56 43 56h1q22 0 54 -16q19 -11 26 -11q6 0 6 9v20h64z" />
    <glyph glyph-name="utilde" unicode="&#x169;" horiz-adv-x="307" 
d="M287 538v-538h-103v64q-13 -20 -22 -31t-28 -23t-41 -12h-2q-31 0 -51 27.5t-20 63.5v449h107v-403q0 -36 25 -36q28 0 28 39v400h107zM189 672h64v-46q0 -57 -42 -57h-1q-21 0 -57 17q-20 9 -23 9q-7 0 -7 -9v-19h-64v47q0 56 43 56h1q22 0 54 -16q19 -11 26 -11
q6 0 6 9v20z" />
    <glyph glyph-name="Umacron" unicode="&#x16a;" horiz-adv-x="345" 
d="M21 162v582h115v-589q0 -53 36 -53q37 0 37 53v589h115v-582q0 -171 -142 -171h-20q-141 0 -141 171zM86 780v79h173v-79h-173z" />
    <glyph glyph-name="umacron" unicode="&#x16b;" horiz-adv-x="307" 
d="M287 538v-538h-103v64q-13 -20 -22 -31t-28 -23t-41 -12h-2q-31 0 -51 27.5t-20 63.5v449h107v-403q0 -36 25 -36q28 0 28 39v400h107zM68 579v77h172v-77h-172z" />
    <glyph glyph-name="Ubreve" unicode="&#x16c;" horiz-adv-x="345" 
d="M21 162v582h115v-589q0 -53 36 -53q37 0 37 53v589h115v-582q0 -171 -142 -171h-20q-141 0 -141 171zM174 770h-3q-44 0 -71.5 25t-27.5 69v6h77v-4q0 -27 23 -27h1q24 0 24 27v4h76v-6q0 -44 -29 -69t-70 -25z" />
    <glyph glyph-name="ubreve" unicode="&#x16d;" horiz-adv-x="307" 
d="M287 538v-538h-103v64q-13 -20 -22 -31t-28 -23t-41 -12h-2q-31 0 -51 27.5t-20 63.5v449h107v-403q0 -36 25 -36q28 0 28 39v400h107zM155 565h-3q-47 0 -74 25.5t-27 77.5v4h78v-4q0 -34 24 -34h1q24 0 24 34v4h75v-4q0 -51 -27 -77t-71 -26z" />
    <glyph glyph-name="Uring" unicode="&#x16e;" horiz-adv-x="345" 
d="M21 162v582h115v-589q0 -53 36 -53q37 0 37 53v589h115v-582q0 -171 -142 -171h-20q-141 0 -141 171zM173 813q14 0 22.5 9t8.5 24q0 14 -8.5 23.5t-22.5 9.5t-22.5 -9.5t-8.5 -23.5q0 -15 8.5 -24t22.5 -9zM252 847q0 -35 -22 -58t-57 -23t-57.5 23t-22.5 58q0 33 23 56
t57 23q35 0 57 -22.5t22 -56.5z" />
    <glyph glyph-name="uring" unicode="&#x16f;" horiz-adv-x="307" 
d="M287 538v-538h-103v64q-13 -20 -22 -31t-28 -23t-41 -12h-2q-31 0 -51 27.5t-20 63.5v449h107v-403q0 -36 25 -36q28 0 28 39v400h107zM154 563q-35 0 -57.5 23t-22.5 58q0 33 23 56t57 23q35 0 57 -22.5t22 -56.5q0 -35 -22 -58t-57 -23zM154 610q14 0 22.5 9t8.5 24
q0 14 -8.5 23.5t-22.5 9.5t-22.5 -9.5t-8.5 -23.5q0 -15 8.5 -24t22.5 -9z" />
    <glyph glyph-name="Uhungarumlaut" unicode="&#x170;" horiz-adv-x="345" 
d="M21 162v582h115v-589q0 -53 36 -53q37 0 37 53v589h115v-582q0 -171 -142 -171h-20q-141 0 -141 171zM258 773h-75l29 108h78zM86 773l25 108h78l-28 -108h-75z" />
    <glyph glyph-name="uhungarumlaut" unicode="&#x171;" horiz-adv-x="307" 
d="M287 538v-538h-103v64q-13 -20 -22 -31t-28 -23t-41 -12h-2q-31 0 -51 27.5t-20 63.5v449h107v-403q0 -36 25 -36q28 0 28 39v400h107zM242 567h-74l27 127h76zM70 567l25 127h76l-27 -127h-74z" />
    <glyph glyph-name="Uogonek" unicode="&#x172;" horiz-adv-x="345" 
d="M263 0q-44 -56 -44 -91v-4q0 -21 24 -21h19v-72h-50q-32 0 -52 16.5t-20 47.5v15q0 44 59 101q-5 -1 -17 -1h-20q-141 0 -141 171v582h115v-589q0 -53 36 -53q37 0 37 53v589h115v-582q0 -20 -1.5 -37t-6 -31.5t-8 -24.5t-11 -21.5t-11 -16.5t-12.5 -16.5t-11 -14.5z" />
    <glyph glyph-name="uogonek" unicode="&#x173;" horiz-adv-x="307" 
d="M287 538v-538h-103v64q-13 -20 -22 -31t-28 -23t-41 -12h-2q-31 0 -51 27.5t-20 63.5v449h107v-403q0 -36 25 -36q28 0 28 39v400h107zM165 -124v15q0 43 66 109h56q-25 -35 -34 -53t-9 -38v-4q0 -21 24 -21h19v-72h-50q-32 0 -52 16.5t-20 47.5z" />
    <glyph glyph-name="Wcircumflex" unicode="&#x174;" horiz-adv-x="531" 
d="M216 744h105l51 -482l52 482h106l-95 -744h-121l-47 433l-48 -433h-125l-93 744h114l51 -481zM311 882l63 -109h-81l-27 48l-27 -48h-80l63 109h89z" />
    <glyph glyph-name="wcircumflex" unicode="&#x175;" horiz-adv-x="460" 
d="M193 0h-112l-82 538h107l40 -335l41 335h94l41 -335l40 335h99l-82 -538h-108l-39 306zM279 698l57 -131h-79l-25 65l-25 -65h-77l57 131h92z" />
    <glyph glyph-name="Ycircumflex" unicode="&#x176;" horiz-adv-x="306" 
d="M310 744l-99 -435v-309h-113v310l-102 434h110l52 -278l50 278h102zM201 882l63 -109h-81l-27 48l-27 -48h-80l63 109h89z" />
    <glyph glyph-name="ycircumflex" unicode="&#x177;" horiz-adv-x="285" 
d="M83 16l-84 522h104l42 -329l40 329h102l-108 -646q-7 -41 -22.5 -60.5t-43.5 -19.5h-101v102h46q13 0 17 5.5t7 21.5l3 23q3 22 -2 52zM191 698l57 -131h-79l-25 65l-25 -65h-77l57 131h92z" />
    <glyph glyph-name="Ydieresis" unicode="&#x178;" horiz-adv-x="306" 
d="M310 744l-99 -435v-309h-113v310l-102 434h110l52 -278l50 278h102zM143 872v-99h-90v99h90zM259 872v-99h-90v99h90z" />
    <glyph glyph-name="Zacute" unicode="&#x179;" horiz-adv-x="305" 
d="M18 744h271v-98l-163 -537h171v-109h-289v101l161 537h-151v106zM104 773l42 109h94l-44 -109h-92z" />
    <glyph glyph-name="zacute" unicode="&#x17a;" horiz-adv-x="249" 
d="M18 538h215v-89l-124 -351h132v-98h-234v94l121 348h-110v96zM80 567l38 130h90l-40 -130h-88z" />
    <glyph glyph-name="Zdotaccent" unicode="&#x17b;" horiz-adv-x="305" 
d="M18 744h271v-98l-163 -537h171v-109h-289v101l161 537h-151v106zM206 888v-115h-107v115h107z" />
    <glyph glyph-name="zdotaccent" unicode="&#x17c;" horiz-adv-x="249" 
d="M18 538h215v-89l-124 -351h132v-98h-234v94l121 348h-110v96zM178 682v-115h-107v115h107z" />
    <glyph glyph-name="Zcaron" unicode="&#x17d;" horiz-adv-x="305" 
d="M18 744h271v-98l-163 -537h171v-109h-289v101l161 537h-151v106zM109 773l-63 109h81l27 -48l27 48h80l-63 -109h-89z" />
    <glyph glyph-name="zcaron" unicode="&#x17e;" horiz-adv-x="249" 
d="M18 538h215v-89l-124 -351h132v-98h-234v94l121 348h-110v96zM80 567l-57 130h79l25 -64l25 64h77l-57 -130h-92z" />
    <glyph glyph-name="uni0192" unicode="&#x192;" horiz-adv-x="260" 
d="M40 -188l25 561h-54v103h59l9 189q2 40 24 59.5t80 19.5h64v-98h-35q-15 -1 -21 -7.5t-7 -24.5l-7 -138h70v-103h-74l-26 -561h-107z" />
    <glyph glyph-name="Aringacute" unicode="&#x1fa;" horiz-adv-x="320" 
d="M115 945l42 109h94l-44 -109h-92zM212 0l-15 140h-83l-14 -140h-101l91 744h134l97 -744h-109zM155 526l-29 -275h59zM159 813q14 0 22.5 9t8.5 24q0 14 -8.5 23.5t-22.5 9.5t-22.5 -9.5t-8.5 -23.5q0 -15 8.5 -24t22.5 -9zM238 847q0 -35 -22 -58t-57 -23t-57.5 23
t-22.5 58q0 33 23 56t57 23q35 0 57 -22.5t22 -56.5z" />
    <glyph glyph-name="aringacute" unicode="&#x1fb;" horiz-adv-x="310" 
d="M15 81v126q0 41 11 65.5t40 42.5q11 7 30 17t39 19.5t24 11.5q9 6 11 9t2 14v34q0 20 -6 27.5t-20 7.5h-2q-15 0 -21 -7.5t-6 -26.5v-57h-96v76q0 102 113 102h20q71 0 96 -28.5t25 -77.5v-320q0 -10 3 -13.5t14 -3.5h19v-99h-102q-35 0 -35 61q-36 -64 -88 -64h-3
q-31 0 -49.5 25t-18.5 59zM172 133v139q-26 -15 -38 -27q-14 -14 -14 -43v-74q0 -35 25 -35q27 0 27 40zM143 563q-35 0 -57.5 23t-22.5 58q0 33 23 56t57 23q35 0 57 -22.5t22 -56.5q0 -35 -22 -58t-57 -23zM143 610q14 0 22.5 9t8.5 24q0 14 -8.5 23.5t-22.5 9.5
t-22.5 -9.5t-8.5 -23.5q0 -15 8.5 -24t22.5 -9zM101 742l38 130h90l-40 -130h-88z" />
    <glyph glyph-name="AEacute" unicode="&#x1fc;" horiz-adv-x="486" 
d="M476 0h-260v144h-86l-26 -144h-108l141 744h332v-108h-140v-195h110v-113h-110v-215h147v-113zM150 254h66v366zM251 773l42 109h94l-44 -109h-92z" />
    <glyph glyph-name="aeacute" unicode="&#x1fd;" horiz-adv-x="450" 
d="M181 59q-35 -62 -93 -62h-3q-32 0 -51 25t-19 59v104q0 41 11 65.5t40 42.5q11 7 30 17t39 19.5t24 11.5q9 6 11 9t2 14v58q0 20 -6 27.5t-20 7.5h-2q-15 0 -21 -7.5t-6 -26.5v-81h-96v100q0 102 113 102h18q54 0 75 -29q19 31 73 31h17q61 0 89 -33.5t28 -100.5v-159
h-159v-120q0 -40 29 -40q27 0 27 39v85h103v-89q0 -71 -34 -104t-87 -33h-17q-94 0 -115 68zM172 133v117q-26 -15 -38 -27q-14 -14 -14 -43v-52q0 -35 25 -35q27 0 27 40zM275 414v-67h59v67q0 42 -29 42q-13 0 -20 -6t-8.5 -14.5t-1.5 -21.5zM183 567l38 130h90l-40 -130
h-88z" />
    <glyph glyph-name="Oslashacute" unicode="&#x1fe;" horiz-adv-x="349" 
d="M330 582v-430q0 -71 -38 -116.5t-105 -45.5h-21q-58 0 -88 35l-11 -25h-68l31 81q-11 26 -11 71v429q0 170 144 170h23q52 0 87 -31l9 24h68l-31 -83q11 -36 11 -79zM175 641q-25 0 -34.5 -13.5t-9.5 -42.5v-257l88 256v2q0 55 -44 55zM175 105q44 0 44 49v261l-88 -254
v-8q0 -48 44 -48zM129 773l42 109h94l-44 -109h-92z" />
    <glyph glyph-name="oslashacute" unicode="&#x1ff;" horiz-adv-x="306" 
d="M17 130v277q0 67 32.5 103t92.5 36h22q52 0 81 -29l10 21h61l-34 -75q7 -21 7 -52v-281q0 -58 -33 -98.5t-92 -40.5h-22q-52 0 -80 31l-10 -22h-61l34 74q-8 19 -8 56zM186 402v4q0 23 -7.5 32t-25.5 9q-33 0 -33 -41v-154zM153 93q33 0 33 42v146l-66 -147q0 -41 33 -41
zM109 567l38 130h90l-40 -130h-88z" />
    <glyph glyph-name="uni0218" unicode="&#x218;" horiz-adv-x="333" 
d="M159 751h21q69 0 99 -31t30 -98v-122h-109v107q0 44 -32 44q-19 0 -26 -12t-7 -40v-14q0 -32 9 -55t37 -59l72 -93q39 -51 53 -88.5t14 -99.5v-24q0 -174 -146 -174h-22q-138 0 -138 141v149h112v-130q0 -52 37 -52q20 0 28.5 14.5t8.5 49.5v17q0 41 -8 63t-38 62l-72 92
q-35 46 -48.5 86.5t-13.5 97.5v24q0 145 139 145zM187 -196h-45q12 31 13 65h-38v102h92v-64q0 -56 -22 -103z" />
    <glyph glyph-name="uni0219" unicode="&#x219;" horiz-adv-x="278" 
d="M262 449v-81h-96v64q0 30 -24 30q-23 0 -23 -33v-9q0 -19 5 -30.5t20 -29.5l65 -78q36 -43 48 -74.5t12 -73.5v-14q0 -54 -30 -91.5t-91 -37.5h-21q-60 0 -88 30t-28 80v97h100v-77q0 -21 6 -29t21 -8q25 0 25 37v9q0 44 -29 77l-63 72q-53 60 -53 139v15q0 53 28.5 83
t87.5 30h19q109 0 109 -97zM161 -196h-45q12 31 13 65h-38v102h92v-64q0 -56 -22 -103z" />
    <glyph glyph-name="uni021A" unicode="&#x21a;" horiz-adv-x="320" 
d="M9 744h302v-108h-95v-636h-112v636h-95v108zM186 -196h-45q12 31 13 65h-38v102h92v-64q0 -56 -22 -103z" />
    <glyph glyph-name="uni021B" unicode="&#x21b;" horiz-adv-x="247" 
d="M237 0h-106q-64 0 -64 66v370h-61v102h61v177h107v-177h63v-102h-63v-308q0 -15 3.5 -20t17.5 -5h42v-103zM184 -196h-45q12 31 13 65h-38v102h92v-64q0 -56 -22 -103z" />
    <glyph glyph-name="uni0237" unicode="&#x237;" horiz-adv-x="148" 
d="M-50 -86h50q21 0 21 24v600h107v-648q0 -78 -69 -78h-109v102z" />
    <glyph glyph-name="uni02BC" unicode="&#x2bc;" horiz-adv-x="125" 
d="M92 547h-55q13 36 18 85h-40v112h99v-82q0 -64 -22 -115z" />
    <glyph glyph-name="circumflex" unicode="&#x2c6;" 
d="M217 698l57 -131h-79l-25 65l-25 -65h-77l57 131h92z" />
    <glyph glyph-name="caron" unicode="&#x2c7;" 
d="M125 567l-57 130h79l25 -64l25 64h77l-57 -130h-92z" />
    <glyph glyph-name="breve" unicode="&#x2d8;" 
d="M174 565h-3q-47 0 -74 25.5t-27 77.5v4h78v-4q0 -34 24 -34h1q24 0 24 34v4h75v-4q0 -51 -27 -77t-71 -26z" />
    <glyph glyph-name="dotaccent" unicode="&#x2d9;" 
d="M224 682v-115h-107v115h107z" />
    <glyph glyph-name="ring" unicode="&#x2da;" 
d="M172 563q-35 0 -57.5 23t-22.5 58q0 33 23 56t57 23q35 0 57 -22.5t22 -56.5q0 -35 -22 -58t-57 -23zM172 610q14 0 22.5 9t8.5 24q0 14 -8.5 23.5t-22.5 9.5t-22.5 -9.5t-8.5 -23.5q0 -15 8.5 -24t22.5 -9z" />
    <glyph glyph-name="ogonek" unicode="&#x2db;" 
d="M109 -124v15q0 43 66 109h56q-25 -35 -34 -53t-9 -38v-4q0 -21 24 -21h19v-72h-50q-32 0 -52 16.5t-20 47.5z" />
    <glyph glyph-name="tilde" unicode="&#x2dc;" 
d="M204 672h64v-46q0 -57 -42 -57h-1q-21 0 -57 17q-20 9 -23 9q-7 0 -7 -9v-19h-64v47q0 56 43 56h1q22 0 54 -16q19 -11 26 -11q6 0 6 9v20z" />
    <glyph glyph-name="hungarumlaut" unicode="&#x2dd;" 
d="M243 567h-74l27 127h76zM71 567l25 127h76l-27 -127h-74z" />
    <glyph glyph-name="uni0401" unicode="&#x401;" horiz-adv-x="296" 
d="M23 744h257v-108h-144v-195h113v-113h-113v-215h150v-113h-263v744zM140 872v-99h-90v99h90zM256 872v-99h-90v99h90z" />
    <glyph glyph-name="uni0402" unicode="&#x402;" horiz-adv-x="406" 
d="M309 636h-114v-199q26 10 67 10h3q120 0 120 -123v-271q0 -82 -33 -124t-111 -42h-13v113h3q41 0 41 59v220q0 29 -8 41.5t-31 12.5h-4q-22 0 -34 -6v-327h-113v636h-75v108h302v-108z" />
    <glyph glyph-name="uni0403" unicode="&#x403;" horiz-adv-x="255" 
d="M93 773l42 109h94l-44 -109h-92zM21 0v744h227v-108h-114v-636h-113z" />
    <glyph glyph-name="uni0404" unicode="&#x404;" horiz-adv-x="332" 
d="M317 282v-130q0 -161 -135 -161h-25q-139 0 -139 157v454q0 64 32 106.5t103 42.5h26q44 0 73.5 -13t42.5 -38t17.5 -48.5t4.5 -55.5v-116h-111v114q0 49 -38 49q-20 0 -27.5 -11.5t-7.5 -37.5v-153h114v-113h-114v-176q0 -51 36 -51q37 0 37 50v131h111z" />
    <glyph glyph-name="uni0405" unicode="&#x405;" horiz-adv-x="329" 
d="M159 751h21q69 0 99 -31t30 -98v-122h-109v107q0 44 -32 44q-19 0 -26 -12t-7 -40v-14q0 -32 9 -55t37 -59l72 -93q39 -51 53 -88.5t14 -99.5v-24q0 -174 -146 -174h-22q-138 0 -138 141v149h112v-130q0 -52 37 -52q20 0 28.5 14.5t8.5 49.5v17q0 41 -8 63t-38 62l-72 92
q-35 46 -48.5 86.5t-13.5 97.5v24q0 145 139 145z" />
    <glyph glyph-name="uni0406" unicode="&#x406;" horiz-adv-x="155" 
d="M136 744v-744h-113v744h113z" />
    <glyph glyph-name="uni0407" unicode="&#x407;" horiz-adv-x="159" 
d="M136 744v-744h-113v744h113zM66 872v-99h-90v99h90zM182 872v-99h-90v99h90z" />
    <glyph glyph-name="uni0408" unicode="&#x408;" horiz-adv-x="315" 
d="M15 328h111v-183q0 -41 27 -41h4q26 0 26 41v599h115v-608q0 -71 -33.5 -106.5t-94.5 -35.5h-31q-124 0 -124 135v199z" />
    <glyph glyph-name="uni0409" unicode="&#x409;" horiz-adv-x="535" 
d="M33 0h-28v115h8q19 0 26 11t9 39q7 67 7 579h285v-288h66q116 0 116 -137v-189q0 -67 -28 -98.5t-88 -31.5h-179v636h-66q0 -399 -10 -519q-4 -60 -30.5 -88.5t-87.5 -28.5zM340 108h29q23 0 31 13t8 38v135q0 27 -7.5 40.5t-31.5 13.5h-29v-240z" />
    <glyph glyph-name="uni040A" unicode="&#x40a;" horiz-adv-x="510" 
d="M202 0v337h-68v-337h-113v744h113v-288h68v288h113v-288h66q116 0 116 -137v-189q0 -67 -28 -98.5t-88 -31.5h-179zM315 108h29q23 0 31 13t8 38v135q0 27 -7.5 40.5t-31.5 13.5h-29v-240z" />
    <glyph glyph-name="uni040B" unicode="&#x40b;" horiz-adv-x="406" 
d="M309 636h-114v-199q26 10 67 10h3q120 0 120 -123v-324h-113v279q0 29 -8 41.5t-31 12.5h-4q-22 0 -34 -6v-327h-113v636h-75v108h302v-108z" />
    <glyph glyph-name="uni040C" unicode="&#x40c;" horiz-adv-x="338" 
d="M136 323v-323h-113v744h113v-298l89 298h110l-105 -346l116 -398h-116zM133 773l42 109h94l-44 -109h-92z" />
    <glyph glyph-name="uni040E" unicode="&#x40e;" horiz-adv-x="298" 
d="M301 744l-108 -646q-9 -55 -28 -76.5t-62 -21.5h-73v115h26q9 0 14.5 3t7.5 8t4 13l3 23q3 18 -4 60l-84 522h115l42 -329l40 329h107zM156 770h-3q-44 0 -71.5 25t-27.5 69v6h77v-4q0 -27 23 -27h1q24 0 24 27v4h76v-6q0 -44 -29 -69t-70 -25z" />
    <glyph glyph-name="uni040F" unicode="&#x40f;" horiz-adv-x="337" 
d="M220 -105h-103v105h-96v744h113v-631h69v631h113v-744h-96v-105z" />
    <glyph glyph-name="uni0410" unicode="&#x410;" horiz-adv-x="316" 
d="M212 0l-15 140h-83l-14 -140h-101l91 744h134l97 -744h-109zM155 526l-29 -275h59z" />
    <glyph glyph-name="uni0411" unicode="&#x411;" horiz-adv-x="330" 
d="M21 0v744h273v-108h-160v-180h66q116 0 116 -137v-189q0 -67 -28 -98.5t-88 -31.5h-179zM134 108h29q23 0 31 13t8 38v135q0 27 -7.5 40.5t-31.5 13.5h-29v-240z" />
    <glyph glyph-name="uni0412" unicode="&#x412;" horiz-adv-x="341" 
d="M23 0v744h178q66 0 92.5 -31t26.5 -90v-114q0 -82 -56 -103q65 -25 65 -109v-161q0 -63 -29.5 -99.5t-90.5 -36.5h-186zM170 339h-34v-234h34q26 0 35 12t9 38v136q0 25 -9 36.5t-35 11.5zM170 643h-34v-193h34q39 0 39 52v94q0 25 -8.5 36t-30.5 11z" />
    <glyph glyph-name="uni0413" unicode="&#x413;" horiz-adv-x="255" 
d="M21 0v744h227v-108h-114v-636h-113z" />
    <glyph glyph-name="uni0414" unicode="&#x414;" horiz-adv-x="412" 
d="M304 -105v105h-196v-105h-103v218h25q19 39 28 94q15 100 15 537h284v-631h50v-218h-103zM164 204q-6 -49 -22 -91h102v523h-65q0 -326 -15 -432z" />
    <glyph glyph-name="uni0415" unicode="&#x415;" horiz-adv-x="292" 
d="M23 744h257v-108h-144v-195h113v-113h-113v-215h150v-113h-263v744z" />
    <glyph glyph-name="uni0416" unicode="&#x416;" horiz-adv-x="499" 
d="M192 0v337l-89 -337h-109l106 392l-98 352h106l84 -311v311h113v-311l84 311h105l-96 -346l107 -398h-111l-89 337v-337h-113z" />
    <glyph glyph-name="uni0417" unicode="&#x417;" horiz-adv-x="329" 
d="M126 598v-118h-111v126q0 65 33 105t97 40h23q73 0 105 -33t32 -99v-124q0 -76 -56 -99q65 -20 65 -109v-159q0 -58 -33 -97.5t-103 -39.5h-30q-62 0 -97.5 39t-35.5 89v163h111v-141q0 -40 37 -40q36 0 36 40v151q0 36 -35 36h-51v113h51q26 0 26 54v103q0 45 -32 45
t-32 -45z" />
    <glyph glyph-name="uni0418" unicode="&#x418;" horiz-adv-x="349" 
d="M215 0v403l-81 -403h-113v744h113v-403l81 403h113v-744h-113z" />
    <glyph glyph-name="uni0419" unicode="&#x419;" horiz-adv-x="349" 
d="M215 0v403l-81 -403h-113v744h113v-403l81 403h113v-744h-113zM175 770h-3q-44 0 -71.5 25t-27.5 69v6h77v-4q0 -27 23 -27h1q24 0 24 27v4h76v-6q0 -44 -29 -69t-70 -25z" />
    <glyph glyph-name="uni041A" unicode="&#x41a;" horiz-adv-x="338" 
d="M228 0l-94 323v-323h-113v744h113v-298l89 298h110l-105 -346l116 -398h-116z" />
    <glyph glyph-name="uni041B" unicode="&#x41b;" horiz-adv-x="361" 
d="M227 0v636h-66q0 -399 -10 -519q-4 -60 -30.5 -88.5t-87.5 -28.5h-28v115h8q19 0 26 11t9 39q7 67 7 579h285v-744h-113z" />
    <glyph glyph-name="uni041C" unicode="&#x41c;" horiz-adv-x="431" 
d="M23 0v744h145l54 -393l55 393h135v-744h-106v481l-68 -481h-45l-69 481v-481h-101z" />
    <glyph glyph-name="uni041D" unicode="&#x41d;" horiz-adv-x="345" 
d="M134 327v-327h-113v744h113v-298h77v298h113v-744h-113v327h-77z" />
    <glyph glyph-name="uni041E" unicode="&#x41e;" horiz-adv-x="345" 
d="M329 581v-415q0 -175 -144 -175h-19q-146 0 -146 175v414q0 171 145 171h19q78 0 111.5 -44t33.5 -126zM214 158v428q0 57 -39 57q-40 0 -40 -57v-428q0 -57 41 -57q38 0 38 57z" />
    <glyph glyph-name="uni041F" unicode="&#x41f;" horiz-adv-x="337" 
d="M21 0v744h295v-744h-113v636h-69v-636h-113z" />
    <glyph glyph-name="uni0420" unicode="&#x420;" horiz-adv-x="329" 
d="M202 309h-66v-309h-113v744h179q61 0 88.5 -28.5t27.5 -94.5v-176q0 -136 -116 -136zM136 643v-227h29q24 0 31.5 13.5t7.5 40.5v122q0 25 -8 38t-31 13h-29z" />
    <glyph glyph-name="uni0421" unicode="&#x421;" horiz-adv-x="332" 
d="M208 151v173h111v-172q0 -161 -135 -161h-25q-139 0 -139 157v454q0 64 32 106.5t103 42.5h26q44 0 73.5 -13t42.5 -38t17.5 -48.5t4.5 -55.5v-133h-111v131q0 49 -38 49q-20 0 -27.5 -11.5t-7.5 -37.5v-442q0 -51 36 -51q37 0 37 50z" />
    <glyph glyph-name="uni0422" unicode="&#x422;" horiz-adv-x="316" 
d="M9 744h302v-108h-95v-636h-112v636h-95v108z" />
    <glyph glyph-name="uni0423" unicode="&#x423;" horiz-adv-x="298" 
d="M301 744l-108 -646q-9 -55 -28 -76.5t-62 -21.5h-73v115h26q9 0 14.5 3t7.5 8t4 13l3 23q3 18 -4 60l-84 522h115l42 -329l40 329h107z" />
    <glyph glyph-name="uni0424" unicode="&#x424;" horiz-adv-x="499" 
d="M193 754h113v-67h3q93 0 134 -41.5t41 -133.5v-252q0 -91 -41.5 -132.5t-134.5 -41.5h-2v-96h-113v96h-2q-93 0 -134.5 42t-41.5 133v251q0 93 41 134t134 41h3v67zM193 588h-3q-35 0 -47.5 -19.5t-12.5 -57.5v-229q0 -52 12 -74.5t48 -22.5h3v403zM306 588v-403h4
q36 0 47.5 22.5t11.5 74.5v229q0 38 -12.5 57.5t-46.5 19.5h-4z" />
    <glyph glyph-name="uni0425" unicode="&#x425;" horiz-adv-x="338" 
d="M97 398l-84 346h115l48 -235l46 235h110l-85 -346l96 -398h-117l-56 269l-57 -269h-114z" />
    <glyph glyph-name="uni0426" unicode="&#x426;" horiz-adv-x="371" 
d="M263 -105v105h-242v744h113v-631h69v631h113v-631h50v-218h-103z" />
    <glyph glyph-name="uni0427" unicode="&#x427;" horiz-adv-x="339" 
d="M205 0v307q-30 -10 -69 -10h-1q-61 0 -90.5 32t-29.5 87v328h113v-279q0 -32 9 -43t30 -11h2q25 0 36 6v327h113v-744h-113z" />
    <glyph glyph-name="uni0428" unicode="&#x428;" horiz-adv-x="509" 
d="M21 0v744h113v-631h64v631h113v-631h64v631h113v-744h-467z" />
    <glyph glyph-name="uni0429" unicode="&#x429;" horiz-adv-x="543" 
d="M21 0v744h113v-631h64v631h113v-631h64v631h113v-631h50v-218h-103v105h-414z" />
    <glyph glyph-name="uni042A" unicode="&#x42a;" horiz-adv-x="382" 
d="M9 636v108h178v-288h66q116 0 116 -137v-189q0 -67 -28 -98.5t-88 -31.5h-179v636h-65zM187 108h29q23 0 31 13t8 38v135q0 27 -7.5 40.5t-31.5 13.5h-29v-240z" />
    <glyph glyph-name="uni042B" unicode="&#x42b;" horiz-adv-x="480" 
d="M134 456h66q116 0 116 -137v-189q0 -67 -28 -98.5t-88 -31.5h-179v744h113v-288zM134 108h29q23 0 31 13t8 38v135q0 27 -7.5 40.5t-31.5 13.5h-29v-240zM461 744v-744h-113v744h113z" />
    <glyph glyph-name="uni042C" unicode="&#x42c;" horiz-adv-x="329" 
d="M134 456h66q116 0 116 -137v-189q0 -67 -28 -98.5t-88 -31.5h-179v744h113v-288zM134 108h29q23 0 31 13t8 38v135q0 27 -7.5 40.5t-31.5 13.5h-29v-240z" />
    <glyph glyph-name="uni042D" unicode="&#x42d;" horiz-adv-x="332" 
d="M314 602v-454q0 -157 -139 -157h-25q-135 0 -135 161v130h111v-131q0 -50 37 -50q36 0 36 51v176h-114v113h114v153q0 26 -7.5 37.5t-27.5 11.5q-38 0 -38 -49v-114h-111v116q0 32 4.5 55.5t17.5 48.5t42.5 38t73.5 13h26q70 0 102.5 -42.5t32.5 -106.5z" />
    <glyph glyph-name="uni042E" unicode="&#x42e;" horiz-adv-x="505" 
d="M487 581v-415q0 -175 -144 -175h-19q-146 0 -146 175v164h-44v-330h-113v744h113v-301h44v137q0 171 145 171h19q78 0 111.5 -44t33.5 -126zM372 158v428q0 57 -39 57q-40 0 -40 -57v-428q0 -57 41 -57q38 0 38 57z" />
    <glyph glyph-name="uni042F" unicode="&#x42f;" horiz-adv-x="335" 
d="M201 312h-13l-83 -312h-116l90 332q-62 20 -62 90v207q0 62 28 88.5t86 26.5h183v-744h-113v312zM201 420v223h-30q-25 0 -33 -11t-8 -37v-122q0 -53 41 -53h30z" />
    <glyph glyph-name="uni0430" unicode="&#x430;" horiz-adv-x="306" 
d="M15 81v126q0 41 11 65.5t40 42.5q11 7 30 17t39 19.5t24 11.5q9 6 11 9t2 14v34q0 20 -6 27.5t-20 7.5h-2q-15 0 -21 -7.5t-6 -26.5v-57h-96v76q0 102 113 102h20q71 0 96 -28.5t25 -77.5v-320q0 -10 3 -13.5t14 -3.5h19v-99h-102q-35 0 -35 61q-36 -64 -88 -64h-3
q-31 0 -49.5 25t-18.5 59zM172 133v139q-26 -15 -38 -27q-14 -14 -14 -43v-74q0 -35 25 -35q27 0 27 40z" />
    <glyph glyph-name="uni0431" unicode="&#x431;" horiz-adv-x="306" 
d="M291 411v-281q0 -57 -34.5 -98t-93.5 -41h-20q-65 0 -96.5 39.5t-31.5 99.5v416q0 94 30.5 136.5t117.5 42.5h9q13 0 17.5 3.5t4.5 15.5h103q0 -69 -19.5 -93.5t-81.5 -24.5h-9q-45 0 -59.5 -16t-14.5 -64v-69q47 69 101 69h5q40 0 56 -33t16 -102zM153 93q30 0 30 42
v271q0 41 -30 41t-30 -41v-271q0 -42 30 -42z" />
    <glyph glyph-name="uni0432" unicode="&#x432;" horiz-adv-x="307" 
d="M170 0h-152v538h142q76 0 101.5 -20t25.5 -81v-59q0 -41 -13 -60t-38 -28q28 -9 42 -27.5t14 -65.5v-80q0 -66 -24.5 -91.5t-97.5 -25.5zM125 329h29q26 0 26 36v51q0 30 -26 30h-29v-117zM125 92h29q31 0 31 37v73q0 35 -31 35h-29v-145z" />
    <glyph glyph-name="uni0433" unicode="&#x433;" horiz-adv-x="219" 
d="M18 0v538h196v-102h-89v-436h-107z" />
    <glyph glyph-name="uni0434" unicode="&#x434;" horiz-adv-x="360" 
d="M97 -100h-97v202h25q13 30 19 80q11 72 11 356h260v-436h40v-202h-97v100h-161v-100zM140 164q-6 -37 -13 -62h81v334h-56q0 -198 -12 -272z" />
    <glyph glyph-name="uni0435" unicode="&#x435;" horiz-adv-x="292" 
d="M139 545h20q120 0 120 -134v-155h-159v-124q0 -40 29 -40q27 0 27 39v89h103v-94q0 -136 -125 -136h-19q-56 0 -87 34t-31 101v291q0 58 30 93.5t92 35.5zM120 412v-68h59v68q0 43 -29 43q-13 0 -20 -6t-8.5 -14.5t-1.5 -22.5z" />
    <glyph glyph-name="uni0436" unicode="&#x436;" horiz-adv-x="461" 
d="M177 0v260l-74 -260h-111l85 296l-78 242h107l71 -221v221h107v-221l71 221h107l-78 -242l85 -296h-111l-74 260v-260h-107z" />
    <glyph glyph-name="uni0437" unicode="&#x437;" horiz-adv-x="296" 
d="M281 197v-69q0 -137 -124 -137h-23q-62 0 -91.5 38t-29.5 90v90h103v-78q0 -40 30 -40q28 0 28 38v72q0 36 -31 36h-51v98h51q15 0 20.5 8t5.5 36v27q0 24 -5.5 34.5t-20.5 10.5q-27 0 -27 -45v-43h-103v51q0 66 27 99t91 33h16q72 0 100.5 -32t28.5 -100v-36
q0 -41 -13 -60t-38 -28q28 -9 42 -27.5t14 -65.5z" />
    <glyph glyph-name="uni0438" unicode="&#x438;" horiz-adv-x="323" 
d="M305 0h-102v299l-73 -299h-112v538h102v-317l73 317h112v-538z" />
    <glyph glyph-name="uni0439" unicode="&#x439;" horiz-adv-x="323" 
d="M305 0h-102v299l-73 -299h-112v538h102v-317l73 317h112v-538zM166 565h-3q-47 0 -74 25.5t-27 77.5v4h78v-4q0 -34 24 -34h1q24 0 24 34v4h75v-4q0 -51 -27 -77t-71 -26z" />
    <glyph glyph-name="uni043A" unicode="&#x43a;" horiz-adv-x="314" 
d="M211 0l-86 240v-240h-107v538h107v-204l83 204h107l-101 -239l108 -299h-111z" />
    <glyph glyph-name="uni043B" unicode="&#x43b;" horiz-adv-x="323" 
d="M45 147q5 53 5 391h255v-538h-107v436h-46q0 -246 -9 -328q-6 -63 -27 -85.5t-73 -22.5h-43v102h12q16 0 23 10t10 35z" />
    <glyph glyph-name="uni043C" unicode="&#x43c;" horiz-adv-x="409" 
d="M176 0l-58 319v-319h-100v538h135l55 -301l55 301h128v-538h-107v320l-58 -320h-50z" />
    <glyph glyph-name="uni043D" unicode="&#x43d;" horiz-adv-x="312" 
d="M125 0h-107v538h107v-219h62v219h107v-538h-107v217h-62v-217z" />
    <glyph glyph-name="uni043E" unicode="&#x43e;" horiz-adv-x="306" 
d="M17 130v277q0 67 33.5 103t94.5 36h20q61 0 94.5 -35t33.5 -100v-281q0 -57 -34.5 -98t-93.5 -41h-20q-65 0 -96.5 39.5t-31.5 99.5zM125 406v-271q0 -42 30 -42t30 42v271q0 41 -30 41t-30 -41z" />
    <glyph glyph-name="uni043F" unicode="&#x43f;" horiz-adv-x="312" 
d="M125 0h-107v538h276v-538h-107v436h-62v-436z" />
    <glyph glyph-name="uni0440" unicode="&#x440;" horiz-adv-x="309" 
d="M20 538h107v-58q38 61 87 61h1q39 0 59 -28t20 -73v-338q0 -51 -23.5 -78.5t-58.5 -27.5h-2q-41 0 -83 51v-235h-107v726zM127 407v-279q0 -20 8.5 -30.5t21.5 -10.5q28 0 28 39v281q0 39 -28 39q-30 0 -30 -39z" />
    <glyph glyph-name="uni0441" unicode="&#x441;" horiz-adv-x="293" 
d="M179 241h103v-121q0 -52 -29.5 -90.5t-91.5 -38.5h-20q-61 0 -92.5 36.5t-31.5 93.5v293q0 132 128 132h19q118 0 118 -117v-96h-103v73q0 24 -5 34.5t-22 10.5t-22 -10.5t-5 -33.5v-275q0 -41 26 -41q28 0 28 40v110z" />
    <glyph glyph-name="uni0442" unicode="&#x442;" horiz-adv-x="267" 
d="M80 0v436h-75v102h257v-102h-75v-436h-107z" />
    <glyph glyph-name="uni0443" unicode="&#x443;" horiz-adv-x="281" 
d="M83 16l-84 522h104l42 -329l40 329h102l-108 -646q-7 -41 -22.5 -60.5t-43.5 -19.5h-101v102h46q13 0 17 5.5t7 21.5l3 23q3 22 -2 52z" />
    <glyph glyph-name="uni0444" unicode="&#x444;" horiz-adv-x="453" 
d="M305 -9h-25v-179h-107v179h-25q-68 0 -100.5 39.5t-32.5 99.5v277q0 67 35 103t98 36h25v198h107v-198h25q63 0 98 -35t35 -100v-281q0 -57 -35.5 -98t-97.5 -41zM158 93h15v354h-15q-35 0 -35 -41v-271q0 -42 35 -42zM295 447h-15v-354h15q35 0 35 42v271q0 41 -35 41z
" />
    <glyph glyph-name="uni0445" unicode="&#x445;" horiz-adv-x="278" 
d="M75 287l-74 251h103l40 -160l36 160h95l-68 -249l77 -289h-100l-43 171l-46 -171h-97z" />
    <glyph glyph-name="uni0446" unicode="&#x446;" horiz-adv-x="339" 
d="M334 102v-202h-97v100h-219v538h107v-436h62v436h107v-436h40z" />
    <glyph glyph-name="uni0447" unicode="&#x447;" horiz-adv-x="303" 
d="M125 538v-212q0 -17 7 -23.5t24 -6.5q13 0 22 4v238h107v-538h-107v213q-27 -13 -63 -13q-51 0 -74 27t-23 87v224h107z" />
    <glyph glyph-name="uni0448" unicode="&#x448;" horiz-adv-x="461" 
d="M18 0v538h107v-436h52v436h107v-436h52v436h107v-538h-425z" />
    <glyph glyph-name="uni0449" unicode="&#x449;" horiz-adv-x="488" 
d="M18 0v538h107v-436h52v436h107v-436h52v436h107v-436h40v-202h-97v100h-368z" />
    <glyph glyph-name="uni044A" unicode="&#x44a;" horiz-adv-x="347" 
d="M5 436v102h169v-180h41q73 0 97.5 -24t24.5 -89v-128q0 -66 -24.5 -91.5t-97.5 -25.5h-148v436h-62zM174 92h25q31 0 31 32v112q0 17 -7 23.5t-24 6.5h-25v-174z" />
    <glyph glyph-name="uni044B" unicode="&#x44b;" horiz-adv-x="443" 
d="M18 0v538h107v-180h41q73 0 97.5 -24t24.5 -89v-128q0 -66 -24.5 -91.5t-97.5 -25.5h-148zM125 92h25q31 0 31 32v112q0 17 -7 23.5t-24 6.5h-25v-174zM427 538v-538h-107v538h107z" />
    <glyph glyph-name="uni044C" unicode="&#x44c;" horiz-adv-x="298" 
d="M18 0v538h107v-180h41q73 0 97.5 -24t24.5 -89v-128q0 -66 -24.5 -91.5t-97.5 -25.5h-148zM125 92h25q31 0 31 32v112q0 17 -7 23.5t-24 6.5h-25v-174z" />
    <glyph glyph-name="uni044D" unicode="&#x44d;" horiz-adv-x="293" 
d="M278 414v-293q0 -57 -31.5 -93.5t-92.5 -36.5h-20q-62 0 -91.5 38.5t-29.5 90.5v91h103v-80q0 -40 28 -40h1q25 0 25 41v105h-93v98h93v72q0 44 -26 44h-2q-11 0 -17 -6t-7.5 -14.5t-1.5 -24.5v-43h-103v66q0 117 118 117h19q128 0 128 -132z" />
    <glyph glyph-name="uni044E" unicode="&#x44e;" horiz-adv-x="452" 
d="M437 411v-281q0 -57 -34.5 -98t-93.5 -41h-20q-65 0 -96.5 39.5t-31.5 99.5v87h-36v-217h-107v538h107v-219h36v88q0 67 33.5 103t94.5 36h20q61 0 94.5 -35t33.5 -100zM269 406v-271q0 -42 30 -42t30 42v271q0 41 -30 41t-30 -41z" />
    <glyph glyph-name="uni044F" unicode="&#x44f;" horiz-adv-x="307" 
d="M182 210h-10l-62 -210h-110l68 224q-29 11 -40 33.5t-11 65.5v98q0 66 24.5 91.5t97.5 25.5h150v-538h-107v210zM182 446h-27q-31 0 -31 -32v-87q0 -17 7 -23.5t24 -6.5h27v149z" />
    <glyph glyph-name="uni0451" unicode="&#x451;" horiz-adv-x="295" 
d="M139 545h20q120 0 120 -134v-155h-159v-124q0 -40 29 -40q27 0 27 39v89h103v-94q0 -136 -125 -136h-19q-56 0 -87 34t-31 101v291q0 58 30 93.5t92 35.5zM120 412v-68h59v68q0 43 -29 43q-13 0 -20 -6t-8.5 -14.5t-1.5 -22.5zM137 665v-98h-89v98h89zM250 665v-98h-89
v98h89z" />
    <glyph glyph-name="uni0452" unicode="&#x452;" horiz-adv-x="309" 
d="M291 458v-568q0 -78 -70 -78h-69v102h10q21 0 21 24v465q0 40 -28 40q-30 0 -30 -44v-399h-107v592h-38v71h38v81h107v-81h78v-71h-78v-115q38 64 89 64h5q39 0 55.5 -25t16.5 -58z" />
    <glyph glyph-name="uni0453" unicode="&#x453;" horiz-adv-x="219" 
d="M18 0v538h196v-102h-89v-436h-107zM77 567l38 130h90l-40 -130h-88z" />
    <glyph glyph-name="uni0454" unicode="&#x454;" horiz-adv-x="293" 
d="M280 211v-91q0 -52 -29.5 -90.5t-91.5 -38.5h-20q-61 0 -92.5 36.5t-31.5 93.5v293q0 132 128 132h19q118 0 118 -117v-66h-103v43q0 24 -4.5 34.5t-21.5 10.5h-1q-17 0 -22 -10.5t-5 -33.5v-72h93v-98h-93v-105q0 -41 26 -41h1q27 0 27 40v80h103z" />
    <glyph glyph-name="uni0455" unicode="&#x455;" horiz-adv-x="274" 
d="M262 449v-81h-96v64q0 30 -24 30q-23 0 -23 -33v-9q0 -19 5 -30.5t20 -29.5l65 -78q36 -43 48 -74.5t12 -73.5v-14q0 -54 -30 -91.5t-91 -37.5h-21q-60 0 -88 30t-28 80v97h100v-77q0 -21 6 -29t21 -8q25 0 25 37v9q0 44 -29 77l-63 72q-53 60 -53 139v15q0 53 28.5 83
t87.5 30h19q109 0 109 -97z" />
    <glyph glyph-name="uni0456" unicode="&#x456;" horiz-adv-x="143" 
d="M127 538v-538h-107v538h107zM127 682v-115h-107v115h107z" />
    <glyph glyph-name="uni0457" unicode="&#x457;" horiz-adv-x="143" 
d="M64 682v-115h-70v115h70zM149 682v-115h-71v115h71zM127 538v-538h-107v538h107z" />
    <glyph glyph-name="uni0458" unicode="&#x458;" horiz-adv-x="144" 
d="M128 682v-115h-107v115h107zM-50 -86h50q21 0 21 24v600h107v-648q0 -78 -69 -78h-109v102z" />
    <glyph glyph-name="uni0459" unicode="&#x459;" horiz-adv-x="478" 
d="M50 538h255v-180h41q73 0 97.5 -24t24.5 -89v-128q0 -66 -24.5 -91.5t-97.5 -25.5h-148v436h-46q0 -246 -9 -328q-6 -63 -27 -85.5t-73 -22.5h-43v102h12q16 0 23 10t10 35q5 53 5 391zM305 266v-174h25q31 0 31 32v112q0 17 -7 23.5t-24 6.5h-25z" />
    <glyph glyph-name="uni045A" unicode="&#x45a;" horiz-adv-x="467" 
d="M125 0h-107v538h107v-203h62v203h107v-203h41q73 0 97.5 -24t24.5 -89v-105q0 -66 -24.5 -91.5t-97.5 -25.5h-148v233h-62v-233zM294 233v-141h25q31 0 31 32v79q0 17 -7 23.5t-24 6.5h-25z" />
    <glyph glyph-name="uni045B" unicode="&#x45b;" horiz-adv-x="313" 
d="M-18 592v71h38v81h107v-81h78v-71h-78v-115q38 64 89 64h5q39 0 55.5 -25t16.5 -58v-458h-108v403q0 40 -28 40q-30 0 -30 -44v-399h-107v592h-38z" />
    <glyph glyph-name="uni045C" unicode="&#x45c;" horiz-adv-x="314" 
d="M117 567l38 130h90l-40 -130h-88zM211 0l-86 240v-240h-107v538h107v-204l83 204h107l-101 -239l108 -299h-111z" />
    <glyph glyph-name="uni045E" unicode="&#x45e;" horiz-adv-x="281" 
d="M83 16l-84 522h104l42 -329l40 329h102l-108 -646q-7 -41 -22.5 -60.5t-43.5 -19.5h-101v102h46q13 0 17 5.5t7 21.5l3 23q3 22 -2 52zM143 565h-3q-47 0 -74 25.5t-27 77.5v4h78v-4q0 -34 24 -34h1q24 0 24 34v4h75v-4q0 -51 -27 -77t-71 -26z" />
    <glyph glyph-name="uni045F" unicode="&#x45f;" horiz-adv-x="312" 
d="M294 0h-90v-100h-96v100h-90v538h107v-436h62v436h107v-538z" />
    <glyph glyph-name="uni0490" unicode="&#x490;" horiz-adv-x="257" 
d="M23 0v744h124v105h103v-213h-114v-636h-113z" />
    <glyph glyph-name="uni0491" unicode="&#x491;" horiz-adv-x="219" 
d="M18 0v538h99v100h97v-202h-89v-436h-107z" />
    <glyph glyph-name="uni0492" unicode="&#x492;" horiz-adv-x="257" 
d="M23 430v314h227v-108h-114v-206h70v-95h-70v-335h-113v335h-27v95h27z" />
    <glyph glyph-name="uni0493" unicode="&#x493;" horiz-adv-x="228" 
d="M27 299v239h196v-102h-89v-137h62v-71h-62v-228h-107v228h-23v71h23z" />
    <glyph glyph-name="uni0496" unicode="&#x496;" horiz-adv-x="526" 
d="M521 -105h-103v105h-24l-89 337v-337h-113v337l-89 -337h-109l106 392l-98 352h106l84 -311v311h113v-311l84 311h105l-96 -346l76 -285h47v-218z" />
    <glyph glyph-name="uni0497" unicode="&#x497;" horiz-adv-x="485" 
d="M480 -100h-97v100h-25l-74 260v-260h-107v260l-74 -260h-111l85 296l-78 242h107l71 -221v221h107v-221l71 221h107l-78 -242l55 -194h41v-202z" />
    <glyph glyph-name="uni049A" unicode="&#x49a;" horiz-adv-x="365" 
d="M360 -105h-103v105h-29l-94 323v-323h-113v744h113v-298l89 298h110l-105 -346l83 -285h49v-218z" />
    <glyph glyph-name="uni049B" unicode="&#x49b;" horiz-adv-x="331" 
d="M326 -100h-97v100h-18l-86 240v-240h-107v538h107v-204l83 204h107l-101 -239l71 -197h41v-202z" />
    <glyph glyph-name="uni04A2" unicode="&#x4a2;" horiz-adv-x="379" 
d="M374 -105h-103v105h-60v327h-77v-327h-113v744h113v-298h77v298h113v-631h50v-218z" />
    <glyph glyph-name="uni04A3" unicode="&#x4a3;" horiz-adv-x="339" 
d="M334 -100h-97l1 100h-51v217h-62v-217h-107v538h107v-219h62v219h107v-436h40v-202z" />
    <glyph glyph-name="uni04AE" unicode="&#x4ae;" horiz-adv-x="302" 
d="M310 744l-99 -435v-309h-113v310l-102 434h110l52 -278l50 278h102z" />
    <glyph glyph-name="uni04AF" unicode="&#x4af;" horiz-adv-x="278" 
d="M194 0v-188h-107v188l-90 538h104l41 -308l40 308h99z" />
    <glyph glyph-name="uni04B0" unicode="&#x4b0;" horiz-adv-x="302" 
d="M98 214h-59v96h59l-102 434h110l52 -278l50 278h102l-99 -434h55v-96h-55v-214h-113v214z" />
    <glyph glyph-name="uni04B1" unicode="&#x4b1;" horiz-adv-x="278" 
d="M194 -71v-117h-107v117h-55v71h55l-90 538h104l41 -308l40 308h99l-87 -538h55v-71h-55z" />
    <glyph glyph-name="uni04B2" unicode="&#x4b2;" horiz-adv-x="366" 
d="M361 -105h-103v105h-32l-56 269l-57 -269h-114l98 398l-84 346h115l48 -235l46 235h110l-85 -346l68 -285h46v-218z" />
    <glyph glyph-name="uni04B3" unicode="&#x4b3;" horiz-adv-x="298" 
d="M293 -100h-97v100h-12l-43 171l-46 -171h-97l77 287l-74 251h103l40 -160l36 160h95l-68 -249l50 -187h36v-202z" />
    <glyph glyph-name="uni04BA" unicode="&#x4ba;" horiz-adv-x="345" 
d="M134 744v-307q30 10 69 10h1q61 0 90.5 -32t29.5 -87v-328h-113v279q0 32 -9 43t-30 11h-2q-26 0 -36 -6v-327h-113v744h113z" />
    <glyph glyph-name="uni04BB" unicode="&#x4bb;" horiz-adv-x="309" 
d="M20 0v744h107v-267q38 64 89 64h5q39 0 55.5 -25t16.5 -58v-458h-108v403q0 40 -28 40q-30 0 -30 -44v-399h-107z" />
    <glyph glyph-name="uni04C0" unicode="&#x4c0;" horiz-adv-x="155" 
d="M136 744v-744h-113v744h113z" />
    <glyph glyph-name="uni04CF" unicode="&#x4cf;" horiz-adv-x="143" 
d="M127 744v-744h-107v744h107z" />
    <glyph glyph-name="uni04D8" unicode="&#x4d8;" horiz-adv-x="332" 
d="M18 152v286h184v156q0 26 -7.5 37.5t-27.5 11.5q-38 0 -38 -49v-114h-111v116q0 32 4.5 55.5t17.5 48.5t42.5 38t73.5 13h26q70 0 102.5 -42.5t32.5 -106.5v-454q0 -157 -139 -157h-25q-135 0 -135 161zM129 330v-179q0 -50 37 -50q36 0 36 51v178h-73z" />
    <glyph glyph-name="uni04D9" unicode="&#x4d9;" horiz-adv-x="291" 
d="M277 411v-291q0 -58 -30 -93.5t-92 -35.5h-20q-120 0 -120 134v165h159v114q0 40 -29 40q-27 0 -27 -39v-79h-103v84q0 136 125 136h19q56 0 87 -34t31 -101zM144 81q13 0 20 6t8.5 14.5t1.5 22.5v78h-59v-78q0 -43 29 -43z" />
    <glyph glyph-name="uni04E8" unicode="&#x4e8;" horiz-adv-x="349" 
d="M331 581v-415q0 -175 -144 -175h-23q-146 0 -146 175v414q0 171 145 171h23q78 0 111.5 -44t33.5 -126zM132 592v-151h85v151q0 59 -42 59q-43 0 -43 -59zM132 329v-177q0 -59 44 -59q41 0 41 59v177h-85z" />
    <glyph glyph-name="uni04E9" unicode="&#x4e9;" horiz-adv-x="312" 
d="M169 -9h-26q-65 0 -96.5 39.5t-31.5 99.5v277q0 67 33.5 103t94.5 36h26q61 0 94.5 -35t33.5 -100v-281q0 -57 -34.5 -98t-93.5 -41zM122 410v-97h68v97q0 42 -34 42t-34 -42zM122 223v-92q0 -43 34 -43t34 43v92h-68z" />
    <glyph glyph-name="Wgrave" unicode="&#x1e80;" horiz-adv-x="531" 
d="M216 744h105l51 -482l52 482h106l-95 -744h-121l-47 433l-48 -433h-125l-93 744h114l51 -481zM313 773h-92l-44 109h94z" />
    <glyph glyph-name="wgrave" unicode="&#x1e81;" horiz-adv-x="460" 
d="M193 0h-112l-82 538h107l40 -335l41 335h94l41 -335l40 335h99l-82 -538h-108l-39 306zM276 567h-89l-39 130h91z" />
    <glyph glyph-name="Wacute" unicode="&#x1e82;" horiz-adv-x="531" 
d="M216 744h105l51 -482l52 482h106l-95 -744h-121l-47 433l-48 -433h-125l-93 744h114l51 -481zM223 773l42 109h94l-44 -109h-92z" />
    <glyph glyph-name="wacute" unicode="&#x1e83;" horiz-adv-x="460" 
d="M193 0h-112l-82 538h107l40 -335l41 335h94l41 -335l40 335h99l-82 -538h-108l-39 306zM191 567l38 130h90l-40 -130h-88z" />
    <glyph glyph-name="Wdieresis" unicode="&#x1e84;" horiz-adv-x="531" 
d="M216 744h105l51 -482l52 482h106l-95 -744h-121l-47 433l-48 -433h-125l-93 744h114l51 -481zM255 872v-99h-90v99h90zM371 872v-99h-90v99h90z" />
    <glyph glyph-name="wdieresis" unicode="&#x1e85;" horiz-adv-x="460" 
d="M193 0h-112l-82 538h107l40 -335l41 335h94l41 -335l40 335h99l-82 -538h-108l-39 306zM221 665v-98h-89v98h89zM334 665v-98h-89v98h89z" />
    <glyph glyph-name="Ygrave" unicode="&#x1ef2;" horiz-adv-x="306" 
d="M310 744l-99 -435v-309h-113v310l-102 434h110l52 -278l50 278h102zM205 773h-92l-44 109h94z" />
    <glyph glyph-name="ygrave" unicode="&#x1ef3;" horiz-adv-x="285" 
d="M83 16l-84 522h104l42 -329l40 329h102l-108 -646q-7 -41 -22.5 -60.5t-43.5 -19.5h-101v102h46q13 0 17 5.5t7 21.5l3 23q3 22 -2 52zM188 567h-89l-39 130h91z" />
    <glyph glyph-name="uni2009" unicode="&#x2009;" horiz-adv-x="14" 
 />
    <glyph glyph-name="endash" unicode="&#x2013;" horiz-adv-x="305" 
d="M16 339h273v-78h-273v78z" />
    <glyph glyph-name="emdash" unicode="&#x2014;" horiz-adv-x="463" 
d="M16 339h431v-78h-431v78z" />
    <glyph glyph-name="quoteleft" unicode="&#x2018;" horiz-adv-x="129" 
d="M74 659h40v-112h-99v82q0 64 22 115h55q-13 -36 -18 -85z" />
    <glyph glyph-name="quoteright" unicode="&#x2019;" horiz-adv-x="129" 
d="M92 547h-55q13 36 18 85h-40v112h99v-82q0 -64 -22 -115z" />
    <glyph glyph-name="quotesinglbase" unicode="&#x201a;" horiz-adv-x="129" 
d="M55 0h-40v112h99v-82q0 -64 -22 -115h-55q13 36 18 85z" />
    <glyph glyph-name="quotedblleft" unicode="&#x201c;" horiz-adv-x="247" 
d="M37 744h55q-13 -36 -18 -85h40v-112h-99v82q0 64 22 115zM155 744h55q-13 -36 -18 -85h40v-112h-99v82q0 64 22 115z" />
    <glyph glyph-name="quotedblright" unicode="&#x201d;" horiz-adv-x="247" 
d="M210 547h-55q13 36 18 85h-40v112h99v-82q0 -64 -22 -115zM92 547h-55q13 36 18 85h-40v112h99v-82q0 -64 -22 -115z" />
    <glyph glyph-name="quotedblbase" unicode="&#x201e;" horiz-adv-x="247" 
d="M92 -85h-55q13 36 18 85h-40v112h99v-82q0 -64 -22 -115zM210 -85h-55q13 36 18 85h-40v112h99v-82q0 -64 -22 -115z" />
    <glyph glyph-name="dagger" unicode="&#x2020;" horiz-adv-x="246" 
d="M71 0v491h-64v106h64v147h105v-147h63v-106h-63v-491h-105z" />
    <glyph glyph-name="daggerdbl" unicode="&#x2021;" horiz-adv-x="244" 
d="M71 148h-64v106h64v237h-64v106h64v147h103v-147h63v-106h-63v-237h63v-106h-63v-148h-103v148z" />
    <glyph glyph-name="bullet" unicode="&#x2022;" horiz-adv-x="218" 
d="M14 329q0 42 27 68.5t68 26.5t68 -26.5t27 -68.5t-27 -68.5t-68 -26.5t-68 26.5t-27 68.5z" />
    <glyph glyph-name="ellipsis" unicode="&#x2026;" horiz-adv-x="391" 
d="M270 128h105v-128h-105v128zM143 0v128h105v-128h-105zM121 0h-105v128h105v-128z" />
    <glyph glyph-name="perthousand" unicode="&#x2030;" horiz-adv-x="685" 
d="M14 508v144q0 47 24.5 72.5t67.5 25.5h19q42 0 66 -26t24 -72v-144q0 -45 -24 -71t-66 -26h-19q-41 0 -66.5 25t-25.5 72zM582 -4h-19q-42 0 -67.5 25t-25.5 72v144q0 46 25 71.5t68 25.5h18q42 0 66 -25.5t24 -71.5v-144q0 -45 -23.5 -71t-65.5 -26zM362 -4h-19
q-41 0 -66.5 25t-25.5 72v144q0 47 24.5 72t67.5 25h18q42 0 66 -25.5t24 -71.5v-144q0 -45 -23.5 -71t-65.5 -26zM331 744h74l-268 -744h-74zM350 72q20 0 20 23v141q0 23 -20 23q-18 0 -18 -23v-141q0 -23 18 -23zM133 510v141q0 23 -19 23t-19 -23v-141q0 -23 19 -23
t19 23zM570 72q19 0 19 23v141q0 23 -19 23q-18 0 -18 -23v-141q0 -23 18 -23z" />
    <glyph glyph-name="uni2032" unicode="&#x2032;" horiz-adv-x="113" 
d="M109 744l-21 -175h-84l22 175h83z" />
    <glyph glyph-name="uni2033" unicode="&#x2033;" horiz-adv-x="215" 
d="M107 744l-21 -175h-82l21 175h82zM211 744l-22 -175h-82l22 175h82z" />
    <glyph glyph-name="guilsinglleft" unicode="&#x2039;" horiz-adv-x="153" 
d="M97 286l47 -163h-86l-44 136v54l44 134h87z" />
    <glyph glyph-name="guilsinglright" unicode="&#x203a;" horiz-adv-x="151" 
d="M53 284l-43 163h85l42 -136v-53l-42 -135h-87z" />
    <glyph glyph-name="fraction" unicode="&#x2044;" horiz-adv-x="330" 
d="M255 744h73l-252 -744h-74z" />
    <glyph glyph-name="zero.sup" unicode="&#x2070;" horiz-adv-x="213" 
d="M102 750h9q45 0 66.5 -21.5t21.5 -68.5v-172q0 -90 -88 -90h-11q-86 0 -86 90v172q0 90 88 90zM106 686q-17 0 -17 -25v-176q0 -22 16 -22q18 0 18 22v176q0 25 -17 25z" />
    <glyph glyph-name="four.sup" unicode="&#x2074;" horiz-adv-x="201" 
d="M7 468v47q53 130 89 230h69v-215h29v-62h-29v-63h-69v63h-89zM62 530h34v96q-10 -43 -34 -96z" />
    <glyph glyph-name="five.sup" unicode="&#x2075;" horiz-adv-x="201" 
d="M85 545h-69v199h164v-64h-95v-67q22 37 55 37q49 -1 49 -56v-105q0 -91 -81 -91h-15q-44 0 -62 20.5t-18 58.5v40h74v-42q0 -17 13 -17t13 17v90q0 18 -13 18q-15 0 -15 -18v-20z" />
    <glyph glyph-name="six.sup" unicode="&#x2076;" horiz-adv-x="209" 
d="M148 623q25 -1 36.5 -16.5t11.5 -37.5v-92q0 -34 -23.5 -56.5t-64.5 -22.5h-6q-46 0 -67 22.5t-21 58.5v192q0 79 84 79h8q47 0 65 -20.5t18 -58.5v-30h-72v28q0 18 -15 18q-13 0 -13 -18v-78q23 32 59 32zM106 461q16 0 16 20v64q0 20 -16 20q-17 0 -17 -20v-64
q0 -20 17 -20z" />
    <glyph glyph-name="seven.sup" unicode="&#x2077;" horiz-adv-x="183" 
d="M11 744h165v-30q0 -13 -3.5 -31.5t-11.5 -56t-13 -62.5q-13 -58 -13 -159h-86q1 68 27 148q37 111 37 134h-37v-61h-65v118z" />
    <glyph glyph-name="eight.sup" unicode="&#x2078;" horiz-adv-x="203" 
d="M187 675v-30q0 -42 -26 -61q31 -15 31 -63v-42q0 -37 -21 -59t-65 -22h-8q-86 0 -86 83v40q0 45 31 63q-29 21 -29 61v30q0 75 82 75h9q82 0 82 -75zM118 479v52q0 20 -16 20q-15 0 -15 -20v-52q0 -18 15 -18q16 0 16 18zM115 630v42q0 18 -14 18t-14 -18v-42
q0 -18 14 -18t14 18z" />
    <glyph glyph-name="nine.sup" unicode="&#x2079;" horiz-adv-x="209" 
d="M13 579v90q0 81 85 81h11q44 0 65 -23t21 -60v-189q0 -80 -85 -80h-7q-47 0 -65 20t-18 59v30h72v-28q0 -18 15 -18q13 0 13 18v78q-29 -32 -58 -32q-25 1 -37 16t-12 38zM103 687q-16 0 -16 -20v-63q0 -21 16 -21q17 0 17 21v63q0 20 -17 20z" />
    <glyph glyph-name="zero.sub" unicode="&#x2080;" horiz-adv-x="213" 
d="M102 217h9q45 0 66.5 -21.5t21.5 -68.5v-172q0 -90 -88 -90h-11q-86 0 -86 90v172q0 90 88 90zM106 153q-17 0 -17 -25v-176q0 -22 16 -22q18 0 18 22v176q0 25 -17 25z" />
    <glyph glyph-name="one.sub" unicode="&#x2081;" horiz-adv-x="141" 
d="M51 114h-44v56q21 0 33.5 7t16 14t6.5 20h60v-339h-72v242z" />
    <glyph glyph-name="two.sub" unicode="&#x2082;" horiz-adv-x="206" 
d="M197 -128h-190v38q0 27 14 51.5t62 85.5q17 20 22.5 33.5t5.5 36.5v19q0 20 -15 20t-15 -19v-60h-68v62q0 38 17 58t59 20h15q83 0 83 -76v-21q0 -36 -12 -59.5t-44 -57.5q-42 -44 -48.5 -52.5t-6.5 -18.5h56v56h65v-116z" />
    <glyph glyph-name="three.sub" unicode="&#x2083;" horiz-adv-x="199" 
d="M80 96h-67v37q0 43 17.5 63.5t60.5 20.5h12q42 0 60 -19t18 -61v-28q0 -37 -25 -52q31 -15 31 -49v-64q0 -79 -81 -79h-14q-80 0 -80 75v54h70v-49q0 -20 15 -20q13 0 13 20v49q0 12 -3 16t-13 4h-33v64h31q10 0 14 4t4 16v38q0 22 -15 22t-15 -22v-40z" />
    <glyph glyph-name="four.sub" unicode="&#x2084;" horiz-adv-x="201" 
d="M7 -65v47q53 130 89 230h69v-215h29v-62h-29v-63h-69v63h-89zM62 -3h34v96q-10 -43 -34 -96z" />
    <glyph glyph-name="five.sub" unicode="&#x2085;" horiz-adv-x="201" 
d="M85 12h-69v199h164v-64h-95v-67q22 37 55 37q49 -1 49 -56v-105q0 -91 -81 -91h-15q-44 0 -62 20.5t-18 58.5v40h74v-42q0 -17 13 -17t13 17v90q0 18 -13 18q-15 0 -15 -18v-20z" />
    <glyph glyph-name="six.sub" unicode="&#x2086;" horiz-adv-x="209" 
d="M148 90q25 -1 36.5 -16.5t11.5 -37.5v-92q0 -34 -23.5 -56.5t-64.5 -22.5h-6q-46 0 -67 22.5t-21 58.5v192q0 79 84 79h8q47 0 65 -20.5t18 -58.5v-30h-72v28q0 18 -15 18q-13 0 -13 -18v-78q23 32 59 32zM106 -72q16 0 16 20v64q0 20 -16 20q-17 0 -17 -20v-64
q0 -20 17 -20z" />
    <glyph glyph-name="seven.sub" unicode="&#x2087;" horiz-adv-x="183" 
d="M11 211h165v-30q0 -13 -3.5 -31.5t-11.5 -56t-13 -62.5q-13 -58 -13 -159h-86q1 68 27 148q37 111 37 134h-37v-61h-65v118z" />
    <glyph glyph-name="eight.sub" unicode="&#x2088;" horiz-adv-x="203" 
d="M187 142v-30q0 -42 -26 -61q31 -15 31 -63v-42q0 -37 -21 -59t-65 -22h-8q-86 0 -86 83v40q0 45 31 63q-29 21 -29 61v30q0 75 82 75h9q82 0 82 -75zM118 -54v52q0 20 -16 20q-15 0 -15 -20v-52q0 -18 15 -18q16 0 16 18zM115 97v42q0 18 -14 18t-14 -18v-42
q0 -18 14 -18t14 18z" />
    <glyph glyph-name="nine.sub" unicode="&#x2089;" horiz-adv-x="209" 
d="M13 46v90q0 81 85 81h11q44 0 65 -23t21 -60v-189q0 -80 -85 -80h-7q-47 0 -65 20t-18 59v30h72v-28q0 -18 15 -18q13 0 13 18v78q-29 -32 -58 -32q-25 1 -37 16t-12 38zM103 154q-16 0 -16 -20v-63q0 -21 16 -21q17 0 17 21v63q0 20 -17 20z" />
    <glyph glyph-name="Euro" unicode="&#x20ac;" horiz-adv-x="381" 
d="M7 294v79h55v29h-55v79h55v121q0 63 33 106t104 43h26q36 0 62 -9.5t40.5 -24t23 -36t11 -41.5t2.5 -45v-88h-110v87q0 49 -39 49q-38 0 -38 -49v-113h132v-79h-132v-29h134v-79h-134v-142q0 -51 38 -51q39 0 39 50v115h110v-113q0 -162 -136 -162h-24q-142 0 -142 158
v145h-55z" />
    <glyph glyph-name="uni20B4" unicode="&#x20b4;" horiz-adv-x="338" 
d="M331 479v-80h-324v80h159q24 31 32 53t8 53v14q0 28 -6.5 40t-25.5 12h-1q-32 0 -32 -44v-87h-109v92q0 73 31.5 106t97.5 33h21q139 0 139 -145v-22q0 -61 -33 -105h43zM327 248v-115q0 -141 -138 -141h-22q-146 0 -146 174v17q0 63 27 107h-41v80h324v-80h-156
q-22 -30 -28 -50.5t-6 -58.5v-17q0 -35 8 -49.5t28 -14.5h1q37 0 37 52v96h112z" />
    <glyph glyph-name="uni20B8" unicode="&#x20b8;" horiz-adv-x="316" 
d="M7 664v80h302v-80h-302zM7 526v108h302v-108h-95v-526h-112v526h-95z" />
    <glyph glyph-name="uni20BD" unicode="&#x20bd;" horiz-adv-x="359" 
d="M346 621v-176q0 -136 -116 -136h-66v-30h105v-80h-105v-199h-113v199h-55v80h55v30h-55v80h55v355h179q61 0 88.5 -28.5t27.5 -94.5zM164 643v-237h29q24 0 31.5 13.5t7.5 40.5v132q0 25 -8 38t-31 13h-29z" />
    <glyph glyph-name="uni2116" unicode="&#x2116;" horiz-adv-x="563" 
d="M463 411h-19q-41 0 -66.5 25t-25.5 72v144q0 47 24.5 72t67.5 25h19q42 0 66 -25.5t24 -71.5v-144q0 -45 -24 -71t-66 -26zM451 487q21 0 21 23v141q0 23 -21 23q-18 0 -18 -23v-141q0 -23 18 -23zM357 302v83h190v-83h-190zM23 744h102l97 -399v399h103v-744h-92
l-108 428v-428h-102v744z" />
    <glyph glyph-name="trademark" unicode="&#x2122;" horiz-adv-x="330" 
d="M145 465v279h71l16 -124l15 124h71v-279h-52v162l-23 -162h-24l-22 162v-162h-52zM132 744v-58h-31v-221h-64v221h-31v58h126z" />
    <glyph glyph-name="onethird" unicode="&#x2153;" horiz-adv-x="392" 
d="M51 647h-44v56q21 0 33.5 7t16 14t6.5 20h60v-339h-72v242zM262 744h73l-252 -744h-74zM273 224h-67v37q0 43 17.5 63.5t60.5 20.5h12q42 0 60 -19t18 -61v-28q0 -37 -25 -52q31 -15 31 -49v-64q0 -79 -81 -79h-14q-80 0 -80 75v54h70v-49q0 -20 15 -20q13 0 13 20v49
q0 12 -3 16t-13 4h-33v64h31q10 0 14 4t4 16v38q0 22 -15 22t-15 -22v-40z" />
    <glyph glyph-name="twothirds" unicode="&#x2154;" horiz-adv-x="458" 
d="M197 405h-190v38q0 27 14 52t62 85q17 20 22.5 33.5t5.5 36.5v19q0 20 -15 20t-15 -19v-60h-68v62q0 38 17 58t59 20h15q83 0 83 -76v-21q0 -35 -12 -59t-44 -58q-42 -44 -48.5 -52.5t-6.5 -18.5h56v56h65v-116zM328 744h73l-252 -744h-74zM339 224h-67v37
q0 43 17.5 63.5t60.5 20.5h12q42 0 60 -19t18 -61v-28q0 -37 -25 -52q31 -15 31 -49v-64q0 -79 -81 -79h-14q-80 0 -80 75v54h70v-49q0 -20 15 -20q13 0 13 20v49q0 12 -3 16t-13 4h-33v64h31q10 0 14 4t4 16v38q0 22 -15 22t-15 -22v-40z" />
    <glyph glyph-name="oneeighth" unicode="&#x215b;" horiz-adv-x="396" 
d="M51 647h-44v56q21 0 33.5 7t16 14t6.5 20h60v-339h-72v242zM262 744h73l-252 -744h-74zM380 270v-30q0 -42 -26 -61q31 -15 31 -63v-42q0 -37 -21 -59t-65 -22h-8q-86 0 -86 83v40q0 45 31 63q-29 21 -29 61v30q0 75 82 75h9q82 0 82 -75zM311 74v52q0 20 -16 20
q-15 0 -15 -20v-52q0 -18 15 -18q16 0 16 18zM308 225v42q0 18 -14 18t-14 -18v-42q0 -18 14 -18t14 18z" />
    <glyph glyph-name="threeeighths" unicode="&#x215c;" horiz-adv-x="441" 
d="M308 744h73l-252 -744h-74zM80 629h-67v37q0 43 17.5 63.5t60.5 20.5h12q42 0 60 -19t18 -61v-28q0 -37 -25 -52q31 -16 31 -49v-64q0 -79 -81 -79h-14q-80 0 -80 75v54h70v-49q0 -20 15 -20q13 0 13 20v49q0 12 -3 16t-13 4h-33v64h31q10 0 14 4t4 16v38q0 22 -15 22
t-15 -22v-40zM425 270v-30q0 -42 -26 -61q31 -15 31 -63v-42q0 -37 -21 -59t-65 -22h-8q-86 0 -86 83v40q0 45 31 63q-29 21 -29 61v30q0 75 82 75h9q82 0 82 -75zM356 74v52q0 20 -16 20q-15 0 -15 -20v-52q0 -18 15 -18q16 0 16 18zM353 225v42q0 18 -14 18t-14 -18v-42
q0 -18 14 -18t14 18z" />
    <glyph glyph-name="fiveeighths" unicode="&#x215d;" horiz-adv-x="440" 
d="M307 744h73l-252 -744h-74zM85 545h-69v199h164v-64h-95v-67q22 37 55 37q49 -1 49 -56v-105q0 -91 -81 -91h-15q-44 0 -62 20.5t-18 58.5v40h74v-42q0 -17 13 -17t13 17v90q0 18 -13 18q-15 0 -15 -18v-20zM424 270v-30q0 -42 -26 -61q31 -15 31 -63v-42q0 -37 -21 -59
t-65 -22h-8q-86 0 -86 83v40q0 45 31 63q-29 21 -29 61v30q0 75 82 75h9q82 0 82 -75zM355 74v52q0 20 -16 20q-15 0 -15 -20v-52q0 -18 15 -18q16 0 16 18zM352 225v42q0 18 -14 18t-14 -18v-42q0 -18 14 -18t14 18z" />
    <glyph glyph-name="seveneighths" unicode="&#x215e;" horiz-adv-x="405" 
d="M11 744h165v-30q0 -13 -3.5 -31.5t-11.5 -56t-13 -62.5q-13 -58 -13 -159h-86q1 68 27 148q37 111 37 134h-37v-61h-65v118zM273 744h73l-252 -744h-74zM389 270v-30q0 -42 -26 -61q31 -15 31 -63v-42q0 -37 -21 -59t-65 -22h-8q-86 0 -86 83v40q0 45 31 63
q-29 21 -29 61v30q0 75 82 75h9q82 0 82 -75zM320 74v52q0 20 -16 20q-15 0 -15 -20v-52q0 -18 15 -18q16 0 16 18zM317 225v42q0 18 -14 18t-14 -18v-42q0 -18 14 -18t14 18z" />
    <glyph glyph-name="minus" unicode="&#x2212;" horiz-adv-x="317" 
d="M16 345h285v-85h-285v85z" />
    <glyph glyph-name="uni24C5" unicode="&#x24c5;" horiz-adv-x="495" 
d="M253 -11h-10q-223 0 -223 245v278q0 119 58 181t166 62h12q219 0 219 -243v-278q0 -124 -59 -184.5t-163 -60.5zM245 51h8q150 0 150 196v257q0 189 -148 189h-10q-83 0 -117 -49t-34 -140v-257q0 -196 151 -196zM274 326h-38v-206h-90v506h128q48 0 69 -20.5t21 -68.5
v-111q0 -100 -90 -100zM236 549v-146h15q14 0 18.5 7t4.5 25v84q0 18 -4.5 24t-18.5 6h-15z" />
    <glyph glyph-name="zero.den" unicode="&#xe402;" horiz-adv-x="213" 
d="M102 345h9q45 0 66.5 -21.5t21.5 -68.5v-172q0 -90 -88 -90h-11q-86 0 -86 90v172q0 90 88 90zM106 281q-17 0 -17 -25v-176q0 -22 16 -22q18 0 18 22v176q0 25 -17 25z" />
    <glyph glyph-name="one.den" unicode="&#xe403;" horiz-adv-x="141" 
d="M51 242h-44v56q21 0 33.5 7t16 14t6.5 20h60v-339h-72v242z" />
    <glyph glyph-name="two.den" unicode="&#xe404;" horiz-adv-x="206" 
d="M197 0h-190v38q0 27 14 52t62 85q17 20 22.5 33.5t5.5 36.5v19q0 20 -15 20t-15 -19v-60h-68v62q0 38 17 58t59 20h15q83 0 83 -76v-21q0 -36 -12 -59.5t-44 -57.5q-42 -44 -48.5 -52.5t-6.5 -18.5h56v56h65v-116z" />
    <glyph glyph-name="three.den" unicode="&#xe405;" horiz-adv-x="199" 
d="M80 224h-67v37q0 43 17.5 63.5t60.5 20.5h12q42 0 60 -19t18 -61v-28q0 -37 -25 -52q31 -15 31 -49v-64q0 -79 -81 -79h-14q-80 0 -80 75v54h70v-49q0 -20 15 -20q13 0 13 20v49q0 12 -3 16t-13 4h-33v64h31q10 0 14 4t4 16v38q0 22 -15 22t-15 -22v-40z" />
    <glyph glyph-name="four.den" unicode="&#xe406;" horiz-adv-x="201" 
d="M7 63v47q53 130 89 230h69v-215h29v-62h-29v-63h-69v63h-89zM62 125h34v96q-10 -43 -34 -96z" />
    <glyph glyph-name="five.den" unicode="&#xe407;" horiz-adv-x="201" 
d="M85 140h-69v199h164v-64h-95v-67q22 37 55 37q49 -1 49 -56v-105q0 -91 -81 -91h-15q-44 0 -62 20.5t-18 58.5v40h74v-42q0 -17 13 -17t13 17v90q0 18 -13 18q-15 0 -15 -18v-20z" />
    <glyph glyph-name="six.den" unicode="&#xe408;" horiz-adv-x="209" 
d="M148 218q25 -1 36.5 -16.5t11.5 -37.5v-92q0 -34 -23.5 -56.5t-64.5 -22.5h-6q-46 0 -67 22.5t-21 58.5v192q0 79 84 79h8q47 0 65 -20.5t18 -58.5v-30h-72v28q0 18 -15 18q-13 0 -13 -18v-78q23 32 59 32zM106 56q16 0 16 20v64q0 20 -16 20q-17 0 -17 -20v-64
q0 -20 17 -20z" />
    <glyph glyph-name="seven.den" unicode="&#xe409;" horiz-adv-x="183" 
d="M11 340h165v-30q0 -13 -3.5 -31.5t-11.5 -56t-13 -62.5q-13 -58 -13 -159h-86q1 68 27 148q37 111 37 134h-37v-61h-65v118z" />
    <glyph glyph-name="eight.den" unicode="&#xe40a;" horiz-adv-x="203" 
d="M187 270v-30q0 -42 -26 -61q31 -15 31 -63v-42q0 -37 -21 -59t-65 -22h-8q-86 0 -86 83v40q0 45 31 63q-29 21 -29 61v30q0 75 82 75h9q82 0 82 -75zM118 74v52q0 20 -16 20q-15 0 -15 -20v-52q0 -18 15 -18q16 0 16 18zM115 225v42q0 18 -14 18t-14 -18v-42
q0 -18 14 -18t14 18z" />
    <glyph glyph-name="nine.den" unicode="&#xe40b;" horiz-adv-x="209" 
d="M13 174v90q0 81 85 81h11q44 0 65 -23t21 -60v-189q0 -80 -85 -80h-7q-47 0 -65 20t-18 59v30h72v-28q0 -18 15 -18q13 0 13 18v78q-29 -32 -58 -32q-25 1 -37 16t-12 38zM103 282q-16 0 -16 -20v-63q0 -21 16 -21q17 0 17 21v63q0 20 -17 20z" />
    <glyph glyph-name="zero.num" unicode="&#xe416;" horiz-adv-x="213" 
d="M102 750h9q45 0 66.5 -21.5t21.5 -68.5v-172q0 -90 -88 -90h-11q-86 0 -86 90v172q0 90 88 90zM106 686q-17 0 -17 -25v-176q0 -22 16 -22q18 0 18 22v176q0 25 -17 25z" />
    <glyph glyph-name="one.num" unicode="&#xe417;" horiz-adv-x="141" 
d="M51 647h-44v56q21 0 33.5 7t16 14t6.5 20h60v-339h-72v242z" />
    <glyph glyph-name="two.num" unicode="&#xe418;" horiz-adv-x="206" 
d="M197 405h-190v38q0 27 14 52t62 85q17 20 22.5 33.5t5.5 36.5v19q0 20 -15 20t-15 -19v-60h-68v62q0 38 17 58t59 20h15q83 0 83 -76v-21q0 -35 -12 -59t-44 -58q-42 -44 -48.5 -52.5t-6.5 -18.5h56v56h65v-116z" />
    <glyph glyph-name="three.num" unicode="&#xe419;" horiz-adv-x="199" 
d="M80 629h-67v37q0 43 17.5 63.5t60.5 20.5h12q42 0 60 -19t18 -61v-28q0 -37 -25 -52q31 -16 31 -49v-64q0 -79 -81 -79h-14q-80 0 -80 75v54h70v-49q0 -20 15 -20q13 0 13 20v49q0 12 -3 16t-13 4h-33v64h31q10 0 14 4t4 16v38q0 22 -15 22t-15 -22v-40z" />
    <glyph glyph-name="four.num" unicode="&#xe41a;" horiz-adv-x="201" 
d="M7 468v47q53 130 89 230h69v-215h29v-62h-29v-63h-69v63h-89zM62 530h34v96q-10 -43 -34 -96z" />
    <glyph glyph-name="five.num" unicode="&#xe41b;" horiz-adv-x="201" 
d="M85 545h-69v199h164v-64h-95v-67q22 37 55 37q49 -1 49 -56v-105q0 -91 -81 -91h-15q-44 0 -62 20.5t-18 58.5v40h74v-42q0 -17 13 -17t13 17v90q0 18 -13 18q-15 0 -15 -18v-20z" />
    <glyph glyph-name="six.num" unicode="&#xe41c;" horiz-adv-x="209" 
d="M148 623q25 -1 36.5 -16.5t11.5 -37.5v-92q0 -34 -23.5 -56.5t-64.5 -22.5h-6q-46 0 -67 22.5t-21 58.5v192q0 79 84 79h8q47 0 65 -20.5t18 -58.5v-30h-72v28q0 18 -15 18q-13 0 -13 -18v-78q23 32 59 32zM106 461q16 0 16 20v64q0 20 -16 20q-17 0 -17 -20v-64
q0 -20 17 -20z" />
    <glyph glyph-name="seven.num" unicode="&#xe41d;" horiz-adv-x="183" 
d="M11 744h165v-30q0 -13 -3.5 -31.5t-11.5 -56t-13 -62.5q-13 -58 -13 -159h-86q1 68 27 148q37 111 37 134h-37v-61h-65v118z" />
    <glyph glyph-name="eight.num" unicode="&#xe41e;" horiz-adv-x="203" 
d="M187 675v-30q0 -42 -26 -61q31 -15 31 -63v-42q0 -37 -21 -59t-65 -22h-8q-86 0 -86 83v40q0 45 31 63q-29 21 -29 61v30q0 75 82 75h9q82 0 82 -75zM118 479v52q0 20 -16 20q-15 0 -15 -20v-52q0 -18 15 -18q16 0 16 18zM115 630v42q0 18 -14 18t-14 -18v-42
q0 -18 14 -18t14 18z" />
    <glyph glyph-name="nine.num" unicode="&#xe41f;" horiz-adv-x="209" 
d="M13 579v90q0 81 85 81h11q44 0 65 -23t21 -60v-189q0 -80 -85 -80h-7q-47 0 -65 20t-18 59v30h72v-28q0 -18 15 -18q13 0 13 18v78q-29 -32 -58 -32q-25 1 -37 16t-12 38zM103 687q-16 0 -16 -20v-63q0 -21 16 -21q17 0 17 21v63q0 20 -17 20z" />
    <glyph glyph-name="f_f_i" unicode="&#xfb03;" horiz-adv-x="589" 
d="M246 744v-99h-47q-14 0 -18 -5.5t-4 -20.5v-81h91v137q0 27 17.5 48t58.5 21h97v-99h-44q-14 0 -18 -5.5t-4 -20.5v-81h66v-102h-66v-436h-107v436h-91v-436h-107v436h-64v102h64v137q0 27 17.5 48t58.5 21h100zM573 538v-538h-107v538h107zM573 682v-115h-107v115h107z
" />
    <glyph glyph-name="f_f_l" unicode="&#xfb04;" horiz-adv-x="589" 
d="M246 744v-99h-47q-14 0 -18 -5.5t-4 -20.5v-81h91v137q0 27 17.5 48t58.5 21h97v-99h-44q-14 0 -18 -5.5t-4 -20.5v-81h66v-102h-66v-436h-107v436h-91v-436h-107v436h-64v102h64v137q0 27 17.5 48t58.5 21h100zM573 744v-744h-107v744h107z" />
    <glyph glyph-name="idotaccent" horiz-adv-x="147" 
d="M127 538v-538h-107v538h107zM127 682v-115h-107v115h107z" />
    <glyph glyph-name="space_uni0326" 
d="M195 -196h-45q12 31 13 65h-38v102h92v-64q0 -56 -22 -103z" />
    <glyph glyph-name="E.alt" horiz-adv-x="295" 
d="M23 744h256v-109h-143v-195h135v-112h-135v-215h148v-113h-261v744z" />
    <glyph glyph-name="F.alt" horiz-adv-x="286" 
d="M23 744h252v-109h-140v-195h133v-111h-133v-329h-112v744z" />
    <glyph glyph-name="J.alt" horiz-adv-x="220" 
d="M10 0v115h54q17 0 17 23v606h117v-673q0 -71 -66 -71h-122z" />
    <glyph glyph-name="IJ.alt" horiz-adv-x="375" 
d="M136 744v-744h-113v744h113zM165 0v115h54q17 0 17 23v606h117v-673q0 -71 -66 -71h-122z" />
    <glyph glyph-name="a.alt" horiz-adv-x="296" 
d="M174 61q-36 -64 -87 -64h-3q-32 0 -50.5 25t-18.5 59v126q0 41 11 65.5t40 42.5q11 7 30 17t39 19.5t24 11.5q9 6 11 9t2 14v34q0 20 -6 27.5t-20 7.5h-2q-15 0 -21 -7.5t-6 -26.5v-57h-96v76q0 102 113 102h20q71 0 96 -28.5t25 -77.5v-330q0 -79 11 -101v-5h-104
q-8 19 -8 61zM172 133v139q-26 -15 -38 -27q-14 -14 -14 -43v-74q0 -35 25 -35q27 0 27 40z" />
    <glyph glyph-name="a.alt2" horiz-adv-x="308" 
d="M182 538h106v-538h-106v61q-8 -23 -30 -44.5t-52 -21.5h-2q-35 0 -57 31.5t-22 82.5v328q0 43 18.5 73.5t55.5 30.5h2q10 0 19.5 -2t17.5 -6.5t13.5 -8.5t12 -11.5t9.5 -11t8.5 -11.5t6.5 -9v57zM182 142v255q0 48 -29 48q-27 0 -27 -43v-266q0 -43 27 -43q29 0 29 49z
" />
    <glyph glyph-name="r.alt" horiz-adv-x="249" 
d="M125 538v-71q31 75 83 75h4q15 0 27 -4v-122q-25 9 -50 9h-4q-33 0 -45.5 -10.5t-12.5 -37.5v-377h-107v538h105z" />
    <glyph glyph-name="Eacute.alt" horiz-adv-x="296" 
d="M108 773l42 109h94l-44 -109h-92zM23 744h256v-109h-143v-195h135v-112h-135v-215h148v-113h-261v744z" />
    <glyph glyph-name="Ebreve.alt" horiz-adv-x="295" 
d="M23 744h256v-109h-143v-195h135v-112h-135v-215h148v-113h-261v744zM156 770h-3q-44 0 -71.5 25t-27.5 69v6h77v-4q0 -27 23 -27h1q24 0 24 27v4h76v-6q0 -44 -29 -69t-70 -25z" />
    <glyph glyph-name="Ecaron.alt" horiz-adv-x="295" 
d="M23 744h256v-109h-143v-195h135v-112h-135v-215h148v-113h-261v744zM109 773l-63 109h81l27 -48l27 48h80l-63 -109h-89z" />
    <glyph glyph-name="Ecircumflex.alt" horiz-adv-x="296" 
d="M198 882l63 -109h-81l-27 48l-27 -48h-80l63 109h89zM23 744h256v-109h-143v-195h135v-112h-135v-215h148v-113h-261v744z" />
    <glyph glyph-name="Edieresis.alt" horiz-adv-x="296" 
d="M140 872v-99h-90v99h90zM256 872v-99h-90v99h90zM23 744h256v-109h-143v-195h135v-112h-135v-215h148v-113h-261v744z" />
    <glyph glyph-name="Edotaccent.alt" horiz-adv-x="295" 
d="M23 744h256v-109h-143v-195h135v-112h-135v-215h148v-113h-261v744zM208 888v-115h-107v115h107z" />
    <glyph glyph-name="Egrave.alt" horiz-adv-x="296" 
d="M204 773h-92l-44 109h94zM23 744h256v-109h-143v-195h135v-112h-135v-215h148v-113h-261v744z" />
    <glyph glyph-name="Emacron.alt" horiz-adv-x="295" 
d="M23 744h256v-109h-143v-195h135v-112h-135v-215h148v-113h-261v744zM67 780v79h173v-79h-173z" />
    <glyph glyph-name="Eogonek.alt" horiz-adv-x="295" 
d="M122 -124v15q0 43 66 109h56q-25 -35 -34 -53t-9 -38v-4q0 -21 24 -21h19v-72h-50q-32 0 -52 16.5t-20 47.5zM23 744h256v-109h-143v-195h135v-112h-135v-215h148v-113h-261v744z" />
    <glyph glyph-name="Jcircumflex.alt" horiz-adv-x="220" 
d="M10 0v115h54q17 0 17 23v606h117v-673q0 -71 -66 -71h-122zM183 882l63 -109h-81l-27 48l-27 -48h-80l63 109h89z" />
    <glyph glyph-name="aacute.alt" horiz-adv-x="296" 
d="M174 61q-36 -64 -87 -64h-3q-32 0 -50.5 25t-18.5 59v126q0 41 11 65.5t40 42.5q11 7 30 17t39 19.5t24 11.5q9 6 11 9t2 14v34q0 20 -6 27.5t-20 7.5h-2q-15 0 -21 -7.5t-6 -26.5v-57h-96v76q0 102 113 102h20q71 0 96 -28.5t25 -77.5v-330q0 -79 11 -101v-5h-104
q-8 19 -8 61zM172 133v139q-26 -15 -38 -27q-14 -14 -14 -43v-74q0 -35 25 -35q27 0 27 40zM102 567l38 130h90l-40 -130h-88z" />
    <glyph glyph-name="aacute.alt2" horiz-adv-x="308" 
d="M182 538h106v-538h-106v61q-8 -23 -30 -44.5t-52 -21.5h-2q-35 0 -57 31.5t-22 82.5v328q0 43 18.5 73.5t55.5 30.5h2q10 0 19.5 -2t17.5 -6.5t13.5 -8.5t12 -11.5t9.5 -11t8.5 -11.5t6.5 -9v57zM182 142v255q0 48 -29 48q-27 0 -27 -43v-266q0 -43 27 -43q29 0 29 49z
M108 567l38 130h90l-40 -130h-88z" />
    <glyph glyph-name="abreve.alt" horiz-adv-x="296" 
d="M174 61q-36 -64 -87 -64h-3q-32 0 -50.5 25t-18.5 59v126q0 41 11 65.5t40 42.5q11 7 30 17t39 19.5t24 11.5q9 6 11 9t2 14v34q0 20 -6 27.5t-20 7.5h-2q-15 0 -21 -7.5t-6 -26.5v-57h-96v76q0 102 113 102h20q71 0 96 -28.5t25 -77.5v-330q0 -79 11 -101v-5h-104
q-8 19 -8 61zM172 133v139q-26 -15 -38 -27q-14 -14 -14 -43v-74q0 -35 25 -35q27 0 27 40zM146 565h-3q-47 0 -74 25.5t-27 77.5v4h78v-4q0 -34 24 -34h1q24 0 24 34v4h75v-4q0 -51 -27 -77t-71 -26z" />
    <glyph glyph-name="abreve.alt2" horiz-adv-x="308" 
d="M182 538h106v-538h-106v61q-8 -23 -30 -44.5t-52 -21.5h-2q-35 0 -57 31.5t-22 82.5v328q0 43 18.5 73.5t55.5 30.5h2q10 0 19.5 -2t17.5 -6.5t13.5 -8.5t12 -11.5t9.5 -11t8.5 -11.5t6.5 -9v57zM182 142v255q0 48 -29 48q-27 0 -27 -43v-266q0 -43 27 -43q29 0 29 49z
M150 565h-3q-47 0 -74 25.5t-27 77.5v4h78v-4q0 -34 24 -34h1q24 0 24 34v4h75v-4q0 -51 -27 -77t-71 -26z" />
    <glyph glyph-name="acircumflex.alt" horiz-adv-x="296" 
d="M174 61q-36 -64 -87 -64h-3q-32 0 -50.5 25t-18.5 59v126q0 41 11 65.5t40 42.5q11 7 30 17t39 19.5t24 11.5q9 6 11 9t2 14v34q0 20 -6 27.5t-20 7.5h-2q-15 0 -21 -7.5t-6 -26.5v-57h-96v76q0 102 113 102h20q71 0 96 -28.5t25 -77.5v-330q0 -79 11 -101v-5h-104
q-8 19 -8 61zM172 133v139q-26 -15 -38 -27q-14 -14 -14 -43v-74q0 -35 25 -35q27 0 27 40zM192 698l57 -131h-79l-25 65l-25 -65h-77l57 131h92z" />
    <glyph glyph-name="acircumflex.alt2" horiz-adv-x="308" 
d="M182 538h106v-538h-106v61q-8 -23 -30 -44.5t-52 -21.5h-2q-35 0 -57 31.5t-22 82.5v328q0 43 18.5 73.5t55.5 30.5h2q10 0 19.5 -2t17.5 -6.5t13.5 -8.5t12 -11.5t9.5 -11t8.5 -11.5t6.5 -9v57zM182 142v255q0 48 -29 48q-27 0 -27 -43v-266q0 -43 27 -43q29 0 29 49z
M198 698l57 -131h-79l-25 65l-25 -65h-77l57 131h92z" />
    <glyph glyph-name="adieresis.alt" horiz-adv-x="296" 
d="M174 61q-36 -64 -87 -64h-3q-32 0 -50.5 25t-18.5 59v126q0 41 11 65.5t40 42.5q11 7 30 17t39 19.5t24 11.5q9 6 11 9t2 14v34q0 20 -6 27.5t-20 7.5h-2q-15 0 -21 -7.5t-6 -26.5v-57h-96v76q0 102 113 102h20q71 0 96 -28.5t25 -77.5v-330q0 -79 11 -101v-5h-104
q-8 19 -8 61zM172 133v139q-26 -15 -38 -27q-14 -14 -14 -43v-74q0 -35 25 -35q27 0 27 40zM133 665v-98h-89v98h89zM246 665v-98h-89v98h89z" />
    <glyph glyph-name="adieresis.alt2" horiz-adv-x="308" 
d="M182 538h106v-538h-106v61q-8 -23 -30 -44.5t-52 -21.5h-2q-35 0 -57 31.5t-22 82.5v328q0 43 18.5 73.5t55.5 30.5h2q10 0 19.5 -2t17.5 -6.5t13.5 -8.5t12 -11.5t9.5 -11t8.5 -11.5t6.5 -9v57zM182 142v255q0 48 -29 48q-27 0 -27 -43v-266q0 -43 27 -43q29 0 29 49z
M141 665v-98h-89v98h89zM254 665v-98h-89v98h89z" />
    <glyph glyph-name="agrave.alt" horiz-adv-x="296" 
d="M174 61q-36 -64 -87 -64h-3q-32 0 -50.5 25t-18.5 59v126q0 41 11 65.5t40 42.5q11 7 30 17t39 19.5t24 11.5q9 6 11 9t2 14v34q0 20 -6 27.5t-20 7.5h-2q-15 0 -21 -7.5t-6 -26.5v-57h-96v76q0 102 113 102h20q71 0 96 -28.5t25 -77.5v-330q0 -79 11 -101v-5h-104
q-8 19 -8 61zM172 133v139q-26 -15 -38 -27q-14 -14 -14 -43v-74q0 -35 25 -35q27 0 27 40zM189 567h-89l-39 130h91z" />
    <glyph glyph-name="agrave.alt2" horiz-adv-x="308" 
d="M182 538h106v-538h-106v61q-8 -23 -30 -44.5t-52 -21.5h-2q-35 0 -57 31.5t-22 82.5v328q0 43 18.5 73.5t55.5 30.5h2q10 0 19.5 -2t17.5 -6.5t13.5 -8.5t12 -11.5t9.5 -11t8.5 -11.5t6.5 -9v57zM182 142v255q0 48 -29 48q-27 0 -27 -43v-266q0 -43 27 -43q29 0 29 49z
M195 567h-89l-39 130h91z" />
    <glyph glyph-name="amacron.alt" horiz-adv-x="296" 
d="M174 61q-36 -64 -87 -64h-3q-32 0 -50.5 25t-18.5 59v126q0 41 11 65.5t40 42.5q11 7 30 17t39 19.5t24 11.5q9 6 11 9t2 14v34q0 20 -6 27.5t-20 7.5h-2q-15 0 -21 -7.5t-6 -26.5v-57h-96v76q0 102 113 102h20q71 0 96 -28.5t25 -77.5v-330q0 -79 11 -101v-5h-104
q-8 19 -8 61zM172 133v139q-26 -15 -38 -27q-14 -14 -14 -43v-74q0 -35 25 -35q27 0 27 40zM60 579v77h172v-77h-172z" />
    <glyph glyph-name="amacron.alt2" horiz-adv-x="308" 
d="M182 538h106v-538h-106v61q-8 -23 -30 -44.5t-52 -21.5h-2q-35 0 -57 31.5t-22 82.5v328q0 43 18.5 73.5t55.5 30.5h2q10 0 19.5 -2t17.5 -6.5t13.5 -8.5t12 -11.5t9.5 -11t8.5 -11.5t6.5 -9v57zM182 142v255q0 48 -29 48q-27 0 -27 -43v-266q0 -43 27 -43q29 0 29 49z
M64 579v77h172v-77h-172z" />
    <glyph glyph-name="aogonek.alt" horiz-adv-x="296" 
d="M174 61q-36 -64 -87 -64h-3q-32 0 -50.5 25t-18.5 59v126q0 41 11 65.5t40 42.5q11 7 30 17t39 19.5t24 11.5q9 6 11 9t2 14v34q0 20 -6 27.5t-20 7.5h-2q-15 0 -21 -7.5t-6 -26.5v-57h-96v76q0 102 113 102h20q71 0 96 -28.5t25 -77.5v-330q0 -79 11 -101v-5h-104
q-8 19 -8 61zM172 133v139q-26 -15 -38 -27q-14 -14 -14 -43v-74q0 -35 25 -35q27 0 27 40zM164 -124v15q0 43 66 109h56q-25 -35 -34 -53t-9 -38v-4q0 -21 24 -21h19v-72h-50q-32 0 -52 16.5t-20 47.5z" />
    <glyph glyph-name="aogonek.alt2" horiz-adv-x="308" 
d="M182 538h106v-538h-106v61q-8 -23 -30 -44.5t-52 -21.5h-2q-35 0 -57 31.5t-22 82.5v328q0 43 18.5 73.5t55.5 30.5h2q10 0 19.5 -2t17.5 -6.5t13.5 -8.5t12 -11.5t9.5 -11t8.5 -11.5t6.5 -9v57zM182 142v255q0 48 -29 48q-27 0 -27 -43v-266q0 -43 27 -43q29 0 29 49z
M166 -124v15q0 43 66 109h56q-25 -35 -34 -53t-9 -38v-4q0 -21 24 -21h19v-72h-50q-32 0 -52 16.5t-20 47.5z" />
    <glyph glyph-name="aring.alt" horiz-adv-x="296" 
d="M174 61q-36 -64 -87 -64h-3q-32 0 -50.5 25t-18.5 59v126q0 41 11 65.5t40 42.5q11 7 30 17t39 19.5t24 11.5q9 6 11 9t2 14v34q0 20 -6 27.5t-20 7.5h-2q-15 0 -21 -7.5t-6 -26.5v-57h-96v76q0 102 113 102h20q71 0 96 -28.5t25 -77.5v-330q0 -79 11 -101v-5h-104
q-8 19 -8 61zM172 133v139q-26 -15 -38 -27q-14 -14 -14 -43v-74q0 -35 25 -35q27 0 27 40zM145 563q-35 0 -57.5 23t-22.5 58q0 33 23 56t57 23q35 0 57 -22.5t22 -56.5q0 -35 -22 -58t-57 -23zM145 610q14 0 22.5 9t8.5 24q0 14 -8.5 23.5t-22.5 9.5t-22.5 -9.5
t-8.5 -23.5q0 -15 8.5 -24t22.5 -9z" />
    <glyph glyph-name="aring.alt2" horiz-adv-x="308" 
d="M182 538h106v-538h-106v61q-8 -23 -30 -44.5t-52 -21.5h-2q-35 0 -57 31.5t-22 82.5v328q0 43 18.5 73.5t55.5 30.5h2q10 0 19.5 -2t17.5 -6.5t13.5 -8.5t12 -11.5t9.5 -11t8.5 -11.5t6.5 -9v57zM182 142v255q0 48 -29 48q-27 0 -27 -43v-266q0 -43 27 -43q29 0 29 49z
M149 563q-35 0 -57.5 23t-22.5 58q0 33 23 56t57 23q35 0 57 -22.5t22 -56.5q0 -35 -22 -58t-57 -23zM149 610q14 0 22.5 9t8.5 24q0 14 -8.5 23.5t-22.5 9.5t-22.5 -9.5t-8.5 -23.5q0 -15 8.5 -24t22.5 -9z" />
    <glyph glyph-name="aringacute.alt" horiz-adv-x="296" 
d="M144 563q-35 0 -57.5 23t-22.5 58q0 33 23 56t57 23q35 0 57 -22.5t22 -56.5q0 -35 -22 -58t-57 -23zM144 610q14 0 22.5 9t8.5 24q0 14 -8.5 23.5t-22.5 9.5t-22.5 -9.5t-8.5 -23.5q0 -15 8.5 -24t22.5 -9zM102 742l38 130h90l-40 -130h-88zM174 61q-36 -64 -87 -64h-3
q-32 0 -50.5 25t-18.5 59v126q0 41 11 65.5t40 42.5q11 7 30 17t39 19.5t24 11.5q9 6 11 9t2 14v34q0 20 -6 27.5t-20 7.5h-2q-15 0 -21 -7.5t-6 -26.5v-57h-96v76q0 102 113 102h20q71 0 96 -28.5t25 -77.5v-330q0 -79 11 -101v-5h-104q-8 19 -8 61zM172 133v139
q-26 -15 -38 -27q-14 -14 -14 -43v-74q0 -35 25 -35q27 0 27 40z" />
    <glyph glyph-name="aringacute.alt2" horiz-adv-x="308" 
d="M149 563q-35 0 -57.5 23t-22.5 58q0 33 23 56t57 23q35 0 57 -22.5t22 -56.5q0 -35 -22 -58t-57 -23zM149 610q14 0 22.5 9t8.5 24q0 14 -8.5 23.5t-22.5 9.5t-22.5 -9.5t-8.5 -23.5q0 -15 8.5 -24t22.5 -9zM107 742l38 130h90l-40 -130h-88zM182 538h106v-538h-106v61
q-8 -23 -30 -44.5t-52 -21.5h-2q-35 0 -57 31.5t-22 82.5v328q0 43 18.5 73.5t55.5 30.5h2q10 0 19.5 -2t17.5 -6.5t13.5 -8.5t12 -11.5t9.5 -11t8.5 -11.5t6.5 -9v57zM182 142v255q0 48 -29 48q-27 0 -27 -43v-266q0 -43 27 -43q29 0 29 49z" />
    <glyph glyph-name="atilde.alt" horiz-adv-x="296" 
d="M174 61q-36 -64 -87 -64h-3q-32 0 -50.5 25t-18.5 59v126q0 41 11 65.5t40 42.5q11 7 30 17t39 19.5t24 11.5q9 6 11 9t2 14v34q0 20 -6 27.5t-20 7.5h-2q-15 0 -21 -7.5t-6 -26.5v-57h-96v76q0 102 113 102h20q71 0 96 -28.5t25 -77.5v-330q0 -79 11 -101v-5h-104
q-8 19 -8 61zM172 133v139q-26 -15 -38 -27q-14 -14 -14 -43v-74q0 -35 25 -35q27 0 27 40zM178 672h64v-46q0 -57 -42 -57h-1q-21 0 -57 17q-20 9 -23 9q-7 0 -7 -9v-19h-64v47q0 56 43 56h1q22 0 54 -16q19 -11 26 -11q6 0 6 9v20z" />
    <glyph glyph-name="atilde.alt2" horiz-adv-x="308" 
d="M182 538h106v-538h-106v61q-8 -23 -30 -44.5t-52 -21.5h-2q-35 0 -57 31.5t-22 82.5v328q0 43 18.5 73.5t55.5 30.5h2q10 0 19.5 -2t17.5 -6.5t13.5 -8.5t12 -11.5t9.5 -11t8.5 -11.5t6.5 -9v57zM182 142v255q0 48 -29 48q-27 0 -27 -43v-266q0 -43 27 -43q29 0 29 49z
M187 672h64v-46q0 -57 -42 -57h-1q-21 0 -57 17q-20 9 -23 9q-7 0 -7 -9v-19h-64v47q0 56 43 56h1q22 0 54 -16q19 -11 26 -11q6 0 6 9v20z" />
    <glyph glyph-name="racute.alt" horiz-adv-x="249" 
d="M125 538v-71q31 75 83 75h4q15 0 27 -4v-122q-25 9 -50 9h-4q-33 0 -45.5 -10.5t-12.5 -37.5v-377h-107v538h105zM85 567l38 130h90l-40 -130h-88z" />
    <glyph glyph-name="rcaron.alt" horiz-adv-x="249" 
d="M125 538v-71q31 75 83 75h4q15 0 27 -4v-122q-25 9 -50 9h-4q-33 0 -45.5 -10.5t-12.5 -37.5v-377h-107v538h105zM84 567l-57 130h79l25 -64l25 64h77l-57 -130h-92z" />
    <glyph glyph-name="rcommaaccent.alt" horiz-adv-x="249" 
d="M125 538v-71q31 75 83 75h4q15 0 27 -4v-122q-25 9 -50 9h-4q-33 0 -45.5 -10.5t-12.5 -37.5v-377h-107v538h105zM99 -196h-45q12 31 13 65h-38v102h92v-64q0 -56 -22 -103z" />
    <glyph glyph-name="space_uni0326.alt" 
d="M145 734h49q-13 -39 -13 -66h37v-101h-93v62q0 62 20 105z" />
    <glyph glyph-name="ordfeminine.alt" horiz-adv-x="181" 
d="M167 685v-166q0 -44 7 -56v-4h-66q-4 12 -4 37q-19 -40 -52 -40h-1q-20 0 -31.5 15.5t-11.5 38.5v54q0 26 9 39.5t30 25.5l49 25q7 4 7 12v8q0 18 -14 18h-1q-14 0 -14 -18v-19h-62v30q0 29 14 46t55 17h12q44 0 59 -16t15 -47zM103 536v63q-10 -5 -19 -13q-9 -9 -9 -27
v-25q0 -19 13 -19q15 0 15 21z" />
    <glyph glyph-name="ordfeminine.alt2" horiz-adv-x="195" 
d="M112 744h69v-285h-69v38q-16 -40 -50 -40h-1q-22 0 -35.5 16.5t-13.5 45.5v167q0 26 12 43t34 17h2q36 0 52 -35v33zM112 541v124q0 25 -16 25q-15 0 -15 -22v-130q0 -23 15 -23q16 0 16 26z" />
    <glyph glyph-name="caron.alt" 
d="M127 600l7 144h81l-12 -144h-76z" />
    <glyph glyph-name="plus.uc" horiz-adv-x="337" 
d="M123 176v125h-107v85h107v126h91v-126h107v-85h-107v-125h-91z" />
    <glyph glyph-name="minus.uc" horiz-adv-x="317" 
d="M16 386h285v-85h-285v85z" />
    <glyph glyph-name="multiply.uc" horiz-adv-x="301" 
d="M237 194l-88 89l-85 -89l-58 54l87 92l-88 90l60 63l87 -90l85 90l59 -56l-88 -92l88 -91z" />
    <glyph glyph-name="divide.uc" horiz-adv-x="343" 
d="M16 386h311v-85h-311v85zM221 517v-97h-99v97h99zM221 263v-98h-99v98h99z" />
    <glyph glyph-name="equal.uc" horiz-adv-x="334" 
d="M18 328h298v-76h-298v76zM18 435h298v-76h-298v76z" />
    <glyph glyph-name="less.uc" horiz-adv-x="283" 
d="M10 306v76l260 104v-82l-162 -61l162 -60v-81z" />
    <glyph glyph-name="greater.uc" horiz-adv-x="283" 
d="M13 404v82l260 -104v-76l-260 -104v81l161 61z" />
    <glyph glyph-name="questiondown.uc" horiz-adv-x="305" 
d="M118 591h91v-120q0 -49 -6 -72t-29 -62l-29 -49q-15 -24 -19 -43.5t-4 -53.5v-54q0 -22 6 -30.5t23 -8.5t22 8.5t5 30.5v120h108v-120q0 -71 -26 -108.5t-98 -37.5h-22q-74 0 -103.5 35t-29.5 104v74q0 68 45 134l33 46q21 32 27 53.5t6 66.5v87zM111 616v128h104v-128
h-104z" />
    <glyph glyph-name="exclamdown.uc" horiz-adv-x="152" 
d="M127 744v-128h-104v128h104zM138 0h-124l43 591h37z" />
    <glyph glyph-name="hyphen.uc" horiz-adv-x="173" 
d="M16 388h141v-98h-141v98z" />
    <glyph glyph-name="endash.uc" horiz-adv-x="305" 
d="M16 379h273v-78h-273v78z" />
    <glyph glyph-name="emdash.uc" horiz-adv-x="463" 
d="M16 379h431v-78h-431v78z" />
    <glyph glyph-name="guilsinglleft.uc" horiz-adv-x="153" 
d="M97 308l47 -163h-86l-44 136v54l44 134h87z" />
    <glyph glyph-name="guilsinglright.uc" horiz-adv-x="151" 
d="M53 306l-43 163h85l42 -136v-53l-42 -135h-87z" />
    <glyph glyph-name="guillemotleft.uc" horiz-adv-x="249" 
d="M91 308l48 -163h-78l-47 136v54l47 134h78zM198 308l42 -163h-79l-46 163l46 161h80z" />
    <glyph glyph-name="guillemotright.uc" horiz-adv-x="248" 
d="M109 145l50 163l-50 161h80l46 -136v-52l-48 -136h-78zM8 145l43 163l-43 161h79l47 -161l-47 -163h-79z" />
    <glyph glyph-name="parenleft.uc" horiz-adv-x="207" 
d="M31 371v6q0 220 106 439h66q-68 -200 -68 -438q0 -197 73 -459h-67q-32 71 -52.5 125.5t-39 144.5t-18.5 182z" />
    <glyph glyph-name="parenright.uc" horiz-adv-x="207" 
d="M176 377v-6q0 -132 -30 -236.5t-80 -215.5h-67q73 262 73 459q0 238 -68 438h66q106 -219 106 -439z" />
    <glyph glyph-name="bracketleft.uc" horiz-adv-x="191" 
d="M185 817v-80h-53v-726h53v-80h-145v886h145z" />
    <glyph glyph-name="bracketright.uc" horiz-adv-x="191" 
d="M6 -70v80h54v726h-54v81h145v-887h-145z" />
    <glyph glyph-name="braceleft.uc" horiz-adv-x="199" 
d="M162 301q0 -23 -14 -119t-14 -120q0 -53 46 -53h13v-79h-32q-59 0 -91 30.5t-32 82.5q0 23 16 121t16 134q0 34 -27 34h-23v93h21q29 0 29 30q0 35 -16 134.5t-16 124.5q0 50 32.5 76.5t90.5 26.5h32v-78h-18q-41 0 -41 -41q0 -24 14 -118.5t14 -115.5q0 -33 -9 -53.5
t-35 -31.5q27 -10 35.5 -28.5t8.5 -49.5z" />
    <glyph glyph-name="braceright.uc" horiz-adv-x="199" 
d="M36 464q0 21 14.5 115.5t14.5 118.5q0 41 -40 41h-19v78h31q58 0 90.5 -26.5t32.5 -76.5q0 -25 -15 -124.5t-15 -134.5q0 -16 6 -23t23 -7h20v-93h-24q-25 0 -25 -34q0 -36 15 -133.5t15 -121.5q0 -52 -31.5 -82.5t-91.5 -30.5h-31v79h12q47 0 47 53q0 24 -14.5 120
t-14.5 119q0 31 9 49.5t36 28.5q-27 11 -36 31t-9 54z" />
    <glyph glyph-name="slash.uc" horiz-adv-x="209" 
d="M206 816l-122 -897h-84l122 897h84z" />
    <glyph glyph-name="backslash.uc" horiz-adv-x="209" 
d="M125 -81l-122 897h84l122 -897h-84z" />
    <glyph glyph-name="bar.uc" horiz-adv-x="171" 
d="M126 816v-897h-81v897h81z" />
    <glyph glyph-name="at.uc" horiz-adv-x="546" 
d="M436 78l47 -57q-11 -16 -25.5 -31.5t-39.5 -34.5t-60.5 -31t-76.5 -12h-7q-40 0 -72 7.5t-68 32t-60 66t-40 116t-16 174.5v90q0 378 262 378h12q123 0 179.5 -76.5t56.5 -233.5v-90q0 -154 -33 -220.5t-98 -66.5h-2q-74 0 -90 62q-21 -33 -39.5 -47.5t-44.5 -14.5h-6
q-30 0 -52 28t-20 80l13 309q3 36 21 61.5t51 25.5h5q39 0 70 -51l2 47h106l-21 -410q0 -18 13 -18q47 0 47 213v93q0 128 -38.5 182t-119.5 54h-12q-89 0 -135 -73.5t-46 -233.5v-87q0 -86 13 -148.5t30.5 -94.5t44 -51t45.5 -23t42 -4h7q52 0 94 29t61 61zM287 206l13 268
q2 32 -20 32q-18 0 -20 -32l-13 -268q-2 -32 18 -32t22 32z" />
    <glyph glyph-name="grave.uc" 
d="M239 773h-92l-44 109h94z" />
    <glyph glyph-name="dieresis.uc" 
d="M158 872v-99h-90v99h90zM274 872v-99h-90v99h90z" />
    <glyph glyph-name="macron.uc" 
d="M85 780v79h173v-79h-173z" />
    <glyph glyph-name="acute.uc" 
d="M103 773l42 109h94l-44 -109h-92z" />
    <glyph glyph-name="circumflex.uc" 
d="M215 882l63 -109h-81l-27 48l-27 -48h-80l63 109h89z" />
    <glyph glyph-name="caron.uc" 
d="M126 773l-63 109h81l27 -48l27 48h80l-63 -109h-89z" />
    <glyph glyph-name="breve.uc" 
d="M173 770h-3q-44 0 -71.5 25t-27.5 69v6h77v-4q0 -27 23 -27h1q24 0 24 27v4h76v-6q0 -44 -29 -69t-70 -25z" />
    <glyph glyph-name="dotaccent.uc" 
d="M224 888v-115h-107v115h107z" />
    <glyph glyph-name="ring.uc" 
d="M172 813q14 0 22.5 9t8.5 24q0 14 -8.5 23.5t-22.5 9.5t-22.5 -9.5t-8.5 -23.5q0 -15 8.5 -24t22.5 -9zM251 847q0 -35 -22 -58t-57 -23t-57.5 23t-22.5 58q0 33 23 56t57 23q35 0 57 -22.5t22 -56.5z" />
    <glyph glyph-name="tilde.uc" 
d="M268 878v-46q0 -57 -42 -57h-1q-21 0 -57 17q-20 9 -23 9q-7 0 -7 -9v-19h-64v47q0 56 43 56h1q22 0 54 -16q19 -11 26 -11q6 0 6 9v20h64z" />
    <glyph glyph-name="hungarumlaut.uc" 
d="M241 773h-75l29 108h78zM69 773l25 108h78l-28 -108h-75z" />
    <glyph glyph-name="emdash.altuc" horiz-adv-x="894" 
d="M878 302h-862v78h862v-78z" />
    <glyph glyph-name="f.short" horiz-adv-x="252" 
d="M243 744v-99h-44q-14 0 -18 -5.5t-4 -20.5v-81h66v-102h-66v-436h-107v436h-64v102h64v137q0 27 17.5 48t58.5 21h97z" />
    <glyph glyph-name="f_f.short" horiz-adv-x="450" 
d="M246 744v-99h-47q-14 0 -18 -5.5t-4 -20.5v-81h91v137q0 27 17.5 48t58.5 21h97v-99h-44q-14 0 -18 -5.5t-4 -20.5v-81h66v-102h-66v-436h-107v436h-91v-436h-107v436h-64v102h64v137q0 27 17.5 48t58.5 21h100z" />
    <glyph glyph-name="j.short" horiz-adv-x="148" 
d="M128 682v-115h-107v115h107zM-23 -86h23q21 0 21 24v600h107v-648q0 -78 -69 -78h-82v102z" />
    <glyph glyph-name="uni0408.alt" horiz-adv-x="216" 
d="M10 0v115h54q17 0 17 23v606h117v-673q0 -71 -66 -71h-122z" />
    <glyph glyph-name="uni0414.bgr" horiz-adv-x="411" 
d="M108 0v-105h-103v218h39l93 631h137l93 -631h39v-218h-103v105h-195zM257 113l-55 411l-56 -411h111z" />
    <glyph glyph-name="uni0415.alt" horiz-adv-x="292" 
d="M23 744h256v-109h-143v-195h135v-112h-135v-215h148v-113h-261v744z" />
    <glyph glyph-name="uni0416.bgr" horiz-adv-x="499" 
d="M192 0v337l-89 -337h-109l106 392l-98 352h106l84 -311v311h113v-311l84 311h105l-96 -346l107 -398h-111l-89 337v-337h-113z" />
    <glyph glyph-name="uni041A.bgr" horiz-adv-x="338" 
d="M136 323v-323h-113v744h113v-298l89 298h110l-105 -346l116 -398h-116z" />
    <glyph glyph-name="uni041B.bgr" horiz-adv-x="319" 
d="M226 744l94 -744h-115l-51 512l-52 -512h-107l94 744h137z" />
    <glyph glyph-name="uni042F.alt" horiz-adv-x="335" 
d="M201 0v312h-22q-26 0 -34 -10.5t-8 -36.5v-204q0 -43 -11 -61h-112v5q11 24 11 55v241q0 63 42 81q-49 20 -49 95v152q0 62 27.5 88.5t85.5 26.5h183v-744h-113zM201 418v225h-30q-25 0 -33 -11t-8 -37v-124q0 -53 41 -53h30z" />
    <glyph glyph-name="uni0430.alt" horiz-adv-x="292" 
d="M174 61q-36 -64 -87 -64h-3q-32 0 -50.5 25t-18.5 59v126q0 41 11 65.5t40 42.5q11 7 30 17t39 19.5t24 11.5q9 6 11 9t2 14v34q0 20 -6 27.5t-20 7.5h-2q-15 0 -21 -7.5t-6 -26.5v-57h-96v76q0 102 113 102h20q71 0 96 -28.5t25 -77.5v-330q0 -79 11 -101v-5h-104
q-8 19 -8 61zM172 133v139q-26 -15 -38 -27q-14 -14 -14 -43v-74q0 -35 25 -35q27 0 27 40z" />
    <glyph glyph-name="uni0430.alt2" horiz-adv-x="304" 
d="M182 538h106v-538h-106v61q-8 -23 -30 -44.5t-52 -21.5h-2q-35 0 -57 31.5t-22 82.5v328q0 43 18.5 73.5t55.5 30.5h2q10 0 19.5 -2t17.5 -6.5t13.5 -8.5t12 -11.5t9.5 -11t8.5 -11.5t6.5 -9v57zM182 142v255q0 48 -29 48q-27 0 -27 -43v-266q0 -43 27 -43q29 0 29 49z
" />
    <glyph glyph-name="uni0431.alt" horiz-adv-x="306" 
d="M291 411v-281q0 -57 -34.5 -98t-93.5 -41h-20q-65 0 -96.5 39.5t-31.5 99.5v429q0 92 30.5 133t121.5 41h38q40 0 64 6q12 3 16 6v-99q-4 -2 -16 -6q-24 -6 -64 -6h-37q-30 0 -42.5 -16.5t-12.5 -57.5v-83q47 69 101 69h5q40 0 56 -33t16 -102zM153 93q30 0 30 42v271
q0 41 -30 41t-30 -41v-271q0 -42 30 -42z" />
    <glyph glyph-name="uni0431.locl" horiz-adv-x="306" 
d="M291 411v-281q0 -57 -34.5 -98t-93.5 -41h-20q-65 0 -96.5 39.5t-31.5 99.5v277q0 76 47 106q-47 34 -47 97q0 54 35.5 84.5t106.5 30.5h15q14 0 18 3.5t4 15.5h103q0 -70 -19.5 -94t-86.5 -24h-23q-32 0 -46 -8t-14 -28q0 -17 12 -28t31 -14l36 -6q104 -15 104 -131z
M123 406v-271q0 -42 30 -42t30 42v271q0 41 -30 41t-30 -41z" />
    <glyph glyph-name="uni0431.loclalt" horiz-adv-x="306" 
d="M291 411v-281q0 -57 -34.5 -98t-93.5 -41h-20q-65 0 -96.5 39.5t-31.5 99.5v277q0 76 47 106q-47 34 -47 93q0 127 142 127h48q40 0 64 6q12 3 16 6v-99q-4 -2 -16 -6q-24 -6 -64 -6h-37q-60 0 -60 -40q0 -39 43 -46l36 -6q104 -15 104 -131zM123 406v-271q0 -42 30 -42
t30 42v271q0 41 -30 41t-30 -41z" />
    <glyph glyph-name="uni0432.bgr" horiz-adv-x="306" 
d="M15 125v504q0 53 32.5 87.5t88.5 34.5h28q60 0 90.5 -33.5t30.5 -93.5v-120q0 -61 -45 -82q51 -19 51 -91v-205q0 -59 -35.5 -97t-93.5 -38h-18q-57 0 -93 34t-36 100zM122 618v-158h36q12 0 17 7t5 27v123q0 19 -5.5 28.5t-21.5 9.5h-5q-26 0 -26 -37zM122 367v-238
q0 -40 31 -40q30 0 30 40v209q0 15 -4.5 22t-18.5 7h-38z" />
    <glyph glyph-name="uni0433.bgr" horiz-adv-x="274" 
d="M265 198v-97q0 -50 -28 -80t-88 -30h-21q-61 0 -91 37.5t-30 91.5v14q0 42 12 73.5t48 74.5l65 78q15 18 20 29.5t5 30.5v9q0 33 -23 33q-24 0 -24 -30v-64h-96v81q0 97 109 97h19q59 0 87.5 -30t28.5 -83v-15q0 -79 -53 -139l-63 -72q-29 -33 -29 -77v-9q0 -37 25 -37
q15 0 21 8t6 29v77h100z" />
    <glyph glyph-name="uni0433.locl" horiz-adv-x="219" 
d="M18 0v538h196v-102h-89v-436h-107z" />
    <glyph glyph-name="uni0434.bgr" horiz-adv-x="309" 
d="M186 -73v137q-32 -69 -88 -69q-33 0 -55.5 28t-22.5 72v322q0 124 79 124q54 0 89 -65v62h105v-625q0 -108 -126 -108h-24q-119 0 -119 92v78h103v-48q0 -31 27 -31h4q16 0 22 7.5t6 23.5zM186 135v272q0 39 -30 39q-28 0 -28 -39v-273q0 -40 29 -40t29 41z" />
    <glyph glyph-name="uni0434.locl" horiz-adv-x="360" 
d="M97 -100h-97v202h25q13 30 19 80q11 72 11 356h260v-436h40v-202h-97v100h-161v-100zM140 164q-6 -37 -13 -62h81v334h-56q0 -198 -12 -272z" />
    <glyph glyph-name="uni0436.bgr" horiz-adv-x="461" 
d="M177 0v260l-74 -260h-111l85 296l-78 242h107l71 -221v427h107v-427l71 221h107l-78 -242l85 -296h-111l-74 260v-260h-107z" />
    <glyph glyph-name="uni0437.bgr" horiz-adv-x="292" 
d="M277 137v-188q0 -137 -122 -137h-21q-62 0 -91.5 38t-29.5 90v150h103v-138q0 -40 28 -40q26 0 26 38v191q0 36 -31 36h-47v98h47q15 0 20.5 8t5.5 36v87q0 25 -4.5 35t-19.5 10q-16 0 -20.5 -10.5t-4.5 -34.5v-73h-103v81q0 66 27 99t91 33h14q72 0 99.5 -32t27.5 -100
v-96q0 -41 -13 -60t-38 -28q28 -9 42 -27.5t14 -65.5z" />
    <glyph glyph-name="uni0438.bgr" horiz-adv-x="303" 
d="M287 538v-538h-103v64q-13 -20 -22 -31t-28 -23t-41 -12h-2q-31 0 -51 27.5t-20 63.5v449h107v-403q0 -36 25 -36q28 0 28 39v400h107z" />
    <glyph glyph-name="uni043A.bgr" horiz-adv-x="314" 
d="M127 342l83 196h107l-101 -230l108 -308h-111l-86 249v-249h-107v744h107v-402z" />
    <glyph glyph-name="uni043B.bgr" horiz-adv-x="278" 
d="M193 538l86 -538h-104l-41 336l-40 -336h-99l83 538h115z" />
    <glyph glyph-name="uni043D.bgr" horiz-adv-x="312" 
d="M125 0h-107v538h107v-219h62v219h107v-538h-107v217h-62v-217z" />
    <glyph glyph-name="uni043F.bgr" horiz-adv-x="309" 
d="M20 0v538h105v-63q37 66 91 66h5q37 0 54.5 -25.5t17.5 -57.5v-458h-108v403q0 40 -28 40q-30 0 -30 -44v-399h-107z" />
    <glyph glyph-name="uni043F.locl" horiz-adv-x="312" 
d="M125 0h-107v538h276v-538h-107v436h-62v-436z" />
    <glyph glyph-name="uni0442.bgr" horiz-adv-x="467" 
d="M20 0v538h105v-61q40 64 88 64h4q57 0 70 -63q37 63 91 63h5q68 0 68 -81v-460h-107v399q0 23 -5.5 33.5t-21.5 10.5q-26 0 -28 -36v-407h-107v399q0 23 -5.5 33.5t-22.5 10.5q-16 0 -21.5 -10t-5.5 -34v-399h-107z" />
    <glyph glyph-name="uni0442.locl" horiz-adv-x="267" 
d="M80 0v436h-75v102h257v-102h-75v-436h-107z" />
    <glyph glyph-name="uni0446.bgr" horiz-adv-x="330" 
d="M325 -100h-97v100h-44v64q-13 -20 -22 -31t-28 -23t-41 -12h-2q-31 0 -51 27.5t-20 63.5v449h107v-403q0 -36 25 -36q28 0 28 39v400h107v-436h38v-202z" />
    <glyph glyph-name="uni0447.bgr" horiz-adv-x="303" 
d="M125 538v-212q0 -17 7 -23.5t24 -6.5q13 0 22 4v238h107v-538h-107v213q-27 -13 -63 -13q-51 0 -74 27t-23 87v224h107z" />
    <glyph glyph-name="uni0448.bgr" horiz-adv-x="467" 
d="M447 538v-538h-105v61q-40 -64 -88 -64h-4q-57 0 -70 63q-37 -63 -91 -63h-5q-68 0 -68 81v460h107v-399q0 -23 5.5 -33.5t21.5 -10.5q26 0 28 36v407h107v-399q0 -23 5.5 -33.5t22.5 -10.5q16 0 21.5 10t5.5 34v399h107z" />
    <glyph glyph-name="uni0449.bgr" horiz-adv-x="494" 
d="M489 -100h-97v100h-50v61q-40 -64 -88 -64h-4q-57 0 -70 63q-37 -63 -91 -63h-5q-68 0 -68 81v460h107v-399q0 -23 5.5 -33.5t21.5 -10.5q26 0 28 36v407h107v-399q0 -23 5.5 -33.5t22.5 -10.5q16 0 21.5 10t5.5 34v399h107v-436h42v-202z" />
    <glyph glyph-name="uni044A.bgr" horiz-adv-x="351" 
d="M215 -9h-18q-66 0 -98 39.5t-32 99.5v306h-62v102h169v-180h22q80 0 113.5 -31.5t33.5 -107.5v-89q0 -58 -34 -98.5t-94 -40.5zM174 266v-131q0 -42 31 -42t31 42v77q0 34 -8.5 44t-37.5 10h-16z" />
    <glyph glyph-name="uni044C.bgr" horiz-adv-x="302" 
d="M166 -9h-18q-66 0 -98 39.5t-32 99.5v408h107v-180h22q80 0 113.5 -31.5t33.5 -107.5v-89q0 -58 -34 -98.5t-94 -40.5zM125 266v-131q0 -42 31 -42t31 42v77q0 34 -8.5 44t-37.5 10h-16z" />
    <glyph glyph-name="uni044E.bgr" horiz-adv-x="452" 
d="M437 411v-281q0 -57 -34.5 -98t-93.5 -41h-20q-65 0 -96.5 39.5t-31.5 99.5v87h-36v-217h-107v744h107v-425h36v88q0 67 33.5 103t94.5 36h20q61 0 94.5 -35t33.5 -100zM269 406v-271q0 -42 30 -42t30 42v271q0 41 -30 41t-30 -41z" />
    <glyph glyph-name="uni044F.alt" horiz-adv-x="308" 
d="M131 163v-102q0 -43 -11 -61h-107v5q11 24 11 55v112q0 62 42 80q-28 11 -38 32.5t-10 62.5v74q0 66 24.5 91.5t97.5 25.5h150v-538h-107v210h-10q-26 0 -34 -10.5t-8 -36.5zM183 297v149h-27q-31 0 -31 -32v-87q0 -17 7 -23.5t24 -6.5h27z" />
    <glyph glyph-name="uni0458.short" horiz-adv-x="144" 
d="M128 682v-115h-107v115h107zM-23 -86h23q21 0 21 24v600h107v-648q0 -78 -69 -78h-82v102z" />
    <glyph glyph-name="f_b" horiz-adv-x="556" 
d="M243 744v-99h-44q-14 0 -18 -5.5t-4 -20.5v-81h66v-102h-66v-436h-107v436h-64v102h64v137q0 27 17.5 48t58.5 21h97zM268 744h107v-266q43 63 89 63h3q35 0 55 -26t20 -66v-334q0 -51 -25.5 -85t-71.5 -34h-2q-59 0 -94 76q-11 -38 -13 -72h-68v744zM375 400v-264
q0 -41 30 -41q28 0 28 40v265q0 41 -29 41t-29 -41z" />
    <glyph glyph-name="f_h" horiz-adv-x="557" 
d="M243 744v-99h-44q-14 0 -18 -5.5t-4 -20.5v-81h66v-102h-66v-436h-107v436h-64v102h64v137q0 27 17.5 48t58.5 21h97zM268 0v744h107v-267q38 64 89 64h5q39 0 55.5 -25t16.5 -58v-458h-108v403q0 40 -28 40q-30 0 -30 -44v-399h-107z" />
    <glyph glyph-name="f_j" horiz-adv-x="392" 
d="M243 744v-99h-44q-14 0 -18 -5.5t-4 -20.5v-81h66v-102h-66v-436h-107v436h-64v102h64v137q0 27 17.5 48t58.5 21h97zM376 682v-115h-107v115h107zM198 -86h50q21 0 21 24v600h107v-648q0 -78 -69 -78h-109v102z" />
    <glyph glyph-name="f_k" horiz-adv-x="562" 
d="M243 744v-99h-44q-14 0 -18 -5.5t-4 -20.5v-81h66v-102h-66v-436h-107v436h-64v102h64v137q0 27 17.5 48t58.5 21h97zM375 342l83 196h107l-101 -230l108 -308h-111l-86 249v-249h-107v744h107v-402z" />
    <glyph glyph-name="f_f_b" horiz-adv-x="754" 
d="M246 744v-99h-47q-14 0 -18 -5.5t-4 -20.5v-81h91v137q0 27 17.5 48t58.5 21h97v-99h-44q-14 0 -18 -5.5t-4 -20.5v-81h66v-102h-66v-436h-107v436h-91v-436h-107v436h-64v102h64v137q0 27 17.5 48t58.5 21h100zM466 744h107v-266q43 63 89 63h3q35 0 55 -26t20 -66v-334
q0 -51 -25.5 -85t-71.5 -34h-2q-59 0 -94 76q-11 -38 -13 -72h-68v744zM573 400v-264q0 -41 30 -41q28 0 28 40v265q0 41 -29 41t-29 -41z" />
    <glyph glyph-name="f_f_h" horiz-adv-x="755" 
d="M246 744v-99h-47q-14 0 -18 -5.5t-4 -20.5v-81h91v137q0 27 17.5 48t58.5 21h97v-99h-44q-14 0 -18 -5.5t-4 -20.5v-81h66v-102h-66v-436h-107v436h-91v-436h-107v436h-64v102h64v137q0 27 17.5 48t58.5 21h100zM466 0v744h107v-267q38 64 89 64h5q39 0 55.5 -25
t16.5 -58v-458h-108v403q0 40 -28 40q-30 0 -30 -44v-399h-107z" />
    <glyph glyph-name="f_f_k" horiz-adv-x="760" 
d="M246 744v-99h-47q-14 0 -18 -5.5t-4 -20.5v-81h91v137q0 27 17.5 48t58.5 21h97v-99h-44q-14 0 -18 -5.5t-4 -20.5v-81h66v-102h-66v-436h-107v436h-91v-436h-107v436h-64v102h64v137q0 27 17.5 48t58.5 21h100zM573 342l83 196h107l-101 -230l108 -308h-111l-86 249
v-249h-107v744h107v-402z" />
    <glyph glyph-name="f_f_j" horiz-adv-x="590" 
d="M246 744v-99h-47q-14 0 -18 -5.5t-4 -20.5v-81h91v137q0 27 17.5 48t58.5 21h97v-99h-44q-14 0 -18 -5.5t-4 -20.5v-81h66v-102h-66v-436h-107v436h-91v-436h-107v436h-64v102h64v137q0 27 17.5 48t58.5 21h100zM574 682v-115h-107v115h107zM396 -86h50q21 0 21 24v600
h107v-648q0 -78 -69 -78h-109v102z" />
    <glyph glyph-name="uni0401.alt" horiz-adv-x="296" 
d="M140 872v-99h-90v99h90zM256 872v-99h-90v99h90zM23 744h256v-109h-143v-195h135v-112h-135v-215h148v-113h-261v744z" />
    <glyph glyph-name="uni0439.bgr" horiz-adv-x="307" 
d="M287 538v-538h-103v64q-13 -20 -22 -31t-28 -23t-41 -12h-2q-31 0 -51 27.5t-20 63.5v449h107v-403q0 -36 25 -36q28 0 28 39v400h107zM155 565h-3q-47 0 -74 25.5t-27 77.5v4h78v-4q0 -34 24 -34h1q24 0 24 34v4h75v-4q0 -51 -27 -77t-71 -26z" />
    </font>
</defs>
</svg>
