<?xml version="1.0" standalone="no"?>
<!DOCTYPE svg PUBLIC "-//W3C//DTD SVG 1.1//EN" "http://www.w3.org/Graphics/SVG/1.1/DTD/svg11.dtd" >
<svg xmlns="http://www.w3.org/2000/svg" xmlns:xlink="http://www.w3.org/1999/xlink" version="1.1">
<metadata>
Created by FontForge 20170731 at Sat Aug  4 06:58:03 2018
 By Aleksey,,,
Copyright (c) 2014 by Commercial Type, Inc.. All rights reserved. |DCNT
</metadata>
<defs>
<font id="DrukCyr-Bold" horiz-adv-x="339" >
  <font-face 
    font-family="Druk Cyr"
    font-weight="700"
    font-stretch="normal"
    units-per-em="1000"
    panose-1="0 0 0 0 0 0 0 0 0 0"
    ascent="800"
    descent="-200"
    x-height="538"
    cap-height="744"
    bbox="-51 -215 975 1054"
    underline-thickness="84"
    underline-position="-272"
    unicode-range="U+000D-FB04"
  />
<missing-glyph horiz-adv-x="103" 
 />
    <glyph glyph-name="f_f" unicode="ff" horiz-adv-x="480" 
d="M260 744v-113h-47q-12 0 -16 -5t-4 -18v-70h84v132q0 30 20.5 52t61.5 22h112v-113h-47q-12 0 -16 -5t-4 -18v-70h65v-119h-65v-419h-127v419h-84v-419h-127v419h-60v119h60v132q0 30 20.5 52t61.5 22h112z" />
    <glyph glyph-name="f_i" unicode="fi" horiz-adv-x="424" 
d="M255 744v-113h-42q-12 0 -16 -5t-4 -18v-70h62v-119h-62v-419h-127v419h-60v119h60v132q0 30 20.5 52t61.5 22h107zM406 538v-538h-128v538h128zM406 690v-126h-128v126h128z" />
    <glyph glyph-name="f_l" unicode="fl" horiz-adv-x="424" 
d="M255 744v-113h-42q-12 0 -16 -5t-4 -18v-70h62v-119h-62v-419h-127v419h-60v119h60v132q0 30 20.5 52t61.5 22h107zM406 744v-744h-128v744h128z" />
    <glyph glyph-name="emdash.alt" unicode="&#x2014;&#x2014;" horiz-adv-x="990" 
d="M15 345h960v-90h-960v90z" />
    <glyph glyph-name=".notdef" horiz-adv-x="103" 
 />
    <glyph glyph-name=".null" horiz-adv-x="0" 
 />
    <glyph glyph-name="nonmarkingreturn" horiz-adv-x="333" 
 />
    <glyph glyph-name="NULL" horiz-adv-x="0" 
 />
    <glyph glyph-name="NULL" horiz-adv-x="0" 
 />
    <glyph glyph-name="CR" unicode="&#xd;" horiz-adv-x="103" 
 />
    <glyph glyph-name="space" unicode=" " horiz-adv-x="103" 
 />
    <glyph glyph-name="exclam" unicode="!" horiz-adv-x="164" 
d="M141 144v-144h-119v144h119zM9 744h145l-47 -577h-51z" />
    <glyph glyph-name="quotedbl" unicode="&#x22;" horiz-adv-x="232" 
d="M106 744v-191h-91v191h91zM217 744v-191h-91v191h91z" />
    <glyph glyph-name="numbersign" unicode="#" horiz-adv-x="372" 
d="M108 748h91l-18 -210h35l18 210h92l-19 -210h60l-7 -98h-61l-8 -94h60l-7 -98h-62l-21 -248h-90l21 248h-36l-21 -248h-90l21 248h-61l9 98h60l8 94h-61l9 98h60zM172 440l-8 -94h36l8 94h-36z" />
    <glyph glyph-name="dollar" unicode="$" horiz-adv-x="356" 
d="M157 -72v61q-147 5 -147 156v133h123v-135q0 -37 24 -45v209l-74 76q-40 41 -55 86t-15 109v23q0 75 38.5 112.5t105.5 39.5v59h35v-59q73 -2 104.5 -37t31.5 -109v-101h-116v102q0 31 -20 37v-188l66 -68q53 -58 70.5 -95t17.5 -109v-27q0 -78 -41 -122.5t-113 -46.5
v-61h-35zM220 152v29q0 53 -28 89v-174q28 9 28 56zM136 607v-26q0 -35 3.5 -51.5t17.5 -33.5v149q-21 -6 -21 -38z" />
    <glyph glyph-name="percent" unicode="%" horiz-adv-x="494" 
d="M265 102v128q0 53 26.5 80.5t72.5 27.5h20q46 0 72 -28.5t26 -79.5v-128q0 -51 -26 -79t-72 -28h-20q-46 0 -72.5 27t-26.5 80zM12 515v128q0 53 26.5 80t72.5 27h20q46 0 72 -28t26 -79v-128q0 -51 -26 -79.5t-72 -28.5h-20q-46 0 -72.5 27.5t-26.5 80.5zM346 744h83
l-279 -744h-83zM137 508v143q0 20 -17 20q-16 0 -16 -20v-143q0 -20 16 -20q17 0 17 20zM373 75q17 0 17 20v143q0 20 -17 20q-16 0 -16 -20v-143q0 -20 16 -20z" />
    <glyph glyph-name="ampersand" unicode="&#x26;" horiz-adv-x="453" 
d="M12 194v36q0 65 24.5 109.5t71.5 79.5q-44 96 -44 172v28q0 33 9.5 61t40 50.5t78.5 22.5h22q68 0 96 -34.5t28 -99.5v-13q0 -61 -20.5 -99.5t-80.5 -88.5l82 -180q6 48 6 207h112q-5 -224 -46 -329q22 -17 61 -24q-7 -23 -12 -49q-16 -60 -16 -61q-72 11 -106 40
q-35 -33 -101 -33h-13q-91 0 -141.5 53t-50.5 152zM225 99q22 0 35 7l-110 225q-13 -35 -13 -76v-26q0 -130 88 -130zM178 612v-16q0 -46 24 -100q17 23 22 43.5t5 57.5v15q0 25 -5 34t-20 9t-20.5 -9.5t-5.5 -33.5z" />
    <glyph glyph-name="quotesingle" unicode="'" horiz-adv-x="123" 
d="M108 744v-191h-93v191h93z" />
    <glyph glyph-name="parenleft" unicode="(" horiz-adv-x="214" 
d="M27 344q0 252 109 464h78q-70 -191 -70 -461q0 -257 73 -478h-78q-112 205 -112 475z" />
    <glyph glyph-name="parenright" unicode=")" horiz-adv-x="214" 
d="M70 347q0 135 -20 257.5t-50 203.5h77q110 -216 110 -464q0 -260 -113 -475h-77q73 234 73 478z" />
    <glyph glyph-name="asterisk" unicode="*" horiz-adv-x="237" 
d="M146 678l50 40l36 -61l-61 -25l60 -27l-34 -59l-51 41l8 -66h-72l9 66l-50 -41l-36 61l60 25l-61 25l36 61l50 -40l-8 66h72z" />
    <glyph glyph-name="plus" unicode="+" horiz-adv-x="344" 
d="M123 134v121h-108v91h108v122h98v-122h108v-91h-108v-121h-98z" />
    <glyph glyph-name="comma" unicode="," horiz-adv-x="149" 
d="M103 -95h-67q24 56 25 95h-46v144h119v-106q0 -68 -31 -133z" />
    <glyph glyph-name="hyphen" unicode="-" horiz-adv-x="183" 
d="M15 359h153v-121h-153v121z" />
    <glyph glyph-name="period" unicode="." horiz-adv-x="149" 
d="M134 144v-144h-119v144h119z" />
    <glyph glyph-name="slash" unicode="/" horiz-adv-x="219" 
d="M217 808l-130 -939h-95l131 939h94z" />
    <glyph glyph-name="zero" unicode="0" horiz-adv-x="374" 
d="M356 564v-399q0 -82 -41 -129t-115 -47h-30q-76 0 -114 46.5t-38 129.5v398q0 190 153 190h30q155 0 155 -189zM216 165v412q0 24 -6.5 35t-23.5 11q-30 0 -30 -46v-412q0 -43 29 -43q31 0 31 43z" />
    <glyph glyph-name="one" unicode="1" horiz-adv-x="243" 
d="M87 547h-78v114q53 0 74.5 21.5t25.5 61.5h111v-744h-133v547z" />
    <glyph glyph-name="two" unicode="2" horiz-adv-x="363" 
d="M177 632q-25 0 -25 -34v-115h-125v131q0 59 33 99t103 40h27q73 0 112 -36t39 -107v-42q0 -68 -10.5 -106.5t-54.5 -95.5q-13 -17 -73 -95q-39 -51 -57.5 -83.5t-19.5 -38.5t-1 -20h93v127h130v-256h-337v76q0 70 16 118t74 145l64 106q37 62 37 108v45q0 34 -25 34z" />
    <glyph glyph-name="three" unicode="3" horiz-adv-x="350" 
d="M143 515h-122v96q0 59 31.5 100.5t100.5 41.5h28q73 0 109.5 -38.5t36.5 -104.5v-83q0 -87 -48 -113q55 -18 55 -85v-186q0 -72 -39.5 -113t-108.5 -41h-28q-76 0 -110.5 38t-34.5 96v150h130v-118q0 -35 28 -35q27 0 27 35v145q0 17 -4.5 23.5t-20.5 6.5h-69v133h62
q17 0 22.5 7t5.5 26v102q0 20 -5.5 27t-20.5 7q-13 0 -19 -7t-6 -27v-83z" />
    <glyph glyph-name="four" unicode="4" horiz-adv-x="367" 
d="M161 293v181q-46 -142 -61 -181h61zM7 166v113q99 271 167 470h117v-456h69v-127h-69v-166h-130v166h-154z" />
    <glyph glyph-name="five" unicode="5" horiz-adv-x="353" 
d="M153 331h-131v413h305v-129h-177v-147q40 70 91 70h12q42 0 62.5 -29t20.5 -68v-307q0 -61 -36 -103t-105 -42h-40q-75 0 -108 40t-33 92v152h133v-123q0 -35 25 -35t25 35v225q0 13 -1 19t-6 12t-16 6q-21 0 -21 -36v-45z" />
    <glyph glyph-name="six" unicode="6" horiz-adv-x="372" 
d="M258 479h8q45 0 67.5 -29t22.5 -65v-246q0 -60 -40.5 -104.5t-111.5 -44.5h-30q-76 0 -116 41t-40 104v461q0 73 38.5 115.5t115.5 42.5h28q68 0 105 -36t37 -87v-112h-137v83q0 15 -5 22t-19 7q-25 0 -25 -29v-189q1 1 7.5 9t9.5 11t10 10.5t12 11t13 9t15 8.5t16.5 5
t18.5 2zM187 116q30 0 30 39v171q0 37 -30 37q-31 0 -31 -36v-172q0 -39 31 -39z" />
    <glyph glyph-name="seven" unicode="7" horiz-adv-x="329" 
d="M13 744h306v-120q-7 -43 -44 -242q-32 -179 -32 -293v-89h-160v76q0 102 54 265q77 233 77 283h-79v-109h-122v229z" />
    <glyph glyph-name="eight" unicode="8" horiz-adv-x="363" 
d="M340 612v-107q0 -68 -52 -99q59 -28 59 -105v-158q0 -70 -38.5 -111.5t-113.5 -42.5h-28q-151 0 -151 155v157q0 73 59 105q-52 28 -52 99v109q0 59 35 99t110 40h23q74 0 111.5 -39t37.5 -102zM209 149v146q0 37 -28 37q-15 0 -21 -8.5t-6 -28.5v-146q0 -33 27 -33
q28 0 28 33zM207 486v118q0 32 -26 32q-25 0 -25 -32v-117q0 -32 26 -32q25 0 25 31z" />
    <glyph glyph-name="nine" unicode="9" horiz-adv-x="372" 
d="M117 263h-8q-45 0 -69 34t-24 79v232q0 59 36.5 102t110.5 43h30q80 0 120.5 -40.5t40.5 -101.5v-480q0 -63 -37 -102.5t-111 -39.5h-30q-75 0 -110.5 31.5t-35.5 84.5v118h137v-83q0 -29 25 -29q23 0 23 29v189q-51 -66 -98 -66zM184 627q-30 0 -30 -40v-171
q0 -38 30 -38q31 0 31 37v172q0 40 -31 40z" />
    <glyph glyph-name="colon" unicode=":" horiz-adv-x="153" 
d="M136 144v-144h-119v144h119zM136 437v-142h-119v142h119z" />
    <glyph glyph-name="semicolon" unicode=";" horiz-adv-x="153" 
d="M105 -96h-67q24 56 25 96h-46v144h119v-106q0 -69 -31 -134zM136 437v-142h-119v142h119z" />
    <glyph glyph-name="less" unicode="&#x3c;" horiz-adv-x="290" 
d="M12 257v87l263 105v-94l-155 -55l155 -53v-95z" />
    <glyph glyph-name="equal" unicode="=" horiz-adv-x="335" 
d="M17 287h301v-83h-301v83zM17 398h301v-84h-301v84z" />
    <glyph glyph-name="greater" unicode="&#x3e;" horiz-adv-x="289" 
d="M15 355v94l262 -105v-87l-262 -105v95l154 54z" />
    <glyph glyph-name="question" unicode="?" horiz-adv-x="333" 
d="M201 167h-104v128q0 37 6.5 58t27.5 54l35 56q21 34 21 85v49q0 20 -5.5 27.5t-19.5 7.5q-15 0 -20 -8t-5 -27v-114h-124v118q0 72 28.5 112t107.5 40h27q77 0 110.5 -37.5t33.5 -107.5v-52q0 -47 -9 -78.5t-36 -66.5l-49 -67q-16 -22 -20.5 -36.5t-4.5 -48.5v-92z
M209 144v-144h-119v144h119z" />
    <glyph glyph-name="at" unicode="@" horiz-adv-x="583" 
d="M457 25l50 -59q-10 -15 -25 -30.5t-40.5 -34t-63 -30t-79.5 -11.5h-10q-39 0 -71.5 6t-71.5 29.5t-65.5 63t-45 113t-18.5 173.5v111q0 179 71 276.5t206 97.5h18q254 0 254 -305v-104q0 -107 -19 -172t-47.5 -88t-69.5 -23h-7q-76 0 -102 67q-36 -67 -91 -67h-5
q-32 0 -56 30.5t-22 84.5l13 293q2 41 22.5 68.5t54.5 27.5h6q41 0 76 -54l2 50h123l-22 -402q0 -18 13 -18q46 0 46 200v105q0 127 -42.5 178.5t-126.5 51.5h-18q-90 0 -139 -73.5t-50 -225.5v-107q0 -81 13 -140t31.5 -90.5t45.5 -50t48 -23t46 -4.5h10q57 0 97 27.5
t61 58.5zM303 166l13 249q1 19 -2.5 26t-14.5 7q-10 0 -13.5 -7.5t-4.5 -25.5l-13 -250q-1 -20 2 -27t14 -7q17 0 19 35z" />
    <glyph glyph-name="A" unicode="A" horiz-adv-x="349" 
d="M222 0l-14 125h-80l-12 -125h-118l94 744h158l101 -744h-129zM167 508l-26 -255h54z" />
    <glyph glyph-name="B" unicode="B" horiz-adv-x="376" 
d="M21 0v744h201q68 0 98.5 -30t30.5 -103v-99q0 -42 -19.5 -69.5t-43.5 -34.5q74 -21 74 -117v-124q0 -87 -30 -127t-92 -40h-219zM186 333h-32v-215h37q19 0 26.5 9.5t7.5 39.5v121q0 24 -8.5 34.5t-30.5 10.5zM186 630h-32v-177h30q18 0 27 9.5t9 34.5v93q0 40 -34 40z
" />
    <glyph glyph-name="C" unicode="C" horiz-adv-x="372" 
d="M224 164v164h132v-168q0 -75 -36.5 -123.5t-117.5 -48.5h-27q-88 0 -122.5 48t-34.5 128v420q0 75 37.5 122t119.5 47h27q46 0 77.5 -13t47.5 -37.5t22.5 -51.5t6.5 -62v-125h-132v120q0 43 -34 43q-33 0 -33 -43v-420q0 -45 34 -45q33 0 33 45z" />
    <glyph glyph-name="D" unicode="D" horiz-adv-x="374" 
d="M21 0v744h189q76 0 110.5 -37.5t34.5 -121.5v-420q0 -83 -33.5 -124t-111.5 -41h-189zM154 626v-502h26q22 0 30.5 12t8.5 40v400q0 27 -8 38.5t-27 11.5h-30z" />
    <glyph glyph-name="E" unicode="E" horiz-adv-x="315" 
d="M21 744h278v-131h-145v-162h114v-134h-114v-183h152v-134h-285v744z" />
    <glyph glyph-name="F" unicode="F" horiz-adv-x="316" 
d="M21 0v744h285v-130h-152v-162h112v-134h-112v-318h-133z" />
    <glyph glyph-name="G" unicode="G" horiz-adv-x="378" 
d="M149 -10h-10q-56 0 -88.5 42t-32.5 104v443q0 76 37 125t118 49h27q47 0 79 -14t47.5 -40t21.5 -54t6 -65v-82h-130v83q0 25 -7.5 36t-26.5 11q-33 0 -33 -47v-414q0 -48 36 -48q39 0 39 46v160h-49v125h177v-450h-81q-10 42 -20 71q-9 -16 -14.5 -24.5t-19.5 -24.5
t-33.5 -24t-42.5 -8z" />
    <glyph glyph-name="H" unicode="H" horiz-adv-x="378" 
d="M154 314v-314h-133v744h133v-284h70v284h133v-744h-133v314h-70z" />
    <glyph glyph-name="I" unicode="I" horiz-adv-x="175" 
d="M154 744v-744h-133v744h133z" />
    <glyph glyph-name="J" unicode="J" horiz-adv-x="354" 
d="M13 327h128v-172q0 -33 26 -33h4q25 0 25 33v589h138v-593q0 -77 -37 -118t-104 -41h-44q-68 0 -102 34.5t-34 110.5v190z" />
    <glyph glyph-name="K" unicode="K" horiz-adv-x="376" 
d="M154 315v-315h-133v744h133v-286l87 286h131l-105 -338l116 -406h-140z" />
    <glyph glyph-name="L" unicode="L" horiz-adv-x="304" 
d="M21 744h133v-610h141v-134h-274v744z" />
    <glyph glyph-name="M" unicode="M" horiz-adv-x="461" 
d="M21 0v744h164l51 -376l51 376h153v-744h-120v440l-66 -440h-50l-67 440v-440h-116z" />
    <glyph glyph-name="N" unicode="N" horiz-adv-x="376" 
d="M21 744h125l91 -380v380h118v-744h-113l-103 408v-408h-118v744z" />
    <glyph glyph-name="O" unicode="O" horiz-adv-x="385" 
d="M367 564v-394q0 -83 -42 -132t-116 -49h-30q-79 0 -120 46.5t-41 134.5v393q0 190 160 190h30q159 0 159 -189zM228 166v408q0 49 -35 49q-36 0 -36 -49v-408q0 -44 37 -44q34 0 34 44z" />
    <glyph glyph-name="P" unicode="P" horiz-adv-x="361" 
d="M217 298h-63v-298h-133v744h189q80 0 108.5 -36t28.5 -111v-149q0 -150 -130 -150zM154 629v-210h25q21 0 27.5 10.5t6.5 31.5v124q0 23 -6.5 33.5t-27.5 10.5h-25z" />
    <glyph glyph-name="Q" unicode="Q" horiz-adv-x="385" 
d="M367 564v-394q0 -71 -30.5 -117t-86.5 -59l64 -149h-166v146q-64 9 -97 55t-33 124v393q0 190 160 190h30q159 0 159 -189zM228 166v408q0 49 -35 49q-36 0 -36 -49v-408q0 -44 37 -44q34 0 34 44z" />
    <glyph glyph-name="R" unicode="R" horiz-adv-x="369" 
d="M154 629v-188h26q21 0 29 9.5t8 35.5v101q0 25 -6.5 33.5t-26.5 8.5h-30zM154 318v-318h-133v744h210q122 0 122 -124v-119q0 -74 -59 -100q21 -8 39 -29.5t18 -58.5v-253q0 -35 11 -55v-5h-133q-12 14 -12 57v217q0 26 -7.5 35t-27.5 9h-28z" />
    <glyph glyph-name="S" unicode="S" horiz-adv-x="359" 
d="M168 753h27q77 0 110 -35t33 -111v-100h-128v93q0 39 -29 39t-29 -40v-17q0 -50 41 -96l76 -85q48 -54 64.5 -96.5t16.5 -94.5v-35q0 -87 -40.5 -135.5t-121.5 -48.5h-26q-152 0 -152 154v134h131v-119q0 -45 34 -45q33 0 33 54v14q0 42 -7.5 63.5t-35.5 52.5l-77 85
q-40 43 -55.5 87t-15.5 102v32q0 71 40 109.5t111 38.5z" />
    <glyph glyph-name="T" unicode="T" 
d="M8 744h323v-131h-95v-613h-133v613h-95v131z" />
    <glyph glyph-name="U" unicode="U" horiz-adv-x="379" 
d="M20 173v571h137v-576q0 -46 33 -46q32 0 32 46v576h137v-571q0 -91 -40.5 -137.5t-113.5 -46.5h-33q-152 0 -152 184z" />
    <glyph glyph-name="V" unicode="V" horiz-adv-x="361" 
d="M98 0l-99 744h138l49 -499l49 499h127l-95 -744h-169z" />
    <glyph glyph-name="W" unicode="W" horiz-adv-x="572" 
d="M227 744h127l47 -472l44 472h128l-95 -744h-151l-39 409l-39 -409h-157l-93 744h138l42 -477z" />
    <glyph glyph-name="X" unicode="X" horiz-adv-x="362" 
d="M91 398l-81 346h134l41 -223l40 223h126l-79 -346l93 -398h-134l-51 258l-53 -258h-130z" />
    <glyph glyph-name="Y" unicode="Y" horiz-adv-x="331" 
d="M337 744l-100 -451v-293h-133v288l-110 456h133l45 -264l45 264h120z" />
    <glyph glyph-name="Z" unicode="Z" horiz-adv-x="334" 
d="M20 744h294v-118l-162 -496h173v-130h-316v120l162 496h-151v128z" />
    <glyph glyph-name="bracketleft" unicode="[" horiz-adv-x="200" 
d="M194 808v-95h-54v-748h54v-96h-160v939h160z" />
    <glyph glyph-name="backslash" unicode="\" horiz-adv-x="219" 
d="M133 -131l-131 939h94l131 -939h-94z" />
    <glyph glyph-name="bracketright" unicode="]" horiz-adv-x="200" 
d="M6 -131v96h54v748h-54v95h160v-939h-160z" />
    <glyph glyph-name="asciicircum" unicode="^" horiz-adv-x="237" 
d="M169 744l66 -311h-89l-29 164l-27 -164h-88l65 311h102z" />
    <glyph glyph-name="underscore" unicode="_" horiz-adv-x="333" 
d="M2 -115v95h329v-95h-329z" />
    <glyph glyph-name="grave" unicode="`" horiz-adv-x="342" 
d="M203 700l41 -136h-102l-45 136h106z" />
    <glyph glyph-name="a" unicode="a" 
d="M182 134v131q-24 -13 -33 -25q-12 -15 -12 -41v-65q0 -32 21 -32q24 0 24 32zM14 88v117q0 76 56 110q13 9 55 28.5t49 24.5q8 5 8 20v29q0 17 -5 23t-17 6h-4q-22 0 -22 -29v-53h-114v74q0 44 28 75t98 31h23q76 0 106 -30.5t30 -87.5v-297q0 -9 3.5 -12t15.5 -3h14
v-114h-119q-37 0 -37 61q-32 -66 -91 -66h-4q-35 0 -54 27.5t-19 65.5z" />
    <glyph glyph-name="b" unicode="b" horiz-adv-x="340" 
d="M18 744h128v-266q10 20 35 43t56 23h6q37 0 58.5 -28t21.5 -67v-338q0 -46 -28.5 -83t-70.5 -37h-2q-26 0 -47 14.5t-30.5 28t-23.5 38.5q-13 -55 -13 -72h-90v744zM146 399v-262q0 -35 24 -35t24 33v264q0 35 -25 35q-23 0 -23 -35z" />
    <glyph glyph-name="c" unicode="c" horiz-adv-x="322" 
d="M190 241h119v-116q0 -60 -33 -98t-99 -38h-21q-72 0 -106.5 38t-34.5 102v271q0 148 139 148h25q130 0 130 -130v-89h-118v76q0 38 -24 38q-23 0 -23 -37v-271q0 -33 22 -33q24 0 24 31v108z" />
    <glyph glyph-name="d" unicode="d" horiz-adv-x="344" 
d="M198 744h128v-744h-128v60q-40 -71 -89 -71h-2q-39 0 -64.5 33.5t-25.5 81.5v333q0 42 21.5 74.5t58.5 32.5h5q52 0 96 -66v266zM198 143v249q0 42 -27 42q-25 0 -25 -37v-259q0 -37 25 -37q27 0 27 42z" />
    <glyph glyph-name="e" unicode="e" horiz-adv-x="323" 
d="M150 548h24q135 0 135 -137v-159h-171v-117q0 -33 25 -33q23 0 23 33v80h123v-98q0 -61 -38 -94t-97 -33h-24q-62 0 -98.5 33t-36.5 94v296q0 59 33.5 97t101.5 38zM138 413v-65h52v65q0 36 -26 36q-16 0 -21 -8.5t-5 -27.5z" />
    <glyph glyph-name="f" unicode="f" horiz-adv-x="274" 
d="M265 744v-113h-49q-12 0 -16 -5t-4 -18v-70h69v-119h-69v-419h-127v419h-63v119h63v132q0 30 20.5 52t61.5 22h114z" />
    <glyph glyph-name="g" unicode="g" horiz-adv-x="342" 
d="M196 -65v125q-38 -70 -87 -70q-40 0 -66 29t-26 76v321q0 58 22 91.5t63 33.5h1q53 0 95 -68v65h126v-612q0 -51 -32 -86t-113 -35h-18q-139 0 -139 98v72h123v-44q0 -12 4.5 -17.5t17.5 -5.5h5q14 0 19 6t5 21zM196 129v270q0 34 -25 34q-24 0 -24 -33v-272
q0 -32 24 -32q25 0 25 33z" />
    <glyph glyph-name="h" unicode="h" horiz-adv-x="344" 
d="M18 0v744h128v-268q42 64 96 64h5q36 0 57.5 -23.5t21.5 -60.5v-456h-129v398q0 30 -25 30q-26 0 -26 -34v-394h-128z" />
    <glyph glyph-name="i" unicode="i" horiz-adv-x="164" 
d="M146 538v-538h-128v538h128zM146 690v-126h-128v126h128z" />
    <glyph glyph-name="j" unicode="j" horiz-adv-x="165" 
d="M147 690v-126h-128v126h128zM-51 -69h52q10 0 14 4.5t4 16.5v586h128v-654q0 -30 -20 -51t-54 -21h-124v119z" />
    <glyph glyph-name="k" unicode="k" horiz-adv-x="346" 
d="M146 351l75 187h122l-95 -226l102 -312h-127l-77 239v-239h-128v744h128v-393z" />
    <glyph glyph-name="l" unicode="l" horiz-adv-x="164" 
d="M146 744v-744h-128v744h128z" />
    <glyph glyph-name="m" unicode="m" horiz-adv-x="516" 
d="M18 0v538h127v-63q46 67 92 67h4q31 0 52 -19t27 -47q42 66 96 66h5q37 0 57 -24t20 -62v-456h-128v392q0 36 -24 36q-22 0 -24 -28v-400h-128v392q0 19 -4.5 27.5t-20.5 8.5q-23 0 -23 -36v-392h-128z" />
    <glyph glyph-name="n" unicode="n" horiz-adv-x="344" 
d="M18 0v538h127v-65q45 67 97 67h7q40 0 58.5 -29t18.5 -61v-450h-129v396q0 32 -25 32q-26 0 -26 -36v-392h-128z" />
    <glyph glyph-name="o" unicode="o" horiz-adv-x="341" 
d="M15 142v255q0 72 37 111.5t103 39.5h30q67 0 104 -39t37 -110v-255q0 -67 -38 -110.5t-103 -43.5h-30q-71 0 -105.5 41.5t-34.5 110.5zM144 400v-256q0 -38 26 -38q27 0 27 38v256q0 37 -27 37q-26 0 -26 -37z" />
    <glyph glyph-name="p" unicode="p" horiz-adv-x="344" 
d="M18 538h128v-59q40 65 94 65h2q85 0 85 -115v-321q0 -53 -26.5 -86t-63.5 -33h-2q-51 0 -89 58v-235h-128v726zM146 402v-272q0 -36 25 -36t25 35v273q0 34 -25 34t-25 -34z" />
    <glyph glyph-name="q" unicode="q" horiz-adv-x="344" 
d="M238 538h88v-726h-128v247q-13 -26 -36 -47.5t-54 -21.5h-6q-37 0 -61 34.5t-24 78.5v310q0 57 23 94t76 37h8q34 0 56 -22.5t42 -61.5q11 25 16 78zM198 135v263q0 36 -27 36q-24 0 -24 -36v-267q0 -35 25 -35q26 0 26 39z" />
    <glyph glyph-name="r" unicode="r" horiz-adv-x="308" 
d="M145 538v-67q9 25 30 47.5t55 22.5h6q61 0 61 -66v-195h-119v123q0 15 -3.5 20.5t-12.5 5.5q-16 0 -16 -26v-403h-128v538h127z" />
    <glyph glyph-name="s" unicode="s" horiz-adv-x="302" 
d="M289 446v-73h-114v56q0 28 -21 28t-21 -28v-11q0 -18 4.5 -28t18.5 -24l71 -70q40 -40 54.5 -72.5t14.5 -76.5v-18q0 -60 -33.5 -99t-99.5 -39h-26q-66 0 -98 32.5t-32 84.5v88h118v-72q0 -30 23 -30h1q21 0 21 31v12q0 40 -28 67l-68 65q-35 34 -47.5 66t-12.5 76v17
q0 56 32 88t94 32h27q122 0 122 -102z" />
    <glyph glyph-name="t" unicode="t" horiz-adv-x="267" 
d="M256 0h-128q-26 0 -43.5 18.5t-17.5 47.5v353h-61v119h61v178h127v-178h62v-119h-62v-276q0 -12 3.5 -17t15.5 -5h43v-121z" />
    <glyph glyph-name="u" unicode="u" 
d="M321 538v-538h-124v66q-22 -33 -43.5 -50.5t-53.5 -17.5h-4q-36 0 -57 28.5t-21 64.5v447h129v-395q0 -33 22 -33q25 0 25 36v392h127z" />
    <glyph glyph-name="v" unicode="v" horiz-adv-x="313" 
d="M80 0l-82 538h124l35 -343l36 343h122l-88 -538h-147z" />
    <glyph glyph-name="w" unicode="w" horiz-adv-x="498" 
d="M216 0h-137l-81 538h126l35 -333l37 333h113l36 -337l35 337h120l-82 -538h-133l-35 292z" />
    <glyph glyph-name="x" unicode="x" horiz-adv-x="315" 
d="M75 289l-72 249h122l35 -154l31 154h117l-68 -245l77 -293h-122l-38 170l-40 -170h-119z" />
    <glyph glyph-name="y" unicode="y" horiz-adv-x="315" 
d="M91 9l-93 529h126l36 -297l35 297h123l-113 -645q-16 -81 -74 -81h-116v119h53q12 0 15.5 5.5t6.5 21.5l2 21q2 17 -1 30z" />
    <glyph glyph-name="z" unicode="z" horiz-adv-x="270" 
d="M16 538h241v-106l-124 -318h131v-114h-258v107l125 319h-115v112z" />
    <glyph glyph-name="braceleft" unicode="{" horiz-adv-x="210" 
d="M172 256q0 -27 -14 -123t-14 -120q0 -53 43 -53h17v-91h-44q-60 0 -92 30.5t-32 87.5q0 23 15.5 125.5t15.5 140.5t-30 38h-20v100h20q30 0 30 34q0 39 -15.5 141.5t-15.5 128.5q0 113 124 113h44v-92h-21q-39 0 -39 -43q0 -23 14 -119.5t14 -121.5q0 -37 -11 -58.5
t-40 -32.5q51 -20 51 -85z" />
    <glyph glyph-name="bar" unicode="|" horiz-adv-x="171" 
d="M131 808v-939h-91v939h91z" />
    <glyph glyph-name="braceright" unicode="}" horiz-adv-x="210" 
d="M37 432q0 26 14.5 122t14.5 119q0 43 -39 43h-21v92h44q59 0 91.5 -28.5t32.5 -84.5q0 -26 -16 -128.5t-16 -141.5q0 -34 30 -34h21v-100h-21q-30 0 -30 -38t16 -140.5t16 -125.5q0 -57 -32 -87.5t-92 -30.5h-44v91h16q44 0 44 53q0 24 -14.5 120t-14.5 123q0 65 51 85
q-29 11 -40 32.5t-11 58.5z" />
    <glyph glyph-name="asciitilde" unicode="~" horiz-adv-x="284" 
d="M134 345q-26 29 -32 29q-7 0 -7 -11v-62h-84v118q0 31 17 53t50 22q35 0 74 -42q24 -27 30 -27q7 0 7 10v63h84v-119q0 -33 -19 -54t-47 -21q-22 0 -37.5 9t-35.5 32z" />
    <glyph glyph-name="exclamdown" unicode="&#xa1;" horiz-adv-x="164" 
d="M18 394v144h119v-144h-119zM150 -206h-145l47 577h51z" />
    <glyph glyph-name="cent" unicode="&#xa2;" horiz-adv-x="327" 
d="M315 242v-117q0 -57 -33 -95.5t-96 -40.5v-64h-34v64q-70 2 -103.5 39.5t-33.5 100.5v271q0 69 33.5 108t103.5 40v64h34v-64q67 -1 98 -36t31 -94v-88h-108v77q0 30 -21 39v-350q20 9 20 38v108h109zM132 408v-274q0 -30 20 -39v351q-20 -6 -20 -38z" />
    <glyph glyph-name="sterling" unicode="&#xa3;" horiz-adv-x="415" 
d="M207 252q0 -79 -56 -135h125v132h124v-249h-392v89q47 34 62.5 65t15.5 87q0 16 -5 69h-73v110h62q-7 77 -7 101v69q0 163 150 163h30q75 0 106 -40.5t31 -101.5v-128h-123v107q0 22 -6 32t-23 10t-23.5 -9.5t-6.5 -32.5v-82q0 -18 2 -88h126v-110h-120q1 -23 1 -58z" />
    <glyph glyph-name="yen" unicode="&#xa5;" horiz-adv-x="358" 
d="M245 218v-218h-133v218h-99v84h99v26h-99v84h85l-96 332h131l48 -241l45 241h119l-88 -332h88v-84h-100v-26h100v-84h-100z" />
    <glyph glyph-name="brokenbar" unicode="&#xa6;" horiz-adv-x="171" 
d="M131 343v-474h-91v474h91zM131 808v-426h-91v426h91z" />
    <glyph glyph-name="section" unicode="&#xa7;" horiz-adv-x="405" 
d="M394 275v-24q0 -86 -85 -111q29 -29 38.5 -54t9.5 -66v-65q0 -71 -37 -110.5t-111 -39.5h-31q-137 0 -137 144v104h128v-99q0 -34 28 -34q14 0 19.5 8t5.5 28v44q0 29 -8 46.5t-35 40.5l-88 69q-49 37 -64.5 69t-15.5 86v33q0 80 82 104q-42 47 -42 139v19q0 147 153 147
h18q77 0 109.5 -34.5t32.5 -111.5v-79h-126v77q0 21 -6 28.5t-21 7.5q-26 0 -26 -36v-17q0 -34 7.5 -50.5t32.5 -38.5q78 -62 86 -68q53 -45 68 -74.5t15 -81.5zM224 327l-67 52q-24 -5 -24 -33v-17q-1 -21 7.5 -34t34.5 -33l68 -53q13 3 18.5 10.5t5.5 29.5v10
q0 21 -8 33.5t-35 34.5z" />
    <glyph glyph-name="dieresis" unicode="&#xa8;" horiz-adv-x="342" 
d="M159 670v-106h-100v106h100zM283 670v-106h-100v106h100z" />
    <glyph glyph-name="copyright" unicode="&#xa9;" horiz-adv-x="519" 
d="M266 -11h-10q-237 0 -237 255v258q0 124 62.5 188.5t175.5 64.5h12q231 0 231 -253v-258q0 -129 -63.5 -192t-170.5 -63zM258 56h8q158 0 158 203v230q0 199 -156 199h-10q-86 0 -123.5 -50t-37.5 -149v-230q0 -203 161 -203zM264 207q17 0 17 26v107h104v-117
q0 -49 -31 -81t-81 -32h-18q-58 0 -87.5 33t-29.5 89v276q0 61 28.5 94.5t85.5 33.5h22q50 0 80 -27.5t30 -87.5v-82h-104v75q0 9 -1 14t-4.5 8.5t-10.5 3.5q-18 0 -18 -26v-281q0 -26 18 -26z" />
    <glyph glyph-name="ordfeminine" unicode="&#xaa;" horiz-adv-x="206" 
d="M185 677v-151q0 -8 8 -8h11v-67h-71q-23 0 -23 37q-20 -40 -55 -40q-22 0 -33.5 16t-11.5 39v53q0 40 34 62q23 15 61 32q5 3 5 12v9q0 16 -12 16h-1q-12 0 -12 -17v-20h-72v34q0 26 17 45t59 19h14q46 0 64 -18t18 -53zM110 528v61q-10 -5 -17 -11q-7 -7 -7 -23v-28
q0 -17 11 -17q13 0 13 18z" />
    <glyph glyph-name="guillemotleft" unicode="&#xab;" horiz-adv-x="273" 
d="M102 286l50 -167h-92l-48 137v60l48 135h92zM222 286l43 -167h-93l-48 167l48 165h94z" />
    <glyph glyph-name="registered" unicode="&#xae;" horiz-adv-x="281" 
d="M146 399h-8q-58 0 -91.5 34.5t-33.5 99.5v86q0 61 33 96t92 35h9q57 0 89 -35t32 -95v-87q0 -61 -35 -97.5t-87 -36.5zM138 436h8q80 0 80 102v77q0 98 -79 98h-9q-45 0 -64 -24.5t-19 -76.5v-74q0 -102 83 -102zM134 560v-93h-51v220h76q40 0 40 -40v-30q0 -22 -19 -32
q19 -5 19 -29v-65q0 -13 3 -19v-5h-49q-3 7 -3 20v60q0 13 -10 13h-6zM134 650v-51h7q9 0 9 13v26q0 12 -9 12h-7z" />
    <glyph glyph-name="macron" unicode="&#xaf;" horiz-adv-x="342" 
d="M76 576v87h191v-87h-191z" />
    <glyph glyph-name="degree" unicode="&#xb0;" horiz-adv-x="210" 
d="M5 649q0 42 28 70t73 28q43 0 71 -28t28 -70t-28 -69.5t-71 -27.5q-45 0 -73 27.5t-28 69.5zM69 650q0 -38 36 -38t36 38q0 16 -10 26.5t-26 10.5q-17 0 -26.5 -10.5t-9.5 -26.5z" />
    <glyph glyph-name="two.sup" unicode="&#xb2;" horiz-adv-x="224" 
d="M213 402h-206v44q0 29 15 55.5t65 82.5q21 24 26 35.5t5 31.5v16q0 17 -14 17q-13 0 -13 -17v-53h-78v57q0 34 19.5 56.5t63.5 22.5h15q94 0 94 -79v-18q0 -34 -14 -58.5t-49 -56.5q-41 -37 -48.5 -46.5t-7.5 -21.5h53v54h74v-122z" />
    <glyph glyph-name="three.sup" unicode="&#xb3;" horiz-adv-x="214" 
d="M89 630h-77v36q0 41 19.5 62.5t65.5 21.5h12q45 0 66.5 -19.5t21.5 -61.5v-23q0 -42 -30 -54q37 -14 37 -54v-55q0 -86 -92 -86h-14q-87 0 -87 79v51h80v-46q0 -17 13 -17q12 0 12 17v49q0 15 -13 15h-39v69h37q14 0 14 16v38q0 18 -13 18t-13 -18v-38z" />
    <glyph glyph-name="acute" unicode="&#xb4;" horiz-adv-x="342" 
d="M97 564l42 136h105l-44 -136h-103z" />
    <glyph glyph-name="paragraph" unicode="&#xb6;" horiz-adv-x="377" 
d="M124 744h249v-98h-39v-646h-85v646h-34v-646h-85v342h-6q-53 0 -82 26.5t-29 76.5v199q0 46 30 73t81 27z" />
    <glyph glyph-name="periodcentered" unicode="&#xb7;" horiz-adv-x="149" 
d="M134 388v-144h-119v144h119z" />
    <glyph glyph-name="cedilla" unicode="&#xb8;" horiz-adv-x="342" 
d="M154 -188h-61v63h50q22 0 22 17v1q0 15 -22 15h-35v92h60v-36h3q79 -3 79 -72v-3q0 -38 -26 -57.5t-70 -19.5z" />
    <glyph glyph-name="one.sup" unicode="&#xb9;" horiz-adv-x="151" 
d="M49 638h-43v66q29 0 40.5 10.5t14.5 29.5h72v-340h-84v234z" />
    <glyph glyph-name="ordmasculine" unicode="&#xba;" horiz-adv-x="212" 
d="M115 448h-18q-84 0 -84 92v115q0 45 22 69t62 24h18q39 0 61.5 -23.5t22.5 -68.5v-116q0 -43 -23 -67.5t-61 -24.5zM92 662v-127q0 -19 14 -19t14 19v127q0 19 -14 19t-14 -19z" />
    <glyph glyph-name="guillemotright" unicode="&#xbb;" horiz-adv-x="272" 
d="M120 119l50 166l-50 166h93l47 -137v-59l-48 -136h-92zM7 119l44 166l-44 166h93l48 -166l-48 -166h-93z" />
    <glyph glyph-name="onequarter" unicode="&#xbc;" horiz-adv-x="379" 
d="M49 638h-43v66q29 0 40.5 10.5t14.5 29.5h72v-340h-84v234zM277 744h81l-267 -744h-81zM174 59v58q55 134 86 225h83v-211h28v-72h-28v-59h-80v59h-89zM232 131h31v87q-7 -31 -31 -87z" />
    <glyph glyph-name="onehalf" unicode="&#xbd;" horiz-adv-x="427" 
d="M49 638h-43v66q29 0 40.5 10.5t14.5 29.5h72v-340h-84v234zM277 744h81l-267 -744h-81zM416 0h-206v44q0 28 15 55t65 83q21 24 26 35.5t5 31.5v16q0 17 -14 17q-13 0 -13 -17v-53h-78v57q0 34 19.5 56.5t63.5 22.5h15q94 0 94 -79v-18q0 -34 -14 -58.5t-49 -56.5
q-41 -37 -48.5 -46.5t-7.5 -21.5h53v54h74v-122z" />
    <glyph glyph-name="threequarters" unicode="&#xbe;" horiz-adv-x="432" 
d="M330 744h81l-267 -744h-81zM89 630h-77v36q0 41 19.5 62.5t65.5 21.5h12q45 0 66.5 -19.5t21.5 -61.5v-23q0 -42 -30 -54q37 -14 37 -54v-55q0 -86 -92 -86h-14q-87 0 -87 79v51h80v-46q0 -17 13 -17q12 0 12 17v49q0 15 -13 15h-39v69h37q14 0 14 16v38q0 18 -13 18
t-13 -18v-38zM227 59v58q55 134 86 225h83v-211h28v-72h-28v-59h-80v59h-89zM285 131h31v87q-7 -31 -31 -87z" />
    <glyph glyph-name="questiondown" unicode="&#xbf;" horiz-adv-x="333" 
d="M128 371h104v-128q0 -37 -6.5 -58t-27.5 -54l-35 -56q-21 -34 -21 -85v-49q0 -20 5.5 -27.5t19.5 -7.5q15 0 20 8t5 27v114h124v-118q0 -72 -28.5 -112t-107.5 -40h-27q-77 0 -110.5 37.5t-33.5 107.5v52q0 47 9 78.5t36 66.5l49 67q16 22 20.5 36.5t4.5 48.5v92z
M120 394v144h119v-144h-119z" />
    <glyph glyph-name="Agrave" unicode="&#xc0;" horiz-adv-x="349" 
d="M222 0l-14 125h-80l-12 -125h-118l94 744h158l101 -744h-129zM167 508l-26 -255h54zM182 885l43 -115h-104l-44 115h105z" />
    <glyph glyph-name="Aacute" unicode="&#xc1;" horiz-adv-x="349" 
d="M222 0l-14 125h-80l-12 -125h-118l94 744h158l101 -744h-129zM167 508l-26 -255h54zM118 770l43 115h106l-45 -115h-104z" />
    <glyph glyph-name="Acircumflex" unicode="&#xc2;" horiz-adv-x="349" 
d="M222 0l-14 125h-80l-12 -125h-118l94 744h158l101 -744h-129zM167 508l-26 -255h54zM221 885l66 -115h-89l-28 47l-27 -47h-89l65 115h102z" />
    <glyph glyph-name="Atilde" unicode="&#xc3;" horiz-adv-x="349" 
d="M222 0l-14 125h-80l-12 -125h-118l94 744h158l101 -744h-129zM167 508l-26 -255h54zM170 787q-22 9 -25 9q-8 0 -8 -11v-16h-72v34q0 77 57 77q25 0 54 -13q21 -10 27 -10t6 10v16h72v-34q0 -39 -17 -57.5t-40 -18.5q-25 0 -54 14z" />
    <glyph glyph-name="Adieresis" unicode="&#xc4;" horiz-adv-x="349" 
d="M222 0l-14 125h-80l-12 -125h-118l94 744h158l101 -744h-129zM167 508l-26 -255h54zM282 876v-106h-100v106h100zM157 876v-106h-100v106h100z" />
    <glyph glyph-name="Aring" unicode="&#xc5;" horiz-adv-x="349" 
d="M222 0l-14 125h-80l-12 -125h-118l94 744h158l101 -744h-129zM167 508l-26 -255h54zM169 811q15 0 23.5 9t8.5 24t-8.5 24t-23.5 9t-23.5 -9t-8.5 -24t8.5 -24t23.5 -9zM169 765q-35 0 -57.5 22t-22.5 57t22.5 57t57.5 22t57.5 -22t22.5 -57t-22.5 -57t-57.5 -22z" />
    <glyph glyph-name="AE" unicode="&#xc6;" horiz-adv-x="515" 
d="M506 0h-281v131h-81l-22 -131h-128l140 744h362v-132h-138v-161h107v-135h-107v-182h148v-134zM166 258h59v344z" />
    <glyph glyph-name="Ccedilla" unicode="&#xc7;" horiz-adv-x="372" 
d="M224 164v164h132v-168q0 -75 -36.5 -123.5t-117.5 -48.5h-27q-88 0 -122.5 48t-34.5 128v420q0 75 37.5 122t119.5 47h27q46 0 77.5 -13t47.5 -37.5t22.5 -51.5t6.5 -62v-125h-132v120q0 43 -34 43q-33 0 -33 -43v-420q0 -45 34 -45q33 0 33 45zM180 -188h-61v63h50
q22 0 22 17v1q0 15 -22 15h-35v92h60v-36h3q79 -3 79 -72v-3q0 -38 -26 -57.5t-70 -19.5z" />
    <glyph glyph-name="Egrave" unicode="&#xc8;" horiz-adv-x="315" 
d="M21 744h278v-131h-145v-162h114v-134h-114v-183h152v-134h-285v744zM176 885l43 -115h-104l-44 115h105z" />
    <glyph glyph-name="Eacute" unicode="&#xc9;" horiz-adv-x="315" 
d="M21 744h278v-131h-145v-162h114v-134h-114v-183h152v-134h-285v744zM108 770l43 115h106l-45 -115h-104z" />
    <glyph glyph-name="Ecircumflex" unicode="&#xca;" horiz-adv-x="315" 
d="M21 744h278v-131h-145v-162h114v-134h-114v-183h152v-134h-285v744zM213 885l66 -115h-89l-28 47l-27 -47h-89l65 115h102z" />
    <glyph glyph-name="Edieresis" unicode="&#xcb;" horiz-adv-x="315" 
d="M21 744h278v-131h-145v-162h114v-134h-114v-183h152v-134h-285v744zM275 876v-106h-100v106h100zM150 876v-106h-100v106h100z" />
    <glyph glyph-name="Igrave" unicode="&#xcc;" horiz-adv-x="175" 
d="M154 744v-744h-133v744h133zM97 885l43 -115h-104l-44 115h105z" />
    <glyph glyph-name="Iacute" unicode="&#xcd;" horiz-adv-x="175" 
d="M154 744v-744h-133v744h133zM35 770l43 115h106l-45 -115h-104z" />
    <glyph glyph-name="Icircumflex" unicode="&#xce;" horiz-adv-x="175" 
d="M154 744v-744h-133v744h133zM136 883l66 -115h-89l-28 47l-27 -47h-89l65 115h102z" />
    <glyph glyph-name="Idieresis" unicode="&#xcf;" horiz-adv-x="175" 
d="M154 744v-744h-133v744h133zM200 876v-106h-100v106h100zM75 876v-106h-100v106h100z" />
    <glyph glyph-name="Eth" unicode="&#xd0;" horiz-adv-x="377" 
d="M25 443v301h189q76 0 110.5 -37.5t34.5 -121.5v-420q0 -83 -33.5 -124t-111.5 -41h-189v325h-25v118h25zM158 325v-201h26q22 0 30.5 12t8.5 40v400q0 27 -8 38.5t-27 11.5h-30v-183h43v-118h-43z" />
    <glyph glyph-name="Ntilde" unicode="&#xd1;" horiz-adv-x="376" 
d="M21 744h125l91 -380v380h118v-744h-113l-103 408v-408h-118v744zM195 787q-22 9 -25 9q-8 0 -8 -11v-16h-72v34q0 77 57 77q25 0 54 -13q21 -10 27 -10t6 10v16h72v-34q0 -39 -17 -57.5t-40 -18.5q-25 0 -54 14z" />
    <glyph glyph-name="Ograve" unicode="&#xd2;" horiz-adv-x="385" 
d="M367 564v-394q0 -83 -42 -132t-116 -49h-30q-79 0 -120 46.5t-41 134.5v393q0 190 160 190h30q159 0 159 -189zM228 166v408q0 49 -35 49q-36 0 -36 -49v-408q0 -44 37 -44q34 0 34 44zM202 886l43 -115h-104l-44 115h105z" />
    <glyph glyph-name="Oacute" unicode="&#xd3;" horiz-adv-x="385" 
d="M367 564v-394q0 -83 -42 -132t-116 -49h-30q-79 0 -120 46.5t-41 134.5v393q0 190 160 190h30q159 0 159 -189zM228 166v408q0 49 -35 49q-36 0 -36 -49v-408q0 -44 37 -44q34 0 34 44zM140 771l43 115h106l-45 -115h-104z" />
    <glyph glyph-name="Ocircumflex" unicode="&#xd4;" horiz-adv-x="385" 
d="M367 564v-394q0 -83 -42 -132t-116 -49h-30q-79 0 -120 46.5t-41 134.5v393q0 190 160 190h30q159 0 159 -189zM228 166v408q0 49 -35 49q-36 0 -36 -49v-408q0 -44 37 -44q34 0 34 44zM243 886l66 -115h-89l-28 47l-27 -47h-89l65 115h102z" />
    <glyph glyph-name="Otilde" unicode="&#xd5;" horiz-adv-x="385" 
d="M367 564v-394q0 -83 -42 -132t-116 -49h-30q-79 0 -120 46.5t-41 134.5v393q0 190 160 190h30q159 0 159 -189zM228 166v408q0 49 -35 49q-36 0 -36 -49v-408q0 -44 37 -44q34 0 34 44zM190 788q-22 9 -25 9q-8 0 -8 -11v-16h-72v34q0 77 57 77q25 0 54 -13
q21 -10 27 -10t6 10v16h72v-34q0 -39 -17 -57.5t-40 -18.5q-25 0 -54 14z" />
    <glyph glyph-name="Odieresis" unicode="&#xd6;" horiz-adv-x="385" 
d="M367 564v-394q0 -83 -42 -132t-116 -49h-30q-79 0 -120 46.5t-41 134.5v393q0 190 160 190h30q159 0 159 -189zM228 166v408q0 49 -35 49q-36 0 -36 -49v-408q0 -44 37 -44q34 0 34 44zM305 877v-106h-100v106h100zM180 877v-106h-100v106h100z" />
    <glyph glyph-name="multiply" unicode="&#xd7;" horiz-adv-x="315" 
d="M243 149l-86 87l-84 -87l-63 60l85 89l-86 88l65 66l85 -88l84 88l63 -62l-86 -89l86 -87z" />
    <glyph glyph-name="Oslash" unicode="&#xd8;" horiz-adv-x="381" 
d="M363 564v-394q0 -83 -42 -132t-116 -49h-25q-58 0 -96 35l-10 -24h-74l33 82q-15 40 -15 88v393q0 190 160 190h25q57 0 93 -33l10 24h74l-33 -83q16 -35 16 -97zM192 122q36 0 36 44v228l-75 -206v-22q0 -44 39 -44zM191 623q-38 0 -38 -49v-224l75 209v15q0 49 -37 49z
" />
    <glyph glyph-name="Ugrave" unicode="&#xd9;" horiz-adv-x="379" 
d="M20 173v571h137v-576q0 -46 33 -46q32 0 32 46v576h137v-571q0 -91 -40.5 -137.5t-113.5 -46.5h-33q-152 0 -152 184zM200 885l43 -115h-104l-44 115h105z" />
    <glyph glyph-name="Uacute" unicode="&#xda;" horiz-adv-x="379" 
d="M20 173v571h137v-576q0 -46 33 -46q32 0 32 46v576h137v-571q0 -91 -40.5 -137.5t-113.5 -46.5h-33q-152 0 -152 184zM136 770l43 115h106l-45 -115h-104z" />
    <glyph glyph-name="Ucircumflex" unicode="&#xdb;" horiz-adv-x="379" 
d="M20 173v571h137v-576q0 -46 33 -46q32 0 32 46v576h137v-571q0 -91 -40.5 -137.5t-113.5 -46.5h-33q-152 0 -152 184zM240 885l66 -115h-89l-28 47l-27 -47h-89l65 115h102z" />
    <glyph glyph-name="Udieresis" unicode="&#xdc;" horiz-adv-x="379" 
d="M20 173v571h137v-576q0 -46 33 -46q32 0 32 46v576h137v-571q0 -91 -40.5 -137.5t-113.5 -46.5h-33q-152 0 -152 184zM302 876v-106h-100v106h100zM177 876v-106h-100v106h100z" />
    <glyph glyph-name="Yacute" unicode="&#xdd;" horiz-adv-x="331" 
d="M337 744l-100 -451v-293h-133v288l-110 456h133l45 -264l45 264h120zM116 770l43 115h106l-45 -115h-104z" />
    <glyph glyph-name="Thorn" unicode="&#xde;" horiz-adv-x="366" 
d="M223 188h-69v-188h-133v744h133v-150h69q67 0 98.5 -31t31.5 -102v-131q0 -142 -130 -142zM154 485v-187h31q19 0 26.5 9.5t7.5 30.5v106q0 22 -7.5 31.5t-27.5 9.5h-30z" />
    <glyph glyph-name="germandbls" unicode="&#xdf;" horiz-adv-x="342" 
d="M267 443q32 -12 47 -35t15 -66v-212q0 -67 -27 -98.5t-93 -31.5h-47v119h16q19 0 19 25v180q0 24 -20 24h-15v118h14q19 0 19 28v110q0 30 -23 30h-6q-21 0 -21 -29v-605h-127v606q0 138 137 138h27q71 0 103.5 -33t32.5 -100v-86q0 -31 -15.5 -53t-35.5 -29z" />
    <glyph glyph-name="agrave" unicode="&#xe0;" 
d="M182 134v131q-24 -13 -33 -25q-12 -15 -12 -41v-65q0 -32 21 -32q24 0 24 32zM14 88v117q0 76 56 110q13 9 55 28.5t49 24.5q8 5 8 20v29q0 17 -5 23t-17 6h-4q-22 0 -22 -29v-53h-114v74q0 44 28 75t98 31h23q76 0 106 -30.5t30 -87.5v-297q0 -9 3.5 -12t15.5 -3h14
v-114h-119q-37 0 -37 61q-32 -66 -91 -66h-4q-35 0 -54 27.5t-19 65.5zM170 700l41 -136h-102l-45 136h106z" />
    <glyph glyph-name="aacute" unicode="&#xe1;" 
d="M182 134v131q-24 -13 -33 -25q-12 -15 -12 -41v-65q0 -32 21 -32q24 0 24 32zM14 88v117q0 76 56 110q13 9 55 28.5t49 24.5q8 5 8 20v29q0 17 -5 23t-17 6h-4q-22 0 -22 -29v-53h-114v74q0 44 28 75t98 31h23q76 0 106 -30.5t30 -87.5v-297q0 -9 3.5 -12t15.5 -3h14
v-114h-119q-37 0 -37 61q-32 -66 -91 -66h-4q-35 0 -54 27.5t-19 65.5zM108 564l42 136h105l-44 -136h-103z" />
    <glyph glyph-name="acircumflex" unicode="&#xe2;" 
d="M182 134v131q-24 -13 -33 -25q-12 -15 -12 -41v-65q0 -32 21 -32q24 0 24 32zM14 88v117q0 76 56 110q13 9 55 28.5t49 24.5q8 5 8 20v29q0 17 -5 23t-17 6h-4q-22 0 -22 -29v-53h-114v74q0 44 28 75t98 31h23q76 0 106 -30.5t30 -87.5v-297q0 -9 3.5 -12t15.5 -3h14
v-114h-119q-37 0 -37 61q-32 -66 -91 -66h-4q-35 0 -54 27.5t-19 65.5zM214 700l62 -136h-91l-24 62l-25 -62h-89l61 136h106z" />
    <glyph glyph-name="atilde" unicode="&#xe3;" 
d="M182 134v131q-24 -13 -33 -25q-12 -15 -12 -41v-65q0 -32 21 -32q24 0 24 32zM14 88v117q0 76 56 110q13 9 55 28.5t49 24.5q8 5 8 20v29q0 17 -5 23t-17 6h-4q-22 0 -22 -29v-53h-114v74q0 44 28 75t98 31h23q76 0 106 -30.5t30 -87.5v-297q0 -9 3.5 -12t15.5 -3h14
v-114h-119q-37 0 -37 61q-32 -66 -91 -66h-4q-35 0 -54 27.5t-19 65.5zM193 678h73v-56q0 -25 -15 -42t-39 -17q-25 0 -60 19q-19 9 -23 9q-7 0 -7 -12v-16h-72v47q0 31 14.5 49.5t40.5 18.5q19 0 59 -18q17 -8 23 -8t6 10v16z" />
    <glyph glyph-name="adieresis" unicode="&#xe4;" 
d="M182 134v131q-24 -13 -33 -25q-12 -15 -12 -41v-65q0 -32 21 -32q24 0 24 32zM14 88v117q0 76 56 110q13 9 55 28.5t49 24.5q8 5 8 20v29q0 17 -5 23t-17 6h-4q-22 0 -22 -29v-53h-114v74q0 44 28 75t98 31h23q76 0 106 -30.5t30 -87.5v-297q0 -9 3.5 -12t15.5 -3h14
v-114h-119q-37 0 -37 61q-32 -66 -91 -66h-4q-35 0 -54 27.5t-19 65.5zM146 670v-106h-100v106h100zM270 670v-106h-100v106h100z" />
    <glyph glyph-name="aring" unicode="&#xe5;" 
d="M182 134v131q-24 -13 -33 -25q-12 -15 -12 -41v-65q0 -32 21 -32q24 0 24 32zM14 88v117q0 76 56 110q13 9 55 28.5t49 24.5q8 5 8 20v29q0 17 -5 23t-17 6h-4q-22 0 -22 -29v-53h-114v74q0 44 28 75t98 31h23q76 0 106 -30.5t30 -87.5v-297q0 -9 3.5 -12t15.5 -3h14
v-114h-119q-37 0 -37 61q-32 -66 -91 -66h-4q-35 0 -54 27.5t-19 65.5zM157 608q15 0 23.5 9t8.5 24t-8.5 24t-23.5 9t-23.5 -9t-8.5 -24t8.5 -24t23.5 -9zM157 562q-35 0 -57.5 22t-22.5 57t22.5 57t57.5 22t57.5 -22t22.5 -57t-22.5 -57t-57.5 -22z" />
    <glyph glyph-name="ae" unicode="&#xe6;" horiz-adv-x="489" 
d="M193 63q-40 -68 -101 -68h-4q-36 0 -55 27t-19 66v98q0 76 56 110q13 9 55 28.5t49 24.5q8 5 8 20v48q0 17 -5 23t-17 6h-4q-22 0 -22 -29v-72h-114v93q0 44 28 75t98 31h23q53 0 80 -27q23 31 80 31h15q65 0 98.5 -34.5t33.5 -112.5v-150h-171v-117q0 -18 5 -25t19 -7
q25 0 25 32v80h122v-90q0 -62 -35 -98t-102 -36h-21q-100 0 -125 73zM182 134v112q-24 -13 -33 -25q-12 -15 -12 -41v-46q0 -32 21 -32q24 0 24 32zM305 417v-70h52v69q0 32 -26 32t-26 -31z" />
    <glyph glyph-name="ccedilla" unicode="&#xe7;" horiz-adv-x="322" 
d="M190 241h119v-116q0 -60 -33 -98t-99 -38h-21q-72 0 -106.5 38t-34.5 102v271q0 148 139 148h25q130 0 130 -130v-89h-118v76q0 38 -24 38q-23 0 -23 -37v-271q0 -33 22 -33q24 0 24 31v108zM158 -188h-61v63h50q22 0 22 17v1q0 15 -22 15h-35v92h60v-36h3q79 -3 79 -72
v-3q0 -38 -26 -57.5t-70 -19.5z" />
    <glyph glyph-name="egrave" unicode="&#xe8;" horiz-adv-x="323" 
d="M150 548h24q135 0 135 -137v-159h-171v-117q0 -33 25 -33q23 0 23 33v80h123v-98q0 -61 -38 -94t-97 -33h-24q-62 0 -98.5 33t-36.5 94v296q0 59 33.5 97t101.5 38zM138 413v-65h52v65q0 36 -26 36q-16 0 -21 -8.5t-5 -27.5zM172 702l41 -136h-102l-45 136h106z" />
    <glyph glyph-name="eacute" unicode="&#xe9;" horiz-adv-x="323" 
d="M150 548h24q135 0 135 -137v-159h-171v-117q0 -33 25 -33q23 0 23 33v80h123v-98q0 -61 -38 -94t-97 -33h-24q-62 0 -98.5 33t-36.5 94v296q0 59 33.5 97t101.5 38zM138 413v-65h52v65q0 36 -26 36q-16 0 -21 -8.5t-5 -27.5zM111 566l42 136h105l-44 -136h-103z" />
    <glyph glyph-name="ecircumflex" unicode="&#xea;" horiz-adv-x="323" 
d="M150 548h24q135 0 135 -137v-159h-171v-117q0 -33 25 -33q23 0 23 33v80h123v-98q0 -61 -38 -94t-97 -33h-24q-62 0 -98.5 33t-36.5 94v296q0 59 33.5 97t101.5 38zM138 413v-65h52v65q0 36 -26 36q-16 0 -21 -8.5t-5 -27.5zM216 702l62 -136h-91l-24 62l-25 -62h-89
l61 136h106z" />
    <glyph glyph-name="edieresis" unicode="&#xeb;" horiz-adv-x="323" 
d="M150 548h24q135 0 135 -137v-159h-171v-117q0 -33 25 -33q23 0 23 33v80h123v-98q0 -61 -38 -94t-97 -33h-24q-62 0 -98.5 33t-36.5 94v296q0 59 33.5 97t101.5 38zM138 413v-65h52v65q0 36 -26 36q-16 0 -21 -8.5t-5 -27.5zM151 672v-106h-100v106h100zM275 672v-106
h-100v106h100z" />
    <glyph glyph-name="igrave" unicode="&#xec;" horiz-adv-x="164" 
d="M146 538v-538h-128v538h128zM93 700l41 -136h-102l-45 136h106z" />
    <glyph glyph-name="iacute" unicode="&#xed;" horiz-adv-x="164" 
d="M146 538v-538h-128v538h128zM31 564l42 136h105l-44 -136h-103z" />
    <glyph glyph-name="icircumflex" unicode="&#xee;" horiz-adv-x="164" 
d="M135 700l52 -136h-86l-19 66l-20 -66h-85l52 136h106zM146 538v-538h-128v538h128z" />
    <glyph glyph-name="idieresis" unicode="&#xef;" horiz-adv-x="164" 
d="M71 670v-106h-93v106h93zM186 670v-106h-93v106h93zM146 538v-538h-128v538h128z" />
    <glyph glyph-name="eth" unicode="&#xf0;" horiz-adv-x="341" 
d="M57 549v86l58 26l-41 83h118l20 -39l73 33v-86l-38 -17l35 -68q27 -51 35.5 -85t8.5 -89v-249q0 -68 -37.5 -111t-102.5 -43h-32q-70 0 -104.5 42t-34.5 110v287q0 49 25 80t60 31h2q30 0 53.5 -15.5t49.5 -45.5l-56 112zM197 144v256q0 37 -27 37q-26 0 -26 -37v-256
q0 -38 26 -38q27 0 27 38z" />
    <glyph glyph-name="ntilde" unicode="&#xf1;" horiz-adv-x="344" 
d="M18 0v538h127v-65q45 67 97 67h7q40 0 58.5 -29t18.5 -61v-450h-129v396q0 32 -25 32q-26 0 -26 -36v-392h-128zM207 678h73v-56q0 -25 -15 -42t-39 -17q-25 0 -60 19q-19 9 -23 9q-7 0 -7 -12v-16h-72v47q0 31 14.5 49.5t40.5 18.5q18 0 59 -18q17 -8 23 -8t6 10v16z
" />
    <glyph glyph-name="ograve" unicode="&#xf2;" horiz-adv-x="341" 
d="M15 142v255q0 72 37 111.5t103 39.5h30q67 0 104 -39t37 -110v-255q0 -67 -38 -110.5t-103 -43.5h-30q-71 0 -105.5 41.5t-34.5 110.5zM144 400v-256q0 -38 26 -38q27 0 27 38v256q0 37 -27 37q-26 0 -26 -37zM180 702l41 -136h-102l-45 136h106z" />
    <glyph glyph-name="oacute" unicode="&#xf3;" horiz-adv-x="341" 
d="M15 142v255q0 72 37 111.5t103 39.5h30q67 0 104 -39t37 -110v-255q0 -67 -38 -110.5t-103 -43.5h-30q-71 0 -105.5 41.5t-34.5 110.5zM144 400v-256q0 -38 26 -38q27 0 27 38v256q0 37 -27 37q-26 0 -26 -37zM119 566l42 136h105l-44 -136h-103z" />
    <glyph glyph-name="ocircumflex" unicode="&#xf4;" horiz-adv-x="341" 
d="M15 142v255q0 72 37 111.5t103 39.5h30q67 0 104 -39t37 -110v-255q0 -67 -38 -110.5t-103 -43.5h-30q-71 0 -105.5 41.5t-34.5 110.5zM144 400v-256q0 -38 26 -38q27 0 27 38v256q0 37 -27 37q-26 0 -26 -37zM223 702l62 -136h-91l-24 62l-25 -62h-89l61 136h106z" />
    <glyph glyph-name="otilde" unicode="&#xf5;" horiz-adv-x="341" 
d="M15 142v255q0 72 37 111.5t103 39.5h30q67 0 104 -39t37 -110v-255q0 -67 -38 -110.5t-103 -43.5h-30q-71 0 -105.5 41.5t-34.5 110.5zM144 400v-256q0 -38 26 -38q27 0 27 38v256q0 37 -27 37q-26 0 -26 -37zM205 680h73v-56q0 -25 -15 -42t-39 -17q-25 0 -60 19
q-19 9 -23 9q-7 0 -7 -12v-16h-72v47q0 31 14.5 49.5t40.5 18.5q19 0 59 -18q17 -8 23 -8t6 10v16z" />
    <glyph glyph-name="odieresis" unicode="&#xf6;" horiz-adv-x="341" 
d="M15 142v255q0 72 37 111.5t103 39.5h30q67 0 104 -39t37 -110v-255q0 -67 -38 -110.5t-103 -43.5h-30q-71 0 -105.5 41.5t-34.5 110.5zM144 400v-256q0 -38 26 -38q27 0 27 38v256q0 37 -27 37q-26 0 -26 -37zM159 672v-106h-100v106h100zM283 672v-106h-100v106h100z
" />
    <glyph glyph-name="divide" unicode="&#xf7;" horiz-adv-x="343" 
d="M15 346h313v-91h-313v91zM223 478v-103h-103v103h103zM223 223v-103h-103v103h103z" />
    <glyph glyph-name="oslash" unicode="&#xf8;" horiz-adv-x="336" 
d="M15 142v255q0 72 37 111.5t103 39.5h26q51 0 87 -29l10 19h66l-35 -69q12 -33 12 -70v-255q0 -68 -37.5 -111t-102.5 -43h-26q-49 0 -85 30l-10 -20h-67l36 70q-14 27 -14 72zM196 387v14q0 37 -28 37t-28 -37v-137zM168 105q28 0 28 38v129l-56 -121v-8q0 -38 28 -38z
" />
    <glyph glyph-name="ugrave" unicode="&#xf9;" 
d="M321 538v-538h-124v66q-22 -33 -43.5 -50.5t-53.5 -17.5h-4q-36 0 -57 28.5t-21 64.5v447h129v-395q0 -33 22 -33q25 0 25 36v392h127zM183 700l41 -136h-102l-45 136h106z" />
    <glyph glyph-name="uacute" unicode="&#xfa;" 
d="M321 538v-538h-124v66q-22 -33 -43.5 -50.5t-53.5 -17.5h-4q-36 0 -57 28.5t-21 64.5v447h129v-395q0 -33 22 -33q25 0 25 36v392h127zM119 564l42 136h105l-44 -136h-103z" />
    <glyph glyph-name="ucircumflex" unicode="&#xfb;" 
d="M321 538v-538h-124v66q-22 -33 -43.5 -50.5t-53.5 -17.5h-4q-36 0 -57 28.5t-21 64.5v447h129v-395q0 -33 22 -33q25 0 25 36v392h127zM222 700l62 -136h-91l-24 62l-25 -62h-89l61 136h106z" />
    <glyph glyph-name="udieresis" unicode="&#xfc;" 
d="M321 538v-538h-124v66q-22 -33 -43.5 -50.5t-53.5 -17.5h-4q-36 0 -57 28.5t-21 64.5v447h129v-395q0 -33 22 -33q25 0 25 36v392h127zM158 670v-106h-100v106h100zM282 670v-106h-100v106h100z" />
    <glyph glyph-name="yacute" unicode="&#xfd;" horiz-adv-x="315" 
d="M91 9l-93 529h126l36 -297l35 297h123l-113 -645q-16 -81 -74 -81h-116v119h53q12 0 15.5 5.5t6.5 21.5l2 21q2 17 -1 30zM105 564l42 136h105l-44 -136h-103z" />
    <glyph glyph-name="thorn" unicode="&#xfe;" horiz-adv-x="344" 
d="M18 744h128v-266q38 66 97 66h2q41 0 61.5 -31t20.5 -84v-321q0 -53 -26.5 -86t-63.5 -33h-2q-51 0 -89 58v-235h-128v932zM146 402v-272q0 -36 25 -36t25 35v273q0 34 -25 34t-25 -34z" />
    <glyph glyph-name="ydieresis" unicode="&#xff;" horiz-adv-x="315" 
d="M91 9l-93 529h126l36 -297l35 297h123l-113 -645q-16 -81 -74 -81h-116v119h53q12 0 15.5 5.5t6.5 21.5l2 21q2 17 -1 30zM147 670v-106h-100v106h100zM271 670v-106h-100v106h100z" />
    <glyph glyph-name="Amacron" unicode="&#x100;" horiz-adv-x="349" 
d="M222 0l-14 125h-80l-12 -125h-118l94 744h158l101 -744h-129zM167 508l-26 -255h54zM74 777v88h193v-88h-193z" />
    <glyph glyph-name="amacron" unicode="&#x101;" 
d="M182 134v131q-24 -13 -33 -25q-12 -15 -12 -41v-65q0 -32 21 -32q24 0 24 32zM14 88v117q0 76 56 110q13 9 55 28.5t49 24.5q8 5 8 20v29q0 17 -5 23t-17 6h-4q-22 0 -22 -29v-53h-114v74q0 44 28 75t98 31h23q76 0 106 -30.5t30 -87.5v-297q0 -9 3.5 -12t15.5 -3h14
v-114h-119q-37 0 -37 61q-32 -66 -91 -66h-4q-35 0 -54 27.5t-19 65.5zM63 576v87h191v-87h-191z" />
    <glyph glyph-name="Abreve" unicode="&#x102;" horiz-adv-x="349" 
d="M222 0l-14 125h-80l-12 -125h-118l94 744h158l101 -744h-129zM167 508l-26 -255h54zM172 767h-4q-47 0 -77 28t-30 75v5h85v-3q0 -26 23 -26h2q23 0 23 26v3h84v-5q0 -47 -31 -75t-75 -28z" />
    <glyph glyph-name="abreve" unicode="&#x103;" 
d="M182 134v131q-24 -13 -33 -25q-12 -15 -12 -41v-65q0 -32 21 -32q24 0 24 32zM14 88v117q0 76 56 110q13 9 55 28.5t49 24.5q8 5 8 20v29q0 17 -5 23t-17 6h-4q-22 0 -22 -29v-53h-114v74q0 44 28 75t98 31h23q76 0 106 -30.5t30 -87.5v-297q0 -9 3.5 -12t15.5 -3h14
v-114h-119q-37 0 -37 61q-32 -66 -91 -66h-4q-35 0 -54 27.5t-19 65.5zM154 563h-3q-49 0 -78.5 28t-29.5 81v8h85v-6q0 -33 24 -33h1q24 0 24 33v6h83v-8q0 -52 -30.5 -80.5t-75.5 -28.5z" />
    <glyph glyph-name="Aogonek" unicode="&#x104;" horiz-adv-x="349" 
d="M222 0l-14 125h-80l-12 -125h-118l94 744h158l101 -744h-129zM167 508l-26 -255h54zM215 -124v15q0 26 18.5 51t55.5 58h62q-44 -55 -44 -84v-4q0 -20 26 -20h18v-80h-58q-34 0 -56 16.5t-22 47.5z" />
    <glyph glyph-name="aogonek" unicode="&#x105;" 
d="M182 134v131q-24 -13 -33 -25q-12 -15 -12 -41v-65q0 -32 21 -32q24 0 24 32zM14 88v117q0 76 56 110q13 9 55 28.5t49 24.5q8 5 8 20v29q0 17 -5 23t-17 6h-4q-22 0 -22 -29v-53h-114v74q0 44 28 75t98 31h23q76 0 106 -30.5t30 -87.5v-297q0 -9 3.5 -12t15.5 -3h14
v-114h-119q-37 0 -37 61q-32 -66 -91 -66h-4q-35 0 -54 27.5t-19 65.5zM202 -124v15q0 26 18.5 51t55.5 58h62q-44 -55 -44 -84v-4q0 -20 26 -20h18v-80h-58q-34 0 -56 16.5t-22 47.5z" />
    <glyph glyph-name="Cacute" unicode="&#x106;" horiz-adv-x="372" 
d="M140 771l43 114h106l-45 -114h-104zM224 164v164h132v-168q0 -75 -36.5 -123.5t-117.5 -48.5h-27q-88 0 -122.5 48t-34.5 128v420q0 75 37.5 122t119.5 47h27q46 0 77.5 -13t47.5 -37.5t22.5 -51.5t6.5 -62v-125h-132v120q0 43 -34 43q-33 0 -33 -43v-420q0 -45 34 -45
q33 0 33 45z" />
    <glyph glyph-name="cacute" unicode="&#x107;" horiz-adv-x="322" 
d="M114 566l42 134h105l-44 -134h-103zM190 241h119v-116q0 -60 -33 -98t-99 -38h-21q-72 0 -106.5 38t-34.5 102v271q0 148 139 148h25q130 0 130 -130v-89h-118v76q0 38 -24 38q-23 0 -23 -37v-271q0 -33 22 -33q24 0 24 31v108z" />
    <glyph glyph-name="Ccircumflex" unicode="&#x108;" horiz-adv-x="372" 
d="M241 885l66 -114h-89l-28 46l-27 -46h-89l65 114h102zM224 164v164h132v-168q0 -75 -36.5 -123.5t-117.5 -48.5h-27q-88 0 -122.5 48t-34.5 128v420q0 75 37.5 122t119.5 47h27q46 0 77.5 -13t47.5 -37.5t22.5 -51.5t6.5 -62v-125h-132v120q0 43 -34 43q-33 0 -33 -43
v-420q0 -45 34 -45q33 0 33 45z" />
    <glyph glyph-name="ccircumflex" unicode="&#x109;" horiz-adv-x="322" 
d="M219 700l62 -134h-91l-24 60l-25 -60h-89l61 134h106zM190 241h119v-116q0 -60 -33 -98t-99 -38h-21q-72 0 -106.5 38t-34.5 102v271q0 148 139 148h25q130 0 130 -130v-89h-118v76q0 38 -24 38q-23 0 -23 -37v-271q0 -33 22 -33q24 0 24 31v108z" />
    <glyph glyph-name="Cdotaccent" unicode="&#x10a;" horiz-adv-x="372" 
d="M254 896v-125h-128v125h128zM224 164v164h132v-168q0 -75 -36.5 -123.5t-117.5 -48.5h-27q-88 0 -122.5 48t-34.5 128v420q0 75 37.5 122t119.5 47h27q46 0 77.5 -13t47.5 -37.5t22.5 -51.5t6.5 -62v-125h-132v120q0 43 -34 43q-33 0 -33 -43v-420q0 -45 34 -45
q33 0 33 45z" />
    <glyph glyph-name="cdotaccent" unicode="&#x10b;" horiz-adv-x="322" 
d="M230 690v-124h-128v124h128zM190 241h119v-116q0 -60 -33 -98t-99 -38h-21q-72 0 -106.5 38t-34.5 102v271q0 148 139 148h25q130 0 130 -130v-89h-118v76q0 38 -24 38q-23 0 -23 -37v-271q0 -33 22 -33q24 0 24 31v108z" />
    <glyph glyph-name="Ccaron" unicode="&#x10c;" horiz-adv-x="372" 
d="M139 771l-66 114h90l27 -48l27 48h89l-66 -114h-101zM224 164v164h132v-168q0 -75 -36.5 -123.5t-117.5 -48.5h-27q-88 0 -122.5 48t-34.5 128v420q0 75 37.5 122t119.5 47h27q46 0 77.5 -13t47.5 -37.5t22.5 -51.5t6.5 -62v-125h-132v120q0 43 -34 43q-33 0 -33 -43
v-420q0 -45 34 -45q33 0 33 45z" />
    <glyph glyph-name="ccaron" unicode="&#x10d;" horiz-adv-x="322" 
d="M114 566l-61 134h91l24 -62l25 62h89l-61 -134h-107zM190 241h119v-116q0 -60 -33 -98t-99 -38h-21q-72 0 -106.5 38t-34.5 102v271q0 148 139 148h25q130 0 130 -130v-89h-118v76q0 38 -24 38q-23 0 -23 -37v-271q0 -33 22 -33q24 0 24 31v108z" />
    <glyph glyph-name="Dcaron" unicode="&#x10e;" horiz-adv-x="374" 
d="M21 0v744h189q76 0 110.5 -37.5t34.5 -121.5v-420q0 -83 -33.5 -124t-111.5 -41h-189zM154 626v-502h26q22 0 30.5 12t8.5 40v400q0 27 -8 38.5t-27 11.5h-30zM122 770l-66 115h90l27 -48l27 48h89l-66 -115h-101z" />
    <glyph glyph-name="dcaron" unicode="&#x10f;" horiz-adv-x="344" 
d="M343 594l6 150h87l-12 -150h-81zM198 744h128v-744h-128v60q-40 -71 -89 -71h-2q-39 0 -64.5 33.5t-25.5 81.5v333q0 42 21.5 74.5t58.5 32.5h5q52 0 96 -66v266zM198 143v249q0 42 -27 42q-25 0 -25 -37v-259q0 -37 25 -37q27 0 27 42z" />
    <glyph glyph-name="Dcroat" unicode="&#x110;" horiz-adv-x="377" 
d="M25 443v301h189q76 0 110.5 -37.5t34.5 -121.5v-420q0 -83 -33.5 -124t-111.5 -41h-189v325h-25v118h25zM158 325v-201h26q22 0 30.5 12t8.5 40v400q0 27 -8 38.5t-27 11.5h-30v-183h43v-118h-43z" />
    <glyph glyph-name="dcroat" unicode="&#x111;" horiz-adv-x="344" 
d="M123 583v91h235v-91h-235zM198 744h128v-744h-128v60q-40 -71 -89 -71h-2q-39 0 -64.5 33.5t-25.5 81.5v333q0 42 21.5 74.5t58.5 32.5h5q52 0 96 -66v266zM198 143v249q0 42 -27 42q-25 0 -25 -37v-259q0 -37 25 -37q27 0 27 42z" />
    <glyph glyph-name="Emacron" unicode="&#x112;" horiz-adv-x="315" 
d="M21 744h278v-131h-145v-162h114v-134h-114v-183h152v-134h-285v744zM66 777v88h193v-88h-193z" />
    <glyph glyph-name="emacron" unicode="&#x113;" horiz-adv-x="323" 
d="M150 548h24q135 0 135 -137v-159h-171v-117q0 -33 25 -33q23 0 23 33v80h123v-98q0 -61 -38 -94t-97 -33h-24q-62 0 -98.5 33t-36.5 94v296q0 59 33.5 97t101.5 38zM138 413v-65h52v65q0 36 -26 36q-16 0 -21 -8.5t-5 -27.5zM67 578v87h191v-87h-191z" />
    <glyph glyph-name="Ebreve" unicode="&#x114;" horiz-adv-x="315" 
d="M21 744h278v-131h-145v-162h114v-134h-114v-183h152v-134h-285v744zM167 767h-4q-47 0 -77 28t-30 75v5h85v-3q0 -26 23 -26h2q23 0 23 26v3h84v-5q0 -47 -31 -75t-75 -28z" />
    <glyph glyph-name="ebreve" unicode="&#x115;" horiz-adv-x="323" 
d="M150 548h24q135 0 135 -137v-159h-171v-117q0 -33 25 -33q23 0 23 33v80h123v-98q0 -61 -38 -94t-97 -33h-24q-62 0 -98.5 33t-36.5 94v296q0 59 33.5 97t101.5 38zM138 413v-65h52v65q0 36 -26 36q-16 0 -21 -8.5t-5 -27.5zM165 565h-3q-49 0 -78.5 28t-29.5 81v8h85v-6
q0 -33 24 -33h1q24 0 24 33v6h83v-8q0 -52 -30.5 -80.5t-75.5 -28.5z" />
    <glyph glyph-name="Edotaccent" unicode="&#x116;" horiz-adv-x="315" 
d="M21 744h278v-131h-145v-162h114v-134h-114v-183h152v-134h-285v744zM229 896v-126h-128v126h128z" />
    <glyph glyph-name="edotaccent" unicode="&#x117;" horiz-adv-x="323" 
d="M226 690v-124h-128v124h128zM150 548h24q135 0 135 -137v-159h-171v-117q0 -33 25 -33q23 0 23 33v80h123v-98q0 -61 -38 -94t-97 -33h-24q-62 0 -98.5 33t-36.5 94v296q0 59 33.5 97t101.5 38zM138 413v-65h52v65q0 36 -26 36q-16 0 -21 -8.5t-5 -27.5z" />
    <glyph glyph-name="Eogonek" unicode="&#x118;" horiz-adv-x="315" 
d="M21 744h278v-131h-145v-162h114v-134h-114v-183h152v-134h-285v744zM125 -124v15q0 26 18.5 51t55.5 58h62q-44 -55 -44 -84v-4q0 -20 26 -20h18v-80h-58q-34 0 -56 16.5t-22 47.5z" />
    <glyph glyph-name="eogonek" unicode="&#x119;" horiz-adv-x="323" 
d="M256 -1q-43 -54 -43 -83v-4q0 -20 26 -20h18v-80h-58q-34 0 -56 16.5t-22 47.5v15q0 43 65 100q-3 -1 -12 -1h-24q-62 0 -98.5 33t-36.5 94v296q0 59 33.5 97t101.5 38h24q135 0 135 -137v-159h-171v-117q0 -33 25 -33q23 0 23 33v80h123v-94q0 -28 -8 -51t-15.5 -33
t-29.5 -38zM138 413v-65h52v65q0 36 -26 36q-16 0 -21 -8.5t-5 -27.5z" />
    <glyph glyph-name="Ecaron" unicode="&#x11a;" horiz-adv-x="315" 
d="M21 744h278v-131h-145v-162h114v-134h-114v-183h152v-134h-285v744zM114 770l-66 115h90l27 -48l27 48h89l-66 -115h-101z" />
    <glyph glyph-name="ecaron" unicode="&#x11b;" horiz-adv-x="323" 
d="M110 566l-61 134h91l24 -62l25 62h89l-61 -134h-107zM150 548h24q135 0 135 -137v-159h-171v-117q0 -33 25 -33q23 0 23 33v80h123v-98q0 -61 -38 -94t-97 -33h-24q-62 0 -98.5 33t-36.5 94v296q0 59 33.5 97t101.5 38zM138 413v-65h52v65q0 36 -26 36q-16 0 -21 -8.5
t-5 -27.5z" />
    <glyph glyph-name="Gcircumflex" unicode="&#x11c;" horiz-adv-x="378" 
d="M240 885l66 -114h-89l-28 46l-27 -46h-89l65 114h102zM149 -10h-10q-56 0 -88.5 42t-32.5 104v443q0 76 37 125t118 49h27q47 0 79 -14t47.5 -40t21.5 -54t6 -65v-82h-130v83q0 25 -7.5 36t-26.5 11q-33 0 -33 -47v-414q0 -48 36 -48q39 0 39 46v160h-49v125h177v-450
h-81q-10 42 -20 71q-9 -16 -14.5 -24.5t-19.5 -24.5t-33.5 -24t-42.5 -8z" />
    <glyph glyph-name="gcircumflex" unicode="&#x11d;" horiz-adv-x="342" 
d="M196 -65v125q-38 -70 -87 -70q-40 0 -66 29t-26 76v321q0 58 22 91.5t63 33.5h1q53 0 95 -68v65h126v-612q0 -51 -32 -86t-113 -35h-18q-139 0 -139 98v72h123v-44q0 -12 4.5 -17.5t17.5 -5.5h5q14 0 19 6t5 21zM196 129v270q0 34 -25 34q-24 0 -24 -33v-272
q0 -32 24 -32q25 0 25 33zM222 700l62 -136h-91l-24 62l-25 -62h-89l61 136h106z" />
    <glyph glyph-name="Gbreve" unicode="&#x11e;" horiz-adv-x="378" 
d="M149 -10h-10q-56 0 -88.5 42t-32.5 104v443q0 76 37 125t118 49h27q47 0 79 -14t47.5 -40t21.5 -54t6 -65v-82h-130v83q0 25 -7.5 36t-26.5 11q-33 0 -33 -47v-414q0 -48 36 -48q39 0 39 46v160h-49v125h177v-450h-81q-10 42 -20 71q-9 -16 -14.5 -24.5t-19.5 -24.5
t-33.5 -24t-42.5 -8zM190 768h-4q-47 0 -77 28t-30 75v5h85v-3q0 -26 23 -26h2q23 0 23 26v3h84v-5q0 -47 -31 -75t-75 -28z" />
    <glyph glyph-name="gbreve" unicode="&#x11f;" horiz-adv-x="342" 
d="M196 -65v125q-38 -70 -87 -70q-40 0 -66 29t-26 76v321q0 58 22 91.5t63 33.5h1q53 0 95 -68v65h126v-612q0 -51 -32 -86t-113 -35h-18q-139 0 -139 98v72h123v-44q0 -12 4.5 -17.5t17.5 -5.5h5q14 0 19 6t5 21zM196 129v270q0 34 -25 34q-24 0 -24 -33v-272
q0 -32 24 -32q25 0 25 33zM172 563h-3q-49 0 -78.5 28t-29.5 81v8h85v-6q0 -33 24 -33h1q24 0 24 33v6h83v-8q0 -52 -30.5 -80.5t-75.5 -28.5z" />
    <glyph glyph-name="Gdotaccent" unicode="&#x120;" horiz-adv-x="378" 
d="M256 896v-125h-128v125h128zM149 -10h-10q-56 0 -88.5 42t-32.5 104v443q0 76 37 125t118 49h27q47 0 79 -14t47.5 -40t21.5 -54t6 -65v-82h-130v83q0 25 -7.5 36t-26.5 11q-33 0 -33 -47v-414q0 -48 36 -48q39 0 39 46v160h-49v125h177v-450h-81q-10 42 -20 71
q-9 -16 -14.5 -24.5t-19.5 -24.5t-33.5 -24t-42.5 -8z" />
    <glyph glyph-name="gdotaccent" unicode="&#x121;" horiz-adv-x="342" 
d="M196 -65v125q-38 -70 -87 -70q-40 0 -66 29t-26 76v321q0 58 22 91.5t63 33.5h1q53 0 95 -68v65h126v-612q0 -51 -32 -86t-113 -35h-18q-139 0 -139 98v72h123v-44q0 -12 4.5 -17.5t17.5 -5.5h5q14 0 19 6t5 21zM196 129v270q0 34 -25 34q-24 0 -24 -33v-272
q0 -32 24 -32q25 0 25 33zM234 690v-126h-128v126h128z" />
    <glyph glyph-name="uni0122" unicode="&#x122;" horiz-adv-x="378" 
d="M149 -10h-10q-56 0 -88.5 42t-32.5 104v443q0 76 37 125t118 49h27q47 0 79 -14t47.5 -40t21.5 -54t6 -65v-82h-130v83q0 25 -7.5 36t-26.5 11q-33 0 -33 -47v-414q0 -48 36 -48q39 0 39 46v160h-49v125h177v-450h-81q-10 42 -20 71q-9 -16 -14.5 -24.5t-19.5 -24.5
t-33.5 -24t-42.5 -8zM221 -203h-51q9 21 14 67h-43v110h102v-70q0 -60 -22 -107z" />
    <glyph glyph-name="uni0123" unicode="&#x123;" horiz-adv-x="342" 
d="M196 -65v125q-38 -70 -87 -70q-40 0 -66 29t-26 76v321q0 58 22 91.5t63 33.5h1q53 0 95 -68v65h126v-612q0 -51 -32 -86t-113 -35h-18q-139 0 -139 98v72h123v-44q0 -12 4.5 -17.5t17.5 -5.5h5q14 0 19 6t5 21zM196 129v270q0 34 -25 34q-24 0 -24 -33v-272
q0 -32 24 -32q25 0 25 33zM139 742h53q-11 -36 -14 -69h42v-109h-103v69q0 62 22 109z" />
    <glyph glyph-name="Hcircumflex" unicode="&#x124;" horiz-adv-x="378" 
d="M154 314v-314h-133v744h133v-284h70v284h133v-744h-133v314h-70zM240 885l66 -115h-89l-28 47l-27 -47h-89l65 115h102z" />
    <glyph glyph-name="hcircumflex" unicode="&#x125;" horiz-adv-x="344" 
d="M18 0v744h128v-268q42 64 96 64h5q36 0 57.5 -23.5t21.5 -60.5v-456h-129v398q0 30 -25 30q-26 0 -26 -34v-394h-128zM211 885l66 -115h-89l-28 47l-27 -47h-89l65 115h102z" />
    <glyph glyph-name="Hbar" unicode="&#x126;" horiz-adv-x="378" 
d="M-4 550v101h387v-101h-387zM154 314v-314h-133v744h133v-284h70v284h133v-744h-133v314h-70z" />
    <glyph glyph-name="hbar" unicode="&#x127;" horiz-adv-x="344" 
d="M-14 583v91h235v-91h-235zM18 0v744h128v-268q42 64 96 64h5q36 0 57.5 -23.5t21.5 -60.5v-456h-129v398q0 30 -25 30q-26 0 -26 -34v-394h-128z" />
    <glyph glyph-name="Itilde" unicode="&#x128;" horiz-adv-x="175" 
d="M154 744v-744h-133v744h133zM85 787q-22 9 -25 9q-8 0 -8 -11v-16h-72v34q0 77 57 77q25 0 54 -13q21 -10 27 -10t6 10v16h72v-34q0 -39 -17 -57.5t-40 -18.5q-25 0 -54 14z" />
    <glyph glyph-name="itilde" unicode="&#x129;" horiz-adv-x="164" 
d="M112 678h68v-66q0 -22 -12.5 -35t-30.5 -13q-21 0 -59 20q-14 8 -19 8t-5 -11v-18h-68v57q0 56 44 56q23 0 59 -18q12 -7 18 -7q5 0 5 10v17zM147 538v-538h-128v538h128z" />
    <glyph glyph-name="Imacron" unicode="&#x12a;" horiz-adv-x="175" 
d="M154 744v-744h-133v744h133zM-9 777v88h193v-88h-193z" />
    <glyph glyph-name="imacron" unicode="&#x12b;" horiz-adv-x="164" 
d="M-4 576v88h172v-88h-172zM146 538v-538h-128v538h128z" />
    <glyph glyph-name="Ibreve" unicode="&#x12c;" horiz-adv-x="175" 
d="M154 744v-744h-133v744h133zM90 767h-4q-47 0 -77 28t-30 75v5h85v-3q0 -26 23 -26h2q23 0 23 26v3h84v-5q0 -47 -31 -75t-75 -28z" />
    <glyph glyph-name="ibreve" unicode="&#x12d;" horiz-adv-x="164" 
d="M85 563h-4q-95 0 -95 94v23h80v-16q0 -23 17 -23t17 23v16h78v-23q0 -43 -22.5 -68.5t-70.5 -25.5zM146 538v-538h-128v538h128z" />
    <glyph glyph-name="Iogonek" unicode="&#x12e;" horiz-adv-x="175" 
d="M154 744v-744h-133v744h133zM18 -124v15q0 26 18.5 51t55.5 58h62q-44 -55 -44 -84v-4q0 -20 26 -20h18v-80h-58q-34 0 -56 16.5t-22 47.5z" />
    <glyph glyph-name="iogonek" unicode="&#x12f;" horiz-adv-x="164" 
d="M146 538v-538h-128v538h128zM146 690v-126h-128v126h128zM10 -124v15q0 26 18.5 51t55.5 58h62q-44 -55 -44 -84v-4q0 -20 26 -20h18v-80h-58q-34 0 -56 16.5t-22 47.5z" />
    <glyph glyph-name="Idotaccent" unicode="&#x130;" horiz-adv-x="175" 
d="M154 744v-744h-133v744h133zM152 896v-126h-128v126h128z" />
    <glyph glyph-name="dotlessi" unicode="&#x131;" horiz-adv-x="164" 
d="M146 538v-538h-128v538h128z" />
    <glyph glyph-name="IJ" unicode="&#x132;" horiz-adv-x="525" 
d="M154 744v-744h-133v744h133zM184 327h128v-172q0 -33 26 -33h4q25 0 25 33v589h138v-593q0 -77 -37 -118t-104 -41h-44q-68 0 -102 34.5t-34 110.5v190z" />
    <glyph glyph-name="ij" unicode="&#x133;" horiz-adv-x="325" 
d="M146 538v-538h-128v538h128zM146 690v-126h-128v126h128zM307 690v-126h-128v126h128zM109 -69h52q10 0 14 4.5t4 16.5v586h128v-654q0 -30 -20 -51t-54 -21h-124v119z" />
    <glyph glyph-name="Jcircumflex" unicode="&#x134;" horiz-adv-x="354" 
d="M13 327h128v-172q0 -33 26 -33h4q25 0 25 33v589h138v-593q0 -77 -37 -118t-104 -41h-44q-68 0 -102 34.5t-34 110.5v190zM312 885l66 -115h-89l-28 47l-27 -47h-89l65 115h102z" />
    <glyph glyph-name="jcircumflex" unicode="&#x135;" horiz-adv-x="165" 
d="M134 700l52 -136h-86l-19 66l-20 -66h-85l52 136h106zM-51 -69h52q10 0 14 4.5t4 16.5v586h128v-654q0 -30 -20 -51t-54 -21h-124v119z" />
    <glyph glyph-name="uni0136" unicode="&#x136;" horiz-adv-x="376" 
d="M154 315v-315h-133v744h133v-286l87 286h131l-105 -338l116 -406h-140zM229 -203h-51q9 21 14 67h-43v110h102v-70q0 -60 -22 -107z" />
    <glyph glyph-name="uni0137" unicode="&#x137;" horiz-adv-x="346" 
d="M146 351l75 187h122l-95 -226l102 -312h-127l-77 239v-239h-128v744h128v-393zM213 -203h-51q9 21 14 67h-43v110h102v-70q0 -60 -22 -107z" />
    <glyph glyph-name="Lacute" unicode="&#x139;" horiz-adv-x="304" 
d="M21 744h133v-610h141v-134h-274v744zM36 770l43 115h106l-45 -115h-104z" />
    <glyph glyph-name="lacute" unicode="&#x13a;" horiz-adv-x="164" 
d="M146 744v-744h-128v744h128zM30 770l43 115h106l-45 -115h-104z" />
    <glyph glyph-name="uni013B" unicode="&#x13b;" horiz-adv-x="304" 
d="M21 744h133v-610h141v-134h-274v744zM190 -203h-51q9 21 14 67h-43v110h102v-70q0 -60 -22 -107z" />
    <glyph glyph-name="uni013C" unicode="&#x13c;" horiz-adv-x="164" 
d="M146 744v-744h-128v744h128zM114 -203h-51q9 21 14 67h-43v110h102v-70q0 -60 -22 -107z" />
    <glyph glyph-name="Lcaron" unicode="&#x13d;" horiz-adv-x="304" 
d="M171 594l6 150h87l-12 -150h-81zM21 744h133v-610h141v-134h-274v744z" />
    <glyph glyph-name="lcaron" unicode="&#x13e;" horiz-adv-x="164" 
d="M146 744v-744h-128v744h128zM163 594l6 150h87l-12 -150h-81z" />
    <glyph glyph-name="Ldot" unicode="&#x13f;" horiz-adv-x="311" 
d="M299 458v-144h-118v144h118zM21 744h133v-610h141v-134h-274v744z" />
    <glyph glyph-name="ldot" unicode="&#x140;" horiz-adv-x="291" 
d="M285 458v-144h-118v144h118zM146 744v-744h-128v744h128z" />
    <glyph glyph-name="Lslash" unicode="&#x141;" horiz-adv-x="320" 
d="M36 744h133v-304l95 67v-110l-95 -65v-198h141v-134h-274v241l-33 -22v106l33 23v396z" />
    <glyph glyph-name="lslash" unicode="&#x142;" horiz-adv-x="189" 
d="M158 420v-420h-128v331l-27 -19v100l27 19v313h128v-222l28 20v-102z" />
    <glyph glyph-name="Nacute" unicode="&#x143;" horiz-adv-x="376" 
d="M21 744h125l91 -380v380h118v-744h-113l-103 408v-408h-118v744zM137 770l43 115h106l-45 -115h-104z" />
    <glyph glyph-name="nacute" unicode="&#x144;" horiz-adv-x="344" 
d="M18 0v538h127v-65q45 67 97 67h7q40 0 58.5 -29t18.5 -61v-450h-129v396q0 32 -25 32q-26 0 -26 -36v-392h-128zM120 564l42 136h105l-44 -136h-103z" />
    <glyph glyph-name="uni0145" unicode="&#x145;" horiz-adv-x="376" 
d="M21 744h125l91 -380v380h118v-744h-113l-103 408v-408h-118v744zM218 -203h-51q9 21 14 67h-43v110h102v-70q0 -60 -22 -107z" />
    <glyph glyph-name="uni0146" unicode="&#x146;" horiz-adv-x="344" 
d="M18 0v538h127v-65q45 67 97 67h7q40 0 58.5 -29t18.5 -61v-450h-129v396q0 32 -25 32q-26 0 -26 -36v-392h-128zM203 -203h-51q9 21 14 67h-43v110h102v-70q0 -60 -22 -107z" />
    <glyph glyph-name="Ncaron" unicode="&#x147;" horiz-adv-x="376" 
d="M21 744h125l91 -380v380h118v-744h-113l-103 408v-408h-118v744zM139 770l-66 115h90l27 -48l27 48h89l-66 -115h-101z" />
    <glyph glyph-name="ncaron" unicode="&#x148;" horiz-adv-x="344" 
d="M18 0v538h127v-65q45 67 97 67h7q40 0 58.5 -29t18.5 -61v-450h-129v396q0 32 -25 32q-26 0 -26 -36v-392h-128zM119 564l-62 136h91l24 -62l25 62h89l-62 -136h-105z" />
    <glyph glyph-name="napostrophe" unicode="&#x149;" horiz-adv-x="436" 
d="M110 0v538h127v-65q45 67 97 67h7q40 0 58.5 -29t18.5 -61v-450h-129v396q0 32 -25 32q-26 0 -26 -36v-392h-128zM89 524h-63q18 55 19 92h-43v128h111v-103q0 -61 -24 -117z" />
    <glyph glyph-name="Eng" unicode="&#x14a;" horiz-adv-x="376" 
d="M276 -188h-96v117h39q23 0 23 27v44l-103 412v-412h-118v744h125l93 -404v404h116v-845q0 -87 -79 -87z" />
    <glyph glyph-name="eng" unicode="&#x14b;" horiz-adv-x="344" 
d="M197 -48v444q0 32 -25 32q-26 0 -26 -36v-392h-128v538h124v-68q47 70 97 70h12q39 0 57 -28.5t18 -61.5v-566q0 -30 -20 -51t-54 -21h-95v119h22q10 0 14 4.5t4 16.5z" />
    <glyph glyph-name="Omacron" unicode="&#x14c;" horiz-adv-x="385" 
d="M367 564v-394q0 -83 -42 -132t-116 -49h-30q-79 0 -120 46.5t-41 134.5v393q0 190 160 190h30q159 0 159 -189zM228 166v408q0 49 -35 49q-36 0 -36 -49v-408q0 -44 37 -44q34 0 34 44zM96 778v88h193v-88h-193z" />
    <glyph glyph-name="omacron" unicode="&#x14d;" horiz-adv-x="341" 
d="M15 142v255q0 72 37 111.5t103 39.5h30q67 0 104 -39t37 -110v-255q0 -67 -38 -110.5t-103 -43.5h-30q-71 0 -105.5 41.5t-34.5 110.5zM144 400v-256q0 -38 26 -38q27 0 27 38v256q0 37 -27 37q-26 0 -26 -37zM75 578v87h191v-87h-191z" />
    <glyph glyph-name="Obreve" unicode="&#x14e;" horiz-adv-x="385" 
d="M367 564v-394q0 -83 -42 -132t-116 -49h-30q-79 0 -120 46.5t-41 134.5v393q0 190 160 190h30q159 0 159 -189zM228 166v408q0 49 -35 49q-36 0 -36 -49v-408q0 -44 37 -44q34 0 34 44zM195 768h-4q-47 0 -77 28t-30 75v5h85v-3q0 -26 23 -26h2q23 0 23 26v3h84v-5
q0 -47 -31 -75t-75 -28z" />
    <glyph glyph-name="obreve" unicode="&#x14f;" horiz-adv-x="341" 
d="M15 142v255q0 72 37 111.5t103 39.5h30q67 0 104 -39t37 -110v-255q0 -67 -38 -110.5t-103 -43.5h-30q-71 0 -105.5 41.5t-34.5 110.5zM144 400v-256q0 -38 26 -38q27 0 27 38v256q0 37 -27 37q-26 0 -26 -37zM173 565h-3q-49 0 -78.5 28t-29.5 81v8h85v-6q0 -33 24 -33
h1q24 0 24 33v6h83v-8q0 -52 -30.5 -80.5t-75.5 -28.5z" />
    <glyph glyph-name="Ohungarumlaut" unicode="&#x150;" horiz-adv-x="385" 
d="M95 771l24 114h90l-27 -114h-87zM206 771l26 114h89l-29 -114h-86zM367 564v-394q0 -83 -42 -132t-116 -49h-30q-79 0 -120 46.5t-41 134.5v393q0 190 160 190h30q159 0 159 -189zM228 166v408q0 49 -35 49q-36 0 -36 -49v-408q0 -44 37 -44q34 0 34 44z" />
    <glyph glyph-name="ohungarumlaut" unicode="&#x151;" horiz-adv-x="341" 
d="M80 566l24 134h88l-26 -134h-86zM189 566l25 134h88l-28 -134h-85zM15 142v255q0 72 37 111.5t103 39.5h30q67 0 104 -39t37 -110v-255q0 -67 -38 -110.5t-103 -43.5h-30q-71 0 -105.5 41.5t-34.5 110.5zM144 400v-256q0 -38 26 -38q27 0 27 38v256q0 37 -27 37
q-26 0 -26 -37z" />
    <glyph glyph-name="OE" unicode="&#x152;" horiz-adv-x="518" 
d="M18 172v399q0 82 30.5 131t91.5 49q58 0 93 -50v43h266v-132h-138v-161h107v-135h-107v-182h148v-134h-276v45q-30 -55 -97 -55q-56 0 -87 45.5t-31 136.5zM228 176v393q0 54 -35 54q-36 0 -36 -54v-393q0 -54 36 -54q35 0 35 54z" />
    <glyph glyph-name="oe" unicode="&#x153;" horiz-adv-x="505" 
d="M491 252h-171v-118q0 -32 25 -32q24 0 24 32v81h122v-99q0 -61 -38 -94.5t-97 -33.5h-27q-23 0 -45 10.5t-32 22.5q-31 -31 -75 -31h-24q-69 0 -103.5 41.5t-34.5 110.5v255q0 73 35.5 112t101.5 39h26q54 0 79 -31q25 31 76 31h27q131 0 131 -138v-158zM144 400v-256
q0 -38 26 -38q27 0 27 38v256q0 37 -27 37q-26 0 -26 -37zM320 412v-64h52v64q0 19 -5 27.5t-21 8.5t-21 -8.5t-5 -27.5z" />
    <glyph glyph-name="Racute" unicode="&#x154;" horiz-adv-x="369" 
d="M154 629v-188h26q21 0 29 9.5t8 35.5v101q0 25 -6.5 33.5t-26.5 8.5h-30zM154 318v-318h-133v744h210q122 0 122 -124v-119q0 -74 -59 -100q21 -8 39 -29.5t18 -58.5v-253q0 -35 11 -55v-5h-133q-12 14 -12 57v217q0 26 -7.5 35t-27.5 9h-28zM126 770l43 115h106
l-45 -115h-104z" />
    <glyph glyph-name="racute" unicode="&#x155;" horiz-adv-x="308" 
d="M145 538v-67q9 25 30 47.5t55 22.5h6q61 0 61 -66v-195h-119v123q0 15 -3.5 20.5t-12.5 5.5q-16 0 -16 -26v-403h-128v538h127zM112 564l42 136h105l-44 -136h-103z" />
    <glyph glyph-name="uni0156" unicode="&#x156;" horiz-adv-x="369" 
d="M154 629v-188h26q21 0 29 9.5t8 35.5v101q0 25 -6.5 33.5t-26.5 8.5h-30zM154 318v-318h-133v744h210q122 0 122 -124v-119q0 -74 -59 -100q21 -8 39 -29.5t18 -58.5v-253q0 -35 11 -55v-5h-133q-12 14 -12 57v217q0 26 -7.5 35t-27.5 9h-28zM218 -203h-51q9 21 14 67
h-43v110h102v-70q0 -60 -22 -107z" />
    <glyph glyph-name="uni0157" unicode="&#x157;" horiz-adv-x="308" 
d="M145 538v-67q9 25 30 47.5t55 22.5h6q61 0 61 -66v-195h-119v123q0 15 -3.5 20.5t-12.5 5.5q-16 0 -16 -26v-403h-128v538h127zM110 -203h-51q9 21 14 67h-43v110h102v-70q0 -60 -22 -107z" />
    <glyph glyph-name="Rcaron" unicode="&#x158;" horiz-adv-x="369" 
d="M154 629v-188h26q21 0 29 9.5t8 35.5v101q0 25 -6.5 33.5t-26.5 8.5h-30zM154 318v-318h-133v744h210q122 0 122 -124v-119q0 -74 -59 -100q21 -8 39 -29.5t18 -58.5v-253q0 -35 11 -55v-5h-133q-12 14 -12 57v217q0 26 -7.5 35t-27.5 9h-28zM127 770l-66 115h90l27 -48
l27 48h89l-66 -115h-101z" />
    <glyph glyph-name="rcaron" unicode="&#x159;" horiz-adv-x="308" 
d="M145 538v-67q9 25 30 47.5t55 22.5h6q61 0 61 -66v-195h-119v123q0 15 -3.5 20.5t-12.5 5.5q-16 0 -16 -26v-403h-128v538h127zM112 564l-62 136h91l24 -62l25 62h89l-62 -136h-105z" />
    <glyph glyph-name="Sacute" unicode="&#x15a;" horiz-adv-x="359" 
d="M130 771l43 114h106l-45 -114h-104zM168 753h27q77 0 110 -35t33 -111v-100h-128v93q0 39 -29 39t-29 -40v-17q0 -50 41 -96l76 -85q48 -54 64.5 -96.5t16.5 -94.5v-35q0 -87 -40.5 -135.5t-121.5 -48.5h-26q-152 0 -152 154v134h131v-119q0 -45 34 -45q33 0 33 54v14
q0 42 -7.5 63.5t-35.5 52.5l-77 85q-40 43 -55.5 87t-15.5 102v32q0 71 40 109.5t111 38.5z" />
    <glyph glyph-name="sacute" unicode="&#x15b;" horiz-adv-x="302" 
d="M103 566l42 134h105l-44 -134h-103zM289 446v-73h-114v56q0 28 -21 28t-21 -28v-11q0 -18 4.5 -28t18.5 -24l71 -70q40 -40 54.5 -72.5t14.5 -76.5v-18q0 -60 -33.5 -99t-99.5 -39h-26q-66 0 -98 32.5t-32 84.5v88h118v-72q0 -30 23 -30h1q21 0 21 31v12q0 40 -28 67
l-68 65q-35 34 -47.5 66t-12.5 76v17q0 56 32 88t94 32h27q122 0 122 -102z" />
    <glyph glyph-name="Scircumflex" unicode="&#x15c;" horiz-adv-x="359" 
d="M234 885l66 -114h-89l-28 46l-27 -46h-89l65 114h102zM168 753h27q77 0 110 -35t33 -111v-100h-128v93q0 39 -29 39t-29 -40v-17q0 -50 41 -96l76 -85q48 -54 64.5 -96.5t16.5 -94.5v-35q0 -87 -40.5 -135.5t-121.5 -48.5h-26q-152 0 -152 154v134h131v-119q0 -45 34 -45
q33 0 33 54v14q0 42 -7.5 63.5t-35.5 52.5l-77 85q-40 43 -55.5 87t-15.5 102v32q0 71 40 109.5t111 38.5z" />
    <glyph glyph-name="scircumflex" unicode="&#x15d;" horiz-adv-x="302" 
d="M208 700l62 -134h-91l-24 60l-25 -60h-89l61 134h106zM289 446v-73h-114v56q0 28 -21 28t-21 -28v-11q0 -18 4.5 -28t18.5 -24l71 -70q40 -40 54.5 -72.5t14.5 -76.5v-18q0 -60 -33.5 -99t-99.5 -39h-26q-66 0 -98 32.5t-32 84.5v88h118v-72q0 -30 23 -30h1q21 0 21 31
v12q0 40 -28 67l-68 65q-35 34 -47.5 66t-12.5 76v17q0 56 32 88t94 32h27q122 0 122 -102z" />
    <glyph glyph-name="uni015E" unicode="&#x15e;" horiz-adv-x="359" 
d="M168 753h27q77 0 110 -35t33 -111v-100h-128v93q0 39 -29 39t-29 -40v-17q0 -50 41 -96l76 -85q48 -54 64.5 -96.5t16.5 -94.5v-35q0 -87 -40.5 -135.5t-121.5 -48.5h-26q-152 0 -152 154v134h131v-119q0 -45 34 -45q33 0 33 54v14q0 42 -7.5 63.5t-35.5 52.5l-77 85
q-40 43 -55.5 87t-15.5 102v32q0 71 40 109.5t111 38.5zM165 -188h-61v63h50q22 0 22 17v1q0 15 -22 15h-35v92h60v-36h3q79 -3 79 -72v-3q0 -38 -26 -57.5t-70 -19.5z" />
    <glyph glyph-name="uni015F" unicode="&#x15f;" horiz-adv-x="302" 
d="M289 446v-73h-114v56q0 28 -21 28t-21 -28v-11q0 -18 4.5 -28t18.5 -24l71 -70q40 -40 54.5 -72.5t14.5 -76.5v-18q0 -60 -33.5 -99t-99.5 -39h-26q-66 0 -98 32.5t-32 84.5v88h118v-72q0 -30 23 -30h1q21 0 21 31v12q0 40 -28 67l-68 65q-35 34 -47.5 66t-12.5 76v17
q0 56 32 88t94 32h27q122 0 122 -102zM138 -188h-61v63h50q22 0 22 17v1q0 15 -22 15h-35v92h60v-36h3q79 -3 79 -72v-3q0 -38 -26 -57.5t-70 -19.5z" />
    <glyph glyph-name="Scaron" unicode="&#x160;" horiz-adv-x="359" 
d="M168 753h27q77 0 110 -35t33 -111v-100h-128v93q0 39 -29 39t-29 -40v-17q0 -50 41 -96l76 -85q48 -54 64.5 -96.5t16.5 -94.5v-35q0 -87 -40.5 -135.5t-121.5 -48.5h-26q-152 0 -152 154v134h131v-119q0 -45 34 -45q33 0 33 54v14q0 42 -7.5 63.5t-35.5 52.5l-77 85
q-40 43 -55.5 87t-15.5 102v32q0 71 40 109.5t111 38.5zM131 771l-66 115h90l27 -48l27 48h89l-66 -115h-101z" />
    <glyph glyph-name="scaron" unicode="&#x161;" horiz-adv-x="302" 
d="M289 446v-73h-114v56q0 28 -21 28t-21 -28v-11q0 -18 4.5 -28t18.5 -24l71 -70q40 -40 54.5 -72.5t14.5 -76.5v-18q0 -60 -33.5 -99t-99.5 -39h-26q-66 0 -98 32.5t-32 84.5v88h118v-72q0 -30 23 -30h1q21 0 21 31v12q0 40 -28 67l-68 65q-35 34 -47.5 66t-12.5 76v17
q0 56 32 88t94 32h27q122 0 122 -102zM102 566l-62 136h91l24 -62l25 62h89l-62 -136h-105z" />
    <glyph glyph-name="Tcommaaccent" unicode="&#x162;" 
d="M199 -203h-51q9 21 14 67h-43v110h102v-70q0 -60 -22 -107zM8 744h323v-131h-95v-613h-133v613h-95v131z" />
    <glyph glyph-name="tcommaaccent" unicode="&#x163;" horiz-adv-x="267" 
d="M256 0h-128q-26 0 -43.5 18.5t-17.5 47.5v353h-61v119h61v178h127v-178h62v-119h-62v-276q0 -12 3.5 -17t15.5 -5h43v-121zM200 -203h-51q9 21 14 67h-43v110h102v-70q0 -60 -22 -107z" />
    <glyph glyph-name="Tcaron" unicode="&#x164;" 
d="M8 744h323v-131h-95v-613h-133v613h-95v131zM119 770l-66 115h90l27 -48l27 48h89l-66 -115h-101z" />
    <glyph glyph-name="tcaron" unicode="&#x165;" horiz-adv-x="267" 
d="M211 594l6 150h87l-12 -150h-81zM256 0h-128q-26 0 -43.5 18.5t-17.5 47.5v353h-61v119h61v178h127v-178h62v-119h-62v-276q0 -12 3.5 -17t15.5 -5h43v-121z" />
    <glyph glyph-name="Tbar" unicode="&#x166;" 
d="M304 349h-269v114h269v-114zM8 744h323v-131h-95v-613h-133v613h-95v131z" />
    <glyph glyph-name="tbar" unicode="&#x167;" horiz-adv-x="267" 
d="M256 0h-128q-26 0 -43.5 18.5t-17.5 47.5v169h-61v104h61v80h-61v119h61v178h127v-178h62v-119h-62v-80h62v-104h-62v-92q0 -12 3.5 -17t15.5 -5h43v-121z" />
    <glyph glyph-name="Utilde" unicode="&#x168;" horiz-adv-x="379" 
d="M20 173v571h137v-576q0 -46 33 -46q32 0 32 46v576h137v-571q0 -91 -40.5 -137.5t-113.5 -46.5h-33q-152 0 -152 184zM190 787q-22 9 -25 9q-8 0 -8 -11v-16h-72v34q0 77 57 77q25 0 54 -13q21 -10 27 -10t6 10v16h72v-34q0 -39 -17 -57.5t-40 -18.5q-25 0 -54 14z" />
    <glyph glyph-name="utilde" unicode="&#x169;" 
d="M321 538v-538h-124v66q-22 -33 -43.5 -50.5t-53.5 -17.5h-4q-36 0 -57 28.5t-21 64.5v447h129v-395q0 -33 22 -33q25 0 25 36v392h127zM208 678h73v-56q0 -25 -15 -42t-39 -17q-25 0 -60 19q-19 9 -23 9q-7 0 -7 -12v-16h-72v47q0 31 14.5 49.5t40.5 18.5q18 0 59 -18
q17 -8 23 -8t6 10v16z" />
    <glyph glyph-name="Umacron" unicode="&#x16a;" horiz-adv-x="379" 
d="M20 173v571h137v-576q0 -46 33 -46q32 0 32 46v576h137v-571q0 -91 -40.5 -137.5t-113.5 -46.5h-33q-152 0 -152 184zM93 777v88h193v-88h-193z" />
    <glyph glyph-name="umacron" unicode="&#x16b;" 
d="M321 538v-538h-124v66q-22 -33 -43.5 -50.5t-53.5 -17.5h-4q-36 0 -57 28.5t-21 64.5v447h129v-395q0 -33 22 -33q25 0 25 36v392h127zM75 576v87h191v-87h-191z" />
    <glyph glyph-name="Ubreve" unicode="&#x16c;" horiz-adv-x="379" 
d="M20 173v571h137v-576q0 -46 33 -46q32 0 32 46v576h137v-571q0 -91 -40.5 -137.5t-113.5 -46.5h-33q-152 0 -152 184zM192 767h-4q-47 0 -77 28t-30 75v5h85v-3q0 -26 23 -26h2q23 0 23 26v3h84v-5q0 -47 -31 -75t-75 -28z" />
    <glyph glyph-name="ubreve" unicode="&#x16d;" 
d="M321 538v-538h-124v66q-22 -33 -43.5 -50.5t-53.5 -17.5h-4q-36 0 -57 28.5t-21 64.5v447h129v-395q0 -33 22 -33q25 0 25 36v392h127zM172 563h-3q-49 0 -78.5 28t-29.5 81v8h85v-6q0 -33 24 -33h1q24 0 24 33v6h83v-8q0 -52 -30.5 -80.5t-75.5 -28.5z" />
    <glyph glyph-name="Uring" unicode="&#x16e;" horiz-adv-x="379" 
d="M20 173v571h137v-576q0 -46 33 -46q32 0 32 46v576h137v-571q0 -91 -40.5 -137.5t-113.5 -46.5h-33q-152 0 -152 184zM189 811q15 0 23.5 9t8.5 24t-8.5 24t-23.5 9t-23.5 -9t-8.5 -24t8.5 -24t23.5 -9zM189 765q-35 0 -57.5 22t-22.5 57t22.5 57t57.5 22t57.5 -22
t22.5 -57t-22.5 -57t-57.5 -22z" />
    <glyph glyph-name="uring" unicode="&#x16f;" 
d="M321 538v-538h-124v66q-22 -33 -43.5 -50.5t-53.5 -17.5h-4q-36 0 -57 28.5t-21 64.5v447h129v-395q0 -33 22 -33q25 0 25 36v392h127zM169 608q15 0 23.5 9t8.5 24t-8.5 24t-23.5 9t-23.5 -9t-8.5 -24t8.5 -24t23.5 -9zM169 562q-35 0 -57.5 22t-22.5 57t22.5 57
t57.5 22t57.5 -22t22.5 -57t-22.5 -57t-57.5 -22z" />
    <glyph glyph-name="Uhungarumlaut" unicode="&#x170;" horiz-adv-x="379" 
d="M20 173v571h137v-576q0 -46 33 -46q32 0 32 46v576h137v-571q0 -91 -40.5 -137.5t-113.5 -46.5h-33q-152 0 -152 184zM91 770l24 115h90l-27 -115h-87zM202 770l26 115h89l-29 -115h-86z" />
    <glyph glyph-name="uhungarumlaut" unicode="&#x171;" 
d="M321 538v-538h-124v66q-22 -33 -43.5 -50.5t-53.5 -17.5h-4q-36 0 -57 28.5t-21 64.5v447h129v-395q0 -33 22 -33q25 0 25 36v392h127zM75 564l24 136h88l-26 -136h-86zM184 564l25 136h88l-28 -136h-85z" />
    <glyph glyph-name="Uogonek" unicode="&#x172;" horiz-adv-x="379" 
d="M153 -124v15q0 47 64 98h-12h-33q-74 0 -113 46.5t-39 137.5v571h137v-576q0 -46 33 -46q32 0 32 46v576h137v-571q0 -16 -1 -30.5t-4.5 -27.5t-5.5 -23t-8 -21t-8.5 -17t-10.5 -16t-10 -13t-11 -13t-10 -12q-45 -51 -45 -84v-4q0 -20 26 -20h18v-80h-58q-34 0 -56 16.5
t-22 47.5z" />
    <glyph glyph-name="uogonek" unicode="&#x173;" 
d="M321 538v-538h-124v66q-22 -33 -43.5 -50.5t-53.5 -17.5h-4q-36 0 -57 28.5t-21 64.5v447h129v-395q0 -33 22 -33q25 0 25 36v392h127zM185 -124v15q0 26 18.5 51t55.5 58h62q-44 -55 -44 -84v-4q0 -20 26 -20h18v-80h-58q-34 0 -56 16.5t-22 47.5z" />
    <glyph glyph-name="Wcircumflex" unicode="&#x174;" horiz-adv-x="572" 
d="M227 744h127l47 -472l44 472h128l-95 -744h-151l-39 409l-39 -409h-157l-93 744h138l42 -477zM338 885l66 -115h-89l-28 47l-27 -47h-89l65 115h102z" />
    <glyph glyph-name="wcircumflex" unicode="&#x175;" horiz-adv-x="498" 
d="M216 0h-137l-81 538h126l35 -333l37 333h113l36 -337l35 337h120l-82 -538h-133l-35 292zM302 700l62 -136h-91l-24 62l-25 -62h-89l61 136h106z" />
    <glyph glyph-name="Ycircumflex" unicode="&#x176;" horiz-adv-x="331" 
d="M337 744l-100 -451v-293h-133v288l-110 456h133l45 -264l45 264h120zM222 885l66 -115h-89l-28 47l-27 -47h-89l65 115h102z" />
    <glyph glyph-name="ycircumflex" unicode="&#x177;" horiz-adv-x="315" 
d="M91 9l-93 529h126l36 -297l35 297h123l-113 -645q-16 -81 -74 -81h-116v119h53q12 0 15.5 5.5t6.5 21.5l2 21q2 17 -1 30zM211 700l62 -136h-91l-24 62l-25 -62h-89l61 136h106z" />
    <glyph glyph-name="Ydieresis" unicode="&#x178;" horiz-adv-x="331" 
d="M337 744l-100 -451v-293h-133v288l-110 456h133l45 -264l45 264h120zM285 876v-106h-100v106h100zM160 876v-106h-100v106h100z" />
    <glyph glyph-name="Zacute" unicode="&#x179;" horiz-adv-x="334" 
d="M20 744h294v-118l-162 -496h173v-130h-316v120l162 496h-151v128zM109 770l43 115h106l-45 -115h-104z" />
    <glyph glyph-name="zacute" unicode="&#x17a;" horiz-adv-x="270" 
d="M16 538h241v-106l-124 -318h131v-114h-258v107l125 319h-115v112zM83 564l42 136h105l-44 -136h-103z" />
    <glyph glyph-name="Zdotaccent" unicode="&#x17b;" horiz-adv-x="334" 
d="M20 744h294v-118l-162 -496h173v-130h-316v120l162 496h-151v128zM232 896v-126h-128v126h128z" />
    <glyph glyph-name="zdotaccent" unicode="&#x17c;" horiz-adv-x="270" 
d="M16 538h241v-106l-124 -318h131v-114h-258v107l125 319h-115v112zM201 690v-126h-128v126h128z" />
    <glyph glyph-name="Zcaron" unicode="&#x17d;" horiz-adv-x="334" 
d="M20 744h294v-118l-162 -496h173v-130h-316v120l162 496h-151v128zM117 770l-66 115h90l27 -48l27 48h89l-66 -115h-101z" />
    <glyph glyph-name="zcaron" unicode="&#x17e;" horiz-adv-x="270" 
d="M16 538h241v-106l-124 -318h131v-114h-258v107l125 319h-115v112zM84 564l-62 136h91l24 -62l25 62h89l-62 -136h-105z" />
    <glyph glyph-name="uni0192" unicode="&#x192;" horiz-adv-x="276" 
d="M38 -188l26 550h-58v119h63l9 175q2 44 26 66t79 22h83v-113h-37q-14 0 -19 -5.5t-7 -21.5l-6 -123h69v-119h-75l-26 -550h-127z" />
    <glyph glyph-name="Aringacute" unicode="&#x1fa;" horiz-adv-x="349" 
d="M170 811q15 0 23.5 9t8.5 24t-8.5 24t-23.5 9t-23.5 -9t-8.5 -24t8.5 -24t23.5 -9zM170 765q-35 0 -57.5 22t-22.5 57t22.5 57t57.5 22t57.5 -22t22.5 -57t-22.5 -57t-57.5 -22zM120 939l43 115h106l-45 -115h-104zM222 0l-14 125h-80l-12 -125h-118l94 744h158l101 -744
h-129zM167 508l-26 -255h54z" />
    <glyph glyph-name="aringacute" unicode="&#x1fb;" 
d="M112 736l42 136h105l-44 -136h-103zM161 608q15 0 23.5 9t8.5 24t-8.5 24t-23.5 9t-23.5 -9t-8.5 -24t8.5 -24t23.5 -9zM161 562q-35 0 -57.5 22t-22.5 57t22.5 57t57.5 22t57.5 -22t22.5 -57t-22.5 -57t-57.5 -22zM182 134v131q-24 -13 -33 -25q-12 -15 -12 -41v-65
q0 -32 21 -32q24 0 24 32zM14 88v117q0 76 56 110q13 9 55 28.5t49 24.5q8 5 8 20v29q0 17 -5 23t-17 6h-4q-22 0 -22 -29v-53h-114v74q0 44 28 75t98 31h23q76 0 106 -30.5t30 -87.5v-297q0 -9 3.5 -12t15.5 -3h14v-114h-119q-37 0 -37 61q-32 -66 -91 -66h-4
q-35 0 -54 27.5t-19 65.5z" />
    <glyph glyph-name="AEacute" unicode="&#x1fc;" horiz-adv-x="515" 
d="M506 0h-281v131h-81l-22 -131h-128l140 744h362v-132h-138v-161h107v-135h-107v-182h148v-134zM166 258h59v344zM259 770l43 115h106l-45 -115h-104z" />
    <glyph glyph-name="aeacute" unicode="&#x1fd;" horiz-adv-x="489" 
d="M193 63q-40 -68 -101 -68h-4q-36 0 -55 27t-19 66v98q0 76 56 110q13 9 55 28.5t49 24.5q8 5 8 20v48q0 17 -5 23t-17 6h-4q-22 0 -22 -29v-72h-114v93q0 44 28 75t98 31h23q53 0 80 -27q23 31 80 31h15q65 0 98.5 -34.5t33.5 -112.5v-150h-171v-117q0 -18 5 -25t19 -7
q25 0 25 32v80h122v-90q0 -62 -35 -98t-102 -36h-21q-100 0 -125 73zM182 134v112q-24 -13 -33 -25q-12 -15 -12 -41v-46q0 -32 21 -32q24 0 24 32zM305 417v-70h52v69q0 32 -26 32t-26 -31zM195 564l42 136h105l-44 -136h-103z" />
    <glyph glyph-name="Oslashacute" unicode="&#x1fe;" horiz-adv-x="381" 
d="M137 771l43 114h106l-45 -114h-104zM363 564v-394q0 -83 -42 -132t-116 -49h-25q-58 0 -96 35l-10 -24h-74l33 82q-15 40 -15 88v393q0 190 160 190h25q57 0 93 -33l10 24h74l-33 -83q16 -35 16 -97zM192 122q36 0 36 44v228l-75 -206v-22q0 -44 39 -44zM191 623
q-38 0 -38 -49v-224l75 209v15q0 49 -37 49z" />
    <glyph glyph-name="oslashacute" unicode="&#x1ff;" horiz-adv-x="336" 
d="M116 566l42 134h105l-44 -134h-103zM15 142v255q0 72 37 111.5t103 39.5h26q51 0 87 -29l10 19h66l-35 -69q12 -33 12 -70v-255q0 -68 -37.5 -111t-102.5 -43h-26q-49 0 -85 30l-10 -20h-67l36 70q-14 27 -14 72zM196 387v14q0 37 -28 37t-28 -37v-137zM168 105
q28 0 28 38v129l-56 -121v-8q0 -38 28 -38z" />
    <glyph glyph-name="uni0218" unicode="&#x218;" horiz-adv-x="359" 
d="M168 753h27q77 0 110 -35t33 -111v-100h-128v93q0 39 -29 39t-29 -40v-17q0 -50 41 -96l76 -85q48 -54 64.5 -96.5t16.5 -94.5v-35q0 -87 -40.5 -135.5t-121.5 -48.5h-26q-152 0 -152 154v134h131v-119q0 -45 34 -45q33 0 33 54v14q0 42 -7.5 63.5t-35.5 52.5l-77 85
q-40 43 -55.5 87t-15.5 102v32q0 71 40 109.5t111 38.5zM207 -205h-51q9 21 14 67h-43v110h102v-70q0 -60 -22 -107z" />
    <glyph glyph-name="uni0219" unicode="&#x219;" horiz-adv-x="302" 
d="M289 446v-73h-114v56q0 28 -21 28t-21 -28v-11q0 -18 4.5 -28t18.5 -24l71 -70q40 -40 54.5 -72.5t14.5 -76.5v-18q0 -60 -33.5 -99t-99.5 -39h-26q-66 0 -98 32.5t-32 84.5v88h118v-72q0 -30 23 -30h1q21 0 21 31v12q0 40 -28 67l-68 65q-35 34 -47.5 66t-12.5 76v17
q0 56 32 88t94 32h27q122 0 122 -102zM179 -204h-51q9 21 14 67h-43v110h102v-70q0 -60 -22 -107z" />
    <glyph glyph-name="uni021A" unicode="&#x21a;" 
d="M199 -203h-51q9 21 14 67h-43v110h102v-70q0 -60 -22 -107zM8 744h323v-131h-95v-613h-133v613h-95v131z" />
    <glyph glyph-name="uni021B" unicode="&#x21b;" horiz-adv-x="267" 
d="M256 0h-128q-26 0 -43.5 18.5t-17.5 47.5v353h-61v119h61v178h127v-178h62v-119h-62v-276q0 -12 3.5 -17t15.5 -5h43v-121zM200 -203h-51q9 21 14 67h-43v110h102v-70q0 -60 -22 -107z" />
    <glyph glyph-name="uni0237" unicode="&#x237;" horiz-adv-x="165" 
d="M-51 -69h52q10 0 14 4.5t4 16.5v586h128v-654q0 -30 -20 -51t-54 -21h-124v119z" />
    <glyph glyph-name="uni02BC" unicode="&#x2bc;" horiz-adv-x="135" 
d="M101 524h-63q18 55 19 92h-43v128h111v-103q0 -61 -24 -117z" />
    <glyph glyph-name="circumflex" unicode="&#x2c6;" horiz-adv-x="342" 
d="M224 700l62 -136h-91l-24 62l-25 -62h-89l61 136h106z" />
    <glyph glyph-name="caron" unicode="&#x2c7;" horiz-adv-x="342" 
d="M119 564l-62 136h91l24 -62l25 62h89l-62 -136h-105z" />
    <glyph glyph-name="breve" unicode="&#x2d8;" horiz-adv-x="342" 
d="M174 563h-3q-49 0 -78.5 28t-29.5 81v8h85v-6q0 -33 24 -33h1q24 0 24 33v6h83v-8q0 -52 -30.5 -80.5t-75.5 -28.5z" />
    <glyph glyph-name="dotaccent" unicode="&#x2d9;" horiz-adv-x="342" 
d="M235 690v-126h-128v126h128z" />
    <glyph glyph-name="ring" unicode="&#x2da;" horiz-adv-x="342" 
d="M171 608q15 0 23.5 9t8.5 24t-8.5 24t-23.5 9t-23.5 -9t-8.5 -24t8.5 -24t23.5 -9zM171 562q-35 0 -57.5 22t-22.5 57t22.5 57t57.5 22t57.5 -22t22.5 -57t-22.5 -57t-57.5 -22z" />
    <glyph glyph-name="ogonek" unicode="&#x2db;" horiz-adv-x="342" 
d="M102 -124v15q0 26 18.5 51t55.5 58h62q-44 -55 -44 -84v-4q0 -20 26 -20h18v-80h-58q-34 0 -56 16.5t-22 47.5z" />
    <glyph glyph-name="tilde" unicode="&#x2dc;" horiz-adv-x="342" 
d="M206 678h73v-56q0 -25 -15 -42t-39 -17q-25 0 -60 19q-19 9 -23 9q-7 0 -7 -12v-16h-72v47q0 31 14.5 49.5t40.5 18.5q18 0 59 -18q17 -8 23 -8t6 10v16z" />
    <glyph glyph-name="hungarumlaut" unicode="&#x2dd;" horiz-adv-x="342" 
d="M60 564l24 136h88l-26 -136h-86zM169 564l25 136h88l-28 -136h-85z" />
    <glyph glyph-name="uni0401" unicode="&#x401;" horiz-adv-x="315" 
d="M21 744h278v-131h-145v-162h114v-134h-114v-183h152v-134h-285v744zM275 876v-106h-100v106h100zM150 876v-106h-100v106h100z" />
    <glyph glyph-name="uni0402" unicode="&#x402;" horiz-adv-x="432" 
d="M329 613h-115v-167q34 11 83 11q61 0 90.5 -32t29.5 -87v-285q0 -88 -32.5 -130t-111.5 -42h-31v119h3q24 0 31.5 13t7.5 40v236q0 29 -8.5 38.5t-29.5 9.5q-20 0 -32 -5v-332h-133v613h-75v131h323v-131z" />
    <glyph glyph-name="uni0403" unicode="&#x403;" horiz-adv-x="302" 
d="M86 770l43 115h106l-45 -115h-104zM19 0v744h275v-131h-142v-613h-133z" />
    <glyph glyph-name="uni0404" unicode="&#x404;" horiz-adv-x="368" 
d="M354 291v-131q0 -75 -36.5 -123.5t-117.5 -48.5h-27q-88 0 -122.5 48t-34.5 128v420q0 75 37.5 122t119.5 47h27q46 0 77.5 -13t47.5 -37.5t22.5 -51.5t6.5 -62v-105h-132v100q0 43 -34 43q-33 0 -33 -43v-127h99v-140h-99v-153q0 -45 34 -45q33 0 33 45v127h132z" />
    <glyph glyph-name="uni0405" unicode="&#x405;" horiz-adv-x="355" 
d="M168 753h27q77 0 110 -35t33 -111v-100h-128v93q0 39 -29 39t-29 -40v-17q0 -50 41 -96l76 -85q48 -54 64.5 -96.5t16.5 -94.5v-35q0 -87 -40.5 -135.5t-121.5 -48.5h-26q-152 0 -152 154v134h131v-119q0 -45 34 -45q33 0 33 54v14q0 42 -7.5 63.5t-35.5 52.5l-77 85
q-40 43 -55.5 87t-15.5 102v32q0 71 40 109.5t111 38.5z" />
    <glyph glyph-name="uni0406" unicode="&#x406;" horiz-adv-x="171" 
d="M154 744v-744h-133v744h133z" />
    <glyph glyph-name="uni0407" unicode="&#x407;" horiz-adv-x="175" 
d="M154 744v-744h-133v744h133zM200 876v-106h-100v106h100zM75 876v-106h-100v106h100z" />
    <glyph glyph-name="uni0408" unicode="&#x408;" horiz-adv-x="350" 
d="M13 327h128v-172q0 -33 26 -33h4q25 0 25 33v589h138v-593q0 -77 -37 -118t-104 -41h-44q-68 0 -102 34.5t-34 110.5v190z" />
    <glyph glyph-name="uni0409" unicode="&#x409;" horiz-adv-x="565" 
d="M38 0h-33v135h8q20 0 27 11.5t8 38.5q7 224 7 559h305v-268h63q130 0 130 -150v-180q0 -75 -28.5 -110.5t-108.5 -35.5h-189v613h-46q0 -372 -9 -482q-4 -69 -33.5 -100t-100.5 -31zM360 115h25q21 0 27.5 10.5t6.5 32.5v155q0 21 -6.5 31.5t-27.5 10.5h-25v-240z" />
    <glyph glyph-name="uni040A" unicode="&#x40a;" horiz-adv-x="560" 
d="M222 0v335h-70v-335h-133v744h133v-274h70v274h133v-274h63q130 0 130 -150v-174q0 -75 -28.5 -110.5t-108.5 -35.5h-189zM355 115h25q21 0 27.5 10.5t6.5 32.5v149q0 21 -6.5 31.5t-27.5 10.5h-25v-234z" />
    <glyph glyph-name="uni040B" unicode="&#x40b;" horiz-adv-x="432" 
d="M329 613h-115v-167q34 11 83 11q61 0 90.5 -32t29.5 -87v-338h-133v289q0 29 -8.5 38.5t-29.5 9.5q-20 0 -32 -5v-332h-133v613h-75v131h323v-131z" />
    <glyph glyph-name="uni040C" unicode="&#x40c;" horiz-adv-x="372" 
d="M154 315v-315h-133v744h133v-286l87 286h131l-105 -338l116 -406h-140zM126 770l43 115h106l-45 -115h-104z" />
    <glyph glyph-name="uni040E" unicode="&#x40e;" horiz-adv-x="329" 
d="M337 744l-123 -663q-16 -81 -74 -81h-111v119h43q12 0 15.5 5.5t6.5 21.5l2 21q2 17 -1 30l-103 547h133l44 -309l43 309h125zM174 767h-4q-47 0 -77 28t-30 75v5h85v-3q0 -26 23 -26h2q23 0 23 26v3h84v-5q0 -47 -31 -75t-75 -28z" />
    <glyph glyph-name="uni040F" unicode="&#x40f;" horiz-adv-x="364" 
d="M244 -105h-123v105h-102v744h133v-613h60v613h133v-744h-101v-105z" />
    <glyph glyph-name="uni0410" unicode="&#x410;" horiz-adv-x="345" 
d="M222 0l-14 125h-80l-12 -125h-118l94 744h158l101 -744h-129zM167 508l-26 -255h54z" />
    <glyph glyph-name="uni0411" unicode="&#x411;" horiz-adv-x="357" 
d="M19 0v744h295v-131h-162v-147h63q130 0 130 -150v-170q0 -75 -28.5 -110.5t-108.5 -35.5h-189zM152 115h25q21 0 27.5 10.5t6.5 32.5v145q0 21 -6.5 31.5t-27.5 10.5h-25v-230z" />
    <glyph glyph-name="uni0412" unicode="&#x412;" horiz-adv-x="372" 
d="M21 0v744h201q68 0 98.5 -30t30.5 -103v-99q0 -42 -19.5 -69.5t-43.5 -34.5q74 -21 74 -117v-124q0 -87 -30 -127t-92 -40h-219zM186 333h-32v-215h37q19 0 26.5 9.5t7.5 39.5v121q0 24 -8.5 34.5t-30.5 10.5zM186 630h-32v-177h30q18 0 27 9.5t9 34.5v93q0 40 -34 40z
" />
    <glyph glyph-name="uni0413" unicode="&#x413;" horiz-adv-x="302" 
d="M19 0v744h275v-131h-142v-613h-133z" />
    <glyph glyph-name="uni0414" unicode="&#x414;" horiz-adv-x="395" 
d="M267 -105v105h-139v-105h-123v239h25q4 19 4 21q5 23 6 72q5 152 5 517h310v-610h35v-239h-123zM162 236q-7 -73 -7 -75l-4 -27h74v479h-58q0 -269 -5 -377z" />
    <glyph glyph-name="uni0415" unicode="&#x415;" horiz-adv-x="311" 
d="M21 744h278v-131h-145v-162h114v-134h-114v-183h152v-134h-285v744z" />
    <glyph glyph-name="uni0416" unicode="&#x416;" horiz-adv-x="561" 
d="M214 0v317l-83 -317h-140l113 406l-102 338h131l81 -287v287h133v-287l81 287h131l-102 -338l113 -406h-140l-83 317v-317h-133z" />
    <glyph glyph-name="uni0417" unicode="&#x417;" horiz-adv-x="350" 
d="M147 589v-74h-132v96q0 59 34 100.5t108 41.5h28q146 0 146 -143v-83q0 -87 -48 -113q55 -18 55 -85v-186q0 -73 -38.5 -113.5t-109.5 -40.5h-28q-78 0 -113 38t-35 96v150h133v-118q0 -35 28 -35q27 0 27 35v145q0 17 -4.5 23.5t-20.5 6.5h-69v133h62q17 0 22.5 7
t5.5 26v93q0 20 -5.5 27t-20.5 7q-13 0 -19 -7t-6 -27z" />
    <glyph glyph-name="uni0418" unicode="&#x418;" horiz-adv-x="384" 
d="M235 0v395l-86 -395h-130v744h130v-398l86 398h130v-744h-130z" />
    <glyph glyph-name="uni0419" unicode="&#x419;" horiz-adv-x="384" 
d="M235 0v395l-86 -395h-130v744h130v-398l86 398h130v-744h-130zM195 767h-4q-47 0 -77 28t-30 75v5h85v-3q0 -26 23 -26h2q23 0 23 26v3h84v-5q0 -47 -31 -75t-75 -28z" />
    <glyph glyph-name="uni041A" unicode="&#x41a;" horiz-adv-x="378" 
d="M247 0l-89 315v-315h-133v744h133v-286l87 286h131l-105 -338l116 -406h-140z" />
    <glyph glyph-name="uni041B" unicode="&#x41b;" horiz-adv-x="384" 
d="M232 0v613h-51q0 -371 -9 -482q-4 -69 -33.5 -100t-100.5 -31h-33v135h8q20 0 27 11.5t8 38.5q7 224 7 559h310v-744h-133z" />
    <glyph glyph-name="uni041C" unicode="&#x41c;" horiz-adv-x="457" 
d="M21 0v744h164l51 -376l51 376h153v-744h-120v440l-66 -440h-50l-67 440v-440h-116z" />
    <glyph glyph-name="uni041D" unicode="&#x41d;" horiz-adv-x="374" 
d="M154 314v-314h-133v744h133v-284h70v284h133v-744h-133v314h-70z" />
    <glyph glyph-name="uni041E" unicode="&#x41e;" horiz-adv-x="381" 
d="M367 564v-394q0 -83 -42 -132t-116 -49h-30q-79 0 -120 46.5t-41 134.5v393q0 190 160 190h30q159 0 159 -189zM228 166v408q0 49 -35 49q-36 0 -36 -49v-408q0 -44 37 -44q34 0 34 44z" />
    <glyph glyph-name="uni041F" unicode="&#x41f;" horiz-adv-x="364" 
d="M19 0v744h326v-744h-133v613h-60v-613h-133z" />
    <glyph glyph-name="uni0420" unicode="&#x420;" horiz-adv-x="357" 
d="M217 298h-63v-298h-133v744h189q80 0 108.5 -36t28.5 -111v-149q0 -150 -130 -150zM154 629v-210h25q21 0 27.5 10.5t6.5 31.5v124q0 23 -6.5 33.5t-27.5 10.5h-25z" />
    <glyph glyph-name="uni0421" unicode="&#x421;" horiz-adv-x="368" 
d="M224 164v164h132v-168q0 -75 -36.5 -123.5t-117.5 -48.5h-27q-88 0 -122.5 48t-34.5 128v420q0 75 37.5 122t119.5 47h27q46 0 77.5 -13t47.5 -37.5t22.5 -51.5t6.5 -62v-125h-132v120q0 43 -34 43q-33 0 -33 -43v-420q0 -45 34 -45q33 0 33 45z" />
    <glyph glyph-name="uni0422" unicode="&#x422;" horiz-adv-x="335" 
d="M8 744h323v-131h-95v-613h-133v613h-95v131z" />
    <glyph glyph-name="uni0423" unicode="&#x423;" horiz-adv-x="329" 
d="M337 744l-123 -663q-16 -81 -74 -81h-111v119h43q12 0 15.5 5.5t6.5 21.5l2 21q2 17 -1 30l-103 547h133l44 -309l43 309h125z" />
    <glyph glyph-name="uni0424" unicode="&#x424;" horiz-adv-x="555" 
d="M211 754h133v-61h7q188 0 188 -196v-229q0 -199 -188 -199h-7v-79h-133v79h-7q-188 0 -188 196v229q0 97 44.5 148t143.5 51h7v61zM211 560h-1q-30 0 -42.5 -12t-12.5 -44v-243q0 -31 12 -45t43 -14h1v358zM344 560v-358h1q30 0 42.5 12t12.5 44v243q0 31 -12 45t-43 14
h-1z" />
    <glyph glyph-name="uni0425" unicode="&#x425;" horiz-adv-x="358" 
d="M91 398l-81 346h134l41 -223l40 223h126l-79 -346l93 -398h-134l-51 258l-53 -258h-130z" />
    <glyph glyph-name="uni0426" unicode="&#x426;" horiz-adv-x="385" 
d="M257 -105v105h-238v744h133v-613h60v613h133v-610h35v-239h-123z" />
    <glyph glyph-name="uni0427" unicode="&#x427;" horiz-adv-x="370" 
d="M218 0v298q-33 -11 -80 -11h-3q-61 0 -90.5 32t-29.5 87v338h133v-289q0 -29 8.5 -38.5t29.5 -9.5h2q18 0 30 5v332h133v-744h-133z" />
    <glyph glyph-name="uni0428" unicode="&#x428;" horiz-adv-x="547" 
d="M19 0v744h133v-610h55v610h133v-610h55v610h133v-744h-509z" />
    <glyph glyph-name="uni0429" unicode="&#x429;" horiz-adv-x="568" 
d="M19 0v744h133v-610h55v610h133v-610h55v610h133v-610h35v-239h-123v105h-421z" />
    <glyph glyph-name="uni042A" unicode="&#x42a;" horiz-adv-x="424" 
d="M6 613v131h213v-268h63q130 0 130 -150v-180q0 -75 -28.5 -110.5t-108.5 -35.5h-189v613h-80zM219 115h25q21 0 27.5 10.5t6.5 32.5v155q0 21 -6.5 31.5t-27.5 10.5h-25v-240z" />
    <glyph glyph-name="uni042B" unicode="&#x42b;" horiz-adv-x="526" 
d="M152 476h63q130 0 130 -150v-180q0 -75 -28.5 -110.5t-108.5 -35.5h-189v744h133v-268zM152 115h25q21 0 27.5 10.5t6.5 32.5v155q0 21 -6.5 31.5t-27.5 10.5h-25v-240zM509 744v-744h-133v744h133z" />
    <glyph glyph-name="uni042C" unicode="&#x42c;" horiz-adv-x="357" 
d="M152 476h63q130 0 130 -150v-180q0 -75 -28.5 -110.5t-108.5 -35.5h-189v744h133v-268zM152 115h25q21 0 27.5 10.5t6.5 32.5v155q0 21 -6.5 31.5t-27.5 10.5h-25v-240z" />
    <glyph glyph-name="uni042D" unicode="&#x42d;" horiz-adv-x="368" 
d="M352 584v-420q0 -80 -34.5 -128t-122.5 -48h-27q-81 0 -117.5 48.5t-36.5 123.5v131h132v-127q0 -45 33 -45q34 0 34 45v153h-99v140h99v127q0 43 -33 43q-34 0 -34 -43v-100h-132v105q0 35 6.5 62t22.5 51.5t47.5 37.5t77.5 13h27q82 0 119.5 -47t37.5 -122z" />
    <glyph glyph-name="uni042E" unicode="&#x42e;" horiz-adv-x="561" 
d="M545 564v-394q0 -83 -42 -132t-116 -49h-30q-79 0 -120 46.5t-41 134.5v144h-44v-314h-133v744h133v-284h44v103q0 190 160 190h30q159 0 159 -189zM406 166v408q0 49 -35 49q-36 0 -36 -49v-408q0 -44 37 -44q34 0 34 44z" />
    <glyph glyph-name="uni042F" unicode="&#x42f;" horiz-adv-x="370" 
d="M218 278h-11l-72 -278h-140l83 313q-53 26 -53 115v170q0 74 29 110t109 36h188v-744h-133v278zM218 399v230h-25q-21 0 -27.5 -10.5t-6.5 -32.5v-145q0 -21 6.5 -31.5t27.5 -10.5h25z" />
    <glyph glyph-name="uni0430" unicode="&#x430;" horiz-adv-x="335" 
d="M182 134v131q-24 -13 -33 -25q-12 -15 -12 -41v-65q0 -32 21 -32q24 0 24 32zM14 88v117q0 76 56 110q13 9 55 28.5t49 24.5q8 5 8 20v29q0 17 -5 23t-17 6h-4q-22 0 -22 -29v-53h-114v74q0 44 28 75t98 31h23q76 0 106 -30.5t30 -87.5v-297q0 -9 3.5 -12t15.5 -3h14
v-114h-119q-37 0 -37 61q-32 -66 -91 -66h-4q-35 0 -54 27.5t-19 65.5z" />
    <glyph glyph-name="uni0431" unicode="&#x431;" horiz-adv-x="338" 
d="M324 411v-271q0 -63 -36.5 -106t-106.5 -43h-20q-76 0 -112 41t-36 108v406q0 94 35 136.5t133 42.5h9q13 0 17.5 3.5t4.5 15.5h113q0 -72 -20.5 -100t-82.5 -28h-17q-39 0 -51.5 -13.5t-12.5 -56.5v-42q39 42 91 42h5q47 0 67 -33t20 -102zM168 105q27 0 27 32v259
q0 41 -27 41q-26 0 -26 -41v-259q0 -32 26 -32z" />
    <glyph glyph-name="uni0432" unicode="&#x432;" horiz-adv-x="332" 
d="M194 0h-178v538h168q76 0 101.5 -20t25.5 -81v-59q0 -41 -13 -60t-38 -28q28 -9 42 -27.5t14 -65.5v-80q0 -66 -24.5 -91.5t-97.5 -25.5zM144 334h14q26 0 26 36v36q0 30 -26 30h-14v-102zM144 102h14q31 0 31 37v59q0 35 -31 35h-14v-131z" />
    <glyph glyph-name="uni0433" unicode="&#x433;" horiz-adv-x="242" 
d="M16 0v538h221v-119h-93v-419h-128z" />
    <glyph glyph-name="uni0434" unicode="&#x434;" horiz-adv-x="368" 
d="M117 -100h-117v219h16q11 9 16 47q5 51 5 372h291v-419h35v-219h-117v100h-129v-100zM147 162q-3 -25 -9 -43h62v300h-44q0 -180 -9 -257z" />
    <glyph glyph-name="uni0435" unicode="&#x435;" horiz-adv-x="319" 
d="M150 548h24q135 0 135 -137v-159h-171v-117q0 -33 25 -33q23 0 23 33v80h123v-98q0 -61 -38 -94t-97 -33h-24q-62 0 -98.5 33t-36.5 94v296q0 59 33.5 97t101.5 38zM138 413v-65h52v65q0 36 -26 36q-16 0 -21 -8.5t-5 -27.5z" />
    <glyph glyph-name="uni0436" unicode="&#x436;" horiz-adv-x="514" 
d="M195 0v222l-74 -222h-127l96 282l-89 256h122l72 -215v215h124v-215l72 215h122l-89 -256l96 -282h-127l-74 222v-222h-124z" />
    <glyph glyph-name="uni0437" unicode="&#x437;" horiz-adv-x="321" 
d="M305 195v-69q0 -137 -141 -137h-21q-67 0 -99.5 37.5t-32.5 98.5v89h119v-81q0 -31 24 -31q25 0 25 27v72q0 29 -36 29h-52v112h52q20 0 28 7t8 30v27q0 37 -25 37t-25 -38v-49h-118v62q0 57 32 93.5t100 36.5h25q75 0 103.5 -33t28.5 -103v-36q0 -41 -13 -60t-38 -28
q28 -9 42 -27.5t14 -65.5z" />
    <glyph glyph-name="uni0438" unicode="&#x438;" horiz-adv-x="348" 
d="M332 0h-125v282l-66 -282h-125v538h125v-283l66 283h125v-538z" />
    <glyph glyph-name="uni0439" unicode="&#x439;" horiz-adv-x="348" 
d="M332 0h-125v282l-66 -282h-125v538h125v-283l66 283h125v-538zM178 563h-3q-49 0 -78.5 28t-29.5 81v8h85v-6q0 -33 24 -33h1q24 0 24 33v6h83v-8q0 -52 -30.5 -80.5t-75.5 -28.5z" />
    <glyph glyph-name="uni043A" unicode="&#x43a;" horiz-adv-x="342" 
d="M221 0l-77 216v-216h-128v538h128v-210l75 210h122l-94 -255l101 -283h-127z" />
    <glyph glyph-name="uni043B" unicode="&#x43b;" horiz-adv-x="350" 
d="M42 166q5 51 5 372h287v-538h-128v419h-40q0 -230 -9 -311q-7 -61 -34 -84.5t-83 -23.5h-35v121h6q16 0 22 9.5t9 35.5z" />
    <glyph glyph-name="uni043C" unicode="&#x43c;" horiz-adv-x="428" 
d="M185 0l-56 318v-318h-113v538h155l50 -281l50 281h141v-538h-113v320l-56 -320h-58z" />
    <glyph glyph-name="uni043D" unicode="&#x43d;" horiz-adv-x="338" 
d="M144 0h-128v538h128v-206h50v206h128v-538h-128v213h-50v-213z" />
    <glyph glyph-name="uni043E" unicode="&#x43e;" horiz-adv-x="337" 
d="M15 142v255q0 72 37 111.5t103 39.5h30q67 0 104 -39t37 -110v-255q0 -67 -38 -110.5t-103 -43.5h-30q-71 0 -105.5 41.5t-34.5 110.5zM144 400v-256q0 -38 26 -38q27 0 27 38v256q0 37 -27 37q-26 0 -26 -37z" />
    <glyph glyph-name="uni043F" unicode="&#x43f;" horiz-adv-x="333" 
d="M144 0h-128v538h301v-538h-128v419h-45v-419z" />
    <glyph glyph-name="uni0440" unicode="&#x440;" horiz-adv-x="340" 
d="M18 538h128v-59q40 65 94 65h2q85 0 85 -115v-321q0 -53 -26.5 -86t-63.5 -33h-2q-51 0 -89 58v-235h-128v726zM146 402v-272q0 -36 25 -36t25 35v273q0 34 -25 34t-25 -34z" />
    <glyph glyph-name="uni0441" unicode="&#x441;" horiz-adv-x="318" 
d="M190 241h119v-116q0 -60 -33 -98t-99 -38h-21q-72 0 -106.5 38t-34.5 102v271q0 148 139 148h25q130 0 130 -130v-89h-118v76q0 38 -24 38q-23 0 -23 -37v-271q0 -33 22 -33q24 0 24 31v108z" />
    <glyph glyph-name="uni0442" unicode="&#x442;" horiz-adv-x="268" 
d="M70 0v419h-65v119h258v-119h-65v-419h-128z" />
    <glyph glyph-name="uni0443" unicode="&#x443;" horiz-adv-x="312" 
d="M91 9l-93 529h126l36 -297l35 297h123l-113 -645q-16 -81 -74 -81h-116v119h53q12 0 15.5 5.5t6.5 21.5l2 21q2 17 -1 30z" />
    <glyph glyph-name="uni0444" unicode="&#x444;" horiz-adv-x="502" 
d="M348 -10h-33v-178h-128v178h-34q-71 0 -105.5 41.5t-34.5 110.5v255q0 72 37 111.5t103 39.5h34v196h128v-196h33q67 0 104 -39t37 -110v-255q0 -67 -38 -110.5t-103 -43.5zM168 106h19v331h-19q-26 0 -26 -37v-256q0 -38 26 -38zM333 437h-18v-331h18q27 0 27 38v256
q0 37 -27 37z" />
    <glyph glyph-name="uni0445" unicode="&#x445;" horiz-adv-x="311" 
d="M75 289l-72 249h122l35 -154l31 154h117l-68 -245l77 -293h-122l-38 170l-40 -170h-119z" />
    <glyph glyph-name="uni0446" unicode="&#x446;" horiz-adv-x="357" 
d="M352 119v-219h-117v100h-219v538h128v-419h45v419h128v-419h35z" />
    <glyph glyph-name="uni0447" unicode="&#x447;" horiz-adv-x="325" 
d="M138 538v-202q0 -17 5.5 -23.5t19.5 -6.5q9 0 18 4v228h128v-538h-128v207q-25 -12 -63 -12q-55 0 -81.5 28.5t-26.5 90.5v224h128z" />
    <glyph glyph-name="uni0448" unicode="&#x448;" horiz-adv-x="496" 
d="M16 0v538h128v-419h40v419h128v-419h40v419h128v-538h-464z" />
    <glyph glyph-name="uni0449" unicode="&#x449;" horiz-adv-x="520" 
d="M16 0v538h128v-419h40v419h128v-419h40v419h128v-419h35v-219h-117v100h-382z" />
    <glyph glyph-name="uni044A" unicode="&#x44a;" horiz-adv-x="388" 
d="M5 419v119h198v-170h41q73 0 102.5 -28.5t29.5 -94.5v-108q0 -71 -30 -104t-102 -33h-169v419h-70zM203 103h14q31 0 31 32v100q0 17 -7 23.5t-24 6.5h-14v-162z" />
    <glyph glyph-name="uni044B" unicode="&#x44b;" horiz-adv-x="481" 
d="M16 0v538h128v-170h41q73 0 102.5 -28.5t29.5 -94.5v-108q0 -71 -30 -104t-102 -33h-169zM144 103h14q31 0 31 32v100q0 17 -7 23.5t-24 6.5h-14v-162zM467 538v-538h-128v538h128z" />
    <glyph glyph-name="uni044C" unicode="&#x44c;" horiz-adv-x="329" 
d="M16 0v538h128v-170h41q73 0 102.5 -28.5t29.5 -94.5v-108q0 -71 -30 -104t-102 -33h-169zM144 103h14q31 0 31 32v100q0 17 -7 23.5t-24 6.5h-14v-162z" />
    <glyph glyph-name="uni044D" unicode="&#x44d;" horiz-adv-x="318" 
d="M305 400v-271q0 -64 -34.5 -102t-106.5 -38h-21q-66 0 -99 38t-33 98v89h119v-81q0 -31 24 -31q22 0 22 33v95h-85v112h85v64q0 37 -23 37q-24 0 -24 -38v-49h-118v62q0 130 132 130h25q137 0 137 -148z" />
    <glyph glyph-name="uni044E" unicode="&#x44e;" horiz-adv-x="503" 
d="M490 399v-255q0 -67 -38 -110.5t-103 -43.5h-30q-71 0 -105.5 41.5t-34.5 110.5v71h-35v-213h-128v538h128v-206h35v65q0 72 37 111.5t103 39.5h30q67 0 104 -39t37 -110zM308 400v-256q0 -38 26 -38q27 0 27 38v256q0 37 -27 37q-26 0 -26 -37z" />
    <glyph glyph-name="uni044F" unicode="&#x44f;" horiz-adv-x="333" 
d="M189 180h-9l-53 -180h-127l62 207q-46 25 -46 96v98q0 71 30 104t102 33h169v-538h-128v180zM189 435h-14q-31 0 -31 -32v-90q0 -17 7 -23.5t24 -6.5h14v152z" />
    <glyph glyph-name="uni0451" unicode="&#x451;" horiz-adv-x="323" 
d="M150 548h24q135 0 135 -137v-159h-171v-117q0 -33 25 -33q23 0 23 33v80h123v-98q0 -61 -38 -94t-97 -33h-24q-62 0 -98.5 33t-36.5 94v296q0 59 33.5 97t101.5 38zM138 413v-65h52v65q0 36 -26 36q-16 0 -21 -8.5t-5 -27.5zM151 672v-106h-100v106h100zM275 672v-106
h-100v106h100z" />
    <glyph glyph-name="uni0452" unicode="&#x452;" horiz-adv-x="340" 
d="M324 456v-572q0 -30 -20 -51t-54 -21h-125v119h52q10 0 14 4.5t4 16.5v446q0 30 -25 30q-26 0 -26 -34v-394h-128v583h-32v91h32v70h128v-70h75v-91h-75v-107q42 64 96 64h5q36 0 57.5 -23.5t21.5 -60.5z" />
    <glyph glyph-name="uni0453" unicode="&#x453;" horiz-adv-x="242" 
d="M16 0v538h221v-119h-93v-419h-128zM67 564l42 136h105l-44 -136h-103z" />
    <glyph glyph-name="uni0454" unicode="&#x454;" horiz-adv-x="318" 
d="M307 214v-89q0 -60 -33 -98t-99 -38h-21q-72 0 -106.5 38t-34.5 102v271q0 148 139 148h25q130 0 130 -130v-62h-118v49q0 38 -24 38q-23 0 -23 -37v-64h85v-112h-85v-95q0 -33 22 -33q24 0 24 31v81h119z" />
    <glyph glyph-name="uni0455" unicode="&#x455;" horiz-adv-x="299" 
d="M289 446v-73h-114v56q0 28 -21 28t-21 -28v-11q0 -18 4.5 -28t18.5 -24l71 -70q40 -40 54.5 -72.5t14.5 -76.5v-18q0 -60 -33.5 -99t-99.5 -39h-26q-66 0 -98 32.5t-32 84.5v88h118v-72q0 -30 23 -30h1q21 0 21 31v12q0 40 -28 67l-68 65q-35 34 -47.5 66t-12.5 76v17
q0 56 32 88t94 32h27q122 0 122 -102z" />
    <glyph glyph-name="uni0456" unicode="&#x456;" horiz-adv-x="160" 
d="M146 538v-538h-128v538h128zM146 690v-126h-128v126h128z" />
    <glyph glyph-name="uni0457" unicode="&#x457;" horiz-adv-x="160" 
d="M75 690v-126h-80v126h80zM165 690v-126h-80v126h80zM146 538v-538h-128v538h128z" />
    <glyph glyph-name="uni0458" unicode="&#x458;" horiz-adv-x="161" 
d="M147 690v-126h-128v126h128zM-51 -69h52q10 0 14 4.5t4 16.5v586h128v-654q0 -30 -20 -51t-54 -21h-124v119z" />
    <glyph glyph-name="uni0459" unicode="&#x459;" horiz-adv-x="519" 
d="M47 538h287v-170h41q73 0 102.5 -28.5t29.5 -94.5v-108q0 -71 -30 -104t-102 -33h-169v419h-40q0 -230 -9 -311q-7 -61 -34 -84.5t-83 -23.5h-35v121h6q16 0 22 9.5t9 35.5q5 51 5 372zM334 265v-162h14q31 0 31 32v100q0 17 -7 23.5t-24 6.5h-14z" />
    <glyph glyph-name="uni045A" unicode="&#x45a;" horiz-adv-x="507" 
d="M144 0h-128v538h128v-190h50v190h128v-190h41q73 0 102.5 -28.5t29.5 -94.5v-88q0 -71 -30 -104t-102 -33h-169v229h-50v-229zM322 245v-142h14q31 0 31 32v80q0 17 -7 23.5t-24 6.5h-14z" />
    <glyph glyph-name="uni045B" unicode="&#x45b;" horiz-adv-x="344" 
d="M-14 583v91h32v70h128v-70h75v-91h-75v-107q42 64 96 64h5q36 0 57.5 -23.5t21.5 -60.5v-456h-129v398q0 30 -25 30q-26 0 -26 -34v-394h-128v583h-32z" />
    <glyph glyph-name="uni045C" unicode="&#x45c;" horiz-adv-x="342" 
d="M132 564l42 136h105l-44 -136h-103zM221 0l-77 216v-216h-128v538h128v-210l75 210h122l-94 -255l101 -283h-127z" />
    <glyph glyph-name="uni045E" unicode="&#x45e;" horiz-adv-x="312" 
d="M91 9l-93 529h126l36 -297l35 297h123l-113 -645q-16 -81 -74 -81h-116v119h53q12 0 15.5 5.5t6.5 21.5l2 21q2 17 -1 30zM164 563h-3q-49 0 -78.5 28t-29.5 81v8h85v-6q0 -33 24 -33h1q24 0 24 33v6h83v-8q0 -52 -30.5 -80.5t-75.5 -28.5z" />
    <glyph glyph-name="uni045F" unicode="&#x45f;" horiz-adv-x="333" 
d="M317 0h-92v-100h-117v100h-92v538h128v-419h45v419h128v-538z" />
    <glyph glyph-name="uni0490" unicode="&#x490;" horiz-adv-x="304" 
d="M21 0v744h152v105h123v-236h-142v-613h-133z" />
    <glyph glyph-name="uni0491" unicode="&#x491;" horiz-adv-x="242" 
d="M16 0v538h114v100h107v-219h-93v-419h-128z" />
    <glyph glyph-name="uni0492" unicode="&#x492;" horiz-adv-x="306" 
d="M23 443v301h275v-131h-142v-170h60v-118h-60v-325h-133v325h-25v118h25z" />
    <glyph glyph-name="uni0493" unicode="&#x493;" horiz-adv-x="252" 
d="M26 313v225h221v-119h-93v-106h48v-104h-48v-209h-128v209h-26v104h26z" />
    <glyph glyph-name="uni0496" unicode="&#x496;" horiz-adv-x="580" 
d="M575 -105h-123v105h-22l-83 317v-317h-133v317l-83 -317h-140l113 406l-102 338h131l81 -287v287h133v-287l81 287h131l-102 -338l75 -272h43v-239z" />
    <glyph glyph-name="uni0497" unicode="&#x497;" horiz-adv-x="524" 
d="M524 -100h-107v100h-24l-74 222v-222h-124v222l-74 -222h-127l96 282l-89 256h122l72 -215v215h124v-215l72 215h122l-89 -256l55 -163h45v-219z" />
    <glyph glyph-name="uni049A" unicode="&#x49a;" horiz-adv-x="388" 
d="M383 -105h-123v105h-19l-89 315v-315h-133v744h133v-286l87 286h131l-105 -338l77 -272h41v-239z" />
    <glyph glyph-name="uni049B" unicode="&#x49b;" horiz-adv-x="353" 
d="M353 -100h-107v100h-25l-77 216v-216h-128v538h128v-210l75 210h122l-94 -255l58 -164h48v-219z" />
    <glyph glyph-name="uni04A2" unicode="&#x4a2;" horiz-adv-x="395" 
d="M390 -105h-123v105h-45v314h-70v-314h-133v744h133v-284h70v284h133v-610h35v-239z" />
    <glyph glyph-name="uni04A3" unicode="&#x4a3;" horiz-adv-x="362" 
d="M357 -100h-107v100h-56v213h-50v-213h-128v538h128v-206h50v206h128v-419h35v-219z" />
    <glyph glyph-name="uni04AE" unicode="&#x4ae;" horiz-adv-x="327" 
d="M337 744l-100 -451v-293h-133v288l-110 456h133l45 -264l45 264h120z" />
    <glyph glyph-name="uni04AF" unicode="&#x4af;" horiz-adv-x="309" 
d="M215 0v-188h-128v188l-91 538h124l36 -343l35 343h122z" />
    <glyph glyph-name="uni04B0" unicode="&#x4b0;" horiz-adv-x="327" 
d="M104 196h-72v114h66l-104 434h133l45 -264l45 264h120l-96 -434h64v-114h-68v-196h-133v196z" />
    <glyph glyph-name="uni04B1" unicode="&#x4b1;" horiz-adv-x="309" 
d="M215 -91v-97h-128v97h-60v91h60l-91 538h124l36 -343l35 343h122l-98 -538h60v-91h-60z" />
    <glyph glyph-name="uni04B2" unicode="&#x4b2;" horiz-adv-x="375" 
d="M370 -105h-123v105h-16l-51 258l-53 -258h-130l94 398l-81 346h134l41 -223l40 223h126l-79 -346l61 -264h37v-239z" />
    <glyph glyph-name="uni04B3" unicode="&#x4b3;" horiz-adv-x="320" 
d="M320 -100h-107v100h-18l-38 170l-40 -170h-119l77 289l-72 249h122l35 -154l31 154h117l-68 -245l45 -174h35v-219z" />
    <glyph glyph-name="uni04BA" unicode="&#x4ba;" horiz-adv-x="370" 
d="M152 744v-298q33 11 80 11h3q61 0 90.5 -32t29.5 -87v-338h-133v289q0 29 -8.5 38.5t-29.5 9.5h-2q-18 0 -30 -5v-332h-133v744h133z" />
    <glyph glyph-name="uni04BB" unicode="&#x4bb;" horiz-adv-x="340" 
d="M18 0v744h128v-268q42 64 96 64h5q36 0 57.5 -23.5t21.5 -60.5v-456h-129v398q0 30 -25 30q-26 0 -26 -34v-394h-128z" />
    <glyph glyph-name="uni04C0" unicode="&#x4c0;" horiz-adv-x="171" 
d="M154 744v-744h-133v744h133z" />
    <glyph glyph-name="uni04CF" unicode="&#x4cf;" horiz-adv-x="160" 
d="M146 744v-744h-128v744h128z" />
    <glyph glyph-name="uni04D8" unicode="&#x4d8;" horiz-adv-x="370" 
d="M16 160v277h199v147q0 43 -33 43q-34 0 -34 -43v-100h-132v105q0 35 6.5 62t22.5 51.5t47.5 37.5t77.5 13h27q82 0 119.5 -47t37.5 -122v-420q0 -80 -34.5 -128t-122.5 -48h-27q-81 0 -117.5 48.5t-36.5 123.5zM148 307v-143q0 -45 33 -45q34 0 34 45v143h-67z" />
    <glyph glyph-name="uni04D9" unicode="&#x4d9;" horiz-adv-x="319" 
d="M306 419v-296q0 -59 -33.5 -97t-101.5 -38h-24q-135 0 -135 137v169h171v107q0 33 -25 33q-23 0 -23 -33v-70h-123v88q0 61 38 94t97 33h24q62 0 98.5 -33t36.5 -94zM157 87q16 0 21 8.5t5 27.5v75h-52v-75q0 -36 26 -36z" />
    <glyph glyph-name="uni04E8" unicode="&#x4e8;" horiz-adv-x="385" 
d="M369 564v-394q0 -83 -42 -132t-116 -49h-34q-79 0 -120 46.5t-41 134.5v393q0 190 160 190h34q159 0 159 -189zM154 580v-135h77v135q0 51 -38 51q-39 0 -39 -51zM154 320v-160q0 -46 40 -46q37 0 37 46v160h-77z" />
    <glyph glyph-name="uni04E9" unicode="&#x4e9;" horiz-adv-x="343" 
d="M189 -10h-36q-71 0 -105.5 41.5t-34.5 110.5v255q0 72 37 111.5t103 39.5h36q67 0 104 -39t37 -110v-255q0 -67 -38 -110.5t-103 -43.5zM141 404v-80h61v80q0 38 -31 38q-30 0 -30 -38zM141 221v-81q0 -39 30 -39q31 0 31 39v81h-61z" />
    <glyph glyph-name="Wgrave" unicode="&#x1e80;" horiz-adv-x="572" 
d="M227 744h127l47 -472l44 472h128l-95 -744h-151l-39 409l-39 -409h-157l-93 744h138l42 -477zM298 885l43 -115h-104l-44 115h105z" />
    <glyph glyph-name="wgrave" unicode="&#x1e81;" horiz-adv-x="498" 
d="M216 0h-137l-81 538h126l35 -333l37 333h113l36 -337l35 337h120l-82 -538h-133l-35 292zM260 700l41 -136h-102l-45 136h106z" />
    <glyph glyph-name="Wacute" unicode="&#x1e82;" horiz-adv-x="572" 
d="M227 744h127l47 -472l44 472h128l-95 -744h-151l-39 409l-39 -409h-157l-93 744h138l42 -477zM238 770l43 115h106l-45 -115h-104z" />
    <glyph glyph-name="wacute" unicode="&#x1e83;" horiz-adv-x="498" 
d="M202 564l42 136h105l-44 -136h-103zM216 0h-137l-81 538h126l35 -333l37 333h113l36 -337l35 337h120l-82 -538h-133l-35 292z" />
    <glyph glyph-name="Wdieresis" unicode="&#x1e84;" horiz-adv-x="572" 
d="M227 744h127l47 -472l44 472h128l-95 -744h-151l-39 409l-39 -409h-157l-93 744h138l42 -477zM400 876v-106h-100v106h100zM275 876v-106h-100v106h100z" />
    <glyph glyph-name="wdieresis" unicode="&#x1e85;" horiz-adv-x="498" 
d="M216 0h-137l-81 538h126l35 -333l37 333h113l36 -337l35 337h120l-82 -538h-133l-35 292zM238 670v-106h-100v106h100zM362 670v-106h-100v106h100z" />
    <glyph glyph-name="Ygrave" unicode="&#x1ef2;" horiz-adv-x="331" 
d="M337 744l-100 -451v-293h-133v288l-110 456h133l45 -264l45 264h120zM181 885l43 -115h-104l-44 115h105z" />
    <glyph glyph-name="ygrave" unicode="&#x1ef3;" horiz-adv-x="315" 
d="M91 9l-93 529h126l36 -297l35 297h123l-113 -645q-16 -81 -74 -81h-116v119h53q12 0 15.5 5.5t6.5 21.5l2 21q2 17 -1 30zM173 700l41 -136h-102l-45 136h106z" />
    <glyph glyph-name="uni2009" unicode="&#x2009;" horiz-adv-x="12" 
 />
    <glyph glyph-name="endash" unicode="&#x2013;" horiz-adv-x="338" 
d="M15 345h308v-90h-308v90z" />
    <glyph glyph-name="emdash" unicode="&#x2014;" horiz-adv-x="510" 
d="M15 345h480v-90h-480v90z" />
    <glyph glyph-name="quoteleft" unicode="&#x2018;" horiz-adv-x="139" 
d="M38 744h63q-18 -55 -19 -92h43v-128h-111v103q0 61 24 117z" />
    <glyph glyph-name="quoteright" unicode="&#x2019;" horiz-adv-x="139" 
d="M101 524h-63q18 55 19 92h-43v128h111v-103q0 -61 -24 -117z" />
    <glyph glyph-name="quotesinglbase" unicode="&#x201a;" horiz-adv-x="139" 
d="M101 -92h-63q18 55 19 92h-43v128h111v-103q0 -61 -24 -117z" />
    <glyph glyph-name="quotedblleft" unicode="&#x201c;" horiz-adv-x="267" 
d="M38 744h63q-18 -55 -19 -92h43v-128h-111v103q0 61 24 117zM166 744h63q-18 -55 -19 -92h43v-128h-111v103q0 61 24 117z" />
    <glyph glyph-name="quotedblright" unicode="&#x201d;" horiz-adv-x="267" 
d="M101 524h-63q18 55 19 92h-43v128h111v-103q0 -61 -24 -117zM229 524h-63q18 55 19 92h-43v128h111v-103q0 -61 -24 -117z" />
    <glyph glyph-name="quotedblbase" unicode="&#x201e;" horiz-adv-x="267" 
d="M101 -92h-63q18 55 19 92h-43v128h111v-103q0 -61 -24 -117zM229 -92h-63q18 55 19 92h-43v128h111v-103q0 -61 -24 -117z" />
    <glyph glyph-name="dagger" unicode="&#x2020;" horiz-adv-x="271" 
d="M71 0v475h-64v126h64v143h129v-143h64v-126h-64v-475h-129z" />
    <glyph glyph-name="daggerdbl" unicode="&#x2021;" horiz-adv-x="271" 
d="M71 144h-64v125h64v206h-64v125h64v144h129v-144h64v-125h-64v-206h64v-125h-64v-144h-129v144z" />
    <glyph glyph-name="bullet" unicode="&#x2022;" horiz-adv-x="236" 
d="M118 221q-47 0 -76 30.5t-29 77.5t29 78t76 31q45 0 75 -31.5t30 -77.5t-30 -77t-75 -31z" />
    <glyph glyph-name="ellipsis" unicode="&#x2026;" horiz-adv-x="428" 
d="M294 144h119v-144h-119v144zM154 0v144h119v-144h-119zM134 0h-119v144h119v-144z" />
    <glyph glyph-name="perthousand" unicode="&#x2030;" horiz-adv-x="729" 
d="M618 -5h-19q-46 0 -73 27t-27 80v128q0 53 27 80.5t73 27.5h19q48 0 73.5 -28.5t25.5 -79.5v-128q0 -51 -25.5 -79t-73.5 -28zM384 -5h-20q-46 0 -72.5 27t-26.5 80v128q0 53 26.5 80.5t72.5 27.5h20q46 0 72 -28.5t26 -79.5v-128q0 -51 -26 -79t-72 -28zM12 515v128
q0 53 26.5 80t72.5 27h20q46 0 72 -28t26 -79v-128q0 -51 -26 -79.5t-72 -28.5h-20q-46 0 -72.5 27.5t-26.5 80.5zM346 744h83l-279 -744h-83zM608 75q17 0 17 20v143q0 20 -17 20q-16 0 -16 -20v-143q0 -20 16 -20zM137 508v143q0 20 -17 20q-16 0 -16 -20v-143
q0 -20 16 -20q17 0 17 20zM373 75q17 0 17 20v143q0 20 -17 20q-16 0 -16 -20v-143q0 -20 16 -20z" />
    <glyph glyph-name="uni2032" unicode="&#x2032;" horiz-adv-x="119" 
d="M117 744l-22 -191h-93l21 191h94z" />
    <glyph glyph-name="uni2033" unicode="&#x2033;" horiz-adv-x="228" 
d="M115 744l-22 -191h-91l21 191h92zM226 744l-22 -191h-92l23 191h91z" />
    <glyph glyph-name="guilsinglleft" unicode="&#x2039;" horiz-adv-x="163" 
d="M110 286l45 -167h-99l-44 137v60l44 135h100z" />
    <glyph glyph-name="guilsinglright" unicode="&#x203a;" horiz-adv-x="163" 
d="M52 285l-44 166h100l43 -136v-60l-43 -136h-101z" />
    <glyph glyph-name="fraction" unicode="&#x2044;" horiz-adv-x="352" 
d="M269 744h81l-267 -744h-81z" />
    <glyph glyph-name="zero.sup" unicode="&#x2070;" horiz-adv-x="231" 
d="M110 750h12q97 0 97 -98v-163q0 -43 -26 -67.5t-71 -24.5h-14q-45 0 -70 24.5t-25 67.5v163q0 46 24.5 72t72.5 26zM116 675q-15 0 -15 -21v-161q0 -19 14 -19q16 0 16 19v161q0 21 -15 21z" />
    <glyph glyph-name="four.sup" unicode="&#x2074;" horiz-adv-x="212" 
d="M7 462v58q55 134 86 225h83v-211h28v-72h-28v-59h-80v59h-89zM65 534h31v87q-7 -31 -31 -87z" />
    <glyph glyph-name="five.sup" unicode="&#x2075;" horiz-adv-x="215" 
d="M93 545h-78v199h180v-71h-103v-61q28 37 58 37q55 0 55 -65v-93q0 -94 -90 -94h-15q-89 0 -89 82v40h83v-41q0 -15 12 -15t12 15v83q0 18 -12 18q-13 0 -13 -18v-16z" />
    <glyph glyph-name="six.sup" unicode="&#x2076;" horiz-adv-x="226" 
d="M161 623q27 0 40.5 -17.5t13.5 -43.5v-75q0 -41 -25.5 -65.5t-74.5 -24.5q-52 0 -77 25t-25 66v174q0 88 99 88q54 0 75 -22.5t21 -62.5v-26h-84v26q0 16 -13 16q-11 0 -11 -16v-74q23 32 61 32zM113 466q15 0 15 20v54q0 21 -15 21q-13 0 -13 -21v-54q0 -20 13 -20z" />
    <glyph glyph-name="seven.sup" unicode="&#x2077;" horiz-adv-x="198" 
d="M11 744h180v-36q0 -12 -3 -29t-11 -53.5t-14 -64.5q-13 -64 -13 -158h-98q0 75 28 150q40 108 40 129h-35v-59h-74v121z" />
    <glyph glyph-name="eight.sup" unicode="&#x2078;" horiz-adv-x="217" 
d="M204 671v-26q0 -41 -32 -61q35 -15 35 -64v-38q0 -40 -23.5 -62.5t-70.5 -22.5h-9q-93 0 -93 86v37q0 48 33 64q-30 22 -30 61v26q0 79 90 79h9q91 0 91 -79zM122 483v48q0 19 -14 19q-13 0 -13 -19v-48q0 -17 13 -17q14 0 14 17zM121 630v37q0 18 -13 18q-12 0 -12 -18
v-37q0 -17 13 -17q12 0 12 17z" />
    <glyph glyph-name="nine.sup" unicode="&#x2079;" horiz-adv-x="226" 
d="M11 586v74q0 41 24.5 65.5t75.5 24.5q102 0 102 -90v-175q0 -37 -22.5 -62.5t-77.5 -25.5t-75 22t-20 61v28h84v-26q0 -16 13 -16q11 0 11 16v74q-23 -32 -59 -32q-26 0 -41 18.5t-15 43.5zM112 681q-15 0 -15 -20v-55q0 -20 15 -20q14 0 14 20v55q0 20 -14 20z" />
    <glyph glyph-name="zero.sub" unicode="&#x2080;" horiz-adv-x="231" 
d="M110 246h12q97 0 97 -98v-163q0 -43 -26 -67.5t-71 -24.5h-14q-45 0 -70 24.5t-25 67.5v163q0 46 24.5 72t72.5 26zM116 171q-15 0 -15 -21v-161q0 -19 14 -19q16 0 16 19v161q0 21 -15 21z" />
    <glyph glyph-name="one.sub" unicode="&#x2081;" horiz-adv-x="151" 
d="M49 132h-43v66q29 0 40.5 10.5t14.5 29.5h72v-340h-84v234z" />
    <glyph glyph-name="two.sub" unicode="&#x2082;" horiz-adv-x="224" 
d="M213 -102h-206v44q0 28 15 55t65 83q21 24 26 35.5t5 31.5v16q0 17 -14 17q-13 0 -13 -17v-53h-78v57q0 34 19.5 56.5t63.5 22.5h15q94 0 94 -79v-18q0 -34 -14 -58.5t-49 -56.5q-41 -37 -48.5 -46.5t-7.5 -21.5h53v54h74v-122z" />
    <glyph glyph-name="three.sub" unicode="&#x2083;" horiz-adv-x="214" 
d="M89 126h-77v36q0 41 19.5 62.5t65.5 21.5h12q45 0 66.5 -19.5t21.5 -61.5v-23q0 -42 -30 -54q37 -14 37 -54v-55q0 -86 -92 -86h-14q-87 0 -87 79v51h80v-46q0 -17 13 -17q12 0 12 17v49q0 15 -13 15h-39v69h37q14 0 14 16v38q0 18 -13 18t-13 -18v-38z" />
    <glyph glyph-name="four.sub" unicode="&#x2084;" horiz-adv-x="212" 
d="M7 -43v58q55 134 86 225h83v-211h28v-72h-28v-59h-80v59h-89zM65 29h31v87q-7 -31 -31 -87z" />
    <glyph glyph-name="five.sub" unicode="&#x2085;" horiz-adv-x="215" 
d="M93 41h-78v199h180v-71h-103v-61q28 37 58 37q55 0 55 -65v-93q0 -94 -90 -94h-15q-89 0 -89 82v40h83v-41q0 -15 12 -15t12 15v83q0 18 -12 18q-13 0 -13 -18v-16z" />
    <glyph glyph-name="six.sub" unicode="&#x2086;" horiz-adv-x="226" 
d="M161 119q27 0 40.5 -17.5t13.5 -43.5v-75q0 -41 -25.5 -65.5t-74.5 -24.5q-52 0 -77 25t-25 66v174q0 88 99 88q54 0 75 -22.5t21 -62.5v-26h-84v26q0 16 -13 16q-11 0 -11 -16v-74q23 32 61 32zM113 -38q15 0 15 20v54q0 21 -15 21q-13 0 -13 -21v-54q0 -20 13 -20z" />
    <glyph glyph-name="seven.sub" unicode="&#x2087;" horiz-adv-x="198" 
d="M11 239h180v-36q0 -12 -3 -29t-11 -53.5t-14 -64.5q-13 -64 -13 -158h-98q0 75 28 150q40 108 40 129h-35v-59h-74v121z" />
    <glyph glyph-name="eight.sub" unicode="&#x2088;" horiz-adv-x="217" 
d="M204 167v-26q0 -41 -32 -61q35 -15 35 -64v-38q0 -40 -23.5 -62.5t-70.5 -22.5h-9q-93 0 -93 86v37q0 48 33 64q-30 22 -30 61v26q0 79 90 79h9q91 0 91 -79zM122 -21v48q0 19 -14 19q-13 0 -13 -19v-48q0 -17 13 -17q14 0 14 17zM121 126v37q0 18 -13 18q-12 0 -12 -18
v-37q0 -17 13 -17q12 0 12 17z" />
    <glyph glyph-name="nine.sub" unicode="&#x2089;" horiz-adv-x="226" 
d="M11 82v74q0 41 24.5 65.5t75.5 24.5q102 0 102 -90v-175q0 -37 -22.5 -62.5t-77.5 -25.5t-75 22t-20 61v28h84v-26q0 -16 13 -16q11 0 11 16v74q-23 -32 -59 -32q-26 0 -41 18.5t-15 43.5zM112 177q-15 0 -15 -20v-55q0 -20 15 -20q14 0 14 20v55q0 20 -14 20z" />
    <glyph glyph-name="Euro" unicode="&#x20ac;" horiz-adv-x="416" 
d="M7 291v84h55v26h-55v84h55v99q0 74 37.5 121.5t116.5 47.5h31q153 0 153 -164v-81h-132v76q0 43 -34 43q-33 0 -33 -43v-99h131v-84h-131v-26h131v-84h-131v-126q0 -45 34 -45q33 0 33 45v101h132v-105q0 -75 -36 -123.5t-117 -48.5h-31q-154 0 -154 176v126h-55z" />
    <glyph glyph-name="uni20B4" unicode="&#x20b4;" horiz-adv-x="369" 
d="M364 481v-84h-359v84h162l5 5q41 46 41 96v17q0 40 -29 40t-29 -39v-93h-128v100q0 76 33 111t110 35h27q71 0 111 -38.5t40 -109.5v-20q0 -56 -31 -104h47zM355 261v-116q0 -154 -152 -154h-26q-81 0 -121.5 48.5t-40.5 135.5v16q0 51 26 96h-36v84h359v-84h-174
q-21 -25 -27 -45.5t-6 -58.5v-14q0 -54 33 -54q34 0 34 45v101h131z" />
    <glyph glyph-name="uni20B8" unicode="&#x20b8;" horiz-adv-x="337" 
d="M6 660v84h323v-84h-323zM329 503h-95v-503h-133v503h-95v131h323v-131z" />
    <glyph glyph-name="uni20BD" unicode="&#x20bd;" horiz-adv-x="398" 
d="M330 188h-137v-188h-133v188h-55v84h55v26h-55v84h55v362h190q79 0 107.5 -36t28.5 -111v-148q0 -151 -130 -151h-63v-26h137v-84zM193 629v-220h25q21 0 27.5 10.5t6.5 31.5v135q0 22 -6.5 32.5t-27.5 10.5h-25z" />
    <glyph glyph-name="uni2116" unicode="&#x2116;" horiz-adv-x="643" 
d="M514 391h-19q-50 0 -81 28t-31 79v144q0 50 30 78.5t82 28.5h19q51 0 80.5 -28t29.5 -79v-144q0 -49 -29 -78t-81 -29zM502 477q21 0 21 23v141q0 23 -21 23q-18 0 -18 -23v-141q0 -23 18 -23zM388 272v93h230v-93h-230zM21 744h125l91 -380v380h118v-744h-113l-103 408
v-408h-118v744z" />
    <glyph glyph-name="trademark" unicode="&#x2122;" horiz-adv-x="349" 
d="M152 463v281h79l15 -122l13 122h78v-281h-57v159l-22 -159h-28l-21 159v-159h-57zM139 744v-64h-31v-217h-72v217h-30v64h133z" />
    <glyph glyph-name="onethird" unicode="&#x2153;" horiz-adv-x="419" 
d="M49 638h-43v66q29 0 40.5 10.5t14.5 29.5h72v-340h-84v234zM277 744h81l-267 -744h-81zM294 228h-77v36q0 41 19.5 62.5t65.5 21.5h12q45 0 66.5 -19.5t21.5 -61.5v-23q0 -42 -30 -54q37 -14 37 -54v-55q0 -86 -92 -86h-14q-87 0 -87 79v51h80v-46q0 -17 13 -17
q12 0 12 17v49q0 15 -13 15h-39v69h37q14 0 14 16v38q0 18 -13 18t-13 -18v-38z" />
    <glyph glyph-name="twothirds" unicode="&#x2154;" horiz-adv-x="494" 
d="M213 402h-206v44q0 29 15 55.5t65 82.5q21 24 26 35.5t5 31.5v16q0 17 -14 17q-13 0 -13 -17v-53h-78v57q0 34 19.5 56.5t63.5 22.5h15q94 0 94 -79v-18q0 -34 -14 -58.5t-49 -56.5q-41 -37 -48.5 -46.5t-7.5 -21.5h53v54h74v-122zM352 744h81l-267 -744h-81zM369 228
h-77v36q0 41 19.5 62.5t65.5 21.5h12q45 0 66.5 -19.5t21.5 -61.5v-23q0 -42 -30 -54q37 -14 37 -54v-55q0 -86 -92 -86h-14q-87 0 -87 79v51h80v-46q0 -17 13 -17q12 0 12 17v49q0 15 -13 15h-39v69h37q14 0 14 16v38q0 18 -13 18t-13 -18v-38z" />
    <glyph glyph-name="oneeighth" unicode="&#x215b;" horiz-adv-x="420" 
d="M277 744h81l-267 -744h-81zM49 638h-43v66q29 0 40.5 10.5t14.5 29.5h72v-340h-84v234zM407 269v-26q0 -41 -32 -61q35 -15 35 -64v-38q0 -40 -23.5 -62.5t-70.5 -22.5h-9q-93 0 -93 86v37q0 48 33 64q-30 22 -30 61v26q0 79 90 79h9q91 0 91 -79zM325 81v48q0 19 -14 19
q-13 0 -13 -19v-48q0 -17 13 -17q14 0 14 17zM324 228v37q0 18 -13 18q-12 0 -12 -18v-37q0 -17 13 -17q12 0 12 17z" />
    <glyph glyph-name="threeeighths" unicode="&#x215c;" horiz-adv-x="472" 
d="M89 630h-77v36q0 41 19.5 62.5t65.5 21.5h12q45 0 66.5 -19.5t21.5 -61.5v-23q0 -42 -30 -54q37 -14 37 -54v-55q0 -86 -92 -86h-14q-87 0 -87 79v51h80v-46q0 -17 13 -17q12 0 12 17v49q0 15 -13 15h-39v69h37q14 0 14 16v38q0 18 -13 18t-13 -18v-38zM329 744h81
l-267 -744h-81zM459 269v-26q0 -41 -32 -61q35 -15 35 -64v-38q0 -40 -23.5 -62.5t-70.5 -22.5h-9q-93 0 -93 86v37q0 48 33 64q-30 22 -30 61v26q0 79 90 79h9q91 0 91 -79zM377 81v48q0 19 -14 19q-13 0 -13 -19v-48q0 -17 13 -17q14 0 14 17zM376 228v37q0 18 -13 18
q-12 0 -12 -18v-37q0 -17 13 -17q12 0 12 17z" />
    <glyph glyph-name="fiveeighths" unicode="&#x215d;" horiz-adv-x="472" 
d="M329 744h81l-267 -744h-81zM93 545h-78v199h180v-71h-103v-61q28 37 58 37q55 0 55 -65v-93q0 -94 -90 -94h-15q-89 0 -89 82v40h83v-41q0 -15 12 -15t12 15v83q0 18 -12 18q-13 0 -13 -18v-16zM459 269v-26q0 -41 -32 -61q35 -15 35 -64v-38q0 -40 -23.5 -62.5
t-70.5 -22.5h-9q-93 0 -93 86v37q0 48 33 64q-30 22 -30 61v26q0 79 90 79h9q91 0 91 -79zM377 81v48q0 19 -14 19q-13 0 -13 -19v-48q0 -17 13 -17q14 0 14 17zM376 228v37q0 18 -13 18q-12 0 -12 -18v-37q0 -17 13 -17q12 0 12 17z" />
    <glyph glyph-name="seveneighths" unicode="&#x215e;" horiz-adv-x="437" 
d="M294 744h81l-267 -744h-81zM11 744h180v-36q0 -12 -3 -29t-11 -53.5t-14 -64.5q-13 -64 -13 -158h-98q0 75 28 150q40 108 40 129h-35v-59h-74v121zM424 269v-26q0 -41 -32 -61q35 -15 35 -64v-38q0 -40 -23.5 -62.5t-70.5 -22.5h-9q-93 0 -93 86v37q0 48 33 64
q-30 22 -30 61v26q0 79 90 79h9q91 0 91 -79zM342 81v48q0 19 -14 19q-13 0 -13 -19v-48q0 -17 13 -17q14 0 14 17zM341 228v37q0 18 -13 18q-12 0 -12 -18v-37q0 -17 13 -17q12 0 12 17z" />
    <glyph glyph-name="minus" unicode="&#x2212;" horiz-adv-x="320" 
d="M15 346h290v-91h-290v91z" />
    <glyph glyph-name="uni24C5" unicode="&#x24c5;" horiz-adv-x="519" 
d="M266 -11h-10q-237 0 -237 255v258q0 124 62.5 188.5t175.5 64.5h12q231 0 231 -253v-258q0 -129 -63.5 -192t-170.5 -63zM258 56h8q158 0 158 203v230q0 199 -156 199h-10q-86 0 -123.5 -50t-37.5 -149v-230q0 -203 161 -203zM296 312h-44v-192h-103v506h147q50 0 72 -22
t22 -78v-112q0 -54 -23 -78t-71 -24zM252 542v-146h15q21 0 21 30v88q0 16 -4.5 22t-16.5 6h-15z" />
    <glyph glyph-name="zero.den" unicode="&#xe402;" horiz-adv-x="231" 
d="M110 348h12q97 0 97 -98v-163q0 -43 -26 -67.5t-71 -24.5h-14q-45 0 -70 24.5t-25 67.5v163q0 46 24.5 72t72.5 26zM116 273q-15 0 -15 -21v-161q0 -19 14 -19q16 0 16 19v161q0 21 -15 21z" />
    <glyph glyph-name="one.den" unicode="&#xe403;" horiz-adv-x="151" 
d="M49 234h-43v66q29 0 40.5 10.5t14.5 29.5h72v-340h-84v234z" />
    <glyph glyph-name="two.den" unicode="&#xe404;" horiz-adv-x="224" 
d="M213 0h-206v44q0 28 15 55t65 83q21 24 26 35.5t5 31.5v16q0 17 -14 17q-13 0 -13 -17v-53h-78v57q0 34 19.5 56.5t63.5 22.5h15q94 0 94 -79v-18q0 -34 -14 -58.5t-49 -56.5q-41 -37 -48.5 -46.5t-7.5 -21.5h53v54h74v-122z" />
    <glyph glyph-name="three.den" unicode="&#xe405;" horiz-adv-x="214" 
d="M89 228h-77v36q0 41 19.5 62.5t65.5 21.5h12q45 0 66.5 -19.5t21.5 -61.5v-23q0 -42 -30 -54q37 -14 37 -54v-55q0 -86 -92 -86h-14q-87 0 -87 79v51h80v-46q0 -17 13 -17q12 0 12 17v49q0 15 -13 15h-39v69h37q14 0 14 16v38q0 18 -13 18t-13 -18v-38z" />
    <glyph glyph-name="four.den" unicode="&#xe406;" horiz-adv-x="212" 
d="M7 59v58q55 134 86 225h83v-211h28v-72h-28v-59h-80v59h-89zM65 131h31v87q-7 -31 -31 -87z" />
    <glyph glyph-name="five.den" unicode="&#xe407;" horiz-adv-x="215" 
d="M93 143h-78v199h180v-71h-103v-61q28 37 58 37q55 0 55 -65v-93q0 -94 -90 -94h-15q-89 0 -89 82v40h83v-41q0 -15 12 -15t12 15v83q0 18 -12 18q-13 0 -13 -18v-16z" />
    <glyph glyph-name="six.den" unicode="&#xe408;" horiz-adv-x="226" 
d="M161 221q27 0 40.5 -17.5t13.5 -43.5v-75q0 -41 -25.5 -65.5t-74.5 -24.5q-52 0 -77 25t-25 66v174q0 88 99 88q54 0 75 -22.5t21 -62.5v-26h-84v26q0 16 -13 16q-11 0 -11 -16v-74q23 32 61 32zM113 64q15 0 15 20v54q0 21 -15 21q-13 0 -13 -21v-54q0 -20 13 -20z" />
    <glyph glyph-name="seven.den" unicode="&#xe409;" horiz-adv-x="198" 
d="M11 341h180v-36q0 -12 -3 -29t-11 -53.5t-14 -64.5q-13 -64 -13 -158h-98q0 75 28 150q40 108 40 129h-35v-59h-74v121z" />
    <glyph glyph-name="eight.den" unicode="&#xe40a;" horiz-adv-x="217" 
d="M204 269v-26q0 -41 -32 -61q35 -15 35 -64v-38q0 -40 -23.5 -62.5t-70.5 -22.5h-9q-93 0 -93 86v37q0 48 33 64q-30 22 -30 61v26q0 79 90 79h9q91 0 91 -79zM122 81v48q0 19 -14 19q-13 0 -13 -19v-48q0 -17 13 -17q14 0 14 17zM121 228v37q0 18 -13 18q-12 0 -12 -18
v-37q0 -17 13 -17q12 0 12 17z" />
    <glyph glyph-name="nine.den" unicode="&#xe40b;" horiz-adv-x="226" 
d="M11 184v74q0 41 24.5 65.5t75.5 24.5q102 0 102 -90v-175q0 -37 -22.5 -62.5t-77.5 -25.5t-75 22t-20 61v28h84v-26q0 -16 13 -16q11 0 11 16v74q-23 -32 -59 -32q-26 0 -41 18.5t-15 43.5zM112 279q-15 0 -15 -20v-55q0 -20 15 -20q14 0 14 20v55q0 20 -14 20z" />
    <glyph glyph-name="zero.num" unicode="&#xe416;" horiz-adv-x="231" 
d="M110 750h12q97 0 97 -98v-163q0 -43 -26 -67.5t-71 -24.5h-14q-45 0 -70 24.5t-25 67.5v163q0 46 24.5 72t72.5 26zM116 675q-15 0 -15 -21v-161q0 -19 14 -19q16 0 16 19v161q0 21 -15 21z" />
    <glyph glyph-name="one.num" unicode="&#xe417;" horiz-adv-x="151" 
d="M49 638h-43v66q29 0 40.5 10.5t14.5 29.5h72v-340h-84v234z" />
    <glyph glyph-name="two.num" unicode="&#xe418;" horiz-adv-x="224" 
d="M213 402h-206v44q0 29 15 55.5t65 82.5q21 24 26 35.5t5 31.5v16q0 17 -14 17q-13 0 -13 -17v-53h-78v57q0 34 19.5 56.5t63.5 22.5h15q94 0 94 -79v-18q0 -34 -14 -58.5t-49 -56.5q-41 -37 -48.5 -46.5t-7.5 -21.5h53v54h74v-122z" />
    <glyph glyph-name="three.num" unicode="&#xe419;" horiz-adv-x="214" 
d="M89 630h-77v36q0 41 19.5 62.5t65.5 21.5h12q45 0 66.5 -19.5t21.5 -61.5v-23q0 -42 -30 -54q37 -14 37 -54v-55q0 -86 -92 -86h-14q-87 0 -87 79v51h80v-46q0 -17 13 -17q12 0 12 17v49q0 15 -13 15h-39v69h37q14 0 14 16v38q0 18 -13 18t-13 -18v-38z" />
    <glyph glyph-name="four.num" unicode="&#xe41a;" horiz-adv-x="212" 
d="M7 462v58q55 134 86 225h83v-211h28v-72h-28v-59h-80v59h-89zM65 534h31v87q-7 -31 -31 -87z" />
    <glyph glyph-name="five.num" unicode="&#xe41b;" horiz-adv-x="215" 
d="M93 545h-78v199h180v-71h-103v-61q28 37 58 37q55 0 55 -65v-93q0 -94 -90 -94h-15q-89 0 -89 82v40h83v-41q0 -15 12 -15t12 15v83q0 18 -12 18q-13 0 -13 -18v-16z" />
    <glyph glyph-name="six.num" unicode="&#xe41c;" horiz-adv-x="226" 
d="M161 623q27 0 40.5 -17.5t13.5 -43.5v-75q0 -41 -25.5 -65.5t-74.5 -24.5q-52 0 -77 25t-25 66v174q0 88 99 88q54 0 75 -22.5t21 -62.5v-26h-84v26q0 16 -13 16q-11 0 -11 -16v-74q23 32 61 32zM113 466q15 0 15 20v54q0 21 -15 21q-13 0 -13 -21v-54q0 -20 13 -20z" />
    <glyph glyph-name="seven.num" unicode="&#xe41d;" horiz-adv-x="198" 
d="M11 744h180v-36q0 -12 -3 -29t-11 -53.5t-14 -64.5q-13 -64 -13 -158h-98q0 75 28 150q40 108 40 129h-35v-59h-74v121z" />
    <glyph glyph-name="eight.num" unicode="&#xe41e;" horiz-adv-x="217" 
d="M204 671v-26q0 -41 -32 -61q35 -15 35 -64v-38q0 -40 -23.5 -62.5t-70.5 -22.5h-9q-93 0 -93 86v37q0 48 33 64q-30 22 -30 61v26q0 79 90 79h9q91 0 91 -79zM122 483v48q0 19 -14 19q-13 0 -13 -19v-48q0 -17 13 -17q14 0 14 17zM121 630v37q0 18 -13 18q-12 0 -12 -18
v-37q0 -17 13 -17q12 0 12 17z" />
    <glyph glyph-name="nine.num" unicode="&#xe41f;" horiz-adv-x="226" 
d="M11 586v74q0 41 24.5 65.5t75.5 24.5q102 0 102 -90v-175q0 -37 -22.5 -62.5t-77.5 -25.5t-75 22t-20 61v28h84v-26q0 -16 13 -16q11 0 11 16v74q-23 -32 -59 -32q-26 0 -41 18.5t-15 43.5zM112 681q-15 0 -15 -20v-55q0 -20 15 -20q14 0 14 20v55q0 20 -14 20z" />
    <glyph glyph-name="f_f_i" unicode="&#xfb03;" horiz-adv-x="631" 
d="M260 744v-113h-47q-12 0 -16 -5t-4 -18v-70h84v132q0 30 20.5 52t61.5 22h107v-113h-42q-12 0 -16 -5t-4 -18v-70h62v-119h-62v-419h-127v419h-84v-419h-127v419h-60v119h60v132q0 30 20.5 52t61.5 22h112zM617 538v-538h-128v538h128zM617 690v-126h-128v126h128z" />
    <glyph glyph-name="f_f_l" unicode="&#xfb04;" horiz-adv-x="631" 
d="M260 744v-113h-47q-12 0 -16 -5t-4 -18v-70h84v132q0 30 20.5 52t61.5 22h107v-113h-42q-12 0 -16 -5t-4 -18v-70h62v-119h-62v-419h-127v419h-84v-419h-127v419h-60v119h60v132q0 30 20.5 52t61.5 22h112zM617 744v-744h-128v744h128z" />
    <glyph glyph-name="idotaccent" horiz-adv-x="164" 
d="M146 538v-538h-128v538h128zM146 690v-126h-128v126h128z" />
    <glyph glyph-name="space_uni0326" horiz-adv-x="342" 
d="M200 -203h-51q9 21 14 67h-43v110h102v-70q0 -60 -22 -107z" />
    <glyph glyph-name="E.alt" horiz-adv-x="310" 
d="M21 744h275v-131h-142v-162h135v-134h-135v-183h146v-134h-279v744z" />
    <glyph glyph-name="F.alt" horiz-adv-x="306" 
d="M21 744h274v-131h-141v-162h134v-134h-134v-317h-133v744z" />
    <glyph glyph-name="J.alt" horiz-adv-x="240" 
d="M9 0v134h54q19 0 19 25v585h138v-657q0 -87 -78 -87h-133z" />
    <glyph glyph-name="IJ.alt" horiz-adv-x="411" 
d="M154 744v-744h-133v744h133zM180 0v134h54q19 0 19 25v585h138v-657q0 -87 -78 -87h-133z" />
    <glyph glyph-name="a.alt" horiz-adv-x="324" 
d="M305 426v-303q0 -76 11 -118v-5h-122q-12 17 -12 61q-12 -26 -35.5 -46t-55.5 -20h-4q-35 0 -54 27.5t-19 65.5v117q0 76 56 110q13 9 55 28.5t49 24.5q8 5 8 20v29q0 17 -5 23t-17 6h-4q-22 0 -22 -29v-53h-114v74q0 44 28 75t98 31h23q76 0 106 -30.5t30 -87.5z
M182 134v131q-24 -13 -33 -25q-12 -15 -12 -41v-65q0 -32 21 -32q24 0 24 32z" />
    <glyph glyph-name="a.alt2" 
d="M195 538h126v-538h-126v60q-40 -71 -87 -71h-3q-38 0 -63 33.5t-25 81.5v333q0 41 21 74t56 33h7q55 0 94 -63v57zM195 143v253q0 41 -26 41q-24 0 -24 -37v-262q0 -37 24 -37q26 0 26 42z" />
    <glyph glyph-name="r.alt" horiz-adv-x="275" 
d="M145 538v-80q31 84 84 84h7q16 0 28 -4v-146q-25 9 -55 9h-4q-32 0 -45.5 -10.5t-13.5 -32.5v-358h-128v538h127z" />
    <glyph glyph-name="Eacute.alt" horiz-adv-x="315" 
d="M108 770l43 115h106l-45 -115h-104zM21 744h275v-131h-142v-162h135v-134h-135v-183h146v-134h-279v744z" />
    <glyph glyph-name="Ebreve.alt" horiz-adv-x="310" 
d="M21 744h275v-131h-142v-162h135v-134h-135v-183h146v-134h-279v744zM163 767h-4q-47 0 -77 28t-30 75v5h85v-3q0 -26 23 -26h2q23 0 23 26v3h84v-5q0 -47 -31 -75t-75 -28z" />
    <glyph glyph-name="Ecaron.alt" horiz-adv-x="310" 
d="M21 744h275v-131h-142v-162h135v-134h-135v-183h146v-134h-279v744zM111 770l-66 115h90l27 -48l27 48h89l-66 -115h-101z" />
    <glyph glyph-name="Ecircumflex.alt" horiz-adv-x="315" 
d="M213 885l66 -115h-89l-28 47l-27 -47h-89l65 115h102zM21 744h275v-131h-142v-162h135v-134h-135v-183h146v-134h-279v744z" />
    <glyph glyph-name="Edieresis.alt" horiz-adv-x="315" 
d="M275 876v-106h-100v106h100zM150 876v-106h-100v106h100zM21 744h275v-131h-142v-162h135v-134h-135v-183h146v-134h-279v744z" />
    <glyph glyph-name="Edotaccent.alt" horiz-adv-x="310" 
d="M21 744h275v-131h-142v-162h135v-134h-135v-183h146v-134h-279v744zM226 896v-126h-128v126h128z" />
    <glyph glyph-name="Egrave.alt" horiz-adv-x="315" 
d="M176 885l43 -115h-104l-44 115h105zM21 744h275v-131h-142v-162h135v-134h-135v-183h146v-134h-279v744z" />
    <glyph glyph-name="Emacron.alt" horiz-adv-x="310" 
d="M21 744h275v-131h-142v-162h135v-134h-135v-183h146v-134h-279v744zM65 777v88h193v-88h-193z" />
    <glyph glyph-name="Eogonek.alt" horiz-adv-x="310" 
d="M122 -124v15q0 26 18.5 51t55.5 58h62q-44 -55 -44 -84v-4q0 -20 26 -20h18v-80h-58q-34 0 -56 16.5t-22 47.5zM21 744h275v-131h-142v-162h135v-134h-135v-183h146v-134h-279v744z" />
    <glyph glyph-name="Jcircumflex.alt" horiz-adv-x="240" 
d="M9 0v134h54q19 0 19 25v585h138v-657q0 -87 -78 -87h-133zM200 885l66 -115h-89l-28 47l-27 -47h-89l65 115h102z" />
    <glyph glyph-name="aacute.alt" horiz-adv-x="324" 
d="M108 564l42 136h105l-44 -136h-103zM305 426v-303q0 -76 11 -118v-5h-122q-12 17 -12 61q-12 -26 -35.5 -46t-55.5 -20h-4q-35 0 -54 27.5t-19 65.5v117q0 76 56 110q13 9 55 28.5t49 24.5q8 5 8 20v29q0 17 -5 23t-17 6h-4q-22 0 -22 -29v-53h-114v74q0 44 28 75t98 31
h23q76 0 106 -30.5t30 -87.5zM182 134v131q-24 -13 -33 -25q-12 -15 -12 -41v-65q0 -32 21 -32q24 0 24 32z" />
    <glyph glyph-name="aacute.alt2" 
d="M195 538h126v-538h-126v60q-40 -71 -87 -71h-3q-38 0 -63 33.5t-25 81.5v333q0 41 21 74t56 33h7q55 0 94 -63v57zM195 143v253q0 41 -26 41q-24 0 -24 -37v-262q0 -37 24 -37q26 0 26 42zM115 564l42 136h105l-44 -136h-103z" />
    <glyph glyph-name="abreve.alt" horiz-adv-x="324" 
d="M305 426v-303q0 -76 11 -118v-5h-122q-12 17 -12 61q-12 -26 -35.5 -46t-55.5 -20h-4q-35 0 -54 27.5t-19 65.5v117q0 76 56 110q13 9 55 28.5t49 24.5q8 5 8 20v29q0 17 -5 23t-17 6h-4q-22 0 -22 -29v-53h-114v74q0 44 28 75t98 31h23q76 0 106 -30.5t30 -87.5z
M182 134v131q-24 -13 -33 -25q-12 -15 -12 -41v-65q0 -32 21 -32q24 0 24 32zM154 563h-3q-49 0 -78.5 28t-29.5 81v8h85v-6q0 -33 24 -33h1q24 0 24 33v6h83v-8q0 -52 -30.5 -80.5t-75.5 -28.5z" />
    <glyph glyph-name="abreve.alt2" 
d="M195 538h126v-538h-126v60q-40 -71 -87 -71h-3q-38 0 -63 33.5t-25 81.5v333q0 41 21 74t56 33h7q55 0 94 -63v57zM195 143v253q0 41 -26 41q-24 0 -24 -37v-262q0 -37 24 -37q26 0 26 42zM169 563h-3q-49 0 -78.5 28t-29.5 81v8h85v-6q0 -33 24 -33h1q24 0 24 33v6h83
v-8q0 -52 -30.5 -80.5t-75.5 -28.5z" />
    <glyph glyph-name="acircumflex.alt" horiz-adv-x="324" 
d="M213 700l62 -136h-91l-24 62l-25 -62h-89l61 136h106zM305 426v-303q0 -76 11 -118v-5h-122q-12 17 -12 61q-12 -26 -35.5 -46t-55.5 -20h-4q-35 0 -54 27.5t-19 65.5v117q0 76 56 110q13 9 55 28.5t49 24.5q8 5 8 20v29q0 17 -5 23t-17 6h-4q-22 0 -22 -29v-53h-114v74
q0 44 28 75t98 31h23q76 0 106 -30.5t30 -87.5zM182 134v131q-24 -13 -33 -25q-12 -15 -12 -41v-65q0 -32 21 -32q24 0 24 32z" />
    <glyph glyph-name="acircumflex.alt2" 
d="M195 538h126v-538h-126v60q-40 -71 -87 -71h-3q-38 0 -63 33.5t-25 81.5v333q0 41 21 74t56 33h7q55 0 94 -63v57zM195 143v253q0 41 -26 41q-24 0 -24 -37v-262q0 -37 24 -37q26 0 26 42zM219 700l62 -136h-91l-24 62l-25 -62h-89l61 136h106z" />
    <glyph glyph-name="adieresis.alt" horiz-adv-x="324" 
d="M305 426v-303q0 -76 11 -118v-5h-122q-12 17 -12 61q-12 -26 -35.5 -46t-55.5 -20h-4q-35 0 -54 27.5t-19 65.5v117q0 76 56 110q13 9 55 28.5t49 24.5q8 5 8 20v29q0 17 -5 23t-17 6h-4q-22 0 -22 -29v-53h-114v74q0 44 28 75t98 31h23q76 0 106 -30.5t30 -87.5z
M182 134v131q-24 -13 -33 -25q-12 -15 -12 -41v-65q0 -32 21 -32q24 0 24 32zM146 670v-106h-100v106h100zM270 670v-106h-100v106h100z" />
    <glyph glyph-name="adieresis.alt2" 
d="M195 538h126v-538h-126v60q-40 -71 -87 -71h-3q-38 0 -63 33.5t-25 81.5v333q0 41 21 74t56 33h7q55 0 94 -63v57zM195 143v253q0 41 -26 41q-24 0 -24 -37v-262q0 -37 24 -37q26 0 26 42zM156 670v-106h-100v106h100zM280 670v-106h-100v106h100z" />
    <glyph glyph-name="agrave.alt" horiz-adv-x="324" 
d="M170 700l41 -136h-102l-45 136h106zM305 426v-303q0 -76 11 -118v-5h-122q-12 17 -12 61q-12 -26 -35.5 -46t-55.5 -20h-4q-35 0 -54 27.5t-19 65.5v117q0 76 56 110q13 9 55 28.5t49 24.5q8 5 8 20v29q0 17 -5 23t-17 6h-4q-22 0 -22 -29v-53h-114v74q0 44 28 75t98 31
h23q76 0 106 -30.5t30 -87.5zM182 134v131q-24 -13 -33 -25q-12 -15 -12 -41v-65q0 -32 21 -32q24 0 24 32z" />
    <glyph glyph-name="agrave.alt2" 
d="M195 538h126v-538h-126v60q-40 -71 -87 -71h-3q-38 0 -63 33.5t-25 81.5v333q0 41 21 74t56 33h7q55 0 94 -63v57zM195 143v253q0 41 -26 41q-24 0 -24 -37v-262q0 -37 24 -37q26 0 26 42zM176 700l41 -136h-102l-45 136h106z" />
    <glyph glyph-name="amacron.alt" horiz-adv-x="324" 
d="M305 426v-303q0 -76 11 -118v-5h-122q-12 17 -12 61q-12 -26 -35.5 -46t-55.5 -20h-4q-35 0 -54 27.5t-19 65.5v117q0 76 56 110q13 9 55 28.5t49 24.5q8 5 8 20v29q0 17 -5 23t-17 6h-4q-22 0 -22 -29v-53h-114v74q0 44 28 75t98 31h23q76 0 106 -30.5t30 -87.5z
M182 134v131q-24 -13 -33 -25q-12 -15 -12 -41v-65q0 -32 21 -32q24 0 24 32zM64 576v87h191v-87h-191z" />
    <glyph glyph-name="amacron.alt2" 
d="M195 538h126v-538h-126v60q-40 -71 -87 -71h-3q-38 0 -63 33.5t-25 81.5v333q0 41 21 74t56 33h7q55 0 94 -63v57zM195 143v253q0 41 -26 41q-24 0 -24 -37v-262q0 -37 24 -37q26 0 26 42zM71 576v87h191v-87h-191z" />
    <glyph glyph-name="aogonek.alt" horiz-adv-x="324" 
d="M305 426v-303q0 -76 11 -118v-5h-122q-12 17 -12 61q-12 -26 -35.5 -46t-55.5 -20h-4q-35 0 -54 27.5t-19 65.5v117q0 76 56 110q13 9 55 28.5t49 24.5q8 5 8 20v29q0 17 -5 23t-17 6h-4q-22 0 -22 -29v-53h-114v74q0 44 28 75t98 31h23q76 0 106 -30.5t30 -87.5z
M182 134v131q-24 -13 -33 -25q-12 -15 -12 -41v-65q0 -32 21 -32q24 0 24 32zM180 -124v15q0 26 18.5 51t55.5 58h62q-44 -55 -44 -84v-4q0 -20 26 -20h18v-80h-58q-34 0 -56 16.5t-22 47.5z" />
    <glyph glyph-name="aogonek.alt2" 
d="M195 538h126v-538h-126v60q-40 -71 -87 -71h-3q-38 0 -63 33.5t-25 81.5v333q0 41 21 74t56 33h7q55 0 94 -63v57zM195 143v253q0 41 -26 41q-24 0 -24 -37v-262q0 -37 24 -37q26 0 26 42zM185 -124v15q0 26 18.5 51t55.5 58h62q-44 -55 -44 -84v-4q0 -20 26 -20h18v-80
h-58q-34 0 -56 16.5t-22 47.5z" />
    <glyph glyph-name="aring.alt" horiz-adv-x="324" 
d="M305 426v-303q0 -76 11 -118v-5h-122q-12 17 -12 61q-12 -26 -35.5 -46t-55.5 -20h-4q-35 0 -54 27.5t-19 65.5v117q0 76 56 110q13 9 55 28.5t49 24.5q8 5 8 20v29q0 17 -5 23t-17 6h-4q-22 0 -22 -29v-53h-114v74q0 44 28 75t98 31h23q76 0 106 -30.5t30 -87.5z
M182 134v131q-24 -13 -33 -25q-12 -15 -12 -41v-65q0 -32 21 -32q24 0 24 32zM154 608q15 0 23.5 9t8.5 24t-8.5 24t-23.5 9t-23.5 -9t-8.5 -24t8.5 -24t23.5 -9zM154 562q-35 0 -57.5 22t-22.5 57t22.5 57t57.5 22t57.5 -22t22.5 -57t-22.5 -57t-57.5 -22z" />
    <glyph glyph-name="aring.alt2" 
d="M195 538h126v-538h-126v60q-40 -71 -87 -71h-3q-38 0 -63 33.5t-25 81.5v333q0 41 21 74t56 33h7q55 0 94 -63v57zM195 143v253q0 41 -26 41q-24 0 -24 -37v-262q0 -37 24 -37q26 0 26 42zM163 608q15 0 23.5 9t8.5 24t-8.5 24t-23.5 9t-23.5 -9t-8.5 -24t8.5 -24
t23.5 -9zM163 562q-35 0 -57.5 22t-22.5 57t22.5 57t57.5 22t57.5 -22t22.5 -57t-22.5 -57t-57.5 -22z" />
    <glyph glyph-name="aringacute.alt" horiz-adv-x="324" 
d="M157 608q15 0 23.5 9t8.5 24t-8.5 24t-23.5 9t-23.5 -9t-8.5 -24t8.5 -24t23.5 -9zM157 562q-35 0 -57.5 22t-22.5 57t22.5 57t57.5 22t57.5 -22t22.5 -57t-22.5 -57t-57.5 -22zM108 736l42 136h105l-44 -136h-103zM305 426v-303q0 -76 11 -118v-5h-122q-12 17 -12 61
q-12 -26 -35.5 -46t-55.5 -20h-4q-35 0 -54 27.5t-19 65.5v117q0 76 56 110q13 9 55 28.5t49 24.5q8 5 8 20v29q0 17 -5 23t-17 6h-4q-22 0 -22 -29v-53h-114v74q0 44 28 75t98 31h23q76 0 106 -30.5t30 -87.5zM182 134v131q-24 -13 -33 -25q-12 -15 -12 -41v-65
q0 -32 21 -32q24 0 24 32z" />
    <glyph glyph-name="aringacute.alt2" 
d="M116 736l42 136h105l-44 -136h-103zM165 608q15 0 23.5 9t8.5 24t-8.5 24t-23.5 9t-23.5 -9t-8.5 -24t8.5 -24t23.5 -9zM165 562q-35 0 -57.5 22t-22.5 57t22.5 57t57.5 22t57.5 -22t22.5 -57t-22.5 -57t-57.5 -22zM195 538h126v-538h-126v60q-40 -71 -87 -71h-3
q-38 0 -63 33.5t-25 81.5v333q0 41 21 74t56 33h7q55 0 94 -63v57zM195 143v253q0 41 -26 41q-24 0 -24 -37v-262q0 -37 24 -37q26 0 26 42z" />
    <glyph glyph-name="atilde.alt" horiz-adv-x="324" 
d="M305 426v-303q0 -76 11 -118v-5h-122q-12 17 -12 61q-12 -26 -35.5 -46t-55.5 -20h-4q-35 0 -54 27.5t-19 65.5v117q0 76 56 110q13 9 55 28.5t49 24.5q8 5 8 20v29q0 17 -5 23t-17 6h-4q-22 0 -22 -29v-53h-114v74q0 44 28 75t98 31h23q76 0 106 -30.5t30 -87.5z
M182 134v131q-24 -13 -33 -25q-12 -15 -12 -41v-65q0 -32 21 -32q24 0 24 32zM193 678h73v-56q0 -25 -15 -42t-39 -17q-25 0 -60 19q-19 9 -23 9q-7 0 -7 -12v-16h-72v47q0 31 14.5 49.5t40.5 18.5q19 0 59 -18q17 -8 23 -8t6 10v16z" />
    <glyph glyph-name="atilde.alt2" 
d="M195 538h126v-538h-126v60q-40 -71 -87 -71h-3q-38 0 -63 33.5t-25 81.5v333q0 41 21 74t56 33h7q55 0 94 -63v57zM195 143v253q0 41 -26 41q-24 0 -24 -37v-262q0 -37 24 -37q26 0 26 42zM202 678h73v-56q0 -25 -15 -42t-39 -17q-25 0 -60 19q-19 9 -23 9q-7 0 -7 -12
v-16h-72v47q0 31 14.5 49.5t40.5 18.5q18 0 59 -18q17 -8 23 -8t6 10v16z" />
    <glyph glyph-name="racute.alt" horiz-adv-x="275" 
d="M145 538v-80q31 84 84 84h7q16 0 28 -4v-146q-25 9 -55 9h-4q-32 0 -45.5 -10.5t-13.5 -32.5v-358h-128v538h127zM92 564l42 136h105l-44 -136h-103z" />
    <glyph glyph-name="rcaron.alt" horiz-adv-x="275" 
d="M145 538v-80q31 84 84 84h7q16 0 28 -4v-146q-25 9 -55 9h-4q-32 0 -45.5 -10.5t-13.5 -32.5v-358h-128v538h127zM92 564l-62 136h91l24 -62l25 62h89l-62 -136h-105z" />
    <glyph glyph-name="rcommaaccent.alt" horiz-adv-x="275" 
d="M145 538v-80q31 84 84 84h7q16 0 28 -4v-146q-25 9 -55 9h-4q-32 0 -45.5 -10.5t-13.5 -32.5v-358h-128v538h127zM111 -203h-51q9 21 14 67h-43v110h102v-70q0 -60 -22 -107z" />
    <glyph glyph-name="space_uni0326.alt" horiz-adv-x="342" 
d="M141 742h53q-11 -36 -14 -69h42v-109h-103v69q0 62 22 109z" />
    <glyph glyph-name="ordfeminine.alt" horiz-adv-x="200" 
d="M110 488q-20 -40 -55 -40q-22 0 -33.5 16t-11.5 39v53q0 40 34 62q23 15 61 32q5 3 5 12v9q0 16 -12 16h-1q-12 0 -12 -17v-20h-72v34q0 26 17 45t59 19h14q46 0 64 -18t18 -53v-159q0 -45 6 -63v-4h-75q-6 6 -6 37zM110 528v61q-10 -5 -17 -11q-7 -7 -7 -23v-28
q0 -17 11 -17q13 0 13 18z" />
    <glyph glyph-name="ordfeminine.alt2" horiz-adv-x="216" 
d="M121 744h79v-293h-79v35q-17 -41 -52 -41h-2q-23 0 -38 18t-15 48v174q0 27 12.5 44.5t35.5 17.5h4q33 0 55 -38v35zM121 532v131q0 22 -15 22q-13 0 -13 -20v-136q0 -20 13 -20q15 0 15 23z" />
    <glyph glyph-name="caron.alt" horiz-adv-x="342" 
d="M124 594l6 150h87l-12 -150h-81z" />
    <glyph glyph-name="plus.uc" horiz-adv-x="344" 
d="M123 175v121h-108v91h108v122h98v-122h108v-91h-108v-121h-98z" />
    <glyph glyph-name="minus.uc" horiz-adv-x="320" 
d="M15 387h290v-91h-290v91z" />
    <glyph glyph-name="multiply.uc" horiz-adv-x="315" 
d="M243 190l-86 87l-84 -87l-63 60l85 89l-86 88l65 66l85 -88l84 88l63 -62l-86 -89l86 -87z" />
    <glyph glyph-name="divide.uc" horiz-adv-x="343" 
d="M15 387h313v-91h-313v91zM223 519v-103h-103v103h103zM223 264v-103h-103v103h103z" />
    <glyph glyph-name="equal.uc" horiz-adv-x="335" 
d="M17 328h301v-83h-301v83zM17 439h301v-84h-301v84z" />
    <glyph glyph-name="less.uc" horiz-adv-x="290" 
d="M12 298v87l263 105v-94l-155 -55l155 -53v-95z" />
    <glyph glyph-name="greater.uc" horiz-adv-x="289" 
d="M15 396v94l262 -105v-87l-262 -105v95l154 54z" />
    <glyph glyph-name="questiondown.uc" horiz-adv-x="333" 
d="M128 577h104v-128q0 -37 -6.5 -58t-27.5 -54l-35 -56q-21 -34 -21 -85v-49q0 -20 5.5 -27.5t19.5 -7.5q15 0 20 8t5 27v114h124v-118q0 -72 -28.5 -112t-107.5 -40h-27q-77 0 -110.5 37.5t-33.5 107.5v52q0 47 9 78.5t36 66.5l49 67q16 22 20.5 36.5t4.5 48.5v92z
M120 600v144h119v-144h-119z" />
    <glyph glyph-name="exclamdown.uc" horiz-adv-x="164" 
d="M141 744v-144h-119v144h119zM154 0h-145l47 577h51z" />
    <glyph glyph-name="hyphen.uc" horiz-adv-x="183" 
d="M15 400h153v-121h-153v121z" />
    <glyph glyph-name="endash.uc" horiz-adv-x="338" 
d="M15 386h308v-90h-308v90z" />
    <glyph glyph-name="emdash.uc" horiz-adv-x="510" 
d="M15 386h480v-90h-480v90z" />
    <glyph glyph-name="guilsinglleft.uc" horiz-adv-x="163" 
d="M110 308l45 -167h-99l-44 137v60l44 135h100z" />
    <glyph glyph-name="guilsinglright.uc" horiz-adv-x="163" 
d="M52 307l-44 166h100l43 -136v-60l-43 -136h-101z" />
    <glyph glyph-name="guillemotleft.uc" horiz-adv-x="273" 
d="M102 308l50 -167h-92l-48 137v60l48 135h92zM222 308l43 -167h-93l-48 167l48 165h94z" />
    <glyph glyph-name="guillemotright.uc" horiz-adv-x="272" 
d="M120 141l50 166l-50 166h93l47 -137v-59l-48 -136h-92zM7 141l44 166l-44 166h93l48 -166l-48 -166h-93z" />
    <glyph glyph-name="parenleft.uc" horiz-adv-x="213" 
d="M27 373q0 228 109 443h77q-28 -80 -48 -198t-20 -242q0 -231 71 -457h-77q-31 65 -51.5 118t-40.5 146.5t-20 189.5z" />
    <glyph glyph-name="parenright.uc" horiz-adv-x="213" 
d="M186 373q0 -225 -112 -454h-77q71 226 71 457q0 124 -20 242t-48 198h77q109 -215 109 -443z" />
    <glyph glyph-name="bracketleft.uc" horiz-adv-x="200" 
d="M194 817v-96h-54v-698h54v-96h-160v890h160z" />
    <glyph glyph-name="bracketright.uc" horiz-adv-x="200" 
d="M6 -73v96h54v698h-54v96h160v-890h-160z" />
    <glyph glyph-name="braceleft.uc" horiz-adv-x="210" 
d="M172 289q0 -23 -14 -111.5t-14 -112.5q0 -47 43 -47h17v-91h-44q-60 0 -92 29.5t-32 83.5q0 23 15.5 117.5t15.5 128.5q0 38 -30 38h-20v101h20q17 0 23.5 7.5t6.5 25.5q0 36 -15.5 130t-15.5 121q0 108 124 108h44v-92h-21q-39 0 -39 -38q0 -23 14 -112t14 -110
q0 -36 -11 -58t-40 -33q29 -11 40 -31.5t11 -53.5z" />
    <glyph glyph-name="braceright.uc" horiz-adv-x="210" 
d="M37 465q0 21 14.5 110t14.5 112q0 38 -39 38h-21v92h44q59 0 91.5 -27.5t32.5 -80.5q0 -27 -16 -121.5t-16 -129.5q0 -18 6.5 -25.5t23.5 -7.5h21v-101h-21q-30 0 -30 -38q0 -34 16 -128.5t16 -117.5q0 -54 -32 -83.5t-92 -29.5h-44v91h16q44 0 44 47q0 24 -14.5 112.5
t-14.5 111.5q0 34 10.5 54t40.5 31q-29 11 -40 33t-11 58z" />
    <glyph glyph-name="slash.uc" horiz-adv-x="219" 
d="M219 816l-126 -897h-94l125 897h95z" />
    <glyph glyph-name="backslash.uc" horiz-adv-x="220" 
d="M126 -81l-125 897h94l126 -897h-95z" />
    <glyph glyph-name="bar.uc" horiz-adv-x="171" 
d="M131 816v-897h-91v897h91z" />
    <glyph glyph-name="at.uc" horiz-adv-x="584" 
d="M459 76l50 -59q-10 -15 -25 -30.5t-40.5 -34t-63 -30t-79.5 -11.5h-10q-39 0 -71.5 6t-71.5 29.5t-65.5 63t-45 113t-18.5 173.5v111q0 179 71 276.5t206 97.5h18q254 0 254 -305v-104q0 -107 -19 -172t-47.5 -88t-69.5 -23h-7q-76 0 -102 67q-36 -67 -91 -67h-5
q-32 0 -56 30.5t-22 84.5l13 293q2 41 22.5 68.5t54.5 27.5h6q41 0 76 -54l2 50h123l-22 -402q0 -18 13 -18q46 0 46 200v105q0 127 -42.5 178.5t-126.5 51.5h-18q-90 0 -139 -73.5t-50 -225.5v-107q0 -81 13 -140t31.5 -90.5t45.5 -50t48 -23t46 -4.5h10q57 0 97 27.5
t61 58.5zM305 217l13 249q1 19 -2.5 26t-14.5 7q-10 0 -13.5 -7.5t-4.5 -25.5l-13 -250q-1 -20 2 -27t14 -7q17 0 19 35z" />
    <glyph glyph-name="grave.uc" horiz-adv-x="342" 
d="M202 885l43 -115h-104l-44 115h105z" />
    <glyph glyph-name="dieresis.uc" horiz-adv-x="342" 
d="M284 876v-106h-100v106h100zM159 876v-106h-100v106h100z" />
    <glyph glyph-name="macron.uc" horiz-adv-x="342" 
d="M75 777v88h193v-88h-193z" />
    <glyph glyph-name="acute.uc" horiz-adv-x="342" 
d="M96 770l43 115h106l-45 -115h-104z" />
    <glyph glyph-name="circumflex.uc" horiz-adv-x="342" 
d="M221 885l66 -115h-89l-28 47l-27 -47h-89l65 115h102z" />
    <glyph glyph-name="caron.uc" horiz-adv-x="342" 
d="M120 770l-66 115h90l27 -48l27 48h89l-66 -115h-101z" />
    <glyph glyph-name="breve.uc" horiz-adv-x="342" 
d="M174 767h-4q-47 0 -77 28t-30 75v5h85v-3q0 -26 23 -26h2q23 0 23 26v3h84v-5q0 -47 -31 -75t-75 -28z" />
    <glyph glyph-name="dotaccent.uc" horiz-adv-x="342" 
d="M235 896v-126h-128v126h128z" />
    <glyph glyph-name="ring.uc" horiz-adv-x="342" 
d="M171 811q15 0 23.5 9t8.5 24t-8.5 24t-23.5 9t-23.5 -9t-8.5 -24t8.5 -24t23.5 -9zM171 765q-35 0 -57.5 22t-22.5 57t22.5 57t57.5 22t57.5 -22t22.5 -57t-22.5 -57t-57.5 -22z" />
    <glyph glyph-name="tilde.uc" horiz-adv-x="342" 
d="M168 787q-22 9 -25 9q-8 0 -8 -11v-16h-72v34q0 77 57 77q25 0 54 -13q21 -10 27 -10t6 10v16h72v-34q0 -39 -17 -57.5t-40 -18.5q-25 0 -54 14z" />
    <glyph glyph-name="hungarumlaut.uc" horiz-adv-x="342" 
d="M58 770l24 115h90l-27 -115h-87zM169 770l26 115h89l-29 -115h-86z" />
    <glyph glyph-name="emdash.altuc" horiz-adv-x="990" 
d="M15 386h960v-90h-960v90z" />
    <glyph glyph-name="f.short" horiz-adv-x="264" 
d="M255 744v-113h-42q-12 0 -16 -5t-4 -18v-70h62v-119h-62v-419h-127v419h-60v119h60v132q0 30 20.5 52t61.5 22h107z" />
    <glyph glyph-name="f_f.short" horiz-adv-x="475" 
d="M260 744v-113h-47q-12 0 -16 -5t-4 -18v-70h84v132q0 30 20.5 52t61.5 22h107v-113h-42q-12 0 -16 -5t-4 -18v-70h62v-119h-62v-419h-127v419h-84v-419h-127v419h-60v119h60v132q0 30 20.5 52t61.5 22h112z" />
    <glyph glyph-name="j.short" horiz-adv-x="165" 
d="M147 690v-126h-128v126h128zM-26 -69h27q10 0 14 4.5t4 16.5v586h128v-654q0 -30 -20 -51t-54 -21h-99v119z" />
    <glyph glyph-name="uni0408.alt" horiz-adv-x="237" 
d="M9 0v134h54q19 0 19 25v585h138v-657q0 -87 -78 -87h-133z" />
    <glyph glyph-name="uni0414.bgr" horiz-adv-x="416" 
d="M128 0v-105h-123v239h39l78 610h169l82 -610h38v-239h-123v105h-160zM239 134l-36 367l-36 -367h72z" />
    <glyph glyph-name="uni0415.alt" horiz-adv-x="311" 
d="M21 744h275v-131h-142v-162h135v-134h-135v-183h146v-134h-279v744z" />
    <glyph glyph-name="uni0416.bgr" horiz-adv-x="561" 
d="M214 0v317l-83 -317h-140l113 406l-102 338h131l81 -287v287h133v-287l81 287h131l-102 -338l113 -406h-140l-83 317v-317h-133z" />
    <glyph glyph-name="uni041A.bgr" horiz-adv-x="372" 
d="M154 315v-315h-133v744h133v-286l87 286h131l-105 -338l116 -406h-140z" />
    <glyph glyph-name="uni041B.bgr" horiz-adv-x="355" 
d="M258 744l99 -744h-138l-49 499l-49 -499h-127l95 744h169z" />
    <glyph glyph-name="uni042F.alt" horiz-adv-x="370" 
d="M218 0v298h-23q-20 0 -27.5 -9t-7.5 -35v-197q0 -43 -12 -57h-133v5q11 20 11 55v228q0 70 52 88q-59 26 -59 100v143q0 61 31 93t91 32h210v-744h-133zM218 421v208h-30q-20 0 -26.5 -8.5t-6.5 -33.5v-121q0 -26 8 -35.5t29 -9.5h26z" />
    <glyph glyph-name="uni0430.alt" horiz-adv-x="320" 
d="M305 426v-303q0 -76 11 -118v-5h-122q-12 17 -12 61q-12 -26 -35.5 -46t-55.5 -20h-4q-35 0 -54 27.5t-19 65.5v117q0 76 56 110q13 9 55 28.5t49 24.5q8 5 8 20v29q0 17 -5 23t-17 6h-4q-22 0 -22 -29v-53h-114v74q0 44 28 75t98 31h23q76 0 106 -30.5t30 -87.5z
M182 134v131q-24 -13 -33 -25q-12 -15 -12 -41v-65q0 -32 21 -32q24 0 24 32z" />
    <glyph glyph-name="uni0430.alt2" horiz-adv-x="335" 
d="M195 538h126v-538h-126v60q-40 -71 -87 -71h-3q-38 0 -63 33.5t-25 81.5v333q0 41 21 74t56 33h7q55 0 94 -63v57zM195 143v253q0 41 -26 41q-24 0 -24 -37v-262q0 -37 24 -37q26 0 26 42z" />
    <glyph glyph-name="uni0431.alt" horiz-adv-x="337" 
d="M324 411v-271q0 -63 -36.5 -106t-106.5 -43h-20q-76 0 -112 41t-36 108v406q0 98 35 142.5t133 44.5h49q40 0 64 6q12 3 16 6v-109q-4 -2 -16 -6q-24 -6 -64 -6h-25q-39 0 -51.5 -15t-12.5 -63v-42q39 42 91 42h5q47 0 67 -33t20 -102zM168 105q27 0 27 32v259
q0 41 -27 41q-26 0 -26 -41v-259q0 -32 26 -32z" />
    <glyph glyph-name="uni0431.locl" horiz-adv-x="338" 
d="M324 399v-255q0 -67 -38 -110.5t-103 -43.5h-30q-71 0 -105.5 41.5t-34.5 110.5v254q0 77 55 112q-48 34 -48 94q0 58 36.5 90.5t106.5 32.5h27q13 0 17.5 3.5t4.5 15.5h113q0 -72 -20.5 -100t-82.5 -28h-37q-27 0 -39.5 -7.5t-12.5 -27.5q0 -28 35 -33l34 -4
q122 -15 122 -145zM142 400v-256q0 -38 26 -38q27 0 27 38v256q0 37 -27 37q-26 0 -26 -37z" />
    <glyph glyph-name="uni0431.loclalt" horiz-adv-x="337" 
d="M324 399v-255q0 -67 -38 -110.5t-103 -43.5h-30q-71 0 -105.5 41.5t-34.5 110.5v254q0 77 55 112q-48 32 -48 94q0 61 36.5 96t106.5 35h67q40 0 64 6q12 3 16 6v-109q-4 -2 -16 -6q-24 -6 -64 -6h-45q-52 0 -52 -40q0 -31 35 -36l34 -4q122 -15 122 -145zM142 400v-256
q0 -38 26 -38q27 0 27 38v256q0 37 -27 37q-26 0 -26 -37z" />
    <glyph glyph-name="uni0432.bgr" horiz-adv-x="338" 
d="M13 135v484q0 58 38 95t103 37h28q68 0 103.5 -36.5t35.5 -100.5v-106q0 -65 -43 -86q47 -24 47 -101v-185q0 -63 -41 -104t-108 -41h-14q-66 0 -107.5 36.5t-41.5 107.5zM141 607v-148h35q20 0 20 34v113q0 38 -26 38h-4q-25 0 -25 -37zM141 359v-216q0 -40 28 -40
t28 40v187q0 15 -4.5 22t-18.5 7h-33z" />
    <glyph glyph-name="uni0433.bgr" horiz-adv-x="298" 
d="M294 196v-77q0 -128 -130 -128h-26q-66 0 -99.5 39t-33.5 99v18q0 44 14.5 76.5t54.5 72.5l71 70q14 14 18.5 24t4.5 28v11q0 28 -21 28t-21 -28v-56h-114v56q0 56 30 87.5t92 31.5h27q62 0 94 -32t32 -88v-17q0 -44 -12.5 -76t-47.5 -66l-68 -65q-28 -27 -28 -67v-12
q0 -31 21 -31h1q23 0 23 30v72h118z" />
    <glyph glyph-name="uni0433.locl" horiz-adv-x="242" 
d="M16 0v538h221v-119h-93v-419h-128z" />
    <glyph glyph-name="uni0434.bgr" horiz-adv-x="338" 
d="M196 -65v125q-38 -70 -87 -70q-40 0 -66 29t-26 76v321q0 58 22 91.5t63 33.5h1q53 0 95 -68v65h126v-612q0 -51 -32 -86t-113 -35h-18q-139 0 -139 98v72h123v-44q0 -12 4.5 -17.5t17.5 -5.5h5q14 0 19 6t5 21zM196 129v270q0 34 -25 34q-24 0 -24 -33v-272
q0 -32 24 -32q25 0 25 33z" />
    <glyph glyph-name="uni0434.locl" horiz-adv-x="368" 
d="M117 -100h-117v219h16q11 9 16 47q5 51 5 372h291v-419h35v-219h-117v100h-129v-100zM147 162q-3 -25 -9 -43h62v300h-44q0 -180 -9 -257z" />
    <glyph glyph-name="uni0436.bgr" horiz-adv-x="514" 
d="M193 0v216l-72 -216h-127l96 282l-89 256h122l70 -209v415h128v-415l70 209h122l-89 -256l96 -282h-127l-72 216v-216h-128z" />
    <glyph glyph-name="uni0437.bgr" horiz-adv-x="318" 
d="M305 135v-193q0 -137 -141 -137h-21q-67 0 -99.5 37.5t-32.5 98.5v169h119v-161q0 -31 24 -31q25 0 25 27v196q0 29 -36 29h-56v112h56q20 0 28 7t8 30v87q0 37 -25 37t-25 -38v-79h-118v92q0 57 32 93.5t100 36.5h25q75 0 103.5 -33t28.5 -103v-96q0 -41 -13 -60
t-38 -28q28 -9 42 -27.5t14 -65.5z" />
    <glyph glyph-name="uni0438.bgr" horiz-adv-x="335" 
d="M321 538v-538h-124v66q-22 -33 -43.5 -50.5t-53.5 -17.5h-4q-36 0 -57 28.5t-21 64.5v447h129v-395q0 -33 22 -33q25 0 25 36v392h127z" />
    <glyph glyph-name="uni043A.bgr" horiz-adv-x="342" 
d="M146 351l75 187h122l-95 -226l102 -312h-127l-77 239v-239h-128v744h128v-393z" />
    <glyph glyph-name="uni043B.bgr" horiz-adv-x="309" 
d="M229 538l82 -538h-124l-35 343l-36 -343h-122l88 538h147z" />
    <glyph glyph-name="uni043D.bgr" horiz-adv-x="338" 
d="M144 0h-128v538h128v-206h50v206h128v-538h-128v213h-50v-213z" />
    <glyph glyph-name="uni043F.bgr" horiz-adv-x="340" 
d="M18 0v538h127v-65q45 67 97 67h7q40 0 58.5 -29t18.5 -61v-450h-129v396q0 32 -25 32q-26 0 -26 -36v-392h-128z" />
    <glyph glyph-name="uni043F.locl" horiz-adv-x="333" 
d="M144 0h-128v538h301v-538h-128v419h-45v-419z" />
    <glyph glyph-name="uni0442.bgr" horiz-adv-x="512" 
d="M18 0v538h127v-63q46 67 92 67h4q31 0 52 -19t27 -47q42 66 96 66h5q37 0 57 -24t20 -62v-456h-128v392q0 36 -24 36q-22 0 -24 -28v-400h-128v392q0 19 -4.5 27.5t-20.5 8.5q-23 0 -23 -36v-392h-128z" />
    <glyph glyph-name="uni0442.locl" horiz-adv-x="268" 
d="M70 0v419h-65v119h258v-119h-65v-419h-128z" />
    <glyph glyph-name="uni0446.bgr" horiz-adv-x="359" 
d="M354 -100h-117v100h-40v66q-22 -33 -43.5 -50.5t-53.5 -17.5h-4q-36 0 -57 28.5t-21 64.5v447h129v-395q0 -33 22 -33q25 0 25 36v392h127v-419h33v-219z" />
    <glyph glyph-name="uni0447.bgr" horiz-adv-x="325" 
d="M138 538v-202q0 -17 5.5 -23.5t19.5 -6.5q9 0 18 4v228h128v-538h-128v207q-25 -12 -63 -12q-55 0 -81.5 28.5t-26.5 90.5v224h128z" />
    <glyph glyph-name="uni0448.bgr" horiz-adv-x="512" 
d="M494 538v-538h-127v63q-46 -67 -92 -67h-4q-31 0 -52 19t-27 47q-42 -66 -96 -66h-5q-37 0 -57 24t-20 62v456h128v-392q0 -36 24 -36q22 0 24 28v400h128v-392q0 -19 4.5 -27.5t20.5 -8.5q23 0 23 36v392h128z" />
    <glyph glyph-name="uni0449.bgr" horiz-adv-x="536" 
d="M531 -100h-117v100h-47v63q-46 -67 -92 -67h-4q-31 0 -52 19t-27 47q-42 -66 -96 -66h-5q-37 0 -57 24t-20 62v456h128v-392q0 -36 24 -36q22 0 24 28v400h128v-392q0 -19 4.5 -27.5t20.5 -8.5q23 0 23 36v392h128v-419h37v-219z" />
    <glyph glyph-name="uni044A.bgr" horiz-adv-x="395" 
d="M234 -9h-18q-72 0 -106.5 39.5t-34.5 99.5v289h-70v119h198v-180h17q84 0 123.5 -31t39.5 -108v-89q0 -58 -39.5 -98.5t-109.5 -40.5zM203 255v-112q0 -38 26 -38t26 38v64q0 29 -7.5 38.5t-33.5 9.5h-11z" />
    <glyph glyph-name="uni044C.bgr" horiz-adv-x="333" 
d="M172 -9h-18q-72 0 -106.5 39.5t-34.5 99.5v408h128v-180h17q84 0 123.5 -31t39.5 -108v-89q0 -58 -39.5 -98.5t-109.5 -40.5zM141 255v-112q0 -38 26 -38t26 38v64q0 29 -7.5 38.5t-33.5 9.5h-11z" />
    <glyph glyph-name="uni044E.bgr" horiz-adv-x="503" 
d="M490 399v-255q0 -67 -38 -110.5t-103 -43.5h-30q-71 0 -105.5 41.5t-34.5 110.5v71h-35v-213h-128v744h128v-412h35v65q0 72 37 111.5t103 39.5h30q67 0 104 -39t37 -110zM308 400v-256q0 -38 26 -38q27 0 27 38v256q0 37 -27 37q-26 0 -26 -37z" />
    <glyph glyph-name="uni044F.alt" horiz-adv-x="333" 
d="M149 146v-85q0 -43 -11 -61h-128v5q11 24 11 55v82q0 50 29 73q-34 27 -34 88v98q0 71 30 104t102 33h169v-538h-128v180h-19q-13 0 -17 -8.5t-4 -25.5zM189 283v152h-14q-31 0 -31 -32v-90q0 -17 7 -23.5t24 -6.5h14z" />
    <glyph glyph-name="uni0458.short" horiz-adv-x="161" 
d="M147 690v-126h-128v126h128zM-26 -69h27q10 0 14 4.5t4 16.5v586h128v-654q0 -30 -20 -51t-54 -21h-99v119z" />
    <glyph glyph-name="f_b" horiz-adv-x="596" 
d="M255 744v-113h-42q-12 0 -16 -5t-4 -18v-70h62v-119h-62v-419h-127v419h-60v119h60v132q0 30 20.5 52t61.5 22h107zM278 744h128v-266q10 20 35 43t56 23h6q37 0 58.5 -28t21.5 -67v-338q0 -46 -28.5 -83t-70.5 -37h-2q-26 0 -47 14.5t-30.5 28t-23.5 38.5
q-13 -55 -13 -72h-90v744zM406 399v-262q0 -35 24 -35t24 33v264q0 35 -25 35q-23 0 -23 -35z" />
    <glyph glyph-name="f_h" horiz-adv-x="600" 
d="M255 744v-113h-42q-12 0 -16 -5t-4 -18v-70h62v-119h-62v-419h-127v419h-60v119h60v132q0 30 20.5 52t61.5 22h107zM278 0v744h128v-268q42 64 96 64h5q36 0 57.5 -23.5t21.5 -60.5v-456h-129v398q0 30 -25 30q-26 0 -26 -34v-394h-128z" />
    <glyph glyph-name="f_j" horiz-adv-x="421" 
d="M255 744v-113h-42q-12 0 -16 -5t-4 -18v-70h62v-119h-62v-419h-127v419h-60v119h60v132q0 30 20.5 52t61.5 22h107zM407 690v-126h-128v126h128zM209 -69h52q10 0 14 4.5t4 16.5v586h128v-654q0 -30 -20 -51t-54 -21h-124v119z" />
    <glyph glyph-name="f_k" horiz-adv-x="602" 
d="M255 744v-113h-42q-12 0 -16 -5t-4 -18v-70h62v-119h-62v-419h-127v419h-60v119h60v132q0 30 20.5 52t61.5 22h107zM406 351l75 187h122l-95 -226l102 -312h-127l-77 239v-239h-128v744h128v-393z" />
    <glyph glyph-name="f_f_b" horiz-adv-x="807" 
d="M260 744v-113h-47q-12 0 -16 -5t-4 -18v-70h84v132q0 30 20.5 52t61.5 22h107v-113h-42q-12 0 -16 -5t-4 -18v-70h62v-119h-62v-419h-127v419h-84v-419h-127v419h-60v119h60v132q0 30 20.5 52t61.5 22h112zM489 744h128v-266q10 20 35 43t56 23h6q37 0 58.5 -28t21.5 -67
v-338q0 -46 -28.5 -83t-70.5 -37h-2q-26 0 -47 14.5t-30.5 28t-23.5 38.5q-13 -55 -13 -72h-90v744zM617 399v-262q0 -35 24 -35t24 33v264q0 35 -25 35q-23 0 -23 -35z" />
    <glyph glyph-name="f_f_h" horiz-adv-x="811" 
d="M260 744v-113h-47q-12 0 -16 -5t-4 -18v-70h84v132q0 30 20.5 52t61.5 22h107v-113h-42q-12 0 -16 -5t-4 -18v-70h62v-119h-62v-419h-127v419h-84v-419h-127v419h-60v119h60v132q0 30 20.5 52t61.5 22h112zM489 0v744h128v-268q42 64 96 64h5q36 0 57.5 -23.5t21.5 -60.5
v-456h-129v398q0 30 -25 30q-26 0 -26 -34v-394h-128z" />
    <glyph glyph-name="f_f_k" horiz-adv-x="813" 
d="M260 744v-113h-47q-12 0 -16 -5t-4 -18v-70h84v132q0 30 20.5 52t61.5 22h107v-113h-42q-12 0 -16 -5t-4 -18v-70h62v-119h-62v-419h-127v419h-84v-419h-127v419h-60v119h60v132q0 30 20.5 52t61.5 22h112zM617 351l75 187h122l-95 -226l102 -312h-127l-77 239v-239h-128
v744h128v-393z" />
    <glyph glyph-name="f_f_j" horiz-adv-x="632" 
d="M260 744v-113h-47q-12 0 -16 -5t-4 -18v-70h84v132q0 30 20.5 52t61.5 22h107v-113h-42q-12 0 -16 -5t-4 -18v-70h62v-119h-62v-419h-127v419h-84v-419h-127v419h-60v119h60v132q0 30 20.5 52t61.5 22h112zM618 690v-126h-128v126h128zM420 -69h52q10 0 14 4.5t4 16.5
v586h128v-654q0 -30 -20 -51t-54 -21h-124v119z" />
    <glyph glyph-name="uni0401.alt" horiz-adv-x="315" 
d="M21 744h275v-131h-142v-162h135v-134h-135v-183h146v-134h-279v744zM275 876v-106h-100v106h100zM150 876v-106h-100v106h100z" />
    <glyph glyph-name="uni0439.bgr" 
d="M321 538v-538h-124v66q-22 -33 -43.5 -50.5t-53.5 -17.5h-4q-36 0 -57 28.5t-21 64.5v447h129v-395q0 -33 22 -33q25 0 25 36v392h127zM172 563h-3q-49 0 -78.5 28t-29.5 81v8h85v-6q0 -33 24 -33h1q24 0 24 33v6h83v-8q0 -52 -30.5 -80.5t-75.5 -28.5z" />
    </font>
</defs>
</svg>
